<svg width="1850" height="1613" xmlns="http://www.w3.org/2000/svg" xmlns:xlink="http://www.w3.org/1999/xlink" xml:space="preserve" overflow="hidden"><g transform="translate(-1091 -353)"><rect x="1224.5" y="1310.5" width="1617" height="483" stroke="#A6A6A6" stroke-width="6.875" stroke-miterlimit="8" fill="#F2F2F2"/><path d="M1377.63 1543.38C1384.39 1433.73 1624.41 1359.28 1913.72 1377.11 2203.04 1394.94 2432.1 1498.29 2425.34 1607.94 2418.58 1717.6 2178.57 1792.04 1889.25 1774.21 1599.94 1756.38 1370.88 1653.04 1377.63 1543.38Z" stroke="#1F4E79" stroke-width="4.58333" stroke-miterlimit="8" stroke-dasharray="18.3333 13.75" fill="#DEEBF7" fill-rule="evenodd"/><path d="M1573.08 1629.09C1564.36 1544.52 1691.76 1462.09 1857.63 1444.99 2023.51 1427.88 2165.05 1482.57 2173.77 1567.14 2182.49 1651.7 2055.09 1734.13 1889.22 1751.23 1723.34 1768.34 1581.8 1713.65 1573.08 1629.09Z" stroke="#C55A11" stroke-width="4.58333" stroke-miterlimit="8" stroke-dasharray="18.3333 13.75" fill="#FBE5D6" fill-rule="evenodd"/><path d="M2193.5 856.5C2286.36 858.391 2379.22 860.282 2449.81 867.846 2520.41 875.409 2545.14 877.773 2617.09 901.882 2689.04 925.991 2785.27 969.245 2881.5 1012.5" stroke="#172C51" stroke-width="4.58333" stroke-miterlimit="8" stroke-dasharray="18.3333 13.75" fill="none" fill-rule="evenodd"/><path d="M2211.5 384.5C2258.26 484.285 2305.01 584.07 2358.06 647.07 2411.11 710.07 2447.23 762.288 2529.8 762.5 2612.38 762.711 2732.94 705.525 2853.5 648.339" stroke="#172C51" stroke-width="4.58333" stroke-miterlimit="8" stroke-dasharray="18.3333 13.75" fill="none" fill-rule="evenodd"/><path d="M3.4375-2.07544e-06 3.43785 574.819-3.43715 574.819-3.4375 2.07544e-06ZM13.7503 570.236 0.000360892 597.736-13.7497 570.236Z" transform="matrix(1 0 0 -1 2177.5 1020.24)"/><path d="M1224.5 1020.06 1905.42 1020.06 1905.42 1026.94 1224.5 1026.94ZM1900.84 1009.75 1928.34 1023.5 1900.84 1037.25Z"/><path d="M3.4375-2.07544e-06 3.43785 574.819-3.43715 574.819-3.4375 2.07544e-06ZM13.7503 570.236 0.000360892 597.736-13.7497 570.236Z" transform="matrix(1 0 0 -1 1224.5 1026.24)"/><text font-family="Times New Roman,Times New Roman_MSFontService,sans-serif" font-weight="400" font-size="83" transform="matrix(-1.83697e-16 -1 1 -1.83697e-16 2147.72 617)">error</text><text font-family="Times New Roman,Times New Roman_MSFontService,sans-serif" font-weight="400" font-size="83" transform="matrix(-1.83697e-16 -1 1 -1.83697e-16 1196.61 614)">error</text><path d="M1248 995C1318.66 920.833 1389.32 846.667 1495.98 809 1602.65 771.333 1745.33 770.166 1888 769" stroke="#172C51" stroke-width="10.3125" stroke-miterlimit="8" fill="none" fill-rule="evenodd"/><path d="M1269.5 400.5C1319.52 483.833 1369.53 567.167 1473.37 618.5 1577.2 669.833 1824.33 692.833 1892.5 708.5" stroke="#172C51" stroke-width="4.58333" stroke-miterlimit="8" stroke-dasharray="18.3333 13.75" fill="none" fill-rule="evenodd"/><path d="M1353 422 1435 422" stroke="#172C51" stroke-width="10.3125" stroke-miterlimit="8" fill="none" fill-rule="evenodd"/><text font-family="Times New Roman,Times New Roman_MSFontService,sans-serif" font-weight="400" font-size="55" transform="matrix(1 0 0 1 1454.93 437)">training error</text><path d="M1353.5 480.5 1435.5 480.5" stroke="#172C51" stroke-width="4.58333" stroke-miterlimit="8" stroke-dasharray="18.3333 13.75" fill="none" fill-rule="evenodd"/><text font-family="Times New Roman,Times New Roman_MSFontService,sans-serif" font-weight="400" font-size="55" transform="matrix(1 0 0 1 1450.92 492)">generalization bound</text><path d="M2310 408 2392 408" stroke="#172C51" stroke-width="10.3125" stroke-miterlimit="8" fill="none" fill-rule="evenodd"/><text font-family="Times New Roman,Times New Roman_MSFontService,sans-serif" font-weight="400" font-size="55" transform="matrix(1 0 0 1 2412.03 423)">training error</text><path d="M2310.5 466.5 2392.5 466.5" stroke="#172C51" stroke-width="4.58333" stroke-miterlimit="8" stroke-dasharray="18.3333 13.75" fill="none" fill-rule="evenodd"/><text font-family="Times New Roman,Times New Roman_MSFontService,sans-serif" font-weight="400" font-size="55" transform="matrix(1 0 0 1 2408.02 478)">generalization bound</text><path d="M0 0 1.19564 451.539" stroke="#C00000" stroke-width="4.58333" stroke-miterlimit="8" fill="none" fill-rule="evenodd" transform="matrix(-1 0 0 1 2296.7 566.5)"/><path d="M2280 548.5C2280 538.835 2287.39 531 2296.5 531 2305.61 531 2313 538.835 2313 548.5 2313 558.165 2305.61 566 2296.5 566 2287.39 566 2280 558.165 2280 548.5Z" fill="#C00000" fill-rule="evenodd"/><path d="M2270.14 1027.89 2300.7 1027.89 2300.7 1029.2C2299.38 1029.53 2298.53 1029.96 2298.15 1030.51 2297.77 1031.05 2297.59 1032.42 2297.59 1034.6L2297.59 1057.83C2297.59 1059.96 2297.77 1061.32 2298.15 1061.89 2298.53 1062.46 2299.38 1062.91 2300.7 1063.23L2300.7 1064.55 2289.42 1064.55 2289.42 1063.23C2290.69 1062.93 2291.53 1062.51 2291.93 1061.98 2292.34 1061.45 2292.54 1060.07 2292.54 1057.83L2292.54 1030.36 2278.3 1030.36 2278.3 1057.83C2278.3 1060.07 2278.51 1061.45 2278.93 1061.98 2279.36 1062.51 2280.19 1062.93 2281.45 1063.23L2281.45 1064.55 2270.14 1064.55 2270.14 1063.23C2271.45 1062.91 2272.3 1062.48 2272.69 1061.94 2273.08 1061.4 2273.28 1060.04 2273.28 1057.83L2273.28 1034.6C2273.28 1032.36 2273.07 1030.98 2272.65 1030.45 2272.23 1029.93 2271.39 1029.51 2270.14 1029.2Z" fill="#C00000" fill-rule="evenodd"/><text fill="#000000" fill-opacity="0" font-family="Arial,Arial_MSFontService,sans-serif" font-size="36.6577" x="2270.14" y="1059.96">Π</text><path d="M2336.61 1048.8C2337.63 1048.8 2338.53 1049.08 2339.32 1049.62 2340.12 1050.17 2340.83 1051.02 2341.45 1052.16L2338.54 1053.41C2338.01 1052.33 2337.52 1051.58 2337.09 1051.16 2336.65 1050.73 2336.12 1050.52 2335.5 1050.52 2335.18 1050.52 2334.89 1050.57 2334.62 1050.66 2334.34 1050.75 2334.11 1050.9 2333.91 1051.11 2333.72 1051.32 2333.54 1051.58 2333.39 1051.9 2333.23 1052.22 2333.07 1052.67 2332.92 1053.25 2332.76 1053.83 2332.53 1054.81 2332.23 1056.21L2329.7 1067.92C2329.53 1068.72 2329.39 1069.46 2329.3 1070.15 2329.2 1070.84 2329.15 1071.39 2329.15 1071.81 2329.15 1072.44 2329.29 1072.91 2329.56 1073.25 2329.83 1073.58 2330.26 1073.74 2330.83 1073.74 2331.27 1073.74 2331.68 1073.62 2332.07 1073.38 2332.45 1073.14 2333.14 1072.5 2334.13 1071.46L2335.28 1072.53C2334.32 1073.61 2333.54 1074.37 2332.94 1074.81 2332.34 1075.25 2331.73 1075.57 2331.1 1075.78 2330.48 1075.98 2329.78 1076.09 2329.01 1076.09 2328.04 1076.09 2327.22 1075.73 2326.57 1075 2325.92 1074.28 2325.59 1073.33 2325.59 1072.16 2325.59 1071.73 2325.64 1071.15 2325.74 1070.4 2325.84 1069.66 2325.96 1068.99 2326.1 1068.37L2327.27 1062.94 2317.9 1062.94 2316.61 1068.94C2316.41 1069.85 2316.17 1070.68 2315.87 1071.41 2315.57 1072.15 2315.19 1072.8 2314.73 1073.38 2314.28 1073.96 2313.68 1074.48 2312.93 1074.94 2312.18 1075.39 2311.49 1075.7 2310.87 1075.85 2310.24 1076.01 2309.58 1076.09 2308.88 1076.09 2307.89 1076.09 2307 1075.81 2306.22 1075.26 2305.44 1074.71 2304.74 1073.86 2304.13 1072.73L2306.79 1071.21C2307.33 1072.29 2307.86 1073.08 2308.37 1073.6 2308.88 1074.11 2309.44 1074.37 2310.05 1074.37 2310.36 1074.37 2310.67 1074.31 2310.98 1074.18 2311.3 1074.06 2311.58 1073.82 2311.83 1073.45 2312.09 1073.09 2312.31 1072.57 2312.5 1071.91 2312.69 1071.24 2312.94 1070.17 2313.25 1068.69L2315.83 1056.24C2316.02 1055.29 2316.3 1054.38 2316.67 1053.51 2317.03 1052.64 2317.38 1052.01 2317.72 1051.62L2317.68 1051.42C2315.52 1051.42 2313.89 1051.52 2312.77 1051.71 2311.66 1051.91 2310.86 1052.24 2310.37 1052.71 2309.88 1053.18 2309.64 1053.86 2309.64 1054.74 2309.64 1055.4 2309.86 1056.21 2310.32 1057.16L2307.31 1058.33C2307.03 1057.87 2306.82 1057.43 2306.7 1057.02 2306.57 1056.61 2306.51 1056.15 2306.51 1055.66 2306.51 1055.2 2306.63 1054.72 2306.87 1054.22 2307.11 1053.72 2307.53 1053.18 2308.11 1052.61 2308.79 1051.95 2309.64 1051.31 2310.65 1050.7 2311.47 1050.2 2312.25 1049.85 2313 1049.63 2313.74 1049.42 2314.56 1049.27 2315.46 1049.19 2316.06 1049.14 2316.97 1049.12 2318.19 1049.12L2320.42 1049.12 2320.95 1050.27C2320.71 1050.78 2320.51 1051.35 2320.34 1051.98 2320.17 1052.61 2320 1053.3 2319.83 1054.06L2318.43 1060.66 2327.78 1060.66 2328.8 1056.03C2329.02 1055.04 2329.29 1054.18 2329.6 1053.45 2329.91 1052.72 2330.29 1052.07 2330.74 1051.51 2331.19 1050.94 2331.79 1050.43 2332.54 1049.97 2333.29 1049.5 2333.98 1049.19 2334.61 1049.04 2335.24 1048.88 2335.91 1048.8 2336.61 1048.8Z" fill="#C00000" fill-rule="evenodd"/><text fill="#000000" fill-opacity="0" font-family="Arial,Arial_MSFontService,sans-serif" font-size="27.2852" x="2304.13" y="1072.68">ℋ</text><path d="M2348.07 1065.7C2347.1 1065.7 2346.32 1066.03 2345.75 1066.69 2345.17 1067.35 2344.77 1068.28 2344.53 1069.48 2344.29 1070.68 2344.18 1072.16 2344.18 1073.93 2344.18 1076.97 2344.49 1079.18 2345.12 1080.57 2345.75 1081.95 2346.74 1082.64 2348.11 1082.64 2349.4 1082.64 2350.35 1081.99 2350.97 1080.71 2351.58 1079.43 2351.89 1077.37 2351.89 1074.55 2351.89 1071.54 2351.58 1069.31 2350.97 1067.87 2350.35 1066.42 2349.39 1065.7 2348.07 1065.7ZM2348.11 1064.01C2349.47 1064.01 2350.62 1064.25 2351.54 1064.73 2352.46 1065.22 2353.21 1065.9 2353.79 1066.77 2354.36 1067.65 2354.77 1068.69 2355.01 1069.91 2355.25 1071.12 2355.37 1072.45 2355.37 1073.9 2355.37 1077.35 2354.73 1079.95 2353.43 1081.7 2352.14 1083.45 2350.28 1084.33 2347.85 1084.33 2345.45 1084.33 2343.66 1083.5 2342.48 1081.83 2341.29 1080.17 2340.69 1077.67 2340.69 1074.34 2340.69 1072.02 2341.01 1070.08 2341.65 1068.54 2342.28 1066.99 2343.15 1065.85 2344.26 1065.11 2345.36 1064.38 2346.65 1064.01 2348.11 1064.01Z" fill="#C00000" fill-rule="evenodd"/><text fill="#000000" fill-opacity="0" font-family="Arial,Arial_MSFontService,sans-serif" font-size="20.3188" x="2340.69" y="1081.79">0</text><path d="M2504.5 784.5 2504.5 1017.51" stroke="#C00000" stroke-width="4.58333" stroke-miterlimit="8" fill="none" fill-rule="evenodd"/><path d="M2488 767C2488 757.611 2495.16 750 2504 750 2512.84 750 2520 757.611 2520 767 2520 776.389 2512.84 784 2504 784 2495.16 784 2488 776.389 2488 767Z" fill="#C00000" fill-rule="evenodd"/><path d="M2448.85 688.269 2450.46 688.269 2450.46 705.241 2450.57 705.268C2451.96 703.854 2453.07 702.865 2453.88 702.301 2454.7 701.737 2455.5 701.311 2456.3 701.025 2457.1 700.739 2457.95 700.595 2458.86 700.595 2459.85 700.595 2460.73 700.712 2461.5 700.944 2462.27 701.177 2462.94 701.531 2463.52 702.005 2464.11 702.48 2464.58 703.062 2464.95 703.751 2465.31 704.44 2465.59 705.264 2465.77 706.222 2465.95 707.179 2466.03 708.392 2466.03 709.86L2466.03 719.985C2466.03 721.543 2466.1 722.603 2466.24 723.167 2466.37 723.731 2466.61 724.17 2466.96 724.483 2467.31 724.797 2468.01 725.096 2469.07 725.383L2469.07 726.699 2458.49 726.699 2458.49 725.383C2459.19 725.168 2459.69 724.98 2459.99 724.819 2460.3 724.658 2460.55 724.434 2460.76 724.148 2460.96 723.861 2461.12 723.418 2461.24 722.818 2461.36 722.218 2461.42 721.31 2461.42 720.092L2461.42 713.056C2461.42 710.675 2461.29 708.853 2461.05 707.591 2460.81 706.329 2460.34 705.385 2459.63 704.758 2458.92 704.131 2457.93 703.818 2456.66 703.818 2455.95 703.818 2455.3 703.943 2454.73 704.194 2454.16 704.445 2453.49 704.892 2452.74 705.537 2451.99 706.181 2451.42 706.844 2451.04 707.524 2450.65 708.204 2450.46 708.93 2450.46 709.699L2450.46 719.985C2450.46 721.202 2450.49 722.071 2450.55 722.59 2450.62 723.109 2450.74 723.543 2450.92 723.892 2451.09 724.242 2451.37 724.528 2451.73 724.752 2452.1 724.976 2452.67 725.186 2453.44 725.383L2453.44 726.699 2442.8 726.699 2442.8 725.383C2443.59 725.168 2444.16 724.962 2444.5 724.765 2444.84 724.568 2445.1 724.318 2445.29 724.013 2445.48 723.709 2445.62 723.27 2445.71 722.697 2445.79 722.124 2445.84 721.22 2445.84 719.985L2445.84 697.507C2445.84 695.788 2445.83 694.589 2445.8 693.908 2445.77 693.228 2445.7 692.651 2445.58 692.176 2445.47 691.702 2445.31 691.33 2445.1 691.062 2444.9 690.793 2444.62 690.578 2444.27 690.417 2443.92 690.256 2443.29 690.095 2442.38 689.934L2442.38 688.537Z" fill="#C00000" fill-rule="evenodd"/><text fill="#000000" fill-opacity="0" font-family="Arial,Arial_MSFontService,sans-serif" font-size="38.4302" x="2442.38" y="721.895">h</text><path d="M2482.92 712.772 2484.11 712.772C2484.09 713.488 2484.07 714.129 2484.05 714.696 2484.04 715.262 2484.03 715.812 2484.02 716.346 2484.02 716.88 2484.02 717.407 2484.02 717.928L2484.02 732.772C2484.02 733.175 2484.03 733.524 2484.05 733.817 2484.08 734.11 2484.12 734.357 2484.18 734.559 2484.24 734.761 2484.32 734.933 2484.42 735.076 2484.51 735.22 2484.63 735.343 2484.76 735.448 2484.91 735.604 2485.12 735.724 2485.38 735.809 2485.64 735.893 2485.97 735.965 2486.38 736.024 2486.78 736.082 2487.27 736.128 2487.83 736.16 2488.4 736.193 2489.08 736.216 2489.87 736.229L2489.87 737.928 2474.39 737.928 2474.39 736.229C2475.15 736.203 2475.81 736.173 2476.34 736.141 2476.87 736.108 2477.33 736.063 2477.71 736.004 2478.08 735.946 2478.39 735.88 2478.61 735.809 2478.84 735.737 2479.04 735.649 2479.21 735.545 2479.39 735.428 2479.55 735.301 2479.68 735.164 2479.81 735.028 2479.91 734.855 2479.99 734.647 2480.07 734.438 2480.13 734.185 2480.18 733.885 2480.22 733.586 2480.25 733.214 2480.25 732.772L2480.25 718.768C2480.25 718.26 2480.15 717.902 2479.95 717.694 2479.76 717.485 2479.48 717.381 2479.11 717.381 2478.71 717.381 2478.11 717.589 2477.32 718.006 2476.52 718.423 2475.49 719.041 2474.23 719.862 2474.06 719.562 2473.9 719.263 2473.76 718.963 2473.62 718.664 2473.47 718.358 2473.31 718.045 2474.93 717.16 2476.52 716.278 2478.11 715.399 2479.69 714.52 2481.29 713.644 2482.92 712.772Z" fill="#C00000" fill-rule="evenodd"/><text fill="#000000" fill-opacity="0" font-family="Arial,Arial_MSFontService,sans-serif" font-size="25.1562" x="2473.31" y="734.783">1</text><path d="M2530.11 695.063 2541.12 695.063 2541.12 698.796 2530.09 698.796C2528.31 698.796 2526.88 698.894 2525.78 699.091 2524.68 699.288 2523.76 699.606 2523.02 700.045 2522.29 700.483 2521.62 701.106 2521.02 701.911 2520.42 702.717 2519.95 703.706 2519.61 704.879 2519.27 706.051 2519.06 707.381 2518.97 708.867L2541.12 708.867 2541.12 712.6 2518.94 712.6C2519.03 714.265 2519.27 715.742 2519.67 717.031 2520.06 718.32 2520.66 719.417 2521.45 720.321 2522.25 721.225 2523.28 721.892 2524.54 722.321 2525.8 722.751 2527.54 722.966 2529.76 722.966L2541.12 722.966 2541.12 726.699 2529.66 726.699C2527.9 726.699 2526.38 726.591 2525.09 726.377 2523.8 726.162 2522.64 725.813 2521.6 725.329 2520.56 724.846 2519.58 724.116 2518.66 723.141 2517.74 722.165 2516.99 721.086 2516.42 719.904 2515.84 718.723 2515.41 717.389 2515.13 715.903 2514.84 714.417 2514.7 712.806 2514.7 711.069 2514.7 708.24 2514.98 705.899 2515.53 704.046 2516.09 702.193 2517.02 700.546 2518.32 699.105 2519.63 697.664 2521.2 696.63 2523.02 696.003 2524.85 695.376 2527.21 695.063 2530.11 695.063Z" fill="#C00000" fill-rule="evenodd"/><text fill="#000000" fill-opacity="0" font-family="Arial,Arial_MSFontService,sans-serif" font-size="31.6357" x="2514.7" y="722.744">∈</text><path d="M2605.13 689.611C2606.52 689.611 2607.77 689.987 2608.86 690.739 2609.95 691.491 2610.93 692.655 2611.79 694.231L2607.78 695.949C2607.05 694.463 2606.38 693.429 2605.78 692.848 2605.18 692.266 2604.45 691.975 2603.59 691.975 2603.17 691.975 2602.76 692.037 2602.39 692.163 2602.01 692.288 2601.69 692.494 2601.42 692.78 2601.15 693.067 2600.91 693.429 2600.69 693.868 2600.48 694.307 2600.26 694.924 2600.05 695.721 2599.83 696.518 2599.52 697.874 2599.11 699.79L2595.62 715.903C2595.39 716.995 2595.2 718.016 2595.07 718.964 2594.93 719.913 2594.87 720.674 2594.87 721.247 2594.87 722.107 2595.05 722.765 2595.43 723.221 2595.81 723.678 2596.39 723.906 2597.18 723.906 2597.78 723.906 2598.35 723.74 2598.88 723.409 2599.41 723.078 2600.35 722.196 2601.71 720.764L2603.3 722.241C2601.97 723.727 2600.9 724.77 2600.08 725.37 2599.25 725.969 2598.41 726.412 2597.55 726.699 2596.69 726.985 2595.74 727.129 2594.68 727.129 2593.34 727.129 2592.22 726.632 2591.32 725.638 2590.43 724.644 2589.98 723.342 2589.98 721.731 2589.98 721.14 2590.05 720.334 2590.18 719.314 2590.31 718.293 2590.48 717.362 2590.68 716.521L2592.29 709.055 2579.4 709.055 2577.63 717.299C2577.36 718.553 2577.02 719.685 2576.6 720.697 2576.19 721.708 2575.67 722.612 2575.05 723.409 2574.42 724.206 2573.59 724.917 2572.56 725.544 2571.53 726.171 2570.59 726.591 2569.73 726.806 2568.87 727.021 2567.96 727.129 2566.99 727.129 2565.63 727.129 2564.41 726.748 2563.34 725.987 2562.26 725.226 2561.31 724.067 2560.46 722.509L2564.12 720.415C2564.87 721.901 2565.59 722.997 2566.29 723.704 2566.99 724.412 2567.76 724.765 2568.6 724.765 2569.03 724.765 2569.46 724.68 2569.89 724.51 2570.32 724.34 2570.71 724.004 2571.06 723.503 2571.41 723.002 2571.71 722.295 2571.97 721.381 2572.23 720.468 2572.58 718.991 2573.01 716.95L2576.55 699.843C2576.82 698.536 2577.2 697.283 2577.71 696.084 2578.21 694.884 2578.69 694.016 2579.16 693.479L2579.1 693.21C2576.13 693.21 2573.88 693.344 2572.35 693.613 2570.82 693.881 2569.72 694.338 2569.05 694.983 2568.37 695.627 2568.04 696.558 2568.04 697.776 2568.04 698.689 2568.35 699.799 2568.98 701.106L2564.84 702.717C2564.45 702.072 2564.17 701.468 2564 700.904 2563.83 700.34 2563.74 699.718 2563.74 699.038 2563.74 698.411 2563.91 697.753 2564.24 697.064 2564.57 696.375 2565.14 695.636 2565.94 694.848 2566.87 693.935 2568.04 693.058 2569.43 692.216 2570.56 691.536 2571.64 691.048 2572.66 690.753 2573.68 690.457 2574.81 690.256 2576.04 690.149 2576.86 690.077 2578.12 690.041 2579.8 690.041L2582.86 690.041 2583.59 691.626C2583.27 692.324 2582.99 693.107 2582.75 693.975 2582.52 694.844 2582.29 695.797 2582.06 696.836L2580.12 705.913 2592.99 705.913 2594.38 699.548C2594.69 698.187 2595.05 697.006 2595.48 696.003 2595.91 695 2596.44 694.11 2597.06 693.331 2597.67 692.552 2598.5 691.845 2599.53 691.209 2600.56 690.574 2601.5 690.149 2602.37 689.934 2603.24 689.719 2604.16 689.611 2605.13 689.611Z" fill="#C00000" fill-rule="evenodd"/><text fill="#000000" fill-opacity="0" font-family="Arial,Arial_MSFontService,sans-serif" font-size="37.5171" x="2560.46" y="722.439">ℋ</text><path d="M2619.64 712.772 2620.83 712.772C2620.81 713.488 2620.79 714.129 2620.77 714.696 2620.76 715.262 2620.75 715.812 2620.75 716.346 2620.74 716.88 2620.74 717.407 2620.74 717.928L2620.74 732.772C2620.74 733.175 2620.75 733.524 2620.77 733.817 2620.8 734.11 2620.84 734.357 2620.9 734.559 2620.96 734.761 2621.04 734.933 2621.14 735.076 2621.23 735.22 2621.35 735.343 2621.48 735.448 2621.63 735.604 2621.84 735.724 2622.1 735.809 2622.36 735.893 2622.7 735.965 2623.1 736.024 2623.5 736.082 2623.99 736.128 2624.55 736.16 2625.12 736.193 2625.8 736.216 2626.6 736.229L2626.6 737.928 2611.11 737.928 2611.11 736.229C2611.88 736.203 2612.53 736.173 2613.06 736.141 2613.59 736.108 2614.05 736.063 2614.43 736.004 2614.8 735.946 2615.11 735.88 2615.34 735.809 2615.56 735.737 2615.76 735.649 2615.93 735.545 2616.11 735.428 2616.27 735.301 2616.4 735.164 2616.53 735.028 2616.63 734.855 2616.71 734.647 2616.79 734.438 2616.85 734.185 2616.9 733.885 2616.94 733.586 2616.97 733.214 2616.97 732.772L2616.97 718.768C2616.97 718.26 2616.87 717.902 2616.67 717.694 2616.48 717.485 2616.2 717.381 2615.83 717.381 2615.43 717.381 2614.83 717.589 2614.04 718.006 2613.24 718.423 2612.21 719.041 2610.95 719.862 2610.78 719.562 2610.63 719.263 2610.48 718.963 2610.34 718.664 2610.19 718.358 2610.03 718.045 2611.65 717.16 2613.25 716.278 2614.83 715.399 2616.41 714.52 2618.01 713.644 2619.64 712.772Z" fill="#C00000" fill-rule="evenodd"/><text fill="#000000" fill-opacity="0" font-family="Arial,Arial_MSFontService,sans-serif" font-size="25.1562" x="2610.03" y="734.783">1</text><path d="M2650.5 754.5 2650.5 1017.05" stroke="#C00000" stroke-width="4.58333" stroke-miterlimit="8" fill="none" fill-rule="evenodd"/><path d="M2633 736.5C2633 726.835 2640.39 719 2649.5 719 2658.61 719 2666 726.835 2666 736.5 2666 746.165 2658.61 754 2649.5 754 2640.39 754 2633 746.165 2633 736.5Z" fill="#C00000" fill-rule="evenodd"/><path d="M1883.5 838.5C1768.05 840.943 1652.61 843.386 1567.78 874.72 1482.94 906.053 1428.72 966.276 1374.5 1026.5" stroke="#172C51" stroke-width="4.58333" stroke-miterlimit="8" stroke-dasharray="18.3333 13.75" fill="none" fill-rule="evenodd"/><path d="M2201 561C2243.64 639.912 2286.28 718.825 2342.94 764.55 2399.59 810.275 2453.77 820.108 2540.95 835.35 2628.12 850.592 2747.06 853.296 2866 856" stroke="#172C51" stroke-width="10.3125" stroke-miterlimit="8" fill="none" fill-rule="evenodd"/><path d="M2.85687 22.8531 5.67792 137.06 1.09599 137.173-1.72507 22.9663ZM-13.0667 27.8312 0 0 14.4249 27.1521ZM17.0196 132.195 3.95285 160.026-10.472 132.874Z" fill="#C00000" transform="matrix(-1 0 0 1 1384.45 868.5)"/><path d="M1386.79 581.417 1386.79 835.278 1382.21 835.278 1382.21 581.417ZM1370.75 586 1384.5 558.5 1398.25 586ZM1398.25 830.695 1384.5 858.195 1370.75 830.695Z" fill="#C00000"/><path d="M1786.79 715.417 1786.79 746.432 1782.21 746.432 1782.21 715.417ZM1770.75 720 1784.5 692.5 1798.25 720ZM1798.25 741.848 1784.5 769.348 1770.75 741.848Z" fill="#C00000"/><path d="M1786.79 796.417 1786.79 819.557 1782.21 819.557 1782.21 796.417ZM1770.75 801 1784.5 773.5 1798.25 801ZM1798.25 814.974 1784.5 842.474 1770.75 814.974Z" fill="#C00000"/><path d="M1464.07 861.174C1465.25 860.561 1466.37 860.1 1467.43 859.789 1468.49 859.479 1470.07 859.189 1472.17 858.921 1473.23 858.79 1473.91 858.647 1474.21 858.489 1474.52 858.332 1474.7 858.058 1474.77 857.669 1474.84 857.279 1474.69 856.667 1474.31 855.833L1475.19 855.373 1481.34 865.129 1480.51 865.564C1478.34 863.463 1476.26 862.118 1474.26 861.528 1471.37 860.672 1468.41 861.031 1465.4 862.605 1461.29 864.75 1459.01 868.008 1458.56 872.38 1458.2 876.062 1459.01 879.8 1460.99 883.594 1462.6 886.673 1464.66 889.172 1467.17 891.091 1469.69 893.009 1472.22 894.057 1474.76 894.233 1477.31 894.41 1479.6 893.968 1481.63 892.908 1482.82 892.287 1483.89 891.535 1484.85 890.654 1485.8 889.773 1486.64 888.769 1487.37 887.644L1482.5 878.31C1481.65 876.691 1480.98 875.696 1480.47 875.324 1479.96 874.953 1479.38 874.77 1478.73 874.778 1478.08 874.785 1477.1 875.128 1475.8 875.807L1475.33 874.902 1487.83 868.381 1488.3 869.286 1487.7 869.596C1486.47 870.242 1485.83 871.098 1485.8 872.163 1485.79 872.916 1486.24 874.158 1487.14 875.888L1492.29 885.769C1490.98 887.706 1489.56 889.368 1488.02 890.756 1486.48 892.143 1484.63 893.405 1482.45 894.539 1476.21 897.794 1470.43 898.266 1465.11 895.955 1461.11 894.222 1458.09 891.395 1456.05 887.474 1454.57 884.633 1453.83 881.555 1453.83 878.239 1453.84 874.299 1454.82 870.759 1456.77 867.618 1458.42 865.003 1460.85 862.855 1464.07 861.174Z" fill="#C00000" fill-rule="evenodd"/><text fill="#000000" fill-opacity="0" font-family="Arial,Arial_MSFontService,sans-serif" font-size="42.0209" x="1453.83" y="892.141">G</text><path d="M1505.47 866.557C1503.43 868.628 1502.14 870.027 1501.59 870.754 1500.62 872.044 1500.02 873.205 1499.81 874.237 1499.6 875.268 1499.7 876.251 1500.11 877.186 1500.63 878.366 1501.41 879.19 1502.46 879.659 1503.5 880.128 1504.49 880.161 1505.4 879.757 1506.65 879.21 1507.93 877.67 1509.24 875.138ZM1497.74 858.309C1499.74 857.43 1501.53 857.046 1503.1 857.156 1504.29 857.239 1505.35 857.721 1506.29 858.601 1506.89 859.176 1507.67 860.554 1508.63 862.734L1511.99 870.38C1512.93 872.527 1513.55 873.825 1513.85 874.272 1514.14 874.72 1514.42 874.984 1514.68 875.065 1514.94 875.146 1515.19 875.133 1515.44 875.024 1515.7 874.909 1515.91 874.751 1516.05 874.55 1516.3 874.185 1516.7 873.295 1517.26 871.88L1517.86 873.257C1517.1 876.522 1515.89 878.522 1514.22 879.257 1513.42 879.61 1512.65 879.612 1511.93 879.264 1511.21 878.915 1510.55 878.073 1509.94 876.736 1508.42 879.538 1507.42 881.208 1506.95 881.746 1506.25 882.545 1505.4 883.164 1504.4 883.603 1502.84 884.288 1501.32 884.319 1499.85 883.696 1498.37 883.074 1497.25 881.894 1496.49 880.156 1496 879.058 1495.83 878 1495.97 876.98 1496.15 875.57 1496.86 874.008 1498.09 872.294 1499.32 870.579 1501.56 868.167 1504.81 865.057L1504.42 864.172C1503.44 861.927 1502.4 860.543 1501.32 860.02 1500.24 859.498 1499.02 859.535 1497.66 860.133 1496.63 860.587 1495.93 861.226 1495.57 862.05 1495.19 862.881 1495.16 863.657 1495.48 864.378L1496.15 865.782C1496.48 866.536 1496.55 867.203 1496.34 867.782 1496.14 868.361 1495.72 868.787 1495.1 869.061 1494.49 869.327 1493.9 869.332 1493.33 869.075 1492.76 868.818 1492.31 868.321 1491.99 867.584 1491.37 866.174 1491.52 864.562 1492.44 862.748 1493.37 860.934 1495.13 859.455 1497.74 858.309Z" fill="#C00000" fill-rule="evenodd"/><text fill="#000000" fill-opacity="0" font-family="Arial,Arial_MSFontService,sans-serif" font-size="27.003" x="1491.61" y="880.766">a</text><path d="M1524.77 851.409C1523.97 851.717 1523.25 852.223 1522.62 852.926 1522.13 853.458 1521.48 854.742 1520.67 856.779L1523.97 865.353C1524.68 867.208 1525.22 868.399 1525.6 868.926 1526.21 869.806 1527.11 870.438 1528.3 870.824 1529.49 871.209 1530.78 871.136 1532.17 870.603 1533.84 869.961 1534.94 868.789 1535.48 867.087 1536.18 864.862 1535.93 862.204 1534.75 859.112 1533.4 855.602 1531.59 853.199 1529.33 851.901 1527.76 851.008 1526.24 850.844 1524.77 851.409ZM1525.35 847.013C1527.66 846.127 1529.93 846.291 1532.16 847.506 1534.89 848.987 1536.94 851.498 1538.3 855.042 1539.83 859.003 1539.95 862.715 1538.67 866.179 1537.61 869.02 1535.66 870.987 1532.82 872.078 1531.59 872.553 1530.45 872.788 1529.41 872.784 1528.65 872.79 1527.7 872.578 1526.58 872.147L1529.26 879.141C1529.87 880.712 1530.35 881.674 1530.7 882.026 1531.06 882.378 1531.52 882.589 1532.1 882.656 1532.67 882.724 1533.58 882.517 1534.84 882.036L1535.19 882.963 1523.16 887.586 1522.8 886.658 1523.43 886.417C1524.35 886.081 1525.07 885.604 1525.58 884.986 1525.83 884.68 1525.96 884.288 1525.98 883.811 1526 883.335 1525.69 882.26 1525.04 880.589L1516.71 858.879C1516.13 857.391 1515.7 856.473 1515.42 856.123 1515.13 855.773 1514.8 855.554 1514.43 855.466 1514.06 855.378 1513.63 855.43 1513.12 855.623 1512.72 855.777 1512.26 856.09 1511.73 856.561L1511.12 855.875 1517.09 850.301 1518.05 849.935 1520.11 855.3C1520.52 852.822 1521.16 850.948 1522.05 849.678 1522.93 848.409 1524.03 847.52 1525.35 847.013Z" fill="#C00000" fill-rule="evenodd"/><text fill="#000000" fill-opacity="0" font-family="Arial,Arial_MSFontService,sans-serif" font-size="41.1329" x="1511.12" y="882.444">p</text><path d="M1557.04 835.961 1558.14 835.621 1559.67 840.6C1561.4 836.432 1563.52 833.963 1566.02 833.193 1567.3 832.797 1568.5 832.778 1569.62 833.134 1570.75 833.491 1571.81 834.321 1572.81 835.624 1573.5 836.534 1574.18 838.05 1574.83 840.172L1577.92 850.206C1578.38 851.695 1578.81 852.667 1579.22 853.124 1579.54 853.493 1579.94 853.734 1580.43 853.844 1580.93 853.954 1581.74 853.835 1582.87 853.487L1583.15 854.411 1571.53 857.995 1571.24 857.071 1571.73 856.921C1572.82 856.583 1573.54 856.18 1573.87 855.712 1574.21 855.244 1574.36 854.658 1574.33 853.956 1574.32 853.678 1574.1 852.863 1573.69 851.511L1570.72 841.888C1570.06 839.749 1569.31 838.282 1568.45 837.487 1567.6 836.691 1566.51 836.497 1565.19 836.903 1563.16 837.531 1561.47 839.268 1560.14 842.114L1563.96 854.51C1564.45 856.101 1564.85 857.056 1565.15 857.374 1565.55 857.796 1565.99 858.058 1566.48 858.16 1566.97 858.262 1567.85 858.115 1569.14 857.72L1569.42 858.643 1557.8 862.227 1557.51 861.303 1558.03 861.145C1559.22 860.776 1559.94 860.223 1560.17 859.486 1560.4 858.75 1560.25 857.526 1559.73 855.815L1557.04 847.089C1556.17 844.266 1555.57 842.567 1555.25 841.99 1554.94 841.414 1554.61 841.055 1554.28 840.915 1553.94 840.774 1553.55 840.772 1553.11 840.909 1552.63 841.057 1552.1 841.362 1551.51 841.824L1550.84 841.019Z" fill="#C00000" fill-rule="evenodd"/><text fill="#000000" fill-opacity="0" font-family="Arial,Arial_MSFontService,sans-serif" font-size="29.3466" x="1550.84" y="858.559">n</text><path d="M1594.14 836.366C1591.8 838.097 1590.31 839.28 1589.66 839.914 1588.49 841.038 1587.73 842.093 1587.36 843.08 1586.99 844.067 1586.94 845.053 1587.2 846.04 1587.53 847.286 1588.18 848.221 1589.14 848.846 1590.1 849.471 1591.06 849.655 1592.03 849.398 1593.35 849.05 1594.85 847.726 1596.54 845.426ZM1587.77 827.024C1589.88 826.464 1591.71 826.36 1593.25 826.712 1594.41 826.978 1595.38 827.618 1596.17 828.632 1596.68 829.293 1597.24 830.775 1597.85 833.077L1599.99 841.15C1600.59 843.417 1601 844.795 1601.22 845.282 1601.44 845.77 1601.68 846.074 1601.92 846.194 1602.17 846.315 1602.42 846.34 1602.68 846.272 1602.96 846.198 1603.18 846.073 1603.36 845.897 1603.66 845.576 1604.2 844.759 1604.96 843.445L1605.34 844.899C1604.09 848.008 1602.59 849.797 1600.82 850.265 1599.97 850.489 1599.22 850.374 1598.56 849.919 1597.9 849.463 1597.38 848.528 1596.99 847.114 1595.04 849.647 1593.8 851.143 1593.26 851.602 1592.44 852.282 1591.5 852.762 1590.44 853.042 1588.8 853.478 1587.3 853.274 1585.93 852.431 1584.57 851.589 1583.65 850.25 1583.16 848.415 1582.85 847.256 1582.85 846.183 1583.14 845.198 1583.54 843.833 1584.48 842.398 1585.96 840.895 1587.44 839.391 1590.03 837.354 1593.72 834.783L1593.47 833.848C1592.84 831.477 1592.03 829.95 1591.05 829.267 1590.06 828.584 1588.85 828.433 1587.41 828.813 1586.32 829.102 1585.54 829.626 1585.05 830.384 1584.55 831.147 1584.4 831.909 1584.6 832.67L1585.05 834.162C1585.26 834.958 1585.22 835.626 1584.93 836.167 1584.64 836.707 1584.16 837.065 1583.51 837.239 1582.87 837.409 1582.28 837.322 1581.76 836.98 1581.23 836.638 1580.86 836.077 1580.66 835.299 1580.26 833.81 1580.66 832.241 1581.86 830.592 1583.05 828.942 1585.02 827.753 1587.77 827.024Z" fill="#C00000" fill-rule="evenodd"/><text fill="#000000" fill-opacity="0" font-family="Arial,Arial_MSFontService,sans-serif" font-size="26.7565" x="1580.51" y="849.92">a</text><path d="M1608.17 821.948 1609.27 821.696 1610.51 827.088C1611.69 823.033 1613.34 820.763 1615.45 820.279 1616.41 820.059 1617.27 820.169 1618.03 820.609 1618.8 821.05 1619.27 821.654 1619.44 822.422 1619.6 823.102 1619.5 823.73 1619.16 824.305 1618.81 824.88 1618.32 825.24 1617.7 825.384 1617.09 825.524 1616.33 825.381 1615.43 824.953 1614.54 824.525 1613.91 824.353 1613.54 824.437 1613.23 824.509 1612.92 824.762 1612.64 825.195 1612.02 826.09 1611.48 827.454 1611.01 829.287L1613.65 840.778C1613.96 842.104 1614.35 843.069 1614.84 843.674 1615.17 844.093 1615.67 844.394 1616.31 844.576 1616.96 844.758 1617.83 844.724 1618.91 844.476L1619.12 845.419 1606.85 848.235 1606.63 847.293C1607.85 847.013 1608.72 846.612 1609.22 846.092 1609.59 845.713 1609.8 845.198 1609.83 844.547 1609.85 844.231 1609.7 843.374 1609.38 841.978L1607.25 832.686C1606.61 829.894 1606.17 828.245 1605.93 827.739 1605.7 827.232 1605.4 826.892 1605.04 826.718 1604.68 826.544 1604.27 826.509 1603.82 826.613 1603.28 826.737 1602.69 827.008 1602.07 827.426L1601.6 826.544Z" fill="#C00000" fill-rule="evenodd"/><text fill="#000000" fill-opacity="0" font-family="Arial,Arial_MSFontService,sans-serif" font-size="28.0665" x="1601.6" y="844.727">r</text><path d="M1626.56 817.971 1627.67 817.751 1628.75 823.178C1630.05 819.159 1631.76 816.939 1633.89 816.518 1634.85 816.326 1635.71 816.461 1636.46 816.924 1637.21 817.387 1637.66 818.005 1637.81 818.778 1637.95 819.462 1637.84 820.087 1637.47 820.652 1637.11 821.217 1636.61 821.562 1635.98 821.687 1635.37 821.809 1634.62 821.643 1633.73 821.189 1632.85 820.735 1632.22 820.544 1631.85 820.617 1631.54 820.68 1631.23 820.924 1630.93 821.348 1630.28 822.225 1629.7 823.572 1629.19 825.39L1631.48 836.954C1631.75 838.289 1632.11 839.266 1632.58 839.884 1632.91 840.313 1633.39 840.628 1634.03 840.829 1634.67 841.03 1635.54 841.023 1636.63 840.807L1636.81 841.755 1624.46 844.207 1624.27 843.259C1625.5 843.015 1626.38 842.64 1626.9 842.135 1627.28 841.767 1627.5 841.259 1627.55 840.609 1627.58 840.293 1627.46 839.433 1627.18 838.028L1625.32 828.676C1624.76 825.867 1624.37 824.205 1624.15 823.692 1623.93 823.179 1623.65 822.83 1623.29 822.646 1622.93 822.461 1622.53 822.414 1622.07 822.504 1621.53 822.612 1620.94 822.866 1620.3 823.265L1619.85 822.369Z" fill="#C00000" fill-rule="evenodd"/><text fill="#000000" fill-opacity="0" font-family="Arial,Arial_MSFontService,sans-serif" font-size="27.7735" x="1619.85" y="840.735">r</text><path d="M1650.54 815.42C1649.6 815.568 1648.7 815.996 1647.85 816.703 1646.99 817.409 1646.38 818.507 1646.02 819.997 1645.65 821.486 1645.65 823.327 1645.99 825.52 1646.55 829.057 1647.74 831.996 1649.55 834.337 1651.36 836.679 1653.42 837.668 1655.72 837.304 1657.43 837.032 1658.73 836.101 1659.62 834.51 1660.51 832.919 1660.69 830.399 1660.14 826.951 1659.46 822.636 1657.99 819.388 1655.74 817.206 1654.22 815.707 1652.48 815.112 1650.54 815.42ZM1651.09 813.566C1654.77 812.983 1657.94 813.913 1660.61 816.354 1662.88 818.442 1664.26 821.033 1664.75 824.128 1665.1 826.303 1664.92 828.587 1664.23 830.98 1663.54 833.374 1662.37 835.281 1660.72 836.702 1659.07 838.124 1657.12 839.012 1654.87 839.368 1651.21 839.947 1648.07 838.949 1645.45 836.372 1643.24 834.203 1641.9 831.588 1641.41 828.529 1641.06 826.301 1641.26 823.998 1642.02 821.622 1642.77 819.245 1643.97 817.388 1645.61 816.051 1647.25 814.713 1649.07 813.885 1651.09 813.566Z" fill="#C00000" fill-rule="evenodd"/><text fill="#000000" fill-opacity="0" font-family="Arial,Arial_MSFontService,sans-serif" font-size="26.1299" x="1641.24" y="836.261">o</text><path d="M1666.07 811.764 1676.34 810.796 1676.43 811.786C1675.49 811.946 1674.89 812.174 1674.62 812.469 1674.35 812.764 1674.24 813.161 1674.29 813.66 1674.34 814.213 1674.55 814.867 1674.93 815.622L1681.5 829.219 1685.68 817.252 1683.95 813.774C1683.43 812.745 1682.79 812.058 1682.06 811.713 1681.64 811.501 1680.9 811.418 1679.82 811.466L1679.73 810.476 1691.39 809.378 1691.48 810.367C1690.2 810.541 1689.32 810.859 1688.82 811.319 1688.49 811.638 1688.36 812.109 1688.41 812.733 1688.45 813.089 1688.55 813.448 1688.73 813.809L1695.62 827.348 1699.5 813.306C1699.77 812.31 1699.87 811.527 1699.82 810.957 1699.79 810.618 1699.58 810.331 1699.21 810.097 1698.84 809.862 1698.14 809.775 1697.12 809.835L1697.03 808.846 1704.76 808.117 1704.85 809.107C1703.32 809.485 1702.28 810.644 1701.73 812.584L1695.53 834.451 1694.44 834.554 1686.84 819.49 1681.17 835.804 1680.19 835.897 1670.38 816.051C1669.74 814.798 1669.15 813.968 1668.61 813.561 1668.07 813.153 1667.25 812.884 1666.16 812.753Z" fill="#C00000" fill-rule="evenodd"/><text fill="#000000" fill-opacity="0" font-family="Arial,Arial_MSFontService,sans-serif" font-size="27.7799" x="1666.07" y="832.425">w</text><path d="M1716.26 807.306C1717.23 807.281 1718.41 807.456 1719.8 807.831 1720.72 808.075 1721.33 808.193 1721.63 808.185 1721.92 808.178 1722.14 808.109 1722.3 807.98 1722.46 807.85 1722.64 807.568 1722.84 807.133L1723.73 807.109 1723.95 815.485 1723.06 815.509C1722.31 812.896 1721.39 811.129 1720.3 810.208 1719.21 809.288 1717.84 808.85 1716.2 808.893 1714.95 808.926 1713.94 809.284 1713.19 809.967 1712.44 810.649 1712.07 811.393 1712.09 812.199 1712.12 813.201 1712.43 814.052 1713.02 814.753 1713.6 815.472 1714.74 816.221 1716.47 816.999L1720.44 818.802C1724.12 820.478 1725.99 822.765 1726.07 825.665 1726.13 827.902 1725.33 829.727 1723.68 831.141 1722.02 832.555 1720.15 833.29 1718.05 833.345 1716.55 833.385 1714.82 833.162 1712.88 832.676 1712.28 832.512 1711.8 832.436 1711.42 832.446 1711.01 832.456 1710.69 832.698 1710.47 833.169L1709.59 833.193 1709.35 824.414 1710.24 824.39C1710.81 826.883 1711.82 828.746 1713.26 829.979 1714.71 831.212 1716.31 831.806 1718.07 831.76 1719.3 831.727 1720.3 831.338 1721.06 830.592 1721.82 829.847 1722.18 828.964 1722.16 827.944 1722.12 826.709 1721.66 825.683 1720.77 824.864 1719.88 824.046 1718.12 823.027 1715.49 821.807 1712.86 820.587 1711.13 819.469 1710.3 818.452 1709.47 817.453 1709.03 816.175 1708.99 814.618 1708.94 812.596 1709.58 810.886 1710.94 809.489 1712.29 808.092 1714.06 807.365 1716.26 807.306Z" fill="#C00000" fill-rule="evenodd"/><text fill="#000000" fill-opacity="0" font-family="Arial,Arial_MSFontService,sans-serif" font-size="26.2403" x="1708.99" y="830.069">s</text><path d="M2177.5 1014.06 2858.42 1014.06 2858.42 1020.94 2177.5 1020.94ZM2853.84 1003.75 2881.34 1017.5 2853.84 1031.25Z"/><path d="M2073 1613C2073 1603.61 2080.16 1596 2089 1596 2097.84 1596 2105 1603.61 2105 1613 2105 1622.39 2097.84 1630 2089 1630 2080.16 1630 2073 1622.39 2073 1613Z" fill="#C00000" fill-rule="evenodd"/><path d="M1633.35 1604.75C1644.68 1579.08 1687.3 1573.03 1728.55 1591.24 1769.8 1609.44 1794.06 1645.01 1782.73 1670.68 1771.4 1696.34 1728.78 1702.4 1687.53 1684.19 1646.28 1665.99 1622.02 1630.42 1633.35 1604.75Z" stroke="#548235" stroke-width="3.4375" stroke-miterlimit="8" stroke-dasharray="13.75 10.3125" fill="#E2F0D9" fill-rule="evenodd"/><path d="M1694.19 1598.19C1695.59 1598.19 1696.83 1598.56 1697.93 1599.31 1699.02 1600.07 1699.99 1601.23 1700.85 1602.81L1696.85 1604.52C1696.12 1603.04 1695.45 1602 1694.85 1601.42 1694.25 1600.84 1693.52 1600.55 1692.66 1600.55 1692.23 1600.55 1691.83 1600.61 1691.45 1600.74 1691.08 1600.86 1690.75 1601.07 1690.49 1601.36 1690.22 1601.64 1689.98 1602 1689.76 1602.44 1689.55 1602.88 1689.33 1603.5 1689.12 1604.3 1688.9 1605.09 1688.59 1606.45 1688.18 1608.36L1684.69 1624.48C1684.45 1625.57 1684.27 1626.59 1684.13 1627.54 1684 1628.49 1683.93 1629.25 1683.93 1629.82 1683.93 1630.68 1684.12 1631.34 1684.5 1631.8 1684.87 1632.25 1685.46 1632.48 1686.24 1632.48 1686.85 1632.48 1687.42 1632.31 1687.95 1631.98 1688.48 1631.65 1689.42 1630.77 1690.78 1629.34L1692.37 1630.82C1691.04 1632.3 1689.97 1633.34 1689.14 1633.94 1688.32 1634.54 1687.48 1634.99 1686.62 1635.27 1685.76 1635.56 1684.8 1635.7 1683.75 1635.7 1682.4 1635.7 1681.28 1635.21 1680.39 1634.21 1679.49 1633.22 1679.05 1631.92 1679.05 1630.31 1679.05 1629.71 1679.11 1628.91 1679.25 1627.89 1679.38 1626.87 1679.55 1625.94 1679.74 1625.1L1681.36 1617.63 1668.46 1617.63 1666.69 1625.87C1666.42 1627.13 1666.08 1628.26 1665.67 1629.27 1665.26 1630.28 1664.74 1631.19 1664.11 1631.98 1663.49 1632.78 1662.66 1633.49 1661.63 1634.12 1660.6 1634.75 1659.66 1635.17 1658.8 1635.38 1657.94 1635.6 1657.02 1635.7 1656.06 1635.7 1654.7 1635.7 1653.48 1635.32 1652.41 1634.56 1651.33 1633.8 1650.37 1632.64 1649.53 1631.08L1653.18 1628.99C1653.94 1630.48 1654.66 1631.57 1655.36 1632.28 1656.06 1632.99 1656.83 1633.34 1657.67 1633.34 1658.1 1633.34 1658.53 1633.25 1658.96 1633.08 1659.39 1632.91 1659.78 1632.58 1660.13 1632.08 1660.48 1631.58 1660.78 1630.87 1661.04 1629.96 1661.3 1629.04 1661.64 1627.57 1662.07 1625.53L1665.62 1608.42C1665.89 1607.11 1666.27 1605.86 1666.77 1604.66 1667.27 1603.46 1667.76 1602.59 1668.22 1602.05L1668.17 1601.78C1665.2 1601.78 1662.95 1601.92 1661.42 1602.19 1659.88 1602.46 1658.78 1602.91 1658.11 1603.56 1657.44 1604.2 1657.1 1605.13 1657.1 1606.35 1657.1 1607.26 1657.42 1608.37 1658.04 1609.68L1653.91 1611.29C1653.52 1610.65 1653.23 1610.04 1653.06 1609.48 1652.89 1608.91 1652.81 1608.29 1652.81 1607.61 1652.81 1606.99 1652.97 1606.33 1653.3 1605.64 1653.64 1604.95 1654.2 1604.21 1655.01 1603.42 1655.94 1602.51 1657.1 1601.63 1658.5 1600.79 1659.63 1600.11 1660.7 1599.62 1661.72 1599.33 1662.74 1599.03 1663.87 1598.83 1665.11 1598.72 1665.93 1598.65 1667.18 1598.62 1668.87 1598.62L1671.93 1598.62 1672.65 1600.2C1672.33 1600.9 1672.05 1601.68 1671.82 1602.55 1671.59 1603.42 1671.36 1604.37 1671.12 1605.41L1669.19 1614.49 1682.05 1614.49 1683.45 1608.12C1683.75 1606.76 1684.12 1605.58 1684.55 1604.58 1684.98 1603.58 1685.5 1602.68 1686.12 1601.91 1686.74 1601.13 1687.56 1600.42 1688.59 1599.78 1689.62 1599.15 1690.57 1598.72 1691.44 1598.51 1692.31 1598.29 1693.23 1598.19 1694.19 1598.19Z" fill="#548235" fill-rule="evenodd"/><text fill="#000000" fill-opacity="0" font-family="Arial,Arial_MSFontService,sans-serif" font-size="37.5171" x="1649.53" y="1631.01">ℋ</text><path d="M1708.39 1623.1C1707.48 1623.1 1706.72 1623.34 1706.11 1623.82 1705.49 1624.29 1705.01 1624.99 1704.65 1625.91 1704.29 1626.82 1704.04 1627.94 1703.89 1629.27 1703.74 1630.59 1703.66 1632.09 1703.66 1633.77 1703.66 1635.71 1703.76 1637.38 1703.95 1638.8 1704.14 1640.21 1704.43 1641.37 1704.83 1642.28 1705.22 1643.2 1705.72 1643.87 1706.32 1644.3 1706.92 1644.73 1707.64 1644.94 1708.47 1644.94 1709.25 1644.94 1709.93 1644.74 1710.52 1644.33 1711.11 1643.93 1711.59 1643.3 1711.97 1642.45 1712.36 1641.6 1712.65 1640.52 1712.84 1639.21 1713.04 1637.9 1713.14 1636.35 1713.14 1634.57 1713.14 1632.56 1713.03 1630.84 1712.81 1629.39 1712.6 1627.95 1712.3 1626.76 1711.91 1625.83 1711.52 1624.9 1711.02 1624.21 1710.43 1623.77 1709.84 1623.33 1709.16 1623.1 1708.39 1623.1ZM1708.47 1621.21C1710.02 1621.21 1711.34 1621.5 1712.44 1622.08 1713.54 1622.66 1714.44 1623.49 1715.14 1624.56 1715.84 1625.63 1716.35 1626.95 1716.67 1628.49 1717 1630.04 1717.16 1631.8 1717.16 1633.75 1717.16 1638.08 1716.39 1641.36 1714.86 1643.58 1713.32 1645.8 1711.09 1646.91 1708.18 1646.91 1705.29 1646.91 1703.14 1645.86 1701.73 1643.77 1700.32 1641.67 1699.62 1638.49 1699.62 1634.24 1699.62 1632.01 1699.84 1630.08 1700.28 1628.46 1700.71 1626.83 1701.32 1625.48 1702.11 1624.4 1702.9 1623.33 1703.83 1622.53 1704.91 1622 1705.99 1621.47 1707.18 1621.21 1708.47 1621.21Z" fill="#548235" fill-rule="evenodd"/><text fill="#000000" fill-opacity="0" font-family="Arial,Arial_MSFontService,sans-serif" font-size="25.7031" x="1699.62" y="1643.7">0</text><path d="M1695.28 1519.7C1696.68 1519.7 1697.92 1520.07 1699.01 1520.83 1700.11 1521.58 1701.08 1522.74 1701.94 1524.32L1697.94 1526.04C1697.21 1524.55 1696.54 1523.52 1695.94 1522.93 1695.34 1522.35 1694.61 1522.06 1693.75 1522.06 1693.32 1522.06 1692.92 1522.12 1692.54 1522.25 1692.17 1522.37 1691.84 1522.58 1691.58 1522.87 1691.31 1523.15 1691.07 1523.52 1690.85 1523.95 1690.64 1524.39 1690.42 1525.01 1690.21 1525.81 1689.99 1526.6 1689.68 1527.96 1689.27 1529.88L1685.77 1545.99C1685.54 1547.08 1685.36 1548.1 1685.22 1549.05 1685.09 1550 1685.02 1550.76 1685.02 1551.33 1685.02 1552.19 1685.21 1552.85 1685.59 1553.31 1685.96 1553.76 1686.54 1553.99 1687.33 1553.99 1687.94 1553.99 1688.51 1553.83 1689.04 1553.5 1689.57 1553.16 1690.51 1552.28 1691.87 1550.85L1693.46 1552.33C1692.13 1553.81 1691.06 1554.86 1690.23 1555.46 1689.41 1556.06 1688.57 1556.5 1687.71 1556.79 1686.85 1557.07 1685.89 1557.22 1684.83 1557.22 1683.49 1557.22 1682.37 1556.72 1681.48 1555.72 1680.58 1554.73 1680.14 1553.43 1680.14 1551.82 1680.14 1551.23 1680.2 1550.42 1680.34 1549.4 1680.47 1548.38 1680.64 1547.45 1680.83 1546.61L1682.44 1539.14 1669.55 1539.14 1667.78 1547.39C1667.51 1548.64 1667.17 1549.77 1666.76 1550.78 1666.35 1551.79 1665.83 1552.7 1665.2 1553.5 1664.58 1554.29 1663.75 1555 1662.72 1555.63 1661.69 1556.26 1660.75 1556.68 1659.89 1556.89 1659.03 1557.11 1658.11 1557.22 1657.15 1557.22 1655.79 1557.22 1654.57 1556.83 1653.49 1556.07 1652.42 1555.31 1651.46 1554.15 1650.62 1552.6L1654.27 1550.5C1655.03 1551.99 1655.75 1553.08 1656.45 1553.79 1657.15 1554.5 1657.92 1554.85 1658.76 1554.85 1659.19 1554.85 1659.62 1554.77 1660.05 1554.6 1660.48 1554.43 1660.87 1554.09 1661.22 1553.59 1661.56 1553.09 1661.87 1552.38 1662.13 1551.47 1662.39 1550.56 1662.73 1549.08 1663.16 1547.04L1666.71 1529.93C1666.98 1528.62 1667.36 1527.37 1667.86 1526.17 1668.36 1524.97 1668.85 1524.1 1669.31 1523.57L1669.26 1523.3C1666.29 1523.3 1664.04 1523.43 1662.5 1523.7 1660.97 1523.97 1659.87 1524.42 1659.2 1525.07 1658.53 1525.71 1658.19 1526.64 1658.19 1527.86 1658.19 1528.78 1658.51 1529.89 1659.13 1531.19L1655 1532.8C1654.6 1532.16 1654.32 1531.55 1654.15 1530.99 1653.98 1530.43 1653.9 1529.8 1653.9 1529.12 1653.9 1528.5 1654.06 1527.84 1654.39 1527.15 1654.73 1526.46 1655.29 1525.72 1656.1 1524.93 1657.03 1524.02 1658.19 1523.14 1659.59 1522.3 1660.72 1521.62 1661.79 1521.13 1662.81 1520.84 1663.83 1520.54 1664.96 1520.34 1666.2 1520.24 1667.02 1520.16 1668.27 1520.13 1669.96 1520.13L1673.02 1520.13 1673.74 1521.71C1673.42 1522.41 1673.14 1523.19 1672.91 1524.06 1672.68 1524.93 1672.45 1525.88 1672.21 1526.92L1670.28 1536 1683.14 1536 1684.54 1529.63C1684.84 1528.27 1685.21 1527.09 1685.64 1526.09 1686.07 1525.09 1686.59 1524.2 1687.21 1523.42 1687.83 1522.64 1688.65 1521.93 1689.68 1521.3 1690.71 1520.66 1691.66 1520.24 1692.53 1520.02 1693.4 1519.81 1694.31 1519.7 1695.28 1519.7Z" fill="#C55A11" fill-rule="evenodd"/><text fill="#000000" fill-opacity="0" font-family="Arial,Arial_MSFontService,sans-serif" font-size="37.5171" x="1650.62" y="1552.53">ℋ</text><path d="M1709.8 1542.86 1710.99 1542.86C1710.96 1543.57 1710.94 1544.22 1710.93 1544.78 1710.92 1545.35 1710.91 1545.9 1710.9 1546.43 1710.9 1546.97 1710.89 1547.49 1710.89 1548.01L1710.89 1562.86C1710.89 1563.26 1710.91 1563.61 1710.93 1563.9 1710.96 1564.2 1711 1564.44 1711.06 1564.65 1711.12 1564.85 1711.19 1565.02 1711.29 1565.16 1711.39 1565.31 1711.5 1565.43 1711.63 1565.53 1711.79 1565.69 1712 1565.81 1712.26 1565.9 1712.52 1565.98 1712.85 1566.05 1713.26 1566.11 1713.66 1566.17 1714.14 1566.21 1714.71 1566.25 1715.28 1566.28 1715.96 1566.3 1716.75 1566.32L1716.75 1568.01 1701.26 1568.01 1701.26 1566.32C1702.03 1566.29 1702.68 1566.26 1703.22 1566.23 1703.75 1566.2 1704.21 1566.15 1704.58 1566.09 1704.96 1566.03 1705.26 1565.97 1705.49 1565.9 1705.72 1565.82 1705.92 1565.74 1706.09 1565.63 1706.27 1565.51 1706.43 1565.39 1706.56 1565.25 1706.69 1565.11 1706.79 1564.94 1706.87 1564.73 1706.95 1564.53 1707.01 1564.27 1707.05 1563.97 1707.1 1563.67 1707.12 1563.3 1707.12 1562.86L1707.12 1548.85C1707.12 1548.35 1707.02 1547.99 1706.83 1547.78 1706.63 1547.57 1706.35 1547.47 1705.99 1547.47 1705.59 1547.47 1704.99 1547.68 1704.19 1548.09 1703.4 1548.51 1702.37 1549.13 1701.11 1549.95 1700.94 1549.65 1700.78 1549.35 1700.64 1549.05 1700.49 1548.75 1700.35 1548.44 1700.19 1548.13 1701.8 1547.25 1703.4 1546.36 1704.98 1545.49 1706.57 1544.61 1708.17 1543.73 1709.8 1542.86Z" fill="#C55A11" fill-rule="evenodd"/><text fill="#000000" fill-opacity="0" font-family="Arial,Arial_MSFontService,sans-serif" font-size="25.1562" x="1700.19" y="1564.87">1</text><path d="M1688.26 1433.99C1689.66 1433.99 1690.9 1434.36 1691.99 1435.12 1693.09 1435.87 1694.06 1437.03 1694.92 1438.61L1690.92 1440.33C1690.19 1438.84 1689.52 1437.81 1688.92 1437.22 1688.32 1436.64 1687.59 1436.35 1686.73 1436.35 1686.3 1436.35 1685.9 1436.41 1685.52 1436.54 1685.15 1436.66 1684.82 1436.87 1684.55 1437.16 1684.29 1437.44 1684.04 1437.81 1683.83 1438.24 1683.61 1438.68 1683.4 1439.3 1683.19 1440.1 1682.97 1440.89 1682.66 1442.25 1682.25 1444.17L1678.75 1460.28C1678.52 1461.37 1678.34 1462.39 1678.2 1463.34 1678.07 1464.29 1678 1465.05 1678 1465.62 1678 1466.48 1678.19 1467.14 1678.57 1467.6 1678.94 1468.05 1679.52 1468.28 1680.31 1468.28 1680.92 1468.28 1681.49 1468.12 1682.02 1467.79 1682.55 1467.45 1683.49 1466.57 1684.85 1465.14L1686.43 1466.62C1685.11 1468.1 1684.04 1469.15 1683.21 1469.75 1682.39 1470.35 1681.55 1470.79 1680.69 1471.08 1679.83 1471.36 1678.87 1471.5 1677.81 1471.5 1676.47 1471.5 1675.35 1471.01 1674.46 1470.01 1673.56 1469.02 1673.11 1467.72 1673.11 1466.11 1673.11 1465.52 1673.18 1464.71 1673.32 1463.69 1673.45 1462.67 1673.62 1461.74 1673.81 1460.9L1675.42 1453.43 1662.53 1453.43 1660.76 1461.68C1660.49 1462.93 1660.15 1464.06 1659.74 1465.07 1659.33 1466.08 1658.81 1466.99 1658.18 1467.79 1657.56 1468.58 1656.73 1469.29 1655.7 1469.92 1654.67 1470.55 1653.72 1470.97 1652.87 1471.18 1652.01 1471.4 1651.09 1471.5 1650.13 1471.5 1648.77 1471.5 1647.55 1471.12 1646.47 1470.36 1645.4 1469.6 1644.44 1468.44 1643.6 1466.89L1647.25 1464.79C1648 1466.28 1648.73 1467.37 1649.43 1468.08 1650.13 1468.79 1650.9 1469.14 1651.74 1469.14 1652.17 1469.14 1652.6 1469.06 1653.03 1468.89 1653.46 1468.72 1653.85 1468.38 1654.19 1467.88 1654.54 1467.38 1654.85 1466.67 1655.11 1465.76 1655.37 1464.84 1655.71 1463.37 1656.14 1461.33L1659.69 1444.22C1659.96 1442.91 1660.34 1441.66 1660.84 1440.46 1661.34 1439.26 1661.83 1438.39 1662.29 1437.85L1662.24 1437.59C1659.27 1437.59 1657.01 1437.72 1655.48 1437.99 1653.95 1438.26 1652.85 1438.71 1652.18 1439.36 1651.51 1440 1651.17 1440.93 1651.17 1442.15 1651.17 1443.06 1651.49 1444.17 1652.11 1445.48L1647.98 1447.09C1647.58 1446.45 1647.3 1445.84 1647.13 1445.28 1646.96 1444.72 1646.88 1444.09 1646.88 1443.41 1646.88 1442.79 1647.04 1442.13 1647.37 1441.44 1647.7 1440.75 1648.27 1440.01 1649.08 1439.22 1650.01 1438.31 1651.17 1437.43 1652.57 1436.59 1653.7 1435.91 1654.77 1435.42 1655.79 1435.13 1656.81 1434.83 1657.94 1434.63 1659.18 1434.52 1660 1434.45 1661.25 1434.42 1662.94 1434.42L1666 1434.42 1666.72 1436C1666.4 1436.7 1666.12 1437.48 1665.89 1438.35 1665.66 1439.22 1665.42 1440.17 1665.19 1441.21L1663.26 1450.29 1676.12 1450.29 1677.52 1443.92C1677.82 1442.56 1678.19 1441.38 1678.62 1440.38 1679.05 1439.38 1679.57 1438.49 1680.19 1437.71 1680.81 1436.93 1681.63 1436.22 1682.66 1435.59 1683.69 1434.95 1684.64 1434.52 1685.51 1434.31 1686.38 1434.1 1687.29 1433.99 1688.26 1433.99Z" fill="#1F4E79" fill-rule="evenodd"/><text fill="#000000" fill-opacity="0" font-family="Arial,Arial_MSFontService,sans-serif" font-size="37.5171" x="1643.6" y="1466.82">ℋ</text><path d="M1702.54 1457.01C1703.89 1457.01 1705.05 1457.16 1706 1457.47 1706.96 1457.78 1707.74 1458.19 1708.34 1458.71 1708.94 1459.23 1709.37 1459.86 1709.64 1460.59 1709.9 1461.31 1710.04 1462.1 1710.04 1462.95 1710.04 1463.46 1710 1463.93 1709.93 1464.36 1709.86 1464.8 1709.73 1465.23 1709.56 1465.65 1709.38 1466.08 1709.15 1466.5 1708.87 1466.93 1708.58 1467.36 1708.22 1467.82 1707.79 1468.3 1707.47 1468.72 1707.04 1469.2 1706.52 1469.75 1706 1470.29 1705.43 1470.88 1704.81 1471.5 1704.19 1472.13 1703.55 1472.78 1702.87 1473.46 1702.19 1474.13 1701.54 1474.8 1700.9 1475.47 1700.26 1476.13 1699.67 1476.78 1699.14 1477.4 1698.61 1478.03 1698.17 1478.6 1697.83 1479.12L1705.06 1479.12C1705.67 1479.12 1706.16 1479.1 1706.52 1479.05 1706.89 1479.01 1707.19 1478.91 1707.43 1478.75 1707.67 1478.59 1707.88 1478.36 1708.05 1478.04 1708.21 1477.72 1708.41 1477.28 1708.63 1476.72L1710.45 1476.72C1710.38 1477.64 1710.32 1478.57 1710.26 1479.51 1710.2 1480.45 1710.14 1481.38 1710.08 1482.3L1693.53 1482.3 1693.53 1481.29C1693.85 1480.59 1694.21 1479.89 1694.63 1479.21 1695.04 1478.52 1695.51 1477.83 1696.03 1477.13 1696.55 1476.43 1697.15 1475.7 1697.81 1474.95 1698.48 1474.2 1699.21 1473.42 1700.02 1472.62 1701.24 1471.39 1702.24 1470.35 1703.01 1469.48 1703.77 1468.62 1704.38 1467.84 1704.82 1467.17 1705.27 1466.49 1705.57 1465.87 1705.73 1465.29 1705.89 1464.72 1705.98 1464.11 1705.98 1463.46 1705.98 1462.79 1705.88 1462.18 1705.69 1461.62 1705.5 1461.06 1705.23 1460.59 1704.88 1460.19 1704.53 1459.8 1704.08 1459.5 1703.54 1459.28 1703 1459.06 1702.38 1458.94 1701.68 1458.94 1700.47 1458.94 1699.45 1459.27 1698.63 1459.93 1697.81 1460.59 1697.17 1461.54 1696.72 1462.79L1694.16 1462.79 1694.16 1458.98C1695.83 1458.29 1697.36 1457.79 1698.76 1457.48 1700.16 1457.17 1701.42 1457.01 1702.54 1457.01Z" fill="#1F4E79" fill-rule="evenodd"/><text fill="#000000" fill-opacity="0" font-family="Arial,Arial_MSFontService,sans-serif" font-size="25.293" x="1693.53" y="1479.14">2</text><text font-family="Times New Roman,Times New Roman_MSFontService,sans-serif" font-weight="400" font-size="55" transform="matrix(1 0 0 1 1242.88 1372)">Hypothesis space </text><path d="M1685.14 1334.83C1686.54 1334.83 1687.78 1335.2 1688.88 1335.95 1689.97 1336.71 1690.94 1337.87 1691.8 1339.44L1687.8 1341.16C1687.07 1339.68 1686.4 1338.64 1685.8 1338.06 1685.2 1337.48 1684.47 1337.19 1683.61 1337.19 1683.18 1337.19 1682.78 1337.25 1682.4 1337.38 1682.03 1337.5 1681.71 1337.71 1681.44 1337.99 1681.17 1338.28 1680.93 1338.64 1680.71 1339.08 1680.5 1339.52 1680.28 1340.14 1680.07 1340.93 1679.85 1341.73 1679.54 1343.09 1679.13 1345L1675.64 1361.12C1675.4 1362.21 1675.22 1363.23 1675.09 1364.18 1674.95 1365.13 1674.88 1365.89 1674.88 1366.46 1674.88 1367.32 1675.07 1367.98 1675.45 1368.43 1675.82 1368.89 1676.41 1369.12 1677.19 1369.12 1677.8 1369.12 1678.37 1368.95 1678.9 1368.62 1679.43 1368.29 1680.37 1367.41 1681.73 1365.98L1683.32 1367.45C1681.99 1368.94 1680.92 1369.98 1680.09 1370.58 1679.27 1371.18 1678.43 1371.63 1677.57 1371.91 1676.71 1372.2 1675.75 1372.34 1674.7 1372.34 1673.35 1372.34 1672.23 1371.85 1671.34 1370.85 1670.44 1369.86 1670 1368.56 1670 1366.94 1670 1366.35 1670.06 1365.55 1670.2 1364.53 1670.33 1363.51 1670.5 1362.58 1670.7 1361.73L1672.31 1354.27 1659.42 1354.27 1657.64 1362.51C1657.37 1363.77 1657.03 1364.9 1656.62 1365.91 1656.21 1366.92 1655.69 1367.83 1655.07 1368.62 1654.44 1369.42 1653.61 1370.13 1652.58 1370.76 1651.55 1371.38 1650.61 1371.81 1649.75 1372.02 1648.89 1372.23 1647.98 1372.34 1647.01 1372.34 1645.65 1372.34 1644.43 1371.96 1643.36 1371.2 1642.28 1370.44 1641.32 1369.28 1640.48 1367.72L1644.14 1365.63C1644.89 1367.11 1645.61 1368.21 1646.31 1368.92 1647.01 1369.63 1647.78 1369.98 1648.62 1369.98 1649.05 1369.98 1649.48 1369.89 1649.91 1369.72 1650.34 1369.55 1650.73 1369.22 1651.08 1368.72 1651.43 1368.22 1651.73 1367.51 1651.99 1366.6 1652.25 1365.68 1652.59 1364.21 1653.02 1362.16L1656.57 1345.06C1656.84 1343.75 1657.22 1342.5 1657.72 1341.3 1658.23 1340.1 1658.71 1339.23 1659.17 1338.69L1659.12 1338.42C1656.15 1338.42 1653.9 1338.56 1652.37 1338.83 1650.84 1339.1 1649.73 1339.55 1649.06 1340.2 1648.39 1340.84 1648.06 1341.77 1648.06 1342.99 1648.06 1343.9 1648.37 1345.01 1649 1346.32L1644.86 1347.93C1644.47 1347.29 1644.18 1346.68 1644.01 1346.12 1643.84 1345.55 1643.76 1344.93 1643.76 1344.25 1643.76 1343.62 1643.92 1342.97 1644.26 1342.28 1644.59 1341.59 1645.16 1340.85 1645.96 1340.06 1646.89 1339.15 1648.06 1338.27 1649.45 1337.43 1650.58 1336.75 1651.65 1336.26 1652.68 1335.97 1653.7 1335.67 1654.82 1335.47 1656.06 1335.36 1656.88 1335.29 1658.14 1335.26 1659.82 1335.26L1662.88 1335.26 1663.61 1336.84C1663.28 1337.54 1663.01 1338.32 1662.77 1339.19 1662.54 1340.06 1662.31 1341.01 1662.07 1342.05L1660.14 1351.13 1673 1351.13 1674.4 1344.76C1674.71 1343.4 1675.07 1342.22 1675.5 1341.22 1675.93 1340.21 1676.46 1339.32 1677.07 1338.54 1677.69 1337.77 1678.51 1337.06 1679.54 1336.42 1680.57 1335.79 1681.52 1335.36 1682.39 1335.15 1683.26 1334.93 1684.18 1334.83 1685.14 1334.83Z" fill-rule="evenodd"/><text fill="#000000" fill-opacity="0" font-family="Arial,Arial_MSFontService,sans-serif" font-size="37.5171" x="1640.48" y="1367.65">ℋ</text><text fill="#C00000" font-family="Cambria Math,Cambria Math_MSFontService,sans-serif" font-weight="400" font-size="55" transform="matrix(1 0 0 1 2438.23 1701)">Population</text><text fill="#C00000" font-family="Cambria Math,Cambria Math_MSFontService,sans-serif" font-weight="400" font-size="55" transform="matrix(1 0 0 1 2694.43 1701)">-</text><text fill="#C00000" font-family="Cambria Math,Cambria Math_MSFontService,sans-serif" font-weight="400" font-size="55" transform="matrix(1 0 0 1 2712.77 1701)">level </text><text fill="#C00000" font-family="Cambria Math,Cambria Math_MSFontService,sans-serif" font-weight="400" font-size="55" transform="matrix(1 0 0 1 2438.23 1767)">optimal solution</text><path d="M2440.17 1682.83 2127.32 1621.3 2128.65 1614.55 2441.49 1676.08ZM2129.83 1632.3 2105.5 1613.5 2135.14 1605.32Z" fill="#C00000"/><text font-family="Times New Roman,Times New Roman_MSFontService,sans-serif" font-weight="400" font-size="83" transform="matrix(1 0 0 1 1288.77 1162)">(a).</text><path d="M1461.79 1122.32C1463.73 1122.32 1465.14 1122.82 1466 1123.84 1466.87 1124.85 1467.3 1126.21 1467.3 1127.91 1467.3 1129.21 1467.07 1130.69 1466.61 1132.37 1466.15 1134.04 1465.5 1135.81 1464.66 1137.68 1463.83 1139.54 1462.83 1141.45 1461.66 1143.41 1460.5 1145.37 1459.22 1147.28 1457.81 1149.13 1456.41 1150.98 1454.91 1152.72 1453.32 1154.35 1451.72 1155.99 1450.07 1157.41 1448.35 1158.63 1446.64 1159.85 1444.89 1160.81 1443.12 1161.53 1441.35 1162.24 1439.59 1162.6 1437.83 1162.6 1437.05 1162.6 1436.4 1162.41 1435.87 1162.01 1435.34 1161.62 1434.92 1161.07 1434.59 1160.35 1434.27 1159.64 1434.04 1158.79 1433.9 1157.82 1433.77 1156.85 1433.7 1155.78 1433.7 1154.62 1433.7 1153.08 1433.8 1151.43 1433.98 1149.67 1434.17 1147.92 1434.42 1146.15 1434.71 1144.36L1436.42 1133.14C1436.52 1132.49 1436.61 1131.88 1436.68 1131.29 1436.75 1130.71 1436.78 1130.29 1436.78 1130.02 1436.78 1129.18 1436.65 1128.49 1436.38 1127.95 1436.11 1127.41 1435.65 1127.14 1435 1127.14 1434.48 1127.14 1433.93 1127.3 1433.34 1127.61 1432.74 1127.92 1432.14 1128.32 1431.53 1128.8 1430.92 1129.29 1430.34 1129.81 1429.77 1130.36 1429.2 1130.92 1428.68 1131.44 1428.19 1131.92L1426.24 1129.65C1427.08 1128.79 1427.97 1127.93 1428.92 1127.08 1429.86 1126.23 1430.86 1125.46 1431.92 1124.77 1432.97 1124.08 1434.08 1123.53 1435.24 1123.11 1436.4 1122.69 1437.59 1122.48 1438.81 1122.48 1439.83 1122.48 1440.67 1122.65 1441.32 1122.99 1441.97 1123.32 1442.48 1123.77 1442.84 1124.32 1443.2 1124.88 1443.45 1125.49 1443.59 1126.15 1443.72 1126.81 1443.79 1127.46 1443.79 1128.11 1443.79 1128.49 1443.78 1128.86 1443.75 1129.21 1443.72 1129.56 1443.68 1129.88 1443.63 1130.18L1441.36 1144.85C1441.12 1146.39 1440.91 1147.9 1440.75 1149.37 1440.59 1150.84 1440.51 1152.15 1440.51 1153.28 1440.51 1154.41 1440.58 1155.33 1440.71 1156.04 1440.85 1156.74 1441.1 1157.09 1441.48 1157.09 1442.37 1157.09 1443.49 1156.73 1444.85 1156.02 1446.2 1155.3 1447.62 1154.31 1449.1 1153.06 1450.59 1151.8 1452.07 1150.31 1453.56 1148.6 1455.05 1146.88 1456.38 1145.03 1457.57 1143.03 1458.76 1141.03 1459.73 1138.92 1460.47 1136.7 1461.21 1134.49 1461.58 1132.26 1461.58 1130.02 1461.58 1129.04 1461.37 1128.3 1460.96 1127.77 1460.54 1127.24 1459.88 1126.98 1458.99 1126.98 1457.86 1126.98 1456.81 1127.42 1455.85 1128.3 1454.89 1129.17 1453.9 1130.33 1452.87 1131.76L1450.56 1129.69C1451.21 1128.72 1451.97 1127.79 1452.85 1126.9 1453.73 1126.01 1454.66 1125.22 1455.65 1124.55 1456.63 1123.87 1457.65 1123.33 1458.71 1122.93 1459.76 1122.52 1460.79 1122.32 1461.79 1122.32Z" fill-rule="evenodd"/><text fill="#000000" fill-opacity="0" font-family="Arial,Arial_MSFontService,sans-serif" font-size="40.2842" x="1426.24" y="1157.57">𝑣</text><path d="M1502.31 1103.35 1503.41 1106.47C1497.09 1108.55 1492.41 1112.61 1489.37 1118.65 1486.33 1124.69 1484.81 1132.27 1484.81 1141.41 1484.81 1150.86 1486.33 1158.66 1489.37 1164.79 1492.41 1170.92 1497.05 1175.03 1503.29 1177.11L1502.31 1180.23C1494.4 1178.15 1488.33 1173.67 1484.12 1166.8 1479.9 1159.92 1477.8 1151.59 1477.8 1141.81 1477.8 1132.06 1479.91 1123.73 1484.14 1116.83 1488.37 1109.92 1494.43 1105.43 1502.31 1103.35Z" fill-rule="evenodd"/><text fill="#000000" fill-opacity="0" font-family="Arial,Arial_MSFontService,sans-serif" font-size="76.8804" x="1477.8" y="1170.62">(</text><path d="M1529.84 1126.65C1525.65 1128.44 1522.31 1131.44 1519.81 1135.67 1517.31 1139.9 1516.06 1144.65 1516.06 1149.92 1516.06 1156.21 1518.83 1159.36 1524.37 1159.36 1526.56 1159.36 1528.52 1158.63 1530.25 1157.17 1531.97 1155.71 1533.33 1153.67 1534.32 1151.03 1535.31 1148.4 1535.8 1145.61 1535.8 1142.66 1535.8 1139.47 1535.35 1136.63 1534.46 1134.13 1533.57 1131.63 1532.03 1129.14 1529.84 1126.65ZM1534.01 1103.72C1536.37 1103.72 1538.71 1104.13 1541.05 1104.95 1543.38 1105.78 1546 1107.23 1548.89 1109.31L1547.51 1115.79 1543.78 1115.79C1542.84 1112.82 1541.51 1110.6 1539.79 1109.13 1538.07 1107.65 1536.01 1106.92 1533.61 1106.92 1531.8 1106.92 1530.36 1107.38 1529.29 1108.32 1528.23 1109.25 1527.69 1110.46 1527.69 1111.94 1527.69 1112.73 1527.87 1113.51 1528.22 1114.29 1528.57 1115.08 1529.23 1116.12 1530.21 1117.43 1531.18 1118.74 1532.68 1120.59 1534.7 1122.97 1537.16 1125.91 1538.95 1128.33 1540.05 1130.22 1541.16 1132.11 1541.96 1134.02 1542.46 1135.95 1542.96 1137.89 1543.21 1140.05 1543.21 1142.46 1543.21 1145.81 1542.42 1149.08 1540.84 1152.27 1539.26 1155.46 1537 1157.97 1534.06 1159.81 1531.11 1161.64 1527.71 1162.56 1523.84 1162.56 1520.41 1162.56 1517.57 1161.99 1515.33 1160.86 1513.09 1159.72 1511.46 1158.18 1510.45 1156.24 1509.44 1154.29 1508.93 1152.05 1508.93 1149.51 1508.93 1143.78 1510.53 1138.76 1513.73 1134.46 1516.93 1130.15 1521.67 1126.68 1527.94 1124.06 1525.8 1121.66 1524.24 1119.57 1523.25 1117.82 1522.27 1116.06 1521.78 1114.4 1521.78 1112.83 1521.78 1111.13 1522.25 1109.59 1523.19 1108.21 1524.14 1106.84 1525.54 1105.74 1527.41 1104.93 1529.27 1104.12 1531.48 1103.72 1534.01 1103.72Z" fill-rule="evenodd"/><text fill="#000000" fill-opacity="0" font-family="Arial,Arial_MSFontService,sans-serif" font-size="58.8457" x="1508.93" y="1155.21">𝛿</text><path d="M1554.86 1103.35C1562.75 1105.43 1568.8 1109.92 1573.03 1116.83 1577.26 1123.73 1579.37 1132.06 1579.37 1141.81 1579.37 1151.59 1577.27 1159.92 1573.05 1166.8 1568.84 1173.67 1562.77 1178.15 1554.86 1180.23L1553.88 1177.11C1560.12 1175.03 1564.76 1170.92 1567.8 1164.79 1570.84 1158.66 1572.36 1150.86 1572.36 1141.41 1572.36 1132.27 1570.85 1124.69 1567.82 1118.65 1564.8 1112.61 1560.11 1108.55 1553.76 1106.47Z" fill-rule="evenodd"/><text fill="#000000" fill-opacity="0" font-family="Arial,Arial_MSFontService,sans-serif" font-size="76.8804" x="1553.76" y="1170.62">)</text><text font-family="Times New Roman,Times New Roman_MSFontService,sans-serif" font-weight="400" font-size="83" transform="matrix(1 0 0 1 1586.6 1162)">-</text><text font-family="Times New Roman,Times New Roman_MSFontService,sans-serif" font-weight="400" font-size="83" transform="matrix(1 0 0 1 1614.1 1162)">diversity</text><text font-family="Times New Roman,Times New Roman_MSFontService,sans-serif" font-weight="400" font-size="83" transform="matrix(1 0 0 1 2171.87 1165)">(b</text><text font-family="Times New Roman,Times New Roman_MSFontService,sans-serif" font-weight="400" font-size="83" transform="matrix(1 0 0 1 2240.62 1165)">).</text><path d="M2314.28 1109.96 2360.4 1109.96 2360.4 1111.95C2358.4 1112.43 2357.11 1113.09 2356.55 1113.91 2355.98 1114.73 2355.7 1116.79 2355.7 1120.09L2355.7 1155.15C2355.7 1158.36 2355.98 1160.4 2356.55 1161.27 2357.11 1162.13 2358.4 1162.81 2360.4 1163.29L2360.4 1165.28 2343.38 1165.28 2343.38 1163.29C2345.29 1162.83 2346.56 1162.21 2347.16 1161.41 2347.77 1160.61 2348.08 1158.52 2348.08 1155.15L2348.08 1113.69 2326.6 1113.69 2326.6 1155.15C2326.6 1158.52 2326.91 1160.61 2327.55 1161.41 2328.18 1162.21 2329.45 1162.83 2331.34 1163.29L2331.34 1165.28 2314.28 1165.28 2314.28 1163.29C2316.25 1162.81 2317.53 1162.16 2318.13 1161.35 2318.72 1160.54 2319.02 1158.47 2319.02 1155.15L2319.02 1120.09C2319.02 1116.71 2318.7 1114.63 2318.07 1113.83 2317.43 1113.03 2316.17 1112.4 2314.28 1111.95Z" fill-rule="evenodd"/><text fill="#000000" fill-opacity="0" font-family="Arial,Arial_MSFontService,sans-serif" font-size="55.3198" x="2314.28" y="1158.36">Π</text><path d="M2414.48 1140.99C2416.03 1140.99 2417.41 1141.41 2418.62 1142.24 2419.83 1143.07 2420.91 1144.37 2421.87 1146.11L2417.43 1148.02C2416.61 1146.37 2415.87 1145.22 2415.21 1144.58 2414.54 1143.93 2413.73 1143.61 2412.78 1143.61 2412.3 1143.61 2411.86 1143.68 2411.44 1143.82 2411.02 1143.96 2410.67 1144.19 2410.37 1144.5 2410.07 1144.82 2409.8 1145.22 2409.56 1145.71 2409.33 1146.2 2409.09 1146.88 2408.85 1147.77 2408.61 1148.65 2408.26 1150.15 2407.81 1152.28L2403.93 1170.15C2403.68 1171.36 2403.47 1172.49 2403.32 1173.54 2403.18 1174.6 2403.1 1175.44 2403.1 1176.08 2403.1 1177.03 2403.31 1177.76 2403.73 1178.27 2404.14 1178.77 2404.79 1179.03 2405.66 1179.03 2406.34 1179.03 2406.97 1178.84 2407.55 1178.47 2408.14 1178.11 2409.19 1177.13 2410.7 1175.54L2412.45 1177.18C2410.98 1178.83 2409.79 1179.98 2408.88 1180.65 2407.97 1181.31 2407.03 1181.81 2406.08 1182.12 2405.13 1182.44 2404.06 1182.6 2402.89 1182.6 2401.4 1182.6 2400.16 1182.05 2399.17 1180.95 2398.18 1179.84 2397.68 1178.4 2397.68 1176.61 2397.68 1175.96 2397.75 1175.06 2397.9 1173.93 2398.05 1172.8 2398.24 1171.77 2398.45 1170.83L2400.24 1162.55 2385.94 1162.55 2383.98 1171.7C2383.68 1173.09 2383.3 1174.34 2382.85 1175.47 2382.39 1176.59 2381.81 1177.59 2381.12 1178.47 2380.42 1179.36 2379.51 1180.15 2378.36 1180.84 2377.22 1181.54 2376.17 1182 2375.22 1182.24 2374.27 1182.48 2373.26 1182.6 2372.18 1182.6 2370.67 1182.6 2369.32 1182.18 2368.13 1181.33 2366.94 1180.49 2365.88 1179.2 2364.95 1177.48L2369 1175.15C2369.83 1176.8 2370.63 1178.02 2371.41 1178.8 2372.18 1179.59 2373.04 1179.98 2373.97 1179.98 2374.45 1179.98 2374.92 1179.88 2375.4 1179.7 2375.88 1179.51 2376.31 1179.13 2376.7 1178.58 2377.08 1178.02 2377.42 1177.24 2377.71 1176.23 2378 1175.21 2378.38 1173.57 2378.86 1171.31L2382.79 1152.34C2383.08 1150.89 2383.51 1149.5 2384.07 1148.17 2384.62 1146.84 2385.16 1145.87 2385.68 1145.28L2385.62 1144.98C2382.32 1144.98 2379.82 1145.13 2378.13 1145.43 2376.43 1145.73 2375.21 1146.23 2374.46 1146.95 2373.72 1147.66 2373.35 1148.69 2373.35 1150.04 2373.35 1151.06 2373.69 1152.29 2374.39 1153.74L2369.8 1155.52C2369.36 1154.81 2369.05 1154.14 2368.86 1153.51 2368.67 1152.89 2368.58 1152.2 2368.58 1151.44 2368.58 1150.75 2368.76 1150.02 2369.13 1149.25 2369.5 1148.49 2370.13 1147.67 2371.02 1146.8 2372.05 1145.78 2373.35 1144.81 2374.89 1143.88 2376.15 1143.12 2377.34 1142.58 2378.47 1142.26 2379.6 1141.93 2380.85 1141.7 2382.22 1141.59 2383.13 1141.51 2384.52 1141.47 2386.39 1141.47L2389.79 1141.47 2390.59 1143.22C2390.23 1144 2389.93 1144.87 2389.67 1145.83 2389.41 1146.79 2389.15 1147.85 2388.89 1149L2386.75 1159.07 2401.02 1159.07 2402.56 1152.01C2402.9 1150.5 2403.31 1149.19 2403.79 1148.08 2404.26 1146.97 2404.84 1145.98 2405.53 1145.11 2406.21 1144.25 2407.13 1143.47 2408.27 1142.76 2409.41 1142.06 2410.46 1141.59 2411.43 1141.35 2412.39 1141.11 2413.41 1140.99 2414.48 1140.99Z" fill-rule="evenodd"/><text fill="#000000" fill-opacity="0" font-family="Arial,Arial_MSFontService,sans-serif" font-size="41.6099" x="2364.95" y="1177.4">ℋ</text><text font-family="Times New Roman,Times New Roman_MSFontService,sans-serif" font-weight="400" font-size="83" transform="matrix(1 0 0 1 2426.84 1165)">-</text><text font-family="Times New Roman,Times New Roman_MSFontService,sans-serif" font-weight="400" font-size="83" transform="matrix(1 0 0 1 2454.34 1165)">complexity</text><text font-family="Times New Roman,Times New Roman_MSFontService,sans-serif" font-weight="400" font-size="83" transform="matrix(1 0 0 1 1335.43 1897)">(c</text><text font-family="Times New Roman,Times New Roman_MSFontService,sans-serif" font-weight="400" font-size="83" transform="matrix(1 0 0 1 1399.59 1897)">).</text><text font-family="Times New Roman,Times New Roman_MSFontService,sans-serif" font-weight="400" font-size="83" transform="matrix(1 0 0 1 1468.34 1897)">Nested relationship of hypothesis sets</text><path d="M2461.35 1031.59 2491.91 1031.59 2491.91 1032.91C2490.58 1033.23 2489.73 1033.66 2489.36 1034.21 2488.98 1034.76 2488.79 1036.12 2488.79 1038.31L2488.79 1061.54C2488.79 1063.67 2488.98 1065.02 2489.36 1065.59 2489.73 1066.16 2490.58 1066.61 2491.91 1066.93L2491.91 1068.25 2480.63 1068.25 2480.63 1066.93C2481.9 1066.63 2482.74 1066.21 2483.14 1065.69 2483.54 1065.16 2483.75 1063.77 2483.75 1061.54L2483.75 1034.06 2469.51 1034.06 2469.51 1061.54C2469.51 1063.77 2469.72 1065.16 2470.14 1065.69 2470.56 1066.21 2471.4 1066.63 2472.65 1066.93L2472.65 1068.25 2461.35 1068.25 2461.35 1066.93C2462.66 1066.61 2463.51 1066.18 2463.9 1065.65 2464.29 1065.11 2464.49 1063.74 2464.49 1061.54L2464.49 1038.31C2464.49 1036.07 2464.28 1034.69 2463.86 1034.16 2463.44 1033.63 2462.6 1033.21 2461.35 1032.91Z" fill="#C00000" fill-rule="evenodd"/><text fill="#000000" fill-opacity="0" font-family="Arial,Arial_MSFontService,sans-serif" font-size="36.6577" x="2461.35" y="1063.67">Π</text><path d="M2527.82 1052.51C2528.83 1052.51 2529.74 1052.78 2530.53 1053.33 2531.33 1053.87 2532.04 1054.72 2532.66 1055.87L2529.75 1057.12C2529.22 1056.04 2528.73 1055.28 2528.3 1054.86 2527.86 1054.44 2527.33 1054.23 2526.71 1054.23 2526.39 1054.23 2526.1 1054.27 2525.83 1054.36 2525.55 1054.45 2525.32 1054.6 2525.12 1054.81 2524.93 1055.02 2524.75 1055.28 2524.6 1055.6 2524.44 1055.92 2524.28 1056.37 2524.13 1056.95 2523.97 1057.53 2523.74 1058.52 2523.44 1059.91L2520.9 1071.63C2520.74 1072.42 2520.6 1073.16 2520.5 1073.85 2520.41 1074.54 2520.36 1075.1 2520.36 1075.51 2520.36 1076.14 2520.49 1076.62 2520.77 1076.95 2521.04 1077.28 2521.46 1077.45 2522.04 1077.45 2522.48 1077.45 2522.89 1077.33 2523.28 1077.09 2523.66 1076.85 2524.35 1076.2 2525.34 1075.16L2526.49 1076.24C2525.53 1077.32 2524.75 1078.08 2524.15 1078.51 2523.55 1078.95 2522.94 1079.27 2522.31 1079.48 2521.69 1079.69 2520.99 1079.79 2520.22 1079.79 2519.24 1079.79 2518.43 1079.43 2517.78 1078.71 2517.13 1077.99 2516.8 1077.04 2516.8 1075.87 2516.8 1075.44 2516.85 1074.85 2516.95 1074.11 2517.05 1073.37 2517.17 1072.69 2517.31 1072.08L2518.48 1066.65 2509.11 1066.65 2507.82 1072.64C2507.62 1073.55 2507.38 1074.38 2507.08 1075.11 2506.78 1075.85 2506.4 1076.51 2505.94 1077.09 2505.49 1077.67 2504.89 1078.18 2504.14 1078.64 2503.39 1079.1 2502.7 1079.4 2502.08 1079.56 2501.45 1079.71 2500.79 1079.79 2500.08 1079.79 2499.09 1079.79 2498.21 1079.52 2497.43 1078.96 2496.65 1078.41 2495.95 1077.57 2495.34 1076.43L2497.99 1074.91C2498.54 1075.99 2499.07 1076.79 2499.58 1077.3 2500.08 1077.82 2500.64 1078.07 2501.26 1078.07 2501.57 1078.07 2501.88 1078.01 2502.19 1077.89 2502.51 1077.76 2502.79 1077.52 2503.04 1077.16 2503.3 1076.79 2503.52 1076.28 2503.71 1075.61 2503.9 1074.95 2504.15 1073.87 2504.46 1072.39L2507.04 1059.95C2507.23 1059 2507.51 1058.09 2507.88 1057.21 2508.24 1056.34 2508.59 1055.71 2508.93 1055.32L2508.89 1055.12C2506.73 1055.12 2505.09 1055.22 2503.98 1055.42 2502.87 1055.61 2502.07 1055.94 2501.58 1056.41 2501.09 1056.88 2500.85 1057.56 2500.85 1058.44 2500.85 1059.11 2501.07 1059.92 2501.53 1060.87L2498.52 1062.04C2498.24 1061.57 2498.03 1061.13 2497.91 1060.72 2497.78 1060.31 2497.72 1059.86 2497.72 1059.36 2497.72 1058.91 2497.84 1058.43 2498.08 1057.93 2498.32 1057.43 2498.74 1056.89 2499.32 1056.32 2500 1055.65 2500.85 1055.01 2501.86 1054.4 2502.68 1053.91 2503.46 1053.55 2504.21 1053.34 2504.95 1053.12 2505.77 1052.98 2506.67 1052.9 2507.27 1052.85 2508.18 1052.82 2509.4 1052.82L2511.63 1052.82 2512.15 1053.97C2511.92 1054.48 2511.72 1055.05 2511.55 1055.68 2511.38 1056.31 2511.21 1057.01 2511.04 1057.76L2509.64 1064.36 2518.99 1064.36 2520.01 1059.73C2520.23 1058.74 2520.49 1057.88 2520.81 1057.16 2521.12 1056.43 2521.5 1055.78 2521.95 1055.21 2522.4 1054.65 2523 1054.13 2523.75 1053.67 2524.5 1053.21 2525.19 1052.9 2525.82 1052.74 2526.45 1052.58 2527.12 1052.51 2527.82 1052.51Z" fill="#C00000" fill-rule="evenodd"/><text fill="#000000" fill-opacity="0" font-family="Arial,Arial_MSFontService,sans-serif" font-size="27.2852" x="2495.34" y="1076.38">ℋ</text><path d="M2540.64 1067.86 2541.7 1067.86C2541.68 1068.08 2541.66 1068.63 2541.64 1069.5 2541.61 1070.37 2541.6 1071.25 2541.6 1072.13L2541.6 1083.47C2541.6 1084.15 2541.66 1084.63 2541.78 1084.92 2541.9 1085.21 2542.09 1085.44 2542.35 1085.61 2542.6 1085.77 2543.04 1085.9 2543.67 1085.99 2544.29 1086.08 2545.28 1086.14 2546.63 1086.16L2546.63 1087.66 2533.27 1087.66 2533.27 1086.16C2534.58 1086.13 2535.54 1086.07 2536.15 1085.98 2536.76 1085.9 2537.2 1085.77 2537.49 1085.61 2537.77 1085.44 2537.98 1085.21 2538.12 1084.92 2538.25 1084.63 2538.32 1084.15 2538.32 1083.47L2538.32 1072.79C2538.32 1072.4 2538.24 1072.12 2538.08 1071.95 2537.93 1071.78 2537.7 1071.69 2537.41 1071.69 2537.09 1071.69 2536.59 1071.87 2535.9 1072.22 2535.21 1072.57 2534.33 1073.08 2533.26 1073.75L2532.4 1072.13Z" fill="#C00000" fill-rule="evenodd"/><text fill="#000000" fill-opacity="0" font-family="Arial,Arial_MSFontService,sans-serif" font-size="19.8032" x="2532.4" y="1085.19">1</text><path d="M2628.71 1031.59 2659.27 1031.59 2659.27 1032.91C2657.94 1033.23 2657.09 1033.66 2656.72 1034.21 2656.34 1034.76 2656.15 1036.12 2656.15 1038.31L2656.15 1061.54C2656.15 1063.67 2656.34 1065.02 2656.72 1065.59 2657.09 1066.16 2657.94 1066.61 2659.27 1066.93L2659.27 1068.25 2647.99 1068.25 2647.99 1066.93C2649.26 1066.63 2650.1 1066.21 2650.5 1065.69 2650.9 1065.16 2651.1 1063.77 2651.1 1061.54L2651.1 1034.06 2636.87 1034.06 2636.87 1061.54C2636.87 1063.77 2637.08 1065.16 2637.5 1065.69 2637.92 1066.21 2638.76 1066.63 2640.01 1066.93L2640.01 1068.25 2628.71 1068.25 2628.71 1066.93C2630.01 1066.61 2630.86 1066.18 2631.26 1065.65 2631.65 1065.11 2631.85 1063.74 2631.85 1061.54L2631.85 1038.31C2631.85 1036.07 2631.64 1034.69 2631.22 1034.16 2630.8 1033.63 2629.96 1033.21 2628.71 1032.91Z" fill="#C00000" fill-rule="evenodd"/><text fill="#000000" fill-opacity="0" font-family="Arial,Arial_MSFontService,sans-serif" font-size="36.6577" x="2628.71" y="1063.67">Π</text><path d="M2695.18 1052.51C2696.19 1052.51 2697.1 1052.78 2697.89 1053.33 2698.69 1053.87 2699.4 1054.72 2700.02 1055.87L2697.11 1057.12C2696.58 1056.04 2696.09 1055.28 2695.66 1054.86 2695.22 1054.44 2694.69 1054.23 2694.06 1054.23 2693.75 1054.23 2693.46 1054.27 2693.19 1054.36 2692.91 1054.45 2692.68 1054.6 2692.48 1054.81 2692.29 1055.02 2692.11 1055.28 2691.95 1055.6 2691.8 1055.92 2691.64 1056.37 2691.49 1056.95 2691.33 1057.53 2691.1 1058.52 2690.8 1059.91L2688.26 1071.63C2688.09 1072.42 2687.96 1073.16 2687.86 1073.85 2687.77 1074.54 2687.72 1075.1 2687.72 1075.51 2687.72 1076.14 2687.85 1076.62 2688.13 1076.95 2688.4 1077.28 2688.82 1077.45 2689.4 1077.45 2689.84 1077.45 2690.25 1077.33 2690.64 1077.09 2691.02 1076.85 2691.71 1076.2 2692.7 1075.16L2693.85 1076.24C2692.89 1077.32 2692.1 1078.08 2691.51 1078.51 2690.91 1078.95 2690.29 1079.27 2689.67 1079.48 2689.04 1079.69 2688.35 1079.79 2687.58 1079.79 2686.6 1079.79 2685.79 1079.43 2685.14 1078.71 2684.49 1077.99 2684.16 1077.04 2684.16 1075.87 2684.16 1075.44 2684.21 1074.85 2684.31 1074.11 2684.41 1073.37 2684.53 1072.69 2684.67 1072.08L2685.84 1066.65 2676.47 1066.65 2675.18 1072.64C2674.98 1073.55 2674.73 1074.38 2674.44 1075.11 2674.14 1075.85 2673.76 1076.51 2673.3 1077.09 2672.85 1077.67 2672.24 1078.18 2671.5 1078.64 2670.75 1079.1 2670.06 1079.4 2669.44 1079.56 2668.81 1079.71 2668.15 1079.79 2667.44 1079.79 2666.45 1079.79 2665.57 1079.52 2664.79 1078.96 2664.01 1078.41 2663.31 1077.57 2662.7 1076.43L2665.35 1074.91C2665.9 1075.99 2666.43 1076.79 2666.94 1077.3 2667.44 1077.82 2668 1078.07 2668.61 1078.07 2668.93 1078.07 2669.24 1078.01 2669.55 1077.89 2669.86 1077.76 2670.15 1077.52 2670.4 1077.16 2670.66 1076.79 2670.88 1076.28 2671.07 1075.61 2671.25 1074.95 2671.51 1073.87 2671.82 1072.39L2674.4 1059.95C2674.59 1059 2674.87 1058.09 2675.24 1057.21 2675.6 1056.34 2675.95 1055.71 2676.29 1055.32L2676.25 1055.12C2674.09 1055.12 2672.45 1055.22 2671.34 1055.42 2670.23 1055.61 2669.43 1055.94 2668.94 1056.41 2668.45 1056.88 2668.2 1057.56 2668.2 1058.44 2668.2 1059.11 2668.43 1059.92 2668.89 1060.87L2665.88 1062.04C2665.59 1061.57 2665.39 1061.13 2665.27 1060.72 2665.14 1060.31 2665.08 1059.86 2665.08 1059.36 2665.08 1058.91 2665.2 1058.43 2665.44 1057.93 2665.68 1057.43 2666.1 1056.89 2666.68 1056.32 2667.36 1055.65 2668.2 1055.01 2669.22 1054.4 2670.04 1053.91 2670.82 1053.55 2671.56 1053.34 2672.31 1053.12 2673.13 1052.98 2674.03 1052.9 2674.62 1052.85 2675.54 1052.82 2676.76 1052.82L2678.99 1052.82 2679.51 1053.97C2679.28 1054.48 2679.08 1055.05 2678.91 1055.68 2678.74 1056.31 2678.57 1057.01 2678.4 1057.76L2676.99 1064.36 2686.35 1064.36 2687.36 1059.73C2687.59 1058.74 2687.85 1057.88 2688.17 1057.16 2688.48 1056.43 2688.86 1055.78 2689.31 1055.21 2689.76 1054.65 2690.36 1054.13 2691.11 1053.67 2691.85 1053.21 2692.54 1052.9 2693.18 1052.74 2693.81 1052.58 2694.47 1052.51 2695.18 1052.51Z" fill="#C00000" fill-rule="evenodd"/><text fill="#000000" fill-opacity="0" font-family="Arial,Arial_MSFontService,sans-serif" font-size="27.2852" x="2662.7" y="1076.38">ℋ</text><path d="M2706.61 1067.71C2707.85 1067.71 2708.87 1067.85 2709.68 1068.12 2710.49 1068.38 2711.14 1068.73 2711.62 1069.16 2712.1 1069.59 2712.44 1070.1 2712.64 1070.68 2712.83 1071.26 2712.93 1071.85 2712.93 1072.47 2712.93 1073.24 2712.77 1073.96 2712.46 1074.62 2712.15 1075.28 2711.64 1076 2710.93 1076.78 2710.22 1077.55 2708.95 1078.77 2707.13 1080.43 2705.18 1082.19 2703.77 1083.71 2702.89 1085L2708.7 1085C2709.25 1085 2709.67 1084.98 2709.96 1084.92 2710.25 1084.87 2710.48 1084.78 2710.65 1084.67 2710.83 1084.56 2710.97 1084.42 2711.09 1084.24 2711.21 1084.07 2711.38 1083.7 2711.62 1083.12L2713.25 1083.12 2712.91 1087.66 2699.12 1087.66 2699.12 1086.77C2699.65 1085.62 2700.38 1084.49 2701.29 1083.38 2702.21 1082.27 2703.27 1081.12 2704.48 1079.94 2705.94 1078.55 2706.98 1077.49 2707.59 1076.78 2708.21 1076.08 2708.66 1075.4 2708.95 1074.76 2709.25 1074.12 2709.4 1073.48 2709.4 1072.84 2709.4 1071.77 2709.1 1070.94 2708.5 1070.32 2707.89 1069.71 2707.03 1069.4 2705.9 1069.4 2704.92 1069.4 2704.09 1069.66 2703.41 1070.18 2702.73 1070.69 2702.21 1071.46 2701.86 1072.47L2699.62 1072.47 2699.62 1069.29C2701.01 1068.72 2702.3 1068.32 2703.48 1068.07 2704.65 1067.83 2705.7 1067.71 2706.61 1067.71Z" fill="#C00000" fill-rule="evenodd"/><text fill="#000000" fill-opacity="0" font-family="Arial,Arial_MSFontService,sans-serif" font-size="19.9482" x="2699.12" y="1085.17">2</text><path d="M2681.39 733.601 2683.01 733.601 2683.01 750.574 2683.11 750.601C2684.51 749.187 2685.62 748.197 2686.43 747.633 2687.24 747.069 2688.05 746.644 2688.85 746.358 2689.64 746.071 2690.5 745.928 2691.41 745.928 2692.4 745.928 2693.27 746.044 2694.04 746.277 2694.81 746.51 2695.49 746.864 2696.07 747.338 2696.65 747.812 2697.13 748.394 2697.49 749.084 2697.86 749.773 2698.13 750.596 2698.31 751.554 2698.49 752.512 2698.58 753.725 2698.58 755.193L2698.58 765.318C2698.58 766.875 2698.65 767.936 2698.78 768.5 2698.92 769.064 2699.16 769.503 2699.51 769.816 2699.86 770.129 2700.56 770.429 2701.62 770.716L2701.62 772.032 2691.04 772.032 2691.04 770.716C2691.73 770.501 2692.24 770.313 2692.54 770.152 2692.84 769.991 2693.1 769.767 2693.31 769.48 2693.51 769.194 2693.67 768.751 2693.79 768.151 2693.91 767.551 2693.96 766.643 2693.96 765.425L2693.96 758.389C2693.96 756.008 2693.84 754.186 2693.6 752.924 2693.36 751.662 2692.88 750.717 2692.18 750.091 2691.47 749.464 2690.48 749.151 2689.21 749.151 2688.49 749.151 2687.85 749.276 2687.28 749.527 2686.7 749.777 2686.04 750.225 2685.29 750.87 2684.54 751.514 2683.97 752.176 2683.58 752.857 2683.2 753.537 2683.01 754.262 2683.01 755.032L2683.01 765.318C2683.01 766.535 2683.04 767.404 2683.1 767.923 2683.16 768.442 2683.28 768.876 2683.46 769.225 2683.64 769.574 2683.91 769.861 2684.28 770.085 2684.65 770.308 2685.22 770.519 2685.99 770.716L2685.99 772.032 2675.35 772.032 2675.35 770.716C2676.14 770.501 2676.7 770.295 2677.04 770.098 2677.38 769.901 2677.65 769.65 2677.84 769.346 2678.02 769.042 2678.16 768.603 2678.25 768.03 2678.34 767.457 2678.39 766.553 2678.39 765.318L2678.39 742.84C2678.39 741.121 2678.37 739.921 2678.35 739.241 2678.32 738.561 2678.25 737.983 2678.13 737.509 2678.02 737.034 2677.85 736.663 2677.65 736.394 2677.44 736.126 2677.17 735.911 2676.82 735.75 2676.47 735.589 2675.84 735.428 2674.92 735.266L2674.92 733.87Z" fill="#C00000" fill-rule="evenodd"/><text fill="#000000" fill-opacity="0" font-family="Arial,Arial_MSFontService,sans-serif" font-size="38.4302" x="2674.92" y="767.228">h</text><path d="M2715.23 757.968C2716.58 757.968 2717.74 758.121 2718.7 758.427 2719.65 758.733 2720.43 759.146 2721.03 759.667 2721.63 760.188 2722.06 760.813 2722.33 761.542 2722.59 762.271 2722.73 763.059 2722.73 763.905 2722.73 764.413 2722.69 764.885 2722.62 765.321 2722.55 765.758 2722.43 766.187 2722.25 766.61 2722.07 767.034 2721.84 767.46 2721.56 767.89 2721.27 768.319 2720.91 768.775 2720.48 769.257 2720.16 769.674 2719.73 770.155 2719.21 770.702 2718.69 771.249 2718.12 771.835 2717.5 772.46 2716.89 773.085 2716.24 773.736 2715.56 774.413 2714.88 775.09 2714.23 775.761 2713.59 776.425 2712.95 777.089 2712.36 777.733 2711.83 778.358 2711.3 778.983 2710.86 779.556 2710.52 780.077L2717.75 780.077C2718.36 780.077 2718.85 780.054 2719.21 780.009 2719.58 779.963 2719.88 779.862 2720.12 779.706 2720.36 779.55 2720.57 779.312 2720.74 778.993 2720.91 778.674 2721.1 778.235 2721.32 777.675L2723.14 777.675C2723.07 778.599 2723.01 779.53 2722.95 780.468 2722.89 781.405 2722.83 782.336 2722.77 783.261L2706.22 783.261 2706.22 782.245C2706.54 781.542 2706.9 780.849 2707.32 780.165 2707.74 779.481 2708.2 778.788 2708.72 778.085 2709.25 777.382 2709.84 776.656 2710.5 775.907 2711.17 775.159 2711.9 774.381 2712.71 773.573 2713.93 772.349 2714.93 771.304 2715.7 770.438 2716.47 769.573 2717.07 768.801 2717.51 768.124 2717.96 767.447 2718.26 766.822 2718.42 766.249 2718.58 765.676 2718.67 765.064 2718.67 764.413 2718.67 763.749 2718.57 763.137 2718.38 762.577 2718.19 762.017 2717.92 761.542 2717.57 761.151 2717.22 760.761 2716.77 760.455 2716.23 760.233 2715.69 760.012 2715.07 759.901 2714.37 759.901 2713.16 759.901 2712.14 760.23 2711.32 760.888 2710.5 761.545 2709.86 762.499 2709.41 763.749L2706.85 763.749 2706.85 759.94C2708.52 759.25 2710.05 758.749 2711.45 758.437 2712.85 758.124 2714.11 757.968 2715.23 757.968Z" fill="#C00000" fill-rule="evenodd"/><text fill="#000000" fill-opacity="0" font-family="Arial,Arial_MSFontService,sans-serif" font-size="25.293" x="2706.22" y="780.099">2</text><path d="M2763.94 740.396 2774.95 740.396 2774.95 744.129 2763.92 744.129C2762.14 744.129 2760.71 744.227 2759.61 744.424 2758.51 744.621 2757.59 744.939 2756.85 745.378 2756.12 745.816 2755.45 746.438 2754.85 747.244 2754.25 748.05 2753.78 749.039 2753.44 750.212 2753.1 751.384 2752.89 752.714 2752.8 754.2L2774.95 754.2 2774.95 757.932 2752.77 757.932C2752.86 759.598 2753.1 761.075 2753.5 762.364 2753.89 763.653 2754.49 764.749 2755.28 765.653 2756.08 766.558 2757.11 767.224 2758.37 767.654 2759.63 768.084 2761.38 768.299 2763.59 768.299L2774.95 768.299 2774.95 772.032 2763.49 772.032C2761.73 772.032 2760.21 771.924 2758.92 771.709 2757.63 771.495 2756.47 771.145 2755.43 770.662 2754.39 770.179 2753.41 769.449 2752.49 768.473 2751.57 767.497 2750.82 766.419 2750.25 765.237 2749.67 764.056 2749.25 762.722 2748.96 761.236 2748.67 759.75 2748.53 758.138 2748.53 756.402 2748.53 753.573 2748.81 751.232 2749.36 749.379 2749.92 747.526 2750.85 745.879 2752.15 744.438 2753.46 742.996 2755.03 741.962 2756.85 741.336 2758.68 740.709 2761.04 740.396 2763.94 740.396Z" fill="#C00000" fill-rule="evenodd"/><text fill="#000000" fill-opacity="0" font-family="Arial,Arial_MSFontService,sans-serif" font-size="31.6357" x="2748.53" y="768.077">∈</text><path d="M2838.96 734.944C2840.35 734.944 2841.6 735.32 2842.69 736.072 2843.78 736.824 2844.76 737.988 2845.62 739.563L2841.61 741.282C2840.88 739.796 2840.21 738.762 2839.61 738.18 2839.01 737.598 2838.28 737.307 2837.43 737.307 2837 737.307 2836.59 737.37 2836.22 737.495 2835.84 737.621 2835.52 737.827 2835.25 738.113 2834.98 738.4 2834.74 738.762 2834.52 739.201 2834.31 739.639 2834.1 740.257 2833.88 741.054 2833.67 741.851 2833.35 743.207 2832.94 745.122L2829.45 761.236C2829.22 762.328 2829.03 763.348 2828.9 764.297 2828.76 765.246 2828.7 766.007 2828.7 766.58 2828.7 767.439 2828.89 768.097 2829.26 768.554 2829.64 769.01 2830.22 769.239 2831.01 769.239 2831.62 769.239 2832.18 769.073 2832.71 768.742 2833.24 768.411 2834.18 767.529 2835.55 766.097L2837.13 767.574C2835.8 769.06 2834.73 770.102 2833.91 770.702 2833.08 771.302 2832.24 771.745 2831.38 772.032 2830.52 772.318 2829.57 772.461 2828.51 772.461 2827.17 772.461 2826.05 771.964 2825.15 770.971 2824.26 769.977 2823.81 768.675 2823.81 767.063 2823.81 766.473 2823.88 765.667 2824.01 764.646 2824.15 763.626 2824.31 762.695 2824.51 761.853L2826.12 754.388 2813.23 754.388 2811.46 762.632C2811.19 763.885 2810.85 765.018 2810.44 766.029 2810.02 767.041 2809.5 767.945 2808.88 768.742 2808.25 769.539 2807.42 770.25 2806.39 770.877 2805.36 771.503 2804.42 771.924 2803.56 772.139 2802.7 772.354 2801.79 772.461 2800.82 772.461 2799.46 772.461 2798.24 772.081 2797.17 771.32 2796.09 770.559 2795.14 769.4 2794.3 767.842L2797.95 765.747C2798.7 767.233 2799.42 768.33 2800.12 769.037 2800.82 769.744 2801.59 770.098 2802.43 770.098 2802.86 770.098 2803.29 770.013 2803.72 769.843 2804.15 769.673 2804.54 769.337 2804.89 768.836 2805.24 768.335 2805.54 767.627 2805.8 766.714 2806.06 765.801 2806.41 764.324 2806.84 762.283L2810.38 745.176C2810.65 743.869 2811.04 742.616 2811.54 741.416 2812.04 740.217 2812.52 739.349 2812.99 738.811L2812.93 738.543C2809.96 738.543 2807.71 738.677 2806.18 738.946 2804.65 739.214 2803.55 739.671 2802.88 740.315 2802.2 740.96 2801.87 741.891 2801.87 743.108 2801.87 744.021 2802.18 745.131 2802.81 746.438L2798.67 748.05C2798.28 747.405 2798 746.801 2797.83 746.237 2797.66 745.673 2797.57 745.051 2797.57 744.37 2797.57 743.744 2797.74 743.086 2798.07 742.397 2798.4 741.707 2798.97 740.969 2799.77 740.181 2800.7 739.268 2801.87 738.391 2803.27 737.549 2804.39 736.869 2805.47 736.381 2806.49 736.086 2807.51 735.79 2808.64 735.589 2809.87 735.481 2810.7 735.41 2811.95 735.374 2813.63 735.374L2816.69 735.374 2817.42 736.958C2817.1 737.657 2816.82 738.44 2816.59 739.308 2816.35 740.177 2816.12 741.13 2815.89 742.168L2813.95 751.245 2826.82 751.245 2828.21 744.881C2828.52 743.52 2828.89 742.338 2829.31 741.336 2829.74 740.333 2830.27 739.443 2830.89 738.664 2831.5 737.885 2832.33 737.178 2833.36 736.542 2834.39 735.907 2835.33 735.481 2836.2 735.266 2837.07 735.052 2837.99 734.944 2838.96 734.944Z" fill="#C00000" fill-rule="evenodd"/><text fill="#000000" fill-opacity="0" font-family="Arial,Arial_MSFontService,sans-serif" font-size="37.5171" x="2794.3" y="767.772">ℋ</text><path d="M2853.23 757.968C2854.59 757.968 2855.74 758.121 2856.7 758.427 2857.66 758.733 2858.43 759.146 2859.03 759.667 2859.63 760.188 2860.07 760.813 2860.33 761.542 2860.6 762.271 2860.73 763.059 2860.73 763.905 2860.73 764.413 2860.7 764.885 2860.63 765.321 2860.55 765.758 2860.43 766.187 2860.25 766.61 2860.08 767.034 2859.85 767.46 2859.56 767.89 2859.27 768.319 2858.92 768.775 2858.49 769.257 2858.16 769.674 2857.74 770.155 2857.22 770.702 2856.7 771.249 2856.13 771.835 2855.51 772.46 2854.89 773.085 2854.24 773.736 2853.56 774.413 2852.89 775.09 2852.23 775.761 2851.59 776.425 2850.95 777.089 2850.37 777.733 2849.83 778.358 2849.3 778.983 2848.86 779.556 2848.53 780.077L2855.75 780.077C2856.36 780.077 2856.85 780.054 2857.22 780.009 2857.58 779.963 2857.88 779.862 2858.13 779.706 2858.37 779.55 2858.57 779.312 2858.74 778.993 2858.91 778.674 2859.1 778.235 2859.33 777.675L2861.14 777.675C2861.08 778.599 2861.02 779.53 2860.96 780.468 2860.9 781.405 2860.84 782.336 2860.77 783.261L2844.23 783.261 2844.23 782.245C2844.54 781.542 2844.91 780.849 2845.32 780.165 2845.74 779.481 2846.21 778.788 2846.73 778.085 2847.25 777.382 2847.84 776.656 2848.51 775.907 2849.17 775.159 2849.91 774.381 2850.71 773.573 2851.94 772.349 2852.93 771.304 2853.7 770.438 2854.47 769.573 2855.08 768.801 2855.52 768.124 2855.96 767.447 2856.26 766.822 2856.43 766.249 2856.59 765.676 2856.67 765.064 2856.67 764.413 2856.67 763.749 2856.58 763.137 2856.39 762.577 2856.2 762.017 2855.93 761.542 2855.58 761.151 2855.22 760.761 2854.78 760.455 2854.24 760.233 2853.7 760.012 2853.08 759.901 2852.37 759.901 2851.16 759.901 2850.15 760.23 2849.33 760.888 2848.51 761.545 2847.87 762.499 2847.41 763.749L2844.85 763.749 2844.85 759.94C2846.52 759.25 2848.05 758.749 2849.45 758.437 2850.85 758.124 2852.11 757.968 2853.23 757.968Z" fill="#C00000" fill-rule="evenodd"/><text fill="#000000" fill-opacity="0" font-family="Arial,Arial_MSFontService,sans-serif" font-size="25.293" x="2844.23" y="780.099">2</text><path d="M2323.25 525.13 2324.87 525.13 2324.87 542.102 2324.97 542.129C2326.37 540.715 2327.47 539.726 2328.29 539.162 2329.1 538.598 2329.91 538.173 2330.71 537.886 2331.5 537.6 2332.36 537.456 2333.27 537.456 2334.26 537.456 2335.13 537.573 2335.9 537.806 2336.67 538.038 2337.35 538.392 2337.93 538.866 2338.51 539.341 2338.99 539.923 2339.35 540.612 2339.72 541.301 2339.99 542.125 2340.17 543.083 2340.35 544.04 2340.44 545.253 2340.44 546.722L2340.44 556.846C2340.44 558.404 2340.51 559.464 2340.64 560.028 2340.78 560.592 2341.02 561.031 2341.37 561.344 2341.72 561.658 2342.42 561.958 2343.48 562.244L2343.48 563.56 2332.9 563.56 2332.9 562.244C2333.59 562.029 2334.09 561.841 2334.4 561.68 2334.7 561.519 2334.96 561.295 2335.16 561.009 2335.37 560.722 2335.53 560.279 2335.65 559.679 2335.76 559.08 2335.82 558.171 2335.82 556.953L2335.82 549.917C2335.82 547.536 2335.7 545.714 2335.46 544.452 2335.22 543.19 2334.74 542.246 2334.04 541.619 2333.33 540.992 2332.34 540.679 2331.07 540.679 2330.35 540.679 2329.71 540.804 2329.14 541.055 2328.56 541.306 2327.9 541.753 2327.15 542.398 2326.4 543.042 2325.83 543.705 2325.44 544.385 2325.06 545.065 2324.87 545.791 2324.87 546.56L2324.87 556.846C2324.87 558.064 2324.9 558.932 2324.96 559.451 2325.02 559.97 2325.14 560.404 2325.32 560.754 2325.5 561.103 2325.77 561.389 2326.14 561.613 2326.51 561.837 2327.08 562.047 2327.85 562.244L2327.85 563.56 2317.21 563.56 2317.21 562.244C2318 562.029 2318.56 561.823 2318.9 561.626 2319.24 561.429 2319.51 561.179 2319.7 560.874 2319.88 560.57 2320.02 560.131 2320.11 559.558 2320.2 558.986 2320.25 558.081 2320.25 556.846L2320.25 534.368C2320.25 532.649 2320.23 531.45 2320.21 530.769 2320.18 530.089 2320.11 529.512 2319.99 529.037 2319.87 528.563 2319.71 528.191 2319.51 527.923 2319.3 527.654 2319.02 527.439 2318.68 527.278 2318.33 527.117 2317.7 526.956 2316.78 526.795L2316.78 525.398Z" fill="#C00000" fill-rule="evenodd"/><text fill="#000000" fill-opacity="0" font-family="Arial,Arial_MSFontService,sans-serif" font-size="38.4302" x="2316.78" y="558.756">h</text><path d="M2357.01 551.391C2356.1 551.391 2355.34 551.628 2354.72 552.104 2354.11 552.579 2353.63 553.275 2353.27 554.193 2352.91 555.111 2352.66 556.231 2352.51 557.553 2352.36 558.874 2352.28 560.375 2352.28 562.055 2352.28 563.995 2352.38 565.671 2352.57 567.084 2352.76 568.497 2353.05 569.659 2353.45 570.57 2353.84 571.482 2354.34 572.152 2354.94 572.582 2355.54 573.012 2356.25 573.227 2357.09 573.227 2357.87 573.227 2358.55 573.025 2359.14 572.621 2359.72 572.218 2360.21 571.589 2360.59 570.736 2360.98 569.884 2361.27 568.803 2361.46 567.494 2361.66 566.186 2361.76 564.639 2361.76 562.856 2361.76 560.85 2361.65 559.125 2361.43 557.68 2361.22 556.234 2360.92 555.046 2360.53 554.115 2360.13 553.184 2359.64 552.497 2359.05 552.055 2358.46 551.612 2357.78 551.391 2357.01 551.391ZM2357.09 549.496C2358.64 549.496 2359.96 549.786 2361.06 550.365 2362.16 550.945 2363.06 551.772 2363.76 552.846 2364.45 553.92 2364.97 555.232 2365.29 556.781 2365.62 558.331 2365.78 560.082 2365.78 562.035 2365.78 566.371 2365.01 569.649 2363.47 571.869 2361.94 574.089 2359.71 575.199 2356.79 575.199 2353.9 575.199 2351.76 574.151 2350.35 572.055 2348.94 569.958 2348.24 566.781 2348.24 562.523 2348.24 560.297 2348.46 558.37 2348.89 556.742 2349.33 555.115 2349.94 553.764 2350.73 552.69 2351.52 551.615 2352.45 550.815 2353.53 550.287 2354.61 549.76 2355.8 549.496 2357.09 549.496Z" fill="#C00000" fill-rule="evenodd"/><text fill="#000000" fill-opacity="0" font-family="Arial,Arial_MSFontService,sans-serif" font-size="25.7031" x="2348.24" y="571.986">0</text><path d="M2405.8 531.924 2416.81 531.924 2416.81 535.657 2405.78 535.657C2404 535.657 2402.57 535.756 2401.47 535.953 2400.37 536.149 2399.45 536.467 2398.71 536.906 2397.98 537.345 2397.31 537.967 2396.71 538.772 2396.11 539.578 2395.64 540.567 2395.3 541.74 2394.96 542.913 2394.75 544.242 2394.66 545.728L2416.81 545.728 2416.81 549.461 2394.63 549.461C2394.72 551.126 2394.96 552.603 2395.36 553.892 2395.75 555.181 2396.35 556.278 2397.14 557.182 2397.94 558.086 2398.97 558.753 2400.23 559.182 2401.49 559.612 2403.23 559.827 2405.45 559.827L2416.81 559.827 2416.81 563.56 2405.35 563.56C2403.59 563.56 2402.07 563.453 2400.78 563.238 2399.49 563.023 2398.33 562.674 2397.29 562.19 2396.25 561.707 2395.27 560.977 2394.35 560.002 2393.43 559.026 2392.68 557.947 2392.11 556.766 2391.53 555.584 2391.1 554.25 2390.82 552.764 2390.53 551.278 2390.39 549.667 2390.39 547.93 2390.39 545.101 2390.67 542.76 2391.22 540.907 2391.78 539.054 2392.71 537.407 2394.01 535.966 2395.32 534.525 2396.89 533.491 2398.71 532.864 2400.54 532.237 2402.9 531.924 2405.8 531.924Z" fill="#C00000" fill-rule="evenodd"/><text fill="#000000" fill-opacity="0" font-family="Arial,Arial_MSFontService,sans-serif" font-size="31.6357" x="2390.39" y="559.605">∈</text><path d="M2480.82 526.473C2482.21 526.473 2483.46 526.849 2484.55 527.6 2485.64 528.352 2486.62 529.516 2487.48 531.092L2483.47 532.81C2482.74 531.324 2482.07 530.29 2481.47 529.709 2480.87 529.127 2480.14 528.836 2479.28 528.836 2478.85 528.836 2478.45 528.898 2478.08 529.024 2477.7 529.149 2477.38 529.355 2477.11 529.641 2476.84 529.928 2476.6 530.29 2476.38 530.729 2476.17 531.168 2475.95 531.785 2475.74 532.582 2475.52 533.379 2475.21 534.735 2474.8 536.651L2471.31 552.764C2471.08 553.856 2470.89 554.877 2470.76 555.826 2470.62 556.774 2470.56 557.535 2470.56 558.108 2470.56 558.968 2470.74 559.626 2471.12 560.082 2471.5 560.539 2472.08 560.767 2472.87 560.767 2473.47 560.767 2474.04 560.601 2474.57 560.27 2475.1 559.939 2476.04 559.057 2477.4 557.625L2478.99 559.102C2477.66 560.588 2476.59 561.631 2475.77 562.231 2474.94 562.83 2474.1 563.273 2473.24 563.56 2472.38 563.846 2471.43 563.99 2470.37 563.99 2469.03 563.99 2467.91 563.493 2467.01 562.499 2466.12 561.505 2465.67 560.203 2465.67 558.592 2465.67 558.001 2465.74 557.195 2465.87 556.175 2466 555.154 2466.17 554.223 2466.37 553.382L2467.98 545.916 2455.09 545.916 2453.32 554.161C2453.05 555.414 2452.71 556.546 2452.29 557.558 2451.88 558.569 2451.36 559.473 2450.74 560.27 2450.11 561.067 2449.28 561.779 2448.25 562.405 2447.22 563.032 2446.28 563.453 2445.42 563.667 2444.56 563.882 2443.65 563.99 2442.68 563.99 2441.32 563.99 2440.1 563.609 2439.03 562.848 2437.95 562.087 2437 560.928 2436.15 559.37L2439.81 557.276C2440.56 558.762 2441.28 559.858 2441.98 560.566 2442.68 561.273 2443.45 561.626 2444.29 561.626 2444.72 561.626 2445.15 561.541 2445.58 561.371 2446.01 561.201 2446.4 560.865 2446.75 560.364 2447.1 559.863 2447.4 559.156 2447.66 558.243 2447.92 557.329 2448.27 555.852 2448.7 553.811L2452.24 536.704C2452.51 535.398 2452.89 534.144 2453.4 532.945 2453.9 531.745 2454.38 530.877 2454.85 530.34L2454.79 530.071C2451.82 530.071 2449.57 530.205 2448.04 530.474 2446.51 530.743 2445.41 531.199 2444.74 531.844 2444.06 532.488 2443.73 533.419 2443.73 534.637 2443.73 535.55 2444.04 536.66 2444.67 537.967L2440.53 539.578C2440.14 538.933 2439.86 538.329 2439.69 537.765 2439.52 537.201 2439.43 536.579 2439.43 535.899 2439.43 535.272 2439.6 534.614 2439.93 533.925 2440.26 533.236 2440.83 532.497 2441.63 531.709 2442.56 530.796 2443.73 529.919 2445.12 529.078 2446.25 528.397 2447.33 527.909 2448.35 527.614 2449.37 527.318 2450.5 527.117 2451.73 527.01 2452.55 526.938 2453.81 526.902 2455.49 526.902L2458.55 526.902 2459.28 528.487C2458.96 529.185 2458.68 529.968 2458.44 530.837 2458.21 531.705 2457.98 532.658 2457.75 533.697L2455.81 542.774 2468.68 542.774 2470.07 536.409C2470.38 535.048 2470.74 533.867 2471.17 532.864 2471.6 531.862 2472.13 530.971 2472.75 530.192 2473.36 529.413 2474.19 528.706 2475.22 528.07 2476.25 527.435 2477.19 527.01 2478.06 526.795 2478.93 526.58 2479.85 526.473 2480.82 526.473Z" fill="#C00000" fill-rule="evenodd"/><text fill="#000000" fill-opacity="0" font-family="Arial,Arial_MSFontService,sans-serif" font-size="37.5171" x="2436.15" y="559.3">ℋ</text><path d="M2495.01 551.391C2494.1 551.391 2493.34 551.628 2492.73 552.104 2492.12 552.579 2491.63 553.275 2491.27 554.193 2490.92 555.111 2490.66 556.231 2490.51 557.553 2490.36 558.874 2490.29 560.375 2490.29 562.055 2490.29 563.995 2490.38 565.671 2490.57 567.084 2490.76 568.497 2491.05 569.659 2491.45 570.57 2491.85 571.482 2492.34 572.152 2492.94 572.582 2493.54 573.012 2494.26 573.227 2495.09 573.227 2495.87 573.227 2496.56 573.025 2497.14 572.621 2497.73 572.218 2498.21 571.589 2498.6 570.736 2498.98 569.884 2499.27 568.803 2499.47 567.494 2499.66 566.186 2499.76 564.639 2499.76 562.856 2499.76 560.85 2499.65 559.125 2499.44 557.68 2499.22 556.234 2498.92 555.046 2498.53 554.115 2498.14 553.184 2497.65 552.497 2497.05 552.055 2496.46 551.612 2495.78 551.391 2495.01 551.391ZM2495.09 549.496C2496.64 549.496 2497.97 549.786 2499.07 550.365 2500.17 550.945 2501.07 551.772 2501.76 552.846 2502.46 553.92 2502.97 555.232 2503.3 556.781 2503.62 558.331 2503.78 560.082 2503.78 562.035 2503.78 566.371 2503.02 569.649 2501.48 571.869 2499.94 574.089 2497.72 575.199 2494.8 575.199 2491.91 575.199 2489.76 574.151 2488.35 572.055 2486.95 569.958 2486.24 566.781 2486.24 562.523 2486.24 560.297 2486.46 558.37 2486.9 556.742 2487.33 555.115 2487.95 553.764 2488.73 552.69 2489.52 551.615 2490.46 550.815 2491.54 550.287 2492.62 549.76 2493.8 549.496 2495.09 549.496Z" fill="#C00000" fill-rule="evenodd"/><text fill="#000000" fill-opacity="0" font-family="Arial,Arial_MSFontService,sans-serif" font-size="25.7031" x="2486.24" y="571.986">0</text></g></svg>