<svg width="1592" height="856" xmlns="http://www.w3.org/2000/svg" xmlns:xlink="http://www.w3.org/1999/xlink" xml:space="preserve" overflow="hidden"><g transform="translate(-1100 -1068)"><path d="M2535.5 1254.21C2490.72 1287.68 2445.93 1321.15 2314.35 1351.75 2182.77 1382.35 1882.36 1431.88 1746.01 1437.81 1609.65 1443.74 1564.96 1435.71 1496.21 1387.32 1427.46 1338.94 1380.48 1243.22 1333.5 1147.5" stroke="#172C51" stroke-width="4.58333" stroke-miterlimit="8" stroke-dasharray="18.3333 13.75" fill="none" fill-rule="evenodd"/><path d="M3.4375-2.07544e-06 3.43785 574.819-3.43715 574.819-3.4375 2.07544e-06ZM13.7503 570.236 0.000360892 597.736-13.7497 570.236Z" transform="matrix(1 0 0 -1 1234.5 1724.24)"/><text font-family="Times New Roman,Times New Roman_MSFontService,sans-serif" font-weight="400" font-size="83" transform="matrix(-1.83697e-16 -1 1 -1.83697e-16 1204.97 1321)">error</text><path d="M2031 1123 2113 1123" stroke="#172C51" stroke-width="10.3125" stroke-miterlimit="8" fill="none" fill-rule="evenodd"/><text font-family="Times New Roman,Times New Roman_MSFontService,sans-serif" font-weight="400" font-size="55" transform="matrix(1 0 0 1 2132.96 1138)">training error</text><path d="M2031.5 1181.5 2113.5 1181.5" stroke="#172C51" stroke-width="4.58333" stroke-miterlimit="8" stroke-dasharray="18.3333 13.75" fill="none" fill-rule="evenodd"/><text font-family="Times New Roman,Times New Roman_MSFontService,sans-serif" font-weight="400" font-size="55" transform="matrix(1 0 0 1 2128.95 1192)">generalization bound</text><path d="M1324 1337C1401.33 1415.91 1478.66 1494.83 1581.41 1540.55 1684.16 1586.28 1782.41 1596.11 1940.51 1611.35 2098.6 1626.59 2314.3 1629.3 2530 1632" stroke="#172C51" stroke-width="10.3125" stroke-miterlimit="8" fill="none" fill-rule="evenodd"/><path d="M0.00284199-3.4375 1331.59-2.3366 1331.59 4.5384-0.00284199 3.4375ZM1327.02-12.6529 1354.5 1.11985 1326.99 14.8471Z" transform="matrix(1 0 0 -1 1234.5 1721.62)"/><path d="M2055.16 1799.65 2101.28 1799.65 2101.28 1801.64C2099.28 1802.13 2098 1802.78 2097.43 1803.61 2096.86 1804.43 2096.58 1806.49 2096.58 1809.79L2096.58 1844.84C2096.58 1848.06 2096.86 1850.1 2097.43 1850.96 2098 1851.83 2099.28 1852.5 2101.28 1852.99L2101.28 1854.97 2084.26 1854.97 2084.26 1852.99C2086.18 1852.53 2087.44 1851.9 2088.05 1851.1 2088.66 1850.31 2088.96 1848.22 2088.96 1844.84L2088.96 1803.38 2067.48 1803.38 2067.48 1844.84C2067.48 1848.22 2067.8 1850.31 2068.43 1851.1 2069.07 1851.9 2070.33 1852.53 2072.22 1852.99L2072.22 1854.97 2055.16 1854.97 2055.16 1852.99C2057.13 1852.5 2058.42 1851.85 2059.01 1851.04 2059.6 1850.23 2059.9 1848.17 2059.9 1844.84L2059.9 1809.79C2059.9 1806.41 2059.58 1804.32 2058.95 1803.52 2058.31 1802.73 2057.05 1802.1 2055.16 1801.64Z" fill-rule="evenodd"/><text fill="#000000" fill-opacity="0" font-family="Arial,Arial_MSFontService,sans-serif" font-size="55.3198" x="2055.16" y="1848.06">Î </text><path d="M2155.36 1830.68C2156.91 1830.68 2158.29 1831.1 2159.5 1831.94 2160.71 1832.77 2161.8 1834.06 2162.75 1835.81L2158.31 1837.71C2157.5 1836.07 2156.76 1834.92 2156.09 1834.27 2155.43 1833.63 2154.62 1833.31 2153.66 1833.31 2153.19 1833.31 2152.74 1833.38 2152.32 1833.51 2151.91 1833.65 2151.55 1833.88 2151.25 1834.2 2150.95 1834.52 2150.69 1834.92 2150.45 1835.41 2150.21 1835.89 2149.97 1836.58 2149.73 1837.46 2149.49 1838.34 2149.15 1839.85 2148.69 1841.97L2144.82 1859.84C2144.56 1861.06 2144.36 1862.19 2144.21 1863.24 2144.06 1864.29 2143.98 1865.14 2143.98 1865.77 2143.98 1866.72 2144.19 1867.45 2144.61 1867.96 2145.03 1868.47 2145.67 1868.72 2146.55 1868.72 2147.22 1868.72 2147.85 1868.54 2148.44 1868.17 2149.02 1867.8 2150.07 1866.82 2151.58 1865.24L2153.34 1866.87C2151.87 1868.52 2150.68 1869.68 2149.76 1870.34 2148.85 1871.01 2147.92 1871.5 2146.96 1871.82 2146.01 1872.14 2144.95 1872.29 2143.78 1872.29 2142.29 1872.29 2141.05 1871.74 2140.05 1870.64 2139.06 1869.54 2138.56 1868.09 2138.56 1866.31 2138.56 1865.65 2138.64 1864.76 2138.79 1863.63 2138.94 1862.5 2139.12 1861.46 2139.34 1860.53L2141.12 1852.25 2126.83 1852.25 2124.86 1861.39C2124.56 1862.78 2124.19 1864.04 2123.73 1865.16 2123.27 1866.28 2122.7 1867.29 2122 1868.17 2121.31 1869.05 2120.39 1869.84 2119.25 1870.54 2118.11 1871.23 2117.06 1871.7 2116.1 1871.94 2115.15 1872.18 2114.14 1872.29 2113.07 1872.29 2111.56 1872.29 2110.21 1871.87 2109.02 1871.03 2107.82 1870.18 2106.76 1868.9 2105.83 1867.17L2109.88 1864.85C2110.71 1866.5 2111.52 1867.71 2112.29 1868.5 2113.07 1869.28 2113.92 1869.67 2114.85 1869.67 2115.33 1869.67 2115.81 1869.58 2116.28 1869.39 2116.76 1869.2 2117.19 1868.83 2117.58 1868.27 2117.97 1867.72 2118.3 1866.93 2118.59 1865.92 2118.88 1864.91 2119.26 1863.27 2119.74 1861.01L2123.67 1842.03C2123.97 1840.58 2124.4 1839.19 2124.95 1837.86 2125.51 1836.53 2126.04 1835.57 2126.56 1834.97L2126.5 1834.68C2123.2 1834.68 2120.71 1834.82 2119.01 1835.12 2117.31 1835.42 2116.09 1835.93 2115.35 1836.64 2114.6 1837.36 2114.23 1838.39 2114.23 1839.74 2114.23 1840.75 2114.58 1841.98 2115.27 1843.43L2110.68 1845.22C2110.25 1844.51 2109.93 1843.83 2109.75 1843.21 2109.56 1842.58 2109.46 1841.89 2109.46 1841.14 2109.46 1840.44 2109.65 1839.71 2110.01 1838.95 2110.38 1838.19 2111.01 1837.37 2111.91 1836.49 2112.94 1835.48 2114.23 1834.51 2115.78 1833.57 2117.03 1832.82 2118.22 1832.28 2119.35 1831.95 2120.48 1831.62 2121.73 1831.4 2123.1 1831.28 2124.02 1831.2 2125.41 1831.16 2127.27 1831.16L2130.67 1831.16 2131.47 1832.92C2131.12 1833.69 2130.81 1834.56 2130.55 1835.52 2130.29 1836.49 2130.03 1837.55 2129.78 1838.7L2127.63 1848.76 2141.9 1848.76 2143.45 1841.71C2143.79 1840.2 2144.19 1838.89 2144.67 1837.77 2145.15 1836.66 2145.73 1835.67 2146.41 1834.81 2147.1 1833.95 2148.01 1833.16 2149.15 1832.46 2150.29 1831.75 2151.35 1831.28 2152.31 1831.04 2153.27 1830.8 2154.29 1830.68 2155.36 1830.68Z" fill-rule="evenodd"/><text fill="#000000" fill-opacity="0" font-family="Arial,Arial_MSFontService,sans-serif" font-size="41.6099" x="2105.83" y="1867.09">â„‹</text><text font-family="Times New Roman,Times New Roman_MSFontService,sans-serif" font-weight="400" font-size="83" transform="matrix(1 0 0 1 2167.73 1855)">-</text><text font-family="Times New Roman,Times New Roman_MSFontService,sans-serif" font-weight="400" font-size="83" transform="matrix(1 0 0 1 2195.23 1855)">complexity</text><path d="M1748.5 1453.5 1748.5 1720.21" stroke="#C00000" stroke-width="4.58333" stroke-miterlimit="8" fill="none" fill-rule="evenodd"/><path d="M1732 1436C1732 1426.61 1739.39 1419 1748.5 1419 1757.61 1419 1765 1426.61 1765 1436 1765 1445.39 1757.61 1453 1748.5 1453 1739.39 1453 1732 1445.39 1732 1436Z" fill="#C00000" fill-rule="evenodd"/><path d="M1783.84 1439.25 1785.45 1439.25 1785.45 1456.22 1785.55 1456.25C1786.95 1454.84 1788.06 1453.85 1788.87 1453.28 1789.69 1452.72 1790.49 1452.29 1791.29 1452.01 1792.08 1451.72 1792.94 1451.58 1793.85 1451.58 1794.84 1451.58 1795.71 1451.7 1796.48 1451.93 1797.25 1452.16 1797.93 1452.51 1798.51 1452.99 1799.09 1453.46 1799.57 1454.04 1799.94 1454.73 1800.3 1455.42 1800.58 1456.25 1800.75 1457.2 1800.93 1458.16 1801.02 1459.38 1801.02 1460.84L1801.02 1470.97C1801.02 1472.53 1801.09 1473.59 1801.22 1474.15 1801.36 1474.71 1801.6 1475.15 1801.95 1475.47 1802.3 1475.78 1803 1476.08 1804.06 1476.37L1804.06 1477.68 1793.48 1477.68 1793.48 1476.37C1794.18 1476.15 1794.68 1475.96 1794.98 1475.8 1795.29 1475.64 1795.54 1475.42 1795.75 1475.13 1795.95 1474.84 1796.11 1474.4 1796.23 1473.8 1796.35 1473.2 1796.4 1472.29 1796.4 1471.08L1796.4 1464.04C1796.4 1461.66 1796.28 1459.84 1796.04 1458.57 1795.8 1457.31 1795.33 1456.37 1794.62 1455.74 1793.91 1455.11 1792.92 1454.8 1791.65 1454.8 1790.93 1454.8 1790.29 1454.93 1789.72 1455.18 1789.14 1455.43 1788.48 1455.88 1787.73 1456.52 1786.98 1457.16 1786.41 1457.83 1786.02 1458.51 1785.64 1459.19 1785.45 1459.91 1785.45 1460.68L1785.45 1470.97C1785.45 1472.19 1785.48 1473.05 1785.54 1473.57 1785.6 1474.09 1785.72 1474.53 1785.9 1474.88 1786.08 1475.22 1786.36 1475.51 1786.72 1475.74 1787.09 1475.96 1787.66 1476.17 1788.43 1476.37L1788.43 1477.68 1777.79 1477.68 1777.79 1476.37C1778.58 1476.15 1779.14 1475.95 1779.49 1475.75 1779.83 1475.55 1780.09 1475.3 1780.28 1475 1780.47 1474.69 1780.6 1474.25 1780.69 1473.68 1780.78 1473.11 1780.83 1472.2 1780.83 1470.97L1780.83 1448.49C1780.83 1446.77 1780.81 1445.57 1780.79 1444.89 1780.76 1444.21 1780.69 1443.63 1780.57 1443.16 1780.46 1442.69 1780.3 1442.31 1780.09 1442.05 1779.88 1441.78 1779.61 1441.56 1779.26 1441.4 1778.91 1441.24 1778.28 1441.08 1777.36 1440.92L1777.36 1439.52Z" fill="#C00000" fill-rule="evenodd"/><text fill="#000000" fill-opacity="0" font-family="Arial,Arial_MSFontService,sans-serif" font-size="38.4302" x="1777.36" y="1472.88">h</text><path d="M1817.91 1463.76 1819.1 1463.76C1819.08 1464.47 1819.06 1465.11 1819.04 1465.68 1819.03 1466.25 1819.02 1466.8 1819.01 1467.33 1819.01 1467.86 1819 1468.39 1819 1468.91L1819 1483.76C1819 1484.16 1819.02 1484.51 1819.04 1484.8 1819.07 1485.09 1819.11 1485.34 1819.17 1485.54 1819.23 1485.74 1819.31 1485.92 1819.4 1486.06 1819.5 1486.2 1819.62 1486.33 1819.75 1486.43 1819.9 1486.59 1820.11 1486.71 1820.37 1486.79 1820.63 1486.88 1820.96 1486.95 1821.37 1487.01 1821.77 1487.07 1822.26 1487.11 1822.82 1487.14 1823.39 1487.18 1824.07 1487.2 1824.86 1487.21L1824.86 1488.91 1809.37 1488.91 1809.37 1487.21C1810.14 1487.19 1810.79 1487.16 1811.33 1487.12 1811.86 1487.09 1812.32 1487.05 1812.69 1486.99 1813.07 1486.93 1813.38 1486.86 1813.6 1486.79 1813.83 1486.72 1814.03 1486.63 1814.2 1486.53 1814.38 1486.41 1814.54 1486.28 1814.67 1486.15 1814.8 1486.01 1814.9 1485.84 1814.98 1485.63 1815.06 1485.42 1815.12 1485.17 1815.17 1484.87 1815.21 1484.57 1815.23 1484.2 1815.23 1483.76L1815.23 1469.75C1815.23 1469.24 1815.14 1468.89 1814.94 1468.68 1814.75 1468.47 1814.47 1468.36 1814.1 1468.36 1813.7 1468.36 1813.1 1468.57 1812.3 1468.99 1811.51 1469.41 1810.48 1470.02 1809.22 1470.85 1809.05 1470.55 1808.89 1470.25 1808.75 1469.95 1808.61 1469.65 1808.46 1469.34 1808.3 1469.03 1809.91 1468.14 1811.51 1467.26 1813.1 1466.38 1814.68 1465.5 1816.28 1464.63 1817.91 1463.76Z" fill="#C00000" fill-rule="evenodd"/><text fill="#000000" fill-opacity="0" font-family="Arial,Arial_MSFontService,sans-serif" font-size="25.1562" x="1808.3" y="1485.77">1</text><path d="M1865.1 1446.05 1876.11 1446.05 1876.11 1449.78 1865.07 1449.78C1863.3 1449.78 1861.87 1449.88 1860.76 1450.07 1859.66 1450.27 1858.75 1450.59 1858.01 1451.03 1857.28 1451.47 1856.61 1452.09 1856.01 1452.89 1855.41 1453.7 1854.94 1454.69 1854.6 1455.86 1854.26 1457.03 1854.05 1458.36 1853.96 1459.85L1876.11 1459.85 1876.11 1463.58 1853.93 1463.58C1854.02 1465.25 1854.26 1466.73 1854.66 1468.01 1855.05 1469.3 1855.64 1470.4 1856.44 1471.3 1857.24 1472.21 1858.27 1472.88 1859.53 1473.3 1860.79 1473.73 1862.53 1473.95 1864.75 1473.95L1876.11 1473.95 1876.11 1477.68 1864.65 1477.68C1862.89 1477.68 1861.37 1477.57 1860.08 1477.36 1858.79 1477.15 1857.63 1476.8 1856.59 1476.31 1855.55 1475.83 1854.57 1475.1 1853.65 1474.12 1852.73 1473.15 1851.98 1472.07 1851.41 1470.89 1850.83 1469.71 1850.4 1468.37 1850.12 1466.89 1849.83 1465.4 1849.69 1463.79 1849.69 1462.05 1849.69 1459.22 1849.96 1456.88 1850.52 1455.03 1851.07 1453.18 1852.01 1451.53 1853.31 1450.09 1854.62 1448.65 1856.19 1447.61 1858.01 1446.99 1859.84 1446.36 1862.2 1446.05 1865.1 1446.05Z" fill="#C00000" fill-rule="evenodd"/><text fill="#000000" fill-opacity="0" font-family="Arial,Arial_MSFontService,sans-serif" font-size="31.6357" x="1849.69" y="1473.73">âˆˆ</text><path d="M1898.3 1441.02 1909.42 1441.02 1909.12 1442.34C1908.33 1442.43 1907.72 1442.66 1907.28 1443.04 1906.84 1443.41 1906.54 1443.94 1906.36 1444.61 1906.18 1445.28 1906.09 1446.18 1906.09 1447.31 1906.09 1447.58 1906.11 1448.38 1906.17 1449.73L1906.92 1469.38 1906.92 1471.53 1907.19 1471.53 1918.82 1450.56C1919.5 1449.32 1920.01 1448.26 1920.35 1447.38 1920.69 1446.49 1920.86 1445.71 1920.86 1445.03 1920.86 1443.52 1919.96 1442.63 1918.17 1442.34L1918.47 1441.02 1929.45 1441.02 1929.16 1442.34C1928.67 1442.41 1928.21 1442.6 1927.77 1442.89 1927.34 1443.19 1926.84 1443.68 1926.3 1444.37 1925.75 1445.06 1924.9 1446.39 1923.76 1448.36L1906.57 1478.11 1903 1478.11 1901.2 1448.17C1901.13 1447 1901 1446.01 1900.81 1445.17 1900.62 1444.34 1900.33 1443.69 1899.92 1443.23 1899.52 1442.76 1898.88 1442.47 1898 1442.34Z" fill="#C00000" fill-rule="evenodd"/><text fill="#000000" fill-opacity="0" font-family="Arial,Arial_MSFontService,sans-serif" font-size="37.0874" x="1898" y="1473.48">ğ‘‰</text><path d="M1936.74 1465.61C1936.28 1465.61 1935.88 1465.62 1935.54 1465.63 1935.19 1465.64 1934.87 1465.66 1934.59 1465.69L1929.84 1486.84C1929.89 1486.84 1930.01 1486.84 1930.19 1486.85 1930.38 1486.86 1930.58 1486.86 1930.8 1486.87 1931.02 1486.88 1931.24 1486.88 1931.47 1486.89 1931.7 1486.9 1931.89 1486.9 1932.03 1486.9 1934.16 1486.9 1935.97 1486.57 1937.45 1485.91 1938.93 1485.26 1940.19 1484.23 1941.25 1482.84 1942.3 1481.39 1943.08 1479.88 1943.57 1478.3 1944.07 1476.71 1944.31 1475 1944.31 1473.15 1944.31 1471.95 1944.15 1470.88 1943.82 1469.95 1943.48 1469.01 1943 1468.22 1942.35 1467.57 1941.71 1466.93 1940.91 1466.44 1939.97 1466.11 1939.02 1465.78 1937.95 1465.61 1936.74 1465.61ZM1928.63 1463.58 1936.37 1463.58C1937.63 1463.58 1938.73 1463.64 1939.66 1463.76 1940.59 1463.87 1941.39 1464.05 1942.07 1464.28 1942.99 1464.54 1943.84 1464.92 1944.61 1465.42 1945.38 1465.91 1946.04 1466.53 1946.6 1467.26 1947.16 1468 1947.6 1468.86 1947.91 1469.84 1948.22 1470.82 1948.38 1471.93 1948.38 1473.15 1948.38 1475.48 1948.02 1477.61 1947.3 1479.54 1946.59 1481.46 1945.54 1483.12 1944.16 1484.51 1942.78 1485.89 1941.08 1486.97 1939.06 1487.75 1937.04 1488.52 1934.72 1488.91 1932.11 1488.91L1923.81 1488.91 1924.02 1487.72C1924.43 1487.66 1924.75 1487.58 1925.01 1487.5 1925.26 1487.41 1925.49 1487.23 1925.69 1486.95 1925.89 1486.67 1926.08 1486.25 1926.25 1485.69 1926.42 1485.13 1926.61 1484.33 1926.83 1483.31L1930.04 1469.07C1930.17 1468.49 1930.27 1467.99 1930.33 1467.54 1930.4 1467.1 1930.43 1466.72 1930.43 1466.41 1930.43 1465.84 1930.28 1465.43 1929.98 1465.19 1929.68 1464.95 1929.13 1464.82 1928.34 1464.81Z" fill="#C00000" fill-rule="evenodd"/><text fill="#000000" fill-opacity="0" font-family="Arial,Arial_MSFontService,sans-serif" font-size="25.332" x="1923.81" y="1485.74">ğ·</text><path d="M1975.52 1438.88 1976.25 1440.94C1972.06 1442.32 1968.96 1445.01 1966.94 1449.01 1964.93 1453.02 1963.92 1458.04 1963.92 1464.09 1963.92 1470.36 1964.93 1475.52 1966.94 1479.59 1968.96 1483.65 1972.03 1486.37 1976.17 1487.75L1975.52 1489.82C1970.28 1488.44 1966.26 1485.47 1963.46 1480.92 1960.67 1476.36 1959.27 1470.84 1959.27 1464.36 1959.27 1457.9 1960.68 1452.38 1963.48 1447.81 1966.28 1443.23 1970.29 1440.25 1975.52 1438.88Z" fill="#C00000" fill-rule="evenodd"/><text fill="#000000" fill-opacity="0" font-family="Arial,Arial_MSFontService,sans-serif" font-size="50.9448" x="1959.27" y="1483.45">(</text><path d="M2022.02 1440.59C2023.41 1440.59 2024.66 1440.97 2025.75 1441.72 2026.84 1442.47 2027.82 1443.64 2028.68 1445.21L2024.68 1446.93C2023.94 1445.45 2023.28 1444.41 2022.68 1443.83 2022.08 1443.25 2021.35 1442.96 2020.49 1442.96 2020.06 1442.96 2019.65 1443.02 2019.28 1443.15 2018.9 1443.27 2018.58 1443.48 2018.31 1443.76 2018.04 1444.05 2017.8 1444.41 2017.59 1444.85 2017.37 1445.29 2017.16 1445.91 2016.94 1446.7 2016.73 1447.5 2016.41 1448.86 2016 1450.77L2012.51 1466.89C2012.28 1467.98 2012.09 1469 2011.96 1469.95 2011.83 1470.9 2011.76 1471.66 2011.76 1472.23 2011.76 1473.09 2011.95 1473.75 2012.32 1474.2 2012.7 1474.66 2013.28 1474.89 2014.07 1474.89 2014.68 1474.89 2015.25 1474.72 2015.77 1474.39 2016.3 1474.06 2017.25 1473.18 2018.61 1471.75L2020.19 1473.22C2018.87 1474.71 2017.79 1475.75 2016.97 1476.35 2016.15 1476.95 2015.3 1477.4 2014.44 1477.68 2013.59 1477.97 2012.63 1478.11 2011.57 1478.11 2010.23 1478.11 2009.11 1477.62 2008.21 1476.62 2007.32 1475.63 2006.87 1474.33 2006.87 1472.71 2006.87 1472.12 2006.94 1471.32 2007.07 1470.3 2007.21 1469.28 2007.37 1468.35 2007.57 1467.5L2009.18 1460.04 1996.29 1460.04 1994.52 1468.28C1994.25 1469.54 1993.91 1470.67 1993.5 1471.68 1993.09 1472.69 1992.57 1473.6 1991.94 1474.39 1991.31 1475.19 1990.49 1475.9 1989.46 1476.53 1988.43 1477.15 1987.48 1477.57 1986.62 1477.79 1985.76 1478 1984.85 1478.11 1983.88 1478.11 1982.52 1478.11 1981.31 1477.73 1980.23 1476.97 1979.16 1476.21 1978.2 1475.05 1977.36 1473.49L1981.01 1471.4C1981.76 1472.88 1982.49 1473.98 1983.18 1474.69 1983.88 1475.4 1984.65 1475.75 1985.49 1475.75 1985.92 1475.75 1986.35 1475.66 1986.78 1475.49 1987.21 1475.32 1987.6 1474.99 1987.95 1474.49 1988.3 1473.99 1988.61 1473.28 1988.86 1472.36 1989.12 1471.45 1989.47 1469.97 1989.9 1467.93L1993.44 1450.83C1993.71 1449.52 1994.1 1448.27 1994.6 1447.07 1995.1 1445.87 1995.58 1445 1996.05 1444.46L1995.99 1444.19C1993.02 1444.19 1990.77 1444.33 1989.24 1444.6 1987.71 1444.86 1986.61 1445.32 1985.94 1445.97 1985.27 1446.61 1984.93 1447.54 1984.93 1448.76 1984.93 1449.67 1985.24 1450.78 1985.87 1452.09L1981.73 1453.7C1981.34 1453.06 1981.06 1452.45 1980.89 1451.89 1980.72 1451.32 1980.63 1450.7 1980.63 1450.02 1980.63 1449.39 1980.8 1448.74 1981.13 1448.05 1981.46 1447.36 1982.03 1446.62 1982.84 1445.83 1983.77 1444.92 1984.93 1444.04 1986.33 1443.2 1987.45 1442.52 1988.53 1442.03 1989.55 1441.74 1990.57 1441.44 1991.7 1441.24 1992.93 1441.13 1993.76 1441.06 1995.01 1441.02 1996.69 1441.02L1999.75 1441.02 2000.48 1442.61C2000.16 1443.31 1999.88 1444.09 1999.65 1444.96 1999.41 1445.83 1999.18 1446.78 1998.95 1447.82L1997.02 1456.9 2009.88 1456.9 2011.28 1450.53C2011.58 1449.17 2011.95 1447.99 2012.38 1446.99 2012.81 1445.98 2013.33 1445.09 2013.95 1444.31 2014.57 1443.54 2015.39 1442.83 2016.42 1442.19 2017.45 1441.56 2018.4 1441.13 2019.27 1440.92 2020.13 1440.7 2021.05 1440.59 2022.02 1440.59Z" fill="#C00000" fill-rule="evenodd"/><text fill="#000000" fill-opacity="0" font-family="Arial,Arial_MSFontService,sans-serif" font-size="37.5171" x="1977.36" y="1473.42">â„‹</text><path d="M2036.53 1463.76 2037.73 1463.76C2037.7 1464.47 2037.68 1465.11 2037.67 1465.68 2037.65 1466.25 2037.64 1466.8 2037.64 1467.33 2037.63 1467.86 2037.63 1468.39 2037.63 1468.91L2037.63 1483.76C2037.63 1484.16 2037.64 1484.51 2037.67 1484.8 2037.69 1485.09 2037.74 1485.34 2037.79 1485.54 2037.85 1485.74 2037.93 1485.92 2038.03 1486.06 2038.13 1486.2 2038.24 1486.33 2038.37 1486.43 2038.53 1486.59 2038.74 1486.71 2039 1486.79 2039.26 1486.88 2039.59 1486.95 2039.99 1487.01 2040.4 1487.07 2040.88 1487.11 2041.45 1487.14 2042.01 1487.18 2042.69 1487.2 2043.49 1487.21L2043.49 1488.91 2028 1488.91 2028 1487.21C2028.77 1487.19 2029.42 1487.16 2029.95 1487.12 2030.49 1487.09 2030.94 1487.05 2031.32 1486.99 2031.7 1486.93 2032 1486.86 2032.23 1486.79 2032.46 1486.72 2032.65 1486.63 2032.82 1486.53 2033.01 1486.41 2033.16 1486.28 2033.29 1486.15 2033.42 1486.01 2033.53 1485.84 2033.6 1485.63 2033.68 1485.42 2033.74 1485.17 2033.79 1484.87 2033.84 1484.57 2033.86 1484.2 2033.86 1483.76L2033.86 1469.75C2033.86 1469.24 2033.76 1468.89 2033.57 1468.68 2033.37 1468.47 2033.09 1468.36 2032.73 1468.36 2032.32 1468.36 2031.72 1468.57 2030.93 1468.99 2030.13 1469.41 2029.11 1470.02 2027.84 1470.85 2027.67 1470.55 2027.52 1470.25 2027.37 1469.95 2027.23 1469.65 2027.08 1469.34 2026.93 1469.03 2028.54 1468.14 2030.14 1467.26 2031.72 1466.38 2033.3 1465.5 2034.91 1464.63 2036.53 1463.76Z" fill="#C00000" fill-rule="evenodd"/><text fill="#000000" fill-opacity="0" font-family="Arial,Arial_MSFontService,sans-serif" font-size="25.1562" x="2026.93" y="1485.77">1</text><path d="M2050.88 1438.88C2056.11 1440.25 2060.12 1443.23 2062.92 1447.81 2065.72 1452.38 2067.13 1457.9 2067.13 1464.36 2067.13 1470.84 2065.73 1476.36 2062.94 1480.92 2060.14 1485.47 2056.12 1488.44 2050.88 1489.82L2050.23 1487.75C2054.37 1486.37 2057.44 1483.65 2059.46 1479.59 2061.47 1475.52 2062.48 1470.36 2062.48 1464.09 2062.48 1458.04 2061.48 1453.02 2059.47 1449.01 2057.47 1445.01 2054.36 1442.32 2050.15 1440.94Z" fill="#C00000" fill-rule="evenodd"/><text fill="#000000" fill-opacity="0" font-family="Arial,Arial_MSFontService,sans-serif" font-size="50.9448" x="2050.15" y="1483.45">)</text><path d="M1720.86 1737.15 1751.42 1737.15 1751.42 1738.46C1750.1 1738.79 1749.25 1739.22 1748.87 1739.77 1748.5 1740.31 1748.31 1741.68 1748.31 1743.86L1748.31 1767.09C1748.31 1769.22 1748.5 1770.58 1748.87 1771.15 1749.25 1771.72 1750.1 1772.17 1751.42 1772.49L1751.42 1773.81 1740.15 1773.81 1740.15 1772.49C1741.42 1772.19 1742.25 1771.77 1742.66 1771.24 1743.06 1770.71 1743.26 1769.33 1743.26 1767.09L1743.26 1739.62 1729.03 1739.62 1729.03 1767.09C1729.03 1769.33 1729.24 1770.71 1729.66 1771.24 1730.08 1771.77 1730.92 1772.19 1732.17 1772.49L1732.17 1773.81 1720.86 1773.81 1720.86 1772.49C1722.17 1772.17 1723.02 1771.74 1723.41 1771.2 1723.81 1770.66 1724.01 1769.3 1724.01 1767.09L1724.01 1743.86C1724.01 1741.62 1723.79 1740.24 1723.37 1739.71 1722.95 1739.19 1722.12 1738.77 1720.86 1738.46Z" fill="#C00000" fill-rule="evenodd"/><text fill="#000000" fill-opacity="0" font-family="Arial,Arial_MSFontService,sans-serif" font-size="36.6577" x="1720.86" y="1769.22">Î </text><path d="M1787.33 1758.06C1788.35 1758.06 1789.25 1758.34 1790.05 1758.88 1790.84 1759.43 1791.55 1760.28 1792.18 1761.42L1789.27 1762.67C1788.73 1761.59 1788.25 1760.84 1787.81 1760.42 1787.38 1759.99 1786.85 1759.78 1786.22 1759.78 1785.91 1759.78 1785.61 1759.83 1785.34 1759.92 1785.07 1760.01 1784.83 1760.16 1784.64 1760.37 1784.44 1760.58 1784.27 1760.84 1784.11 1761.16 1783.95 1761.48 1783.8 1761.93 1783.64 1762.51 1783.49 1763.09 1783.26 1764.07 1782.96 1765.47L1780.42 1777.18C1780.25 1777.98 1780.12 1778.72 1780.02 1779.41 1779.92 1780.1 1779.87 1780.65 1779.87 1781.07 1779.87 1781.7 1780.01 1782.17 1780.28 1782.51 1780.56 1782.84 1780.98 1783 1781.55 1783 1781.99 1783 1782.41 1782.88 1782.79 1782.64 1783.18 1782.4 1783.86 1781.76 1784.85 1780.72L1786.01 1781.79C1785.04 1782.87 1784.26 1783.63 1783.66 1784.07 1783.06 1784.51 1782.45 1784.83 1781.83 1785.04 1781.2 1785.24 1780.5 1785.35 1779.74 1785.35 1778.76 1785.35 1777.95 1784.99 1777.29 1784.26 1776.64 1783.54 1776.32 1782.59 1776.32 1781.42 1776.32 1780.99 1776.37 1780.41 1776.46 1779.66 1776.56 1778.92 1776.68 1778.25 1776.83 1777.63L1778 1772.2 1768.62 1772.2 1767.33 1778.2C1767.14 1779.11 1766.89 1779.93 1766.59 1780.67 1766.29 1781.41 1765.91 1782.06 1765.46 1782.64 1765 1783.22 1764.4 1783.74 1763.65 1784.2 1762.9 1784.65 1762.22 1784.96 1761.59 1785.11 1760.97 1785.27 1760.3 1785.35 1759.6 1785.35 1758.61 1785.35 1757.72 1785.07 1756.94 1784.52 1756.16 1783.96 1755.46 1783.12 1754.85 1781.99L1757.51 1780.47C1758.06 1781.55 1758.58 1782.34 1759.09 1782.86 1759.6 1783.37 1760.16 1783.63 1760.77 1783.63 1761.08 1783.63 1761.4 1783.57 1761.71 1783.44 1762.02 1783.32 1762.3 1783.08 1762.56 1782.71 1762.81 1782.35 1763.03 1781.83 1763.22 1781.17 1763.41 1780.5 1763.66 1779.43 1763.97 1777.95L1766.55 1765.5C1766.75 1764.55 1767.03 1763.64 1767.39 1762.77 1767.76 1761.9 1768.11 1761.27 1768.45 1760.88L1768.41 1760.68C1766.25 1760.68 1764.61 1760.78 1763.5 1760.97 1762.38 1761.17 1761.58 1761.5 1761.09 1761.97 1760.6 1762.44 1760.36 1763.12 1760.36 1764 1760.36 1764.66 1760.59 1765.47 1761.04 1766.42L1758.04 1767.59C1757.75 1767.13 1757.55 1766.69 1757.42 1766.28 1757.3 1765.87 1757.24 1765.41 1757.24 1764.92 1757.24 1764.46 1757.36 1763.98 1757.6 1763.48 1757.84 1762.98 1758.25 1762.44 1758.84 1761.87 1759.51 1761.21 1760.36 1760.57 1761.38 1759.96 1762.2 1759.46 1762.98 1759.11 1763.72 1758.89 1764.46 1758.68 1765.28 1758.53 1766.18 1758.45 1766.78 1758.4 1767.69 1758.38 1768.92 1758.38L1771.14 1758.38 1771.67 1759.53C1771.44 1760.04 1771.23 1760.61 1771.06 1761.24 1770.89 1761.87 1770.73 1762.56 1770.56 1763.32L1769.15 1769.92 1778.51 1769.92 1779.52 1765.29C1779.74 1764.3 1780.01 1763.44 1780.32 1762.71 1780.63 1761.98 1781.02 1761.33 1781.46 1760.77 1781.91 1760.2 1782.51 1759.69 1783.26 1759.23 1784.01 1758.76 1784.7 1758.45 1785.33 1758.3 1785.96 1758.14 1786.63 1758.06 1787.33 1758.06Z" fill="#C00000" fill-rule="evenodd"/><text fill="#000000" fill-opacity="0" font-family="Arial,Arial_MSFontService,sans-serif" font-size="27.2852" x="1754.85" y="1781.94">â„‹</text><path d="M1800.15 1773.41 1801.22 1773.41C1801.19 1773.64 1801.17 1774.19 1801.15 1775.06 1801.13 1775.93 1801.12 1776.8 1801.12 1777.68L1801.12 1789.03C1801.12 1789.7 1801.18 1790.19 1801.3 1790.48 1801.41 1790.77 1801.6 1791 1801.86 1791.16 1802.12 1791.33 1802.56 1791.46 1803.18 1791.55 1803.8 1791.64 1804.79 1791.7 1806.15 1791.72L1806.15 1793.22 1792.79 1793.22 1792.79 1791.72C1794.1 1791.69 1795.06 1791.63 1795.66 1791.54 1796.27 1791.46 1796.72 1791.33 1797 1791.16 1797.29 1791 1797.5 1790.77 1797.63 1790.48 1797.76 1790.19 1797.83 1789.7 1797.83 1789.03L1797.83 1778.34C1797.83 1777.96 1797.75 1777.68 1797.6 1777.51 1797.44 1777.33 1797.22 1777.25 1796.93 1777.25 1796.61 1777.25 1796.1 1777.42 1795.41 1777.77 1794.73 1778.12 1793.85 1778.63 1792.77 1779.31L1791.92 1777.68Z" fill="#C00000" fill-rule="evenodd"/><text fill="#000000" fill-opacity="0" font-family="Arial,Arial_MSFontService,sans-serif" font-size="19.8032" x="1791.92" y="1790.74">1</text><path d="M2318.5 1367.5 2318.5 1720.7" stroke="#C00000" stroke-width="4.58333" stroke-miterlimit="8" fill="none" fill-rule="evenodd"/><path d="M2302 1350C2302 1340.61 2309.16 1333 2318 1333 2326.84 1333 2334 1340.61 2334 1350 2334 1359.39 2326.84 1367 2318 1367 2309.16 1367 2302 1359.39 2302 1350Z" fill="#C00000" fill-rule="evenodd"/><path d="M2290.75 1738.23 2321.32 1738.23 2321.32 1739.55C2319.99 1739.87 2319.14 1740.3 2318.76 1740.85 2318.39 1741.4 2318.2 1742.76 2318.2 1744.94L2318.2 1768.17C2318.2 1770.3 2318.39 1771.66 2318.76 1772.23 2319.14 1772.8 2319.99 1773.25 2321.32 1773.57L2321.32 1774.89 2310.04 1774.89 2310.04 1773.57C2311.31 1773.27 2312.14 1772.85 2312.55 1772.32 2312.95 1771.8 2313.15 1770.41 2313.15 1768.17L2313.15 1740.7 2298.92 1740.7 2298.92 1768.17C2298.92 1770.41 2299.13 1771.8 2299.55 1772.32 2299.97 1772.85 2300.81 1773.27 2302.06 1773.57L2302.06 1774.89 2290.75 1774.89 2290.75 1773.57C2292.06 1773.25 2292.91 1772.82 2293.31 1772.28 2293.7 1771.75 2293.9 1770.38 2293.9 1768.17L2293.9 1744.94C2293.9 1742.71 2293.69 1741.32 2293.26 1740.8 2292.84 1740.27 2292.01 1739.85 2290.75 1739.55Z" fill="#C00000" fill-rule="evenodd"/><text fill="#000000" fill-opacity="0" font-family="Arial,Arial_MSFontService,sans-serif" font-size="36.6577" x="2290.75" y="1770.31">Î </text><path d="M2357.22 1759.14C2358.24 1759.14 2359.15 1759.42 2359.94 1759.97 2360.73 1760.51 2361.44 1761.36 2362.07 1762.5L2359.16 1763.75C2358.62 1762.67 2358.14 1761.92 2357.7 1761.5 2357.27 1761.08 2356.74 1760.86 2356.11 1760.86 2355.8 1760.86 2355.51 1760.91 2355.23 1761 2354.96 1761.09 2354.72 1761.24 2354.53 1761.45 2354.33 1761.66 2354.16 1761.92 2354 1762.24 2353.85 1762.56 2353.69 1763.01 2353.53 1763.59 2353.38 1764.17 2353.15 1765.15 2352.85 1766.55L2350.31 1778.27C2350.14 1779.06 2350.01 1779.8 2349.91 1780.49 2349.81 1781.18 2349.76 1781.74 2349.76 1782.15 2349.76 1782.78 2349.9 1783.26 2350.17 1783.59 2350.45 1783.92 2350.87 1784.09 2351.44 1784.09 2351.89 1784.09 2352.3 1783.97 2352.68 1783.72 2353.07 1783.48 2353.75 1782.84 2354.74 1781.8L2355.9 1782.88C2354.93 1783.96 2354.15 1784.71 2353.55 1785.15 2352.95 1785.59 2352.34 1785.91 2351.72 1786.12 2351.09 1786.33 2350.4 1786.43 2349.63 1786.43 2348.65 1786.43 2347.84 1786.07 2347.19 1785.35 2346.53 1784.62 2346.21 1783.68 2346.21 1782.5 2346.21 1782.07 2346.26 1781.49 2346.36 1780.75 2346.45 1780 2346.57 1779.33 2346.72 1778.72L2347.89 1773.29 2338.51 1773.29 2337.22 1779.28C2337.03 1780.19 2336.78 1781.02 2336.48 1781.75 2336.18 1782.49 2335.81 1783.15 2335.35 1783.72 2334.89 1784.3 2334.29 1784.82 2333.54 1785.28 2332.79 1785.73 2332.11 1786.04 2331.48 1786.2 2330.86 1786.35 2330.19 1786.43 2329.49 1786.43 2328.5 1786.43 2327.61 1786.15 2326.83 1785.6 2326.05 1785.05 2325.36 1784.2 2324.74 1783.07L2327.4 1781.55C2327.95 1782.63 2328.47 1783.43 2328.98 1783.94 2329.49 1784.45 2330.05 1784.71 2330.66 1784.71 2330.97 1784.71 2331.29 1784.65 2331.6 1784.53 2331.91 1784.4 2332.2 1784.16 2332.45 1783.79 2332.7 1783.43 2332.92 1782.91 2333.11 1782.25 2333.3 1781.59 2333.55 1780.51 2333.86 1779.03L2336.44 1766.59C2336.64 1765.64 2336.92 1764.72 2337.28 1763.85 2337.65 1762.98 2338 1762.35 2338.34 1761.96L2338.3 1761.76C2336.14 1761.76 2334.5 1761.86 2333.39 1762.06 2332.27 1762.25 2331.47 1762.58 2330.98 1763.05 2330.5 1763.52 2330.25 1764.2 2330.25 1765.08 2330.25 1765.75 2330.48 1766.55 2330.94 1767.5L2327.93 1768.68C2327.64 1768.21 2327.44 1767.77 2327.31 1767.36 2327.19 1766.95 2327.13 1766.5 2327.13 1766 2327.13 1765.54 2327.25 1765.07 2327.49 1764.56 2327.73 1764.06 2328.14 1763.53 2328.73 1762.95 2329.41 1762.29 2330.25 1761.65 2331.27 1761.04 2332.09 1760.54 2332.87 1760.19 2333.61 1759.97 2334.35 1759.76 2335.17 1759.61 2336.07 1759.54 2336.67 1759.48 2337.58 1759.46 2338.81 1759.46L2341.03 1759.46 2341.56 1760.61C2341.33 1761.12 2341.12 1761.69 2340.95 1762.32 2340.79 1762.95 2340.62 1763.64 2340.45 1764.4L2339.04 1771 2348.4 1771 2349.41 1766.37C2349.63 1765.38 2349.9 1764.52 2350.21 1763.79 2350.53 1763.06 2350.91 1762.42 2351.36 1761.85 2351.8 1761.28 2352.4 1760.77 2353.15 1760.31 2353.9 1759.84 2354.59 1759.54 2355.22 1759.38 2355.85 1759.22 2356.52 1759.14 2357.22 1759.14Z" fill="#C00000" fill-rule="evenodd"/><text fill="#000000" fill-opacity="0" font-family="Arial,Arial_MSFontService,sans-serif" font-size="27.2852" x="2324.74" y="1783.02">â„‹</text><path d="M2368.66 1774.35C2369.89 1774.35 2370.92 1774.48 2371.73 1774.75 2372.54 1775.02 2373.18 1775.37 2373.67 1775.8 2374.15 1776.23 2374.49 1776.74 2374.68 1777.32 2374.88 1777.9 2374.97 1778.49 2374.97 1779.1 2374.97 1779.88 2374.82 1780.59 2374.51 1781.26 2374.19 1781.92 2373.68 1782.64 2372.98 1783.41 2372.27 1784.19 2371 1785.41 2369.17 1787.06 2367.23 1788.83 2365.82 1790.35 2364.93 1791.64L2370.75 1791.64C2371.3 1791.64 2371.72 1791.61 2372.01 1791.56 2372.3 1791.51 2372.53 1791.42 2372.7 1791.31 2372.87 1791.2 2373.02 1791.05 2373.14 1790.88 2373.25 1790.71 2373.43 1790.33 2373.67 1789.75L2375.3 1789.75 2374.96 1794.3 2361.16 1794.3 2361.16 1793.41C2361.7 1792.26 2362.43 1791.13 2363.34 1790.02 2364.25 1788.91 2365.32 1787.76 2366.53 1786.58 2367.99 1785.18 2369.03 1784.13 2369.64 1783.42 2370.25 1782.71 2370.71 1782.04 2371 1781.4 2371.3 1780.76 2371.44 1780.12 2371.44 1779.47 2371.44 1778.41 2371.14 1777.57 2370.54 1776.96 2369.94 1776.35 2369.08 1776.04 2367.95 1776.04 2366.97 1776.04 2366.14 1776.3 2365.46 1776.82 2364.78 1777.33 2364.26 1778.09 2363.9 1779.1L2361.66 1779.1 2361.66 1775.93C2363.06 1775.36 2364.35 1774.95 2365.52 1774.71 2366.7 1774.47 2367.74 1774.35 2368.66 1774.35Z" fill="#C00000" fill-rule="evenodd"/><text fill="#000000" fill-opacity="0" font-family="Arial,Arial_MSFontService,sans-serif" font-size="19.9482" x="2361.16" y="1791.81">2</text><path d="M2360.37 1333.11 2361.98 1333.11 2361.98 1350.09 2362.08 1350.11C2363.48 1348.7 2364.59 1347.71 2365.4 1347.15 2366.22 1346.58 2367.02 1346.16 2367.82 1345.87 2368.61 1345.58 2369.47 1345.44 2370.38 1345.44 2371.37 1345.44 2372.24 1345.56 2373.01 1345.79 2373.78 1346.02 2374.46 1346.38 2375.04 1346.85 2375.62 1347.32 2376.1 1347.91 2376.47 1348.6 2376.83 1349.28 2377.11 1350.11 2377.28 1351.07 2377.46 1352.02 2377.55 1353.24 2377.55 1354.71L2377.55 1364.83C2377.55 1366.39 2377.62 1367.45 2377.75 1368.01 2377.89 1368.58 2378.13 1369.01 2378.48 1369.33 2378.83 1369.64 2379.53 1369.94 2380.59 1370.23L2380.59 1371.54 2370.01 1371.54 2370.01 1370.23C2370.7 1370.01 2371.21 1369.82 2371.51 1369.66 2371.81 1369.5 2372.07 1369.28 2372.28 1368.99 2372.48 1368.71 2372.64 1368.26 2372.76 1367.66 2372.88 1367.06 2372.93 1366.15 2372.93 1364.94L2372.93 1357.9C2372.93 1355.52 2372.81 1353.7 2372.57 1352.44 2372.33 1351.17 2371.85 1350.23 2371.15 1349.6 2370.44 1348.98 2369.45 1348.66 2368.18 1348.66 2367.46 1348.66 2366.82 1348.79 2366.25 1349.04 2365.67 1349.29 2365.01 1349.74 2364.26 1350.38 2363.51 1351.03 2362.94 1351.69 2362.55 1352.37 2362.17 1353.05 2361.98 1353.77 2361.98 1354.54L2361.98 1364.83C2361.98 1366.05 2362.01 1366.92 2362.07 1367.43 2362.13 1367.95 2362.25 1368.39 2362.43 1368.74 2362.61 1369.09 2362.89 1369.37 2363.25 1369.6 2363.62 1369.82 2364.19 1370.03 2364.96 1370.23L2364.96 1371.54 2354.32 1371.54 2354.32 1370.23C2355.11 1370.01 2355.67 1369.81 2356.01 1369.61 2356.35 1369.41 2356.62 1369.16 2356.81 1368.86 2356.99 1368.55 2357.13 1368.11 2357.22 1367.54 2357.31 1366.97 2357.36 1366.06 2357.36 1364.83L2357.36 1342.35C2357.36 1340.63 2357.34 1339.43 2357.32 1338.75 2357.29 1338.07 2357.22 1337.5 2357.1 1337.02 2356.99 1336.55 2356.82 1336.17 2356.62 1335.91 2356.41 1335.64 2356.14 1335.42 2355.79 1335.26 2355.44 1335.1 2354.81 1334.94 2353.89 1334.78L2353.89 1333.38Z" fill="#C00000" fill-rule="evenodd"/><text fill="#000000" fill-opacity="0" font-family="Arial,Arial_MSFontService,sans-serif" font-size="38.4302" x="2353.89" y="1366.74">h</text><path d="M2394.2 1357.48C2395.55 1357.48 2396.71 1357.63 2397.67 1357.94 2398.62 1358.24 2399.4 1358.66 2400 1359.18 2400.6 1359.7 2401.03 1360.32 2401.3 1361.05 2401.57 1361.78 2401.7 1362.57 2401.7 1363.42 2401.7 1363.92 2401.66 1364.4 2401.59 1364.83 2401.52 1365.27 2401.4 1365.7 2401.22 1366.12 2401.04 1366.55 2400.81 1366.97 2400.53 1367.4 2400.24 1367.83 2399.88 1368.29 2399.45 1368.77 2399.13 1369.19 2398.7 1369.67 2398.18 1370.21 2397.66 1370.76 2397.09 1371.35 2396.47 1371.97 2395.86 1372.6 2395.21 1373.25 2394.53 1373.92 2393.85 1374.6 2393.2 1375.27 2392.56 1375.94 2391.92 1376.6 2391.33 1377.25 2390.8 1377.87 2390.27 1378.5 2389.83 1379.07 2389.49 1379.59L2396.72 1379.59C2397.33 1379.59 2397.82 1379.57 2398.18 1379.52 2398.55 1379.48 2398.85 1379.37 2399.09 1379.22 2399.33 1379.06 2399.54 1378.82 2399.71 1378.51 2399.88 1378.19 2400.07 1377.75 2400.29 1377.19L2402.11 1377.19C2402.04 1378.11 2401.98 1379.04 2401.92 1379.98 2401.86 1380.92 2401.8 1381.85 2401.74 1382.77L2385.2 1382.77 2385.2 1381.76C2385.51 1381.05 2385.87 1380.36 2386.29 1379.68 2386.71 1378.99 2387.17 1378.3 2387.7 1377.6 2388.22 1376.89 2388.81 1376.17 2389.47 1375.42 2390.14 1374.67 2390.87 1373.89 2391.68 1373.09 2392.9 1371.86 2393.9 1370.82 2394.67 1369.95 2395.44 1369.08 2396.04 1368.31 2396.48 1367.64 2396.93 1366.96 2397.23 1366.33 2397.39 1365.76 2397.56 1365.19 2397.64 1364.58 2397.64 1363.92 2397.64 1363.26 2397.54 1362.65 2397.35 1362.09 2397.16 1361.53 2396.89 1361.05 2396.54 1360.66 2396.19 1360.27 2395.75 1359.97 2395.2 1359.75 2394.66 1359.52 2394.04 1359.41 2393.34 1359.41 2392.13 1359.41 2391.11 1359.74 2390.29 1360.4 2389.47 1361.06 2388.83 1362.01 2388.38 1363.26L2385.82 1363.26 2385.82 1359.45C2387.49 1358.76 2389.02 1358.26 2390.42 1357.95 2391.82 1357.64 2393.08 1357.48 2394.2 1357.48Z" fill="#C00000" fill-rule="evenodd"/><text fill="#000000" fill-opacity="0" font-family="Arial,Arial_MSFontService,sans-serif" font-size="25.293" x="2385.2" y="1379.61">2</text><path d="M2442.91 1339.91 2453.93 1339.91 2453.93 1343.64 2442.89 1343.64C2441.12 1343.64 2439.68 1343.74 2438.58 1343.94 2437.48 1344.13 2436.56 1344.45 2435.82 1344.89 2435.09 1345.33 2434.42 1345.95 2433.82 1346.76 2433.22 1347.56 2432.75 1348.55 2432.41 1349.72 2432.07 1350.9 2431.86 1352.23 2431.77 1353.71L2453.93 1353.71 2453.93 1357.44 2431.74 1357.44C2431.83 1359.11 2432.07 1360.59 2432.47 1361.88 2432.86 1363.16 2433.46 1364.26 2434.25 1365.17 2435.05 1366.07 2436.08 1366.74 2437.34 1367.17 2438.6 1367.6 2440.35 1367.81 2442.57 1367.81L2453.93 1367.81 2453.93 1371.54 2442.46 1371.54C2440.7 1371.54 2439.18 1371.44 2437.89 1371.22 2436.6 1371.01 2435.44 1370.66 2434.4 1370.17 2433.36 1369.69 2432.38 1368.96 2431.46 1367.99 2430.54 1367.01 2429.79 1365.93 2429.22 1364.75 2428.65 1363.57 2428.22 1362.23 2427.93 1360.75 2427.64 1359.26 2427.5 1357.65 2427.5 1355.91 2427.5 1353.08 2427.78 1350.74 2428.33 1348.89 2428.89 1347.04 2429.82 1345.39 2431.12 1343.95 2432.43 1342.51 2434 1341.47 2435.82 1340.85 2437.65 1340.22 2440.01 1339.91 2442.91 1339.91Z" fill="#C00000" fill-rule="evenodd"/><text fill="#000000" fill-opacity="0" font-family="Arial,Arial_MSFontService,sans-serif" font-size="31.6357" x="2427.5" y="1367.59">âˆˆ</text><path d="M2476.11 1334.89 2487.23 1334.89 2486.94 1336.2C2486.15 1336.29 2485.53 1336.52 2485.1 1336.9 2484.66 1337.28 2484.35 1337.8 2484.17 1338.47 2483.99 1339.14 2483.9 1340.04 2483.9 1341.17 2483.9 1341.44 2483.93 1342.24 2483.98 1343.59L2484.73 1363.25 2484.73 1365.39 2485 1365.39 2496.63 1344.42C2497.31 1343.18 2497.82 1342.12 2498.16 1341.24 2498.5 1340.35 2498.67 1339.57 2498.67 1338.89 2498.67 1337.38 2497.78 1336.49 2495.99 1336.2L2496.28 1334.89 2507.26 1334.89 2506.97 1336.2C2506.49 1336.27 2506.03 1336.46 2505.59 1336.75 2505.15 1337.05 2504.66 1337.54 2504.11 1338.23 2503.56 1338.92 2502.72 1340.25 2501.57 1342.22L2484.38 1371.97 2480.81 1371.97 2479.01 1342.03C2478.94 1340.87 2478.81 1339.87 2478.62 1339.03 2478.44 1338.2 2478.14 1337.55 2477.74 1337.09 2477.33 1336.62 2476.69 1336.33 2475.82 1336.2Z" fill="#C00000" fill-rule="evenodd"/><text fill="#000000" fill-opacity="0" font-family="Arial,Arial_MSFontService,sans-serif" font-size="37.0874" x="2475.82" y="1367.34">ğ‘‰</text><path d="M2514.55 1359.47C2514.09 1359.47 2513.69 1359.48 2513.35 1359.49 2513 1359.5 2512.69 1359.52 2512.4 1359.55L2507.65 1380.7C2507.71 1380.7 2507.82 1380.71 2508.01 1380.71 2508.19 1380.72 2508.39 1380.73 2508.61 1380.73 2508.83 1380.74 2509.06 1380.74 2509.29 1380.75 2509.51 1380.76 2509.7 1380.76 2509.84 1380.76 2511.98 1380.76 2513.78 1380.43 2515.26 1379.77 2516.74 1379.12 2518.01 1378.09 2519.06 1376.7 2520.12 1375.25 2520.89 1373.74 2521.39 1372.16 2521.88 1370.58 2522.13 1368.86 2522.13 1367.01 2522.13 1365.81 2521.96 1364.75 2521.63 1363.81 2521.3 1362.87 2520.81 1362.08 2520.16 1361.43 2519.52 1360.79 2518.73 1360.3 2517.78 1359.97 2516.84 1359.64 2515.76 1359.47 2514.55 1359.47ZM2506.44 1357.44 2514.18 1357.44C2515.44 1357.44 2516.54 1357.5 2517.47 1357.62 2518.4 1357.73 2519.2 1357.91 2519.88 1358.14 2520.81 1358.4 2521.65 1358.78 2522.42 1359.28 2523.19 1359.77 2523.85 1360.39 2524.41 1361.12 2524.97 1361.86 2525.41 1362.72 2525.72 1363.7 2526.03 1364.68 2526.19 1365.79 2526.19 1367.01 2526.19 1369.34 2525.83 1371.47 2525.12 1373.4 2524.4 1375.32 2523.35 1376.98 2521.97 1378.37 2520.59 1379.76 2518.89 1380.84 2516.87 1381.61 2514.86 1382.39 2512.54 1382.77 2509.92 1382.77L2501.62 1382.77 2501.83 1381.58C2502.24 1381.52 2502.57 1381.44 2502.82 1381.36 2503.07 1381.27 2503.3 1381.09 2503.5 1380.81 2503.71 1380.53 2503.89 1380.11 2504.06 1379.55 2504.23 1378.99 2504.43 1378.2 2504.65 1377.17L2507.85 1362.93C2507.98 1362.36 2508.08 1361.85 2508.14 1361.41 2508.21 1360.96 2508.24 1360.59 2508.24 1360.27 2508.24 1359.7 2508.09 1359.29 2507.79 1359.05 2507.49 1358.81 2506.95 1358.68 2506.15 1358.67Z" fill="#C00000" fill-rule="evenodd"/><text fill="#000000" fill-opacity="0" font-family="Arial,Arial_MSFontService,sans-serif" font-size="25.332" x="2501.62" y="1379.61">ğ·</text><path d="M2553.33 1332.74 2554.06 1334.81C2549.87 1336.18 2546.77 1338.87 2544.75 1342.88 2542.74 1346.88 2541.73 1351.9 2541.73 1357.95 2541.73 1364.22 2542.74 1369.39 2544.75 1373.45 2546.77 1377.51 2549.84 1380.24 2553.98 1381.61L2553.33 1383.68C2548.09 1382.3 2544.07 1379.34 2541.28 1374.78 2538.48 1370.22 2537.09 1364.7 2537.09 1358.22 2537.09 1351.76 2538.49 1346.24 2541.29 1341.67 2544.09 1337.09 2548.11 1334.12 2553.33 1332.74Z" fill="#C00000" fill-rule="evenodd"/><text fill="#000000" fill-opacity="0" font-family="Arial,Arial_MSFontService,sans-serif" font-size="50.9448" x="2537.09" y="1377.31">(</text><path d="M2599.83 1334.46C2601.23 1334.46 2602.47 1334.83 2603.56 1335.58 2604.66 1336.34 2605.63 1337.5 2606.49 1339.08L2602.49 1340.79C2601.76 1339.31 2601.09 1338.27 2600.49 1337.69 2599.89 1337.11 2599.16 1336.82 2598.3 1336.82 2597.87 1336.82 2597.47 1336.88 2597.09 1337.01 2596.72 1337.13 2596.39 1337.34 2596.12 1337.62 2595.86 1337.91 2595.61 1338.27 2595.4 1338.71 2595.18 1339.15 2594.97 1339.77 2594.76 1340.57 2594.54 1341.36 2594.23 1342.72 2593.82 1344.63L2590.32 1360.75C2590.09 1361.84 2589.91 1362.86 2589.77 1363.81 2589.64 1364.76 2589.57 1365.52 2589.57 1366.09 2589.57 1366.95 2589.76 1367.61 2590.14 1368.07 2590.51 1368.52 2591.09 1368.75 2591.88 1368.75 2592.49 1368.75 2593.06 1368.58 2593.59 1368.25 2594.11 1367.92 2595.06 1367.04 2596.42 1365.61L2598 1367.09C2596.68 1368.57 2595.61 1369.61 2594.78 1370.21 2593.96 1370.81 2593.12 1371.26 2592.26 1371.54 2591.4 1371.83 2590.44 1371.97 2589.38 1371.97 2588.04 1371.97 2586.92 1371.48 2586.03 1370.48 2585.13 1369.49 2584.68 1368.19 2584.68 1366.58 2584.68 1365.98 2584.75 1365.18 2584.89 1364.16 2585.02 1363.14 2585.19 1362.21 2585.38 1361.37L2586.99 1353.9 2574.1 1353.9 2572.33 1362.14C2572.06 1363.4 2571.72 1364.53 2571.31 1365.54 2570.9 1366.55 2570.38 1367.46 2569.75 1368.25 2569.13 1369.05 2568.3 1369.76 2567.27 1370.39 2566.24 1371.02 2565.29 1371.44 2564.44 1371.65 2563.58 1371.87 2562.66 1371.97 2561.7 1371.97 2560.34 1371.97 2559.12 1371.59 2558.04 1370.83 2556.97 1370.07 2556.01 1368.91 2555.17 1367.35L2558.82 1365.26C2559.57 1366.75 2560.3 1367.84 2561 1368.55 2561.7 1369.26 2562.47 1369.61 2563.31 1369.61 2563.74 1369.61 2564.17 1369.52 2564.6 1369.35 2565.03 1369.18 2565.42 1368.85 2565.76 1368.35 2566.11 1367.85 2566.42 1367.14 2566.68 1366.23 2566.94 1365.31 2567.28 1363.84 2567.71 1361.79L2571.26 1344.69C2571.53 1343.38 2571.91 1342.13 2572.41 1340.93 2572.91 1339.73 2573.4 1338.86 2573.86 1338.32L2573.81 1338.05C2570.84 1338.05 2568.58 1338.19 2567.05 1338.46 2565.52 1338.73 2564.42 1339.18 2563.75 1339.83 2563.08 1340.47 2562.74 1341.4 2562.74 1342.62 2562.74 1343.53 2563.06 1344.64 2563.68 1345.95L2559.55 1347.56C2559.15 1346.92 2558.87 1346.31 2558.7 1345.75 2558.53 1345.18 2558.45 1344.56 2558.45 1343.88 2558.45 1343.26 2558.61 1342.6 2558.94 1341.91 2559.27 1341.22 2559.84 1340.48 2560.65 1339.69 2561.58 1338.78 2562.74 1337.9 2564.14 1337.06 2565.27 1336.38 2566.34 1335.89 2567.36 1335.6 2568.38 1335.3 2569.51 1335.1 2570.75 1334.99 2571.57 1334.92 2572.82 1334.89 2574.51 1334.89L2577.57 1334.89 2578.29 1336.47C2577.97 1337.17 2577.69 1337.95 2577.46 1338.82 2577.23 1339.69 2576.99 1340.64 2576.76 1341.68L2574.83 1350.76 2587.69 1350.76 2589.09 1344.39C2589.39 1343.03 2589.76 1341.85 2590.19 1340.85 2590.62 1339.85 2591.14 1338.95 2591.76 1338.18 2592.38 1337.4 2593.2 1336.69 2594.23 1336.05 2595.26 1335.42 2596.21 1334.99 2597.08 1334.78 2597.95 1334.56 2598.86 1334.46 2599.83 1334.46Z" fill="#C00000" fill-rule="evenodd"/><text fill="#000000" fill-opacity="0" font-family="Arial,Arial_MSFontService,sans-serif" font-size="37.5171" x="2555.17" y="1367.28">â„‹</text><path d="M2614.11 1357.48C2615.46 1357.48 2616.62 1357.63 2617.57 1357.94 2618.53 1358.24 2619.31 1358.66 2619.91 1359.18 2620.51 1359.7 2620.94 1360.32 2621.21 1361.05 2621.47 1361.78 2621.61 1362.57 2621.61 1363.42 2621.61 1363.92 2621.57 1364.4 2621.5 1364.83 2621.43 1365.27 2621.3 1365.7 2621.13 1366.12 2620.95 1366.55 2620.72 1366.97 2620.44 1367.4 2620.15 1367.83 2619.79 1368.29 2619.36 1368.77 2619.04 1369.19 2618.61 1369.67 2618.09 1370.21 2617.57 1370.76 2617 1371.35 2616.38 1371.97 2615.76 1372.6 2615.12 1373.25 2614.44 1373.92 2613.76 1374.6 2613.1 1375.27 2612.47 1375.94 2611.83 1376.6 2611.24 1377.25 2610.71 1377.87 2610.18 1378.5 2609.74 1379.07 2609.4 1379.59L2616.63 1379.59C2617.24 1379.59 2617.73 1379.57 2618.09 1379.52 2618.46 1379.48 2618.76 1379.37 2619 1379.22 2619.24 1379.06 2619.45 1378.82 2619.62 1378.51 2619.78 1378.19 2619.98 1377.75 2620.2 1377.19L2622.02 1377.19C2621.95 1378.11 2621.89 1379.04 2621.83 1379.98 2621.77 1380.92 2621.71 1381.85 2621.65 1382.77L2605.1 1382.77 2605.1 1381.76C2605.42 1381.05 2605.78 1380.36 2606.2 1379.68 2606.61 1378.99 2607.08 1378.3 2607.6 1377.6 2608.12 1376.89 2608.72 1376.17 2609.38 1375.42 2610.04 1374.67 2610.78 1373.89 2611.59 1373.09 2612.81 1371.86 2613.81 1370.82 2614.58 1369.95 2615.34 1369.08 2615.95 1368.31 2616.39 1367.64 2616.84 1366.96 2617.14 1366.33 2617.3 1365.76 2617.46 1365.19 2617.54 1364.58 2617.54 1363.92 2617.54 1363.26 2617.45 1362.65 2617.26 1362.09 2617.07 1361.53 2616.8 1361.05 2616.45 1360.66 2616.1 1360.27 2615.65 1359.97 2615.11 1359.75 2614.57 1359.52 2613.95 1359.41 2613.25 1359.41 2612.04 1359.41 2611.02 1359.74 2610.2 1360.4 2609.38 1361.06 2608.74 1362.01 2608.29 1363.26L2605.73 1363.26 2605.73 1359.45C2607.4 1358.76 2608.93 1358.26 2610.33 1357.95 2611.73 1357.64 2612.99 1357.48 2614.11 1357.48Z" fill="#C00000" fill-rule="evenodd"/><text fill="#000000" fill-opacity="0" font-family="Arial,Arial_MSFontService,sans-serif" font-size="25.293" x="2605.1" y="1379.61">2</text><path d="M2629.97 1332.74C2635.2 1334.12 2639.22 1337.09 2642.02 1341.67 2644.82 1346.24 2646.22 1351.76 2646.22 1358.22 2646.22 1364.7 2644.83 1370.22 2642.03 1374.78 2639.24 1379.34 2635.22 1382.3 2629.97 1383.68L2629.33 1381.61C2633.47 1380.24 2636.54 1377.51 2638.55 1373.45 2640.57 1369.39 2641.58 1364.22 2641.58 1357.95 2641.58 1351.9 2640.57 1346.88 2638.57 1342.88 2636.56 1338.87 2633.46 1336.18 2629.25 1334.81Z" fill="#C00000" fill-rule="evenodd"/><text fill="#000000" fill-opacity="0" font-family="Arial,Arial_MSFontService,sans-serif" font-size="50.9448" x="2629.25" y="1377.31">)</text></g></svg>