<svg width="1732" height="511" xmlns="http://www.w3.org/2000/svg" xmlns:xlink="http://www.w3.org/1999/xlink" xml:space="preserve" overflow="hidden"><g transform="translate(-1209 -1302)"><rect x="1224.5" y="1310.5" width="1617" height="483" stroke="#A6A6A6" stroke-width="6.875" stroke-miterlimit="8" fill="#F2F2F2"/><path d="M1377.63 1543.38C1384.39 1433.73 1624.41 1359.28 1913.72 1377.11 2203.04 1394.94 2432.1 1498.29 2425.34 1607.94 2418.58 1717.6 2178.57 1792.04 1889.25 1774.21 1599.94 1756.38 1370.88 1653.04 1377.63 1543.38Z" stroke="#1F4E79" stroke-width="4.58333" stroke-miterlimit="8" stroke-dasharray="18.3333 13.75" fill="#DEEBF7" fill-rule="evenodd"/><path d="M1573.08 1629.09C1564.36 1544.52 1691.76 1462.09 1857.63 1444.99 2023.51 1427.88 2165.05 1482.57 2173.77 1567.14 2182.49 1651.7 2055.09 1734.13 1889.22 1751.23 1723.34 1768.34 1581.8 1713.65 1573.08 1629.09Z" stroke="#C55A11" stroke-width="4.58333" stroke-miterlimit="8" stroke-dasharray="18.3333 13.75" fill="#FBE5D6" fill-rule="evenodd"/><path d="M2073 1613C2073 1603.61 2080.16 1596 2089 1596 2097.84 1596 2105 1603.61 2105 1613 2105 1622.39 2097.84 1630 2089 1630 2080.16 1630 2073 1622.39 2073 1613Z" fill="#C00000" fill-rule="evenodd"/><path d="M1633.35 1604.75C1644.68 1579.08 1687.3 1573.03 1728.55 1591.24 1769.8 1609.44 1794.06 1645.01 1782.73 1670.68 1771.4 1696.34 1728.78 1702.4 1687.53 1684.19 1646.28 1665.99 1622.02 1630.42 1633.35 1604.75Z" stroke="#548235" stroke-width="3.4375" stroke-miterlimit="8" stroke-dasharray="13.75 10.3125" fill="#E2F0D9" fill-rule="evenodd"/><path d="M1694.19 1598.19C1695.59 1598.19 1696.83 1598.56 1697.93 1599.31 1699.02 1600.07 1699.99 1601.23 1700.85 1602.81L1696.85 1604.52C1696.12 1603.04 1695.45 1602 1694.85 1601.42 1694.25 1600.84 1693.52 1600.55 1692.66 1600.55 1692.23 1600.55 1691.83 1600.61 1691.45 1600.74 1691.08 1600.86 1690.75 1601.07 1690.49 1601.36 1690.22 1601.64 1689.98 1602 1689.76 1602.44 1689.55 1602.88 1689.33 1603.5 1689.12 1604.3 1688.9 1605.09 1688.59 1606.45 1688.18 1608.36L1684.69 1624.48C1684.45 1625.57 1684.27 1626.59 1684.13 1627.54 1684 1628.49 1683.93 1629.25 1683.93 1629.82 1683.93 1630.68 1684.12 1631.34 1684.5 1631.8 1684.87 1632.25 1685.46 1632.48 1686.24 1632.48 1686.85 1632.48 1687.42 1632.31 1687.95 1631.98 1688.48 1631.65 1689.42 1630.77 1690.78 1629.34L1692.37 1630.82C1691.04 1632.3 1689.97 1633.34 1689.14 1633.94 1688.32 1634.54 1687.48 1634.99 1686.62 1635.27 1685.76 1635.56 1684.8 1635.7 1683.75 1635.7 1682.4 1635.7 1681.28 1635.21 1680.39 1634.21 1679.49 1633.22 1679.05 1631.92 1679.05 1630.31 1679.05 1629.71 1679.11 1628.91 1679.25 1627.89 1679.38 1626.87 1679.55 1625.94 1679.74 1625.1L1681.36 1617.63 1668.46 1617.63 1666.69 1625.87C1666.42 1627.13 1666.08 1628.26 1665.67 1629.27 1665.26 1630.28 1664.74 1631.19 1664.11 1631.98 1663.49 1632.78 1662.66 1633.49 1661.63 1634.12 1660.6 1634.75 1659.66 1635.17 1658.8 1635.38 1657.94 1635.6 1657.02 1635.7 1656.06 1635.7 1654.7 1635.7 1653.48 1635.32 1652.41 1634.56 1651.33 1633.8 1650.37 1632.64 1649.53 1631.08L1653.18 1628.99C1653.94 1630.48 1654.66 1631.57 1655.36 1632.28 1656.06 1632.99 1656.83 1633.34 1657.67 1633.34 1658.1 1633.34 1658.53 1633.25 1658.96 1633.08 1659.39 1632.91 1659.78 1632.58 1660.13 1632.08 1660.48 1631.58 1660.78 1630.87 1661.04 1629.96 1661.3 1629.04 1661.64 1627.57 1662.07 1625.53L1665.62 1608.42C1665.89 1607.11 1666.27 1605.86 1666.77 1604.66 1667.27 1603.46 1667.76 1602.59 1668.22 1602.05L1668.17 1601.78C1665.2 1601.78 1662.95 1601.92 1661.42 1602.19 1659.88 1602.46 1658.78 1602.91 1658.11 1603.56 1657.44 1604.2 1657.1 1605.13 1657.1 1606.35 1657.1 1607.26 1657.42 1608.37 1658.04 1609.68L1653.91 1611.29C1653.52 1610.65 1653.23 1610.04 1653.06 1609.48 1652.89 1608.91 1652.81 1608.29 1652.81 1607.61 1652.81 1606.99 1652.97 1606.33 1653.3 1605.64 1653.64 1604.95 1654.2 1604.21 1655.01 1603.42 1655.94 1602.51 1657.1 1601.63 1658.5 1600.79 1659.63 1600.11 1660.7 1599.62 1661.72 1599.33 1662.74 1599.03 1663.87 1598.83 1665.11 1598.72 1665.93 1598.65 1667.18 1598.62 1668.87 1598.62L1671.93 1598.62 1672.65 1600.2C1672.33 1600.9 1672.05 1601.68 1671.82 1602.55 1671.59 1603.42 1671.36 1604.37 1671.12 1605.41L1669.19 1614.49 1682.05 1614.49 1683.45 1608.12C1683.75 1606.76 1684.12 1605.58 1684.55 1604.58 1684.98 1603.58 1685.5 1602.68 1686.12 1601.91 1686.74 1601.13 1687.56 1600.42 1688.59 1599.78 1689.62 1599.15 1690.57 1598.72 1691.44 1598.51 1692.31 1598.29 1693.23 1598.19 1694.19 1598.19Z" fill="#548235" fill-rule="evenodd"/><text fill="#000000" fill-opacity="0" font-family="Arial,Arial_MSFontService,sans-serif" font-size="37.5171" x="1649.53" y="1631.01">ℋ</text><path d="M1708.39 1623.1C1707.48 1623.1 1706.72 1623.34 1706.11 1623.82 1705.49 1624.29 1705.01 1624.99 1704.65 1625.91 1704.29 1626.82 1704.04 1627.94 1703.89 1629.27 1703.74 1630.59 1703.66 1632.09 1703.66 1633.77 1703.66 1635.71 1703.76 1637.38 1703.95 1638.8 1704.14 1640.21 1704.43 1641.37 1704.83 1642.28 1705.22 1643.2 1705.72 1643.87 1706.32 1644.3 1706.92 1644.73 1707.64 1644.94 1708.47 1644.94 1709.25 1644.94 1709.93 1644.74 1710.52 1644.33 1711.11 1643.93 1711.59 1643.3 1711.97 1642.45 1712.36 1641.6 1712.65 1640.52 1712.84 1639.21 1713.04 1637.9 1713.14 1636.35 1713.14 1634.57 1713.14 1632.56 1713.03 1630.84 1712.81 1629.39 1712.6 1627.95 1712.3 1626.76 1711.91 1625.83 1711.52 1624.9 1711.02 1624.21 1710.43 1623.77 1709.84 1623.33 1709.16 1623.1 1708.39 1623.1ZM1708.47 1621.21C1710.02 1621.21 1711.34 1621.5 1712.44 1622.08 1713.54 1622.66 1714.44 1623.49 1715.14 1624.56 1715.84 1625.63 1716.35 1626.95 1716.67 1628.49 1717 1630.04 1717.16 1631.8 1717.16 1633.75 1717.16 1638.08 1716.39 1641.36 1714.86 1643.58 1713.32 1645.8 1711.09 1646.91 1708.18 1646.91 1705.29 1646.91 1703.14 1645.86 1701.73 1643.77 1700.32 1641.67 1699.62 1638.49 1699.62 1634.24 1699.62 1632.01 1699.84 1630.08 1700.28 1628.46 1700.71 1626.83 1701.32 1625.48 1702.11 1624.4 1702.9 1623.33 1703.83 1622.53 1704.91 1622 1705.99 1621.47 1707.18 1621.21 1708.47 1621.21Z" fill="#548235" fill-rule="evenodd"/><text fill="#000000" fill-opacity="0" font-family="Arial,Arial_MSFontService,sans-serif" font-size="25.7031" x="1699.62" y="1643.7">0</text><path d="M1695.28 1519.7C1696.68 1519.7 1697.92 1520.07 1699.01 1520.83 1700.11 1521.58 1701.08 1522.74 1701.94 1524.32L1697.94 1526.04C1697.21 1524.55 1696.54 1523.52 1695.94 1522.93 1695.34 1522.35 1694.61 1522.06 1693.75 1522.06 1693.32 1522.06 1692.92 1522.12 1692.54 1522.25 1692.17 1522.37 1691.84 1522.58 1691.58 1522.87 1691.31 1523.15 1691.07 1523.52 1690.85 1523.95 1690.64 1524.39 1690.42 1525.01 1690.21 1525.81 1689.99 1526.6 1689.68 1527.96 1689.27 1529.88L1685.77 1545.99C1685.54 1547.08 1685.36 1548.1 1685.22 1549.05 1685.09 1550 1685.02 1550.76 1685.02 1551.33 1685.02 1552.19 1685.21 1552.85 1685.59 1553.31 1685.96 1553.76 1686.54 1553.99 1687.33 1553.99 1687.94 1553.99 1688.51 1553.83 1689.04 1553.5 1689.57 1553.16 1690.51 1552.28 1691.87 1550.85L1693.46 1552.33C1692.13 1553.81 1691.06 1554.86 1690.23 1555.46 1689.41 1556.06 1688.57 1556.5 1687.71 1556.79 1686.85 1557.07 1685.89 1557.22 1684.83 1557.22 1683.49 1557.22 1682.37 1556.72 1681.48 1555.72 1680.58 1554.73 1680.14 1553.43 1680.14 1551.82 1680.14 1551.23 1680.2 1550.42 1680.34 1549.4 1680.47 1548.38 1680.64 1547.45 1680.83 1546.61L1682.44 1539.14 1669.55 1539.14 1667.78 1547.39C1667.51 1548.64 1667.17 1549.77 1666.76 1550.78 1666.35 1551.79 1665.83 1552.7 1665.2 1553.5 1664.58 1554.29 1663.75 1555 1662.72 1555.63 1661.69 1556.26 1660.75 1556.68 1659.89 1556.89 1659.03 1557.11 1658.11 1557.22 1657.15 1557.22 1655.79 1557.22 1654.57 1556.83 1653.49 1556.07 1652.42 1555.31 1651.46 1554.15 1650.62 1552.6L1654.27 1550.5C1655.03 1551.99 1655.75 1553.08 1656.45 1553.79 1657.15 1554.5 1657.92 1554.85 1658.76 1554.85 1659.19 1554.85 1659.62 1554.77 1660.05 1554.6 1660.48 1554.43 1660.87 1554.09 1661.22 1553.59 1661.56 1553.09 1661.87 1552.38 1662.13 1551.47 1662.39 1550.56 1662.73 1549.08 1663.16 1547.04L1666.71 1529.93C1666.98 1528.62 1667.36 1527.37 1667.86 1526.17 1668.36 1524.97 1668.85 1524.1 1669.31 1523.57L1669.26 1523.3C1666.29 1523.3 1664.04 1523.43 1662.5 1523.7 1660.97 1523.97 1659.87 1524.42 1659.2 1525.07 1658.53 1525.71 1658.19 1526.64 1658.19 1527.86 1658.19 1528.78 1658.51 1529.89 1659.13 1531.19L1655 1532.8C1654.6 1532.16 1654.32 1531.55 1654.15 1530.99 1653.98 1530.43 1653.9 1529.8 1653.9 1529.12 1653.9 1528.5 1654.06 1527.84 1654.39 1527.15 1654.73 1526.46 1655.29 1525.72 1656.1 1524.93 1657.03 1524.02 1658.19 1523.14 1659.59 1522.3 1660.72 1521.62 1661.79 1521.13 1662.81 1520.84 1663.83 1520.54 1664.96 1520.34 1666.2 1520.24 1667.02 1520.16 1668.27 1520.13 1669.96 1520.13L1673.02 1520.13 1673.74 1521.71C1673.42 1522.41 1673.14 1523.19 1672.91 1524.06 1672.68 1524.93 1672.45 1525.88 1672.21 1526.92L1670.28 1536 1683.14 1536 1684.54 1529.63C1684.84 1528.27 1685.21 1527.09 1685.64 1526.09 1686.07 1525.09 1686.59 1524.2 1687.21 1523.42 1687.83 1522.64 1688.65 1521.93 1689.68 1521.3 1690.71 1520.66 1691.66 1520.24 1692.53 1520.02 1693.4 1519.81 1694.31 1519.7 1695.28 1519.7Z" fill="#C55A11" fill-rule="evenodd"/><text fill="#000000" fill-opacity="0" font-family="Arial,Arial_MSFontService,sans-serif" font-size="37.5171" x="1650.62" y="1552.53">ℋ</text><path d="M1709.8 1542.86 1710.99 1542.86C1710.96 1543.57 1710.94 1544.22 1710.93 1544.78 1710.92 1545.35 1710.91 1545.9 1710.9 1546.43 1710.9 1546.97 1710.89 1547.49 1710.89 1548.01L1710.89 1562.86C1710.89 1563.26 1710.91 1563.61 1710.93 1563.9 1710.96 1564.2 1711 1564.44 1711.06 1564.65 1711.12 1564.85 1711.19 1565.02 1711.29 1565.16 1711.39 1565.31 1711.5 1565.43 1711.63 1565.53 1711.79 1565.69 1712 1565.81 1712.26 1565.9 1712.52 1565.98 1712.85 1566.05 1713.26 1566.11 1713.66 1566.17 1714.14 1566.21 1714.71 1566.25 1715.28 1566.28 1715.96 1566.3 1716.75 1566.32L1716.75 1568.01 1701.26 1568.01 1701.26 1566.32C1702.03 1566.29 1702.68 1566.26 1703.22 1566.23 1703.75 1566.2 1704.21 1566.15 1704.58 1566.09 1704.96 1566.03 1705.26 1565.97 1705.49 1565.9 1705.72 1565.82 1705.92 1565.74 1706.09 1565.63 1706.27 1565.51 1706.43 1565.39 1706.56 1565.25 1706.69 1565.11 1706.79 1564.94 1706.87 1564.73 1706.95 1564.53 1707.01 1564.27 1707.05 1563.97 1707.1 1563.67 1707.12 1563.3 1707.12 1562.86L1707.12 1548.85C1707.12 1548.35 1707.02 1547.99 1706.83 1547.78 1706.63 1547.57 1706.35 1547.47 1705.99 1547.47 1705.59 1547.47 1704.99 1547.68 1704.19 1548.09 1703.4 1548.51 1702.37 1549.13 1701.11 1549.95 1700.94 1549.65 1700.78 1549.35 1700.64 1549.05 1700.49 1548.75 1700.35 1548.44 1700.19 1548.13 1701.8 1547.25 1703.4 1546.36 1704.98 1545.49 1706.57 1544.61 1708.17 1543.73 1709.8 1542.86Z" fill="#C55A11" fill-rule="evenodd"/><text fill="#000000" fill-opacity="0" font-family="Arial,Arial_MSFontService,sans-serif" font-size="25.1562" x="1700.19" y="1564.87">1</text><path d="M1688.26 1433.99C1689.66 1433.99 1690.9 1434.36 1691.99 1435.12 1693.09 1435.87 1694.06 1437.03 1694.92 1438.61L1690.92 1440.33C1690.19 1438.84 1689.52 1437.81 1688.92 1437.22 1688.32 1436.64 1687.59 1436.35 1686.73 1436.35 1686.3 1436.35 1685.9 1436.41 1685.52 1436.54 1685.15 1436.66 1684.82 1436.87 1684.55 1437.16 1684.29 1437.44 1684.04 1437.81 1683.83 1438.24 1683.61 1438.68 1683.4 1439.3 1683.19 1440.1 1682.97 1440.89 1682.66 1442.25 1682.25 1444.17L1678.75 1460.28C1678.52 1461.37 1678.34 1462.39 1678.2 1463.34 1678.07 1464.29 1678 1465.05 1678 1465.62 1678 1466.48 1678.19 1467.14 1678.57 1467.6 1678.94 1468.05 1679.52 1468.28 1680.31 1468.28 1680.92 1468.28 1681.49 1468.12 1682.02 1467.79 1682.55 1467.45 1683.49 1466.57 1684.85 1465.14L1686.43 1466.62C1685.11 1468.1 1684.04 1469.15 1683.21 1469.75 1682.39 1470.35 1681.55 1470.79 1680.69 1471.08 1679.83 1471.36 1678.87 1471.5 1677.81 1471.5 1676.47 1471.5 1675.35 1471.01 1674.46 1470.01 1673.56 1469.02 1673.11 1467.72 1673.11 1466.11 1673.11 1465.52 1673.18 1464.71 1673.32 1463.69 1673.45 1462.67 1673.62 1461.74 1673.81 1460.9L1675.42 1453.43 1662.53 1453.43 1660.76 1461.68C1660.49 1462.93 1660.15 1464.06 1659.74 1465.07 1659.33 1466.08 1658.81 1466.99 1658.18 1467.79 1657.56 1468.58 1656.73 1469.29 1655.7 1469.92 1654.67 1470.55 1653.72 1470.97 1652.87 1471.18 1652.01 1471.4 1651.09 1471.5 1650.13 1471.5 1648.77 1471.5 1647.55 1471.12 1646.47 1470.36 1645.4 1469.6 1644.44 1468.44 1643.6 1466.89L1647.25 1464.79C1648 1466.28 1648.73 1467.37 1649.43 1468.08 1650.13 1468.79 1650.9 1469.14 1651.74 1469.14 1652.17 1469.14 1652.6 1469.06 1653.03 1468.89 1653.46 1468.72 1653.85 1468.38 1654.19 1467.88 1654.54 1467.38 1654.85 1466.67 1655.11 1465.76 1655.37 1464.84 1655.71 1463.37 1656.14 1461.33L1659.69 1444.22C1659.96 1442.91 1660.34 1441.66 1660.84 1440.46 1661.34 1439.26 1661.83 1438.39 1662.29 1437.85L1662.24 1437.59C1659.27 1437.59 1657.01 1437.72 1655.48 1437.99 1653.95 1438.26 1652.85 1438.71 1652.18 1439.36 1651.51 1440 1651.17 1440.93 1651.17 1442.15 1651.17 1443.06 1651.49 1444.17 1652.11 1445.48L1647.98 1447.09C1647.58 1446.45 1647.3 1445.84 1647.13 1445.28 1646.96 1444.72 1646.88 1444.09 1646.88 1443.41 1646.88 1442.79 1647.04 1442.13 1647.37 1441.44 1647.7 1440.75 1648.27 1440.01 1649.08 1439.22 1650.01 1438.31 1651.17 1437.43 1652.57 1436.59 1653.7 1435.91 1654.77 1435.42 1655.79 1435.13 1656.81 1434.83 1657.94 1434.63 1659.18 1434.52 1660 1434.45 1661.25 1434.42 1662.94 1434.42L1666 1434.42 1666.72 1436C1666.4 1436.7 1666.12 1437.48 1665.89 1438.35 1665.66 1439.22 1665.42 1440.17 1665.19 1441.21L1663.26 1450.29 1676.12 1450.29 1677.52 1443.92C1677.82 1442.56 1678.19 1441.38 1678.62 1440.38 1679.05 1439.38 1679.57 1438.49 1680.19 1437.71 1680.81 1436.93 1681.63 1436.22 1682.66 1435.59 1683.69 1434.95 1684.64 1434.52 1685.51 1434.31 1686.38 1434.1 1687.29 1433.99 1688.26 1433.99Z" fill="#1F4E79" fill-rule="evenodd"/><text fill="#000000" fill-opacity="0" font-family="Arial,Arial_MSFontService,sans-serif" font-size="37.5171" x="1643.6" y="1466.82">ℋ</text><path d="M1702.54 1457.01C1703.89 1457.01 1705.05 1457.16 1706 1457.47 1706.96 1457.78 1707.74 1458.19 1708.34 1458.71 1708.94 1459.23 1709.37 1459.86 1709.64 1460.59 1709.9 1461.31 1710.04 1462.1 1710.04 1462.95 1710.04 1463.46 1710 1463.93 1709.93 1464.36 1709.86 1464.8 1709.73 1465.23 1709.56 1465.65 1709.38 1466.08 1709.15 1466.5 1708.87 1466.93 1708.58 1467.36 1708.22 1467.82 1707.79 1468.3 1707.47 1468.72 1707.04 1469.2 1706.52 1469.75 1706 1470.29 1705.43 1470.88 1704.81 1471.5 1704.19 1472.13 1703.55 1472.78 1702.87 1473.46 1702.19 1474.13 1701.54 1474.8 1700.9 1475.47 1700.26 1476.13 1699.67 1476.78 1699.14 1477.4 1698.61 1478.03 1698.17 1478.6 1697.83 1479.12L1705.06 1479.12C1705.67 1479.12 1706.16 1479.1 1706.52 1479.05 1706.89 1479.01 1707.19 1478.91 1707.43 1478.75 1707.67 1478.59 1707.88 1478.36 1708.05 1478.04 1708.21 1477.72 1708.41 1477.28 1708.63 1476.72L1710.45 1476.72C1710.38 1477.64 1710.32 1478.57 1710.26 1479.51 1710.2 1480.45 1710.14 1481.38 1710.08 1482.3L1693.53 1482.3 1693.53 1481.29C1693.85 1480.59 1694.21 1479.89 1694.63 1479.21 1695.04 1478.52 1695.51 1477.83 1696.03 1477.13 1696.55 1476.43 1697.15 1475.7 1697.81 1474.95 1698.48 1474.2 1699.21 1473.42 1700.02 1472.62 1701.24 1471.39 1702.24 1470.35 1703.01 1469.48 1703.77 1468.62 1704.38 1467.84 1704.82 1467.17 1705.27 1466.49 1705.57 1465.87 1705.73 1465.29 1705.89 1464.72 1705.98 1464.11 1705.98 1463.46 1705.98 1462.79 1705.88 1462.18 1705.69 1461.62 1705.5 1461.06 1705.23 1460.59 1704.88 1460.19 1704.53 1459.8 1704.08 1459.5 1703.54 1459.28 1703 1459.06 1702.38 1458.94 1701.68 1458.94 1700.47 1458.94 1699.45 1459.27 1698.63 1459.93 1697.81 1460.59 1697.17 1461.54 1696.72 1462.79L1694.16 1462.79 1694.16 1458.98C1695.83 1458.29 1697.36 1457.79 1698.76 1457.48 1700.16 1457.17 1701.42 1457.01 1702.54 1457.01Z" fill="#1F4E79" fill-rule="evenodd"/><text fill="#000000" fill-opacity="0" font-family="Arial,Arial_MSFontService,sans-serif" font-size="25.293" x="1693.53" y="1479.14">2</text><text font-family="Times New Roman,Times New Roman_MSFontService,sans-serif" font-weight="400" font-size="55" transform="matrix(1 0 0 1 1242.88 1372)">Hypothesis space </text><path d="M1685.14 1334.83C1686.54 1334.83 1687.78 1335.2 1688.88 1335.95 1689.97 1336.71 1690.94 1337.87 1691.8 1339.44L1687.8 1341.16C1687.07 1339.68 1686.4 1338.64 1685.8 1338.06 1685.2 1337.48 1684.47 1337.19 1683.61 1337.19 1683.18 1337.19 1682.78 1337.25 1682.4 1337.38 1682.03 1337.5 1681.71 1337.71 1681.44 1337.99 1681.17 1338.28 1680.93 1338.64 1680.71 1339.08 1680.5 1339.52 1680.28 1340.14 1680.07 1340.93 1679.85 1341.73 1679.54 1343.09 1679.13 1345L1675.64 1361.12C1675.4 1362.21 1675.22 1363.23 1675.09 1364.18 1674.95 1365.13 1674.88 1365.89 1674.88 1366.46 1674.88 1367.32 1675.07 1367.98 1675.45 1368.43 1675.82 1368.89 1676.41 1369.12 1677.19 1369.12 1677.8 1369.12 1678.37 1368.95 1678.9 1368.62 1679.43 1368.29 1680.37 1367.41 1681.73 1365.98L1683.32 1367.45C1681.99 1368.94 1680.92 1369.98 1680.09 1370.58 1679.27 1371.18 1678.43 1371.63 1677.57 1371.91 1676.71 1372.2 1675.75 1372.34 1674.7 1372.34 1673.35 1372.34 1672.23 1371.85 1671.34 1370.85 1670.44 1369.86 1670 1368.56 1670 1366.94 1670 1366.35 1670.06 1365.55 1670.2 1364.53 1670.33 1363.51 1670.5 1362.58 1670.7 1361.73L1672.31 1354.27 1659.42 1354.27 1657.64 1362.51C1657.37 1363.77 1657.03 1364.9 1656.62 1365.91 1656.21 1366.92 1655.69 1367.83 1655.07 1368.62 1654.44 1369.42 1653.61 1370.13 1652.58 1370.76 1651.55 1371.38 1650.61 1371.81 1649.75 1372.02 1648.89 1372.23 1647.98 1372.34 1647.01 1372.34 1645.65 1372.34 1644.43 1371.96 1643.36 1371.2 1642.28 1370.44 1641.32 1369.28 1640.48 1367.72L1644.14 1365.63C1644.89 1367.11 1645.61 1368.21 1646.31 1368.92 1647.01 1369.63 1647.78 1369.98 1648.62 1369.98 1649.05 1369.98 1649.48 1369.89 1649.91 1369.72 1650.34 1369.55 1650.73 1369.22 1651.08 1368.72 1651.43 1368.22 1651.73 1367.51 1651.99 1366.6 1652.25 1365.68 1652.59 1364.21 1653.02 1362.16L1656.57 1345.06C1656.84 1343.75 1657.22 1342.5 1657.72 1341.3 1658.23 1340.1 1658.71 1339.23 1659.17 1338.69L1659.12 1338.42C1656.15 1338.42 1653.9 1338.56 1652.37 1338.83 1650.84 1339.1 1649.73 1339.55 1649.06 1340.2 1648.39 1340.84 1648.06 1341.77 1648.06 1342.99 1648.06 1343.9 1648.37 1345.01 1649 1346.32L1644.86 1347.93C1644.47 1347.29 1644.18 1346.68 1644.01 1346.12 1643.84 1345.55 1643.76 1344.93 1643.76 1344.25 1643.76 1343.62 1643.92 1342.97 1644.26 1342.28 1644.59 1341.59 1645.16 1340.85 1645.96 1340.06 1646.89 1339.15 1648.06 1338.27 1649.45 1337.43 1650.58 1336.75 1651.65 1336.26 1652.68 1335.97 1653.7 1335.67 1654.82 1335.47 1656.06 1335.36 1656.88 1335.29 1658.14 1335.26 1659.82 1335.26L1662.88 1335.26 1663.61 1336.84C1663.28 1337.54 1663.01 1338.32 1662.77 1339.19 1662.54 1340.06 1662.31 1341.01 1662.07 1342.05L1660.14 1351.13 1673 1351.13 1674.4 1344.76C1674.71 1343.4 1675.07 1342.22 1675.5 1341.22 1675.93 1340.21 1676.46 1339.32 1677.07 1338.54 1677.69 1337.77 1678.51 1337.06 1679.54 1336.42 1680.57 1335.79 1681.52 1335.36 1682.39 1335.15 1683.26 1334.93 1684.18 1334.83 1685.14 1334.83Z" fill-rule="evenodd"/><text fill="#000000" fill-opacity="0" font-family="Arial,Arial_MSFontService,sans-serif" font-size="37.5171" x="1640.48" y="1367.65">ℋ</text><text fill="#C00000" font-family="Cambria Math,Cambria Math_MSFontService,sans-serif" font-weight="400" font-size="55" transform="matrix(1 0 0 1 2438.23 1701)">Population</text><text fill="#C00000" font-family="Cambria Math,Cambria Math_MSFontService,sans-serif" font-weight="400" font-size="55" transform="matrix(1 0 0 1 2694.43 1701)">-</text><text fill="#C00000" font-family="Cambria Math,Cambria Math_MSFontService,sans-serif" font-weight="400" font-size="55" transform="matrix(1 0 0 1 2712.77 1701)">level </text><text fill="#C00000" font-family="Cambria Math,Cambria Math_MSFontService,sans-serif" font-weight="400" font-size="55" transform="matrix(1 0 0 1 2438.23 1767)">optimal solution</text><path d="M2440.17 1682.83 2127.32 1621.3 2128.65 1614.55 2441.49 1676.08ZM2129.83 1632.3 2105.5 1613.5 2135.14 1605.32Z" fill="#C00000"/></g></svg>