<svg width="1537" height="818" xmlns="http://www.w3.org/2000/svg" xmlns:xlink="http://www.w3.org/1999/xlink" xml:space="preserve" overflow="hidden"><g transform="translate(-1103 -205)"><path d="M1236.5 828.063 2560.41 828.063 2560.41 834.938 1236.5 834.938ZM2555.82 817.75 2583.32 831.5 2555.82 845.25Z"/><path d="M3.4375-2.07544e-06 3.43785 574.819-3.43715 574.819-3.4375 2.07544e-06ZM13.7503 570.236 0.000360892 597.736-13.7497 570.236Z" transform="matrix(1 0 0 -1 1236.5 834.236)"/><text font-family="Times New Roman,Times New Roman_MSFontService,sans-serif" font-weight="400" font-size="83" transform="matrix(-1.83697e-16 -1 1 -1.83697e-16 1208.69 422)">error</text><path d="M1313 803C1449.02 728.833 1585.04 654.667 1790.37 617 1995.7 579.333 2270.35 578.167 2545 577" stroke="#172C51" stroke-width="10.3125" stroke-miterlimit="8" fill="none" fill-rule="evenodd"/><path d="M1281.5 208.5C1381.94 291.833 1482.37 375.167 1690.87 426.5 1899.37 477.833 2395.62 500.833 2532.5 516.5" stroke="#172C51" stroke-width="4.58333" stroke-miterlimit="8" stroke-dasharray="18.3333 13.75" fill="none" fill-rule="evenodd"/><path d="M2039 260 2121 260" stroke="#172C51" stroke-width="10.3125" stroke-miterlimit="8" fill="none" fill-rule="evenodd"/><text font-family="Times New Roman,Times New Roman_MSFontService,sans-serif" font-weight="400" font-size="55" transform="matrix(1 0 0 1 2140.95 275)">training error</text><path d="M2039.5 318.5 2121.5 318.501" stroke="#172C51" stroke-width="4.58333" stroke-miterlimit="8" stroke-dasharray="18.3333 13.75" fill="none" fill-rule="evenodd"/><text font-family="Times New Roman,Times New Roman_MSFontService,sans-serif" font-weight="400" font-size="55" transform="matrix(1 0 0 1 2136.93 330)">generalization bound</text><path d="M2519.5 647.5C2281.35 649.93 2043.2 652.361 1868.2 683.528 1693.2 714.694 1581.35 774.597 1469.5 834.5" stroke="#172C51" stroke-width="4.58333" stroke-miterlimit="8" stroke-dasharray="18.3333 13.75" fill="none" fill-rule="evenodd"/><path d="M1471.79 746.417 1471.79 811.239 1467.21 811.239 1467.21 746.417ZM1455.75 751 1469.5 723.5 1483.25 751ZM1483.25 806.655 1469.5 834.156 1455.75 806.656Z" fill="#C00000"/><path d="M1474.79 383.417 1474.79 689.184 1470.21 689.184 1470.21 383.417ZM1458.75 388 1472.5 360.5 1486.25 388ZM1486.25 684.601 1472.5 712.101 1458.75 684.601Z" fill="#C00000"/><path d="M2198.79 516.417 2198.79 552.861 2194.21 552.861 2194.21 516.417ZM2182.75 521 2196.5 493.5 2210.25 521ZM2210.25 548.277 2196.5 575.777 2182.75 548.278Z" fill="#C00000"/><path d="M2198.79 609.417 2198.79 632.557 2194.21 632.557 2194.21 609.417ZM2182.75 614 2196.5 586.5 2210.25 614ZM2210.25 627.974 2196.5 655.474 2182.75 627.974Z" fill="#C00000"/><path d="M1524.37 631.416C1525.58 630.882 1526.73 630.495 1527.81 630.255 1528.89 630.015 1530.48 629.83 1532.6 629.701 1533.67 629.641 1534.36 629.542 1534.67 629.405 1534.98 629.268 1535.18 629.007 1535.28 628.623 1535.37 628.239 1535.26 627.618 1534.94 626.761L1535.85 626.361 1541.34 636.501 1540.48 636.88C1538.46 634.641 1536.47 633.161 1534.51 632.44 1531.68 631.396 1528.71 631.559 1525.6 632.93 1521.35 634.799 1518.86 637.901 1518.13 642.234 1517.53 645.884 1518.09 649.667 1519.81 653.583 1521.21 656.761 1523.11 659.391 1525.49 661.471 1527.87 663.552 1530.33 664.764 1532.86 665.108 1535.39 665.451 1537.7 665.162 1539.8 664.238 1541.03 663.697 1542.14 663.018 1543.15 662.201 1544.16 661.385 1545.07 660.439 1545.87 659.364L1541.62 649.729C1540.89 648.058 1540.28 647.02 1539.8 646.616 1539.32 646.212 1538.75 645.992 1538.1 645.956 1537.45 645.92 1536.45 646.198 1535.1 646.79L1534.69 645.856 1547.6 640.173 1548.01 641.107 1547.39 641.378C1546.12 641.94 1545.43 642.753 1545.33 643.814 1545.27 644.564 1545.63 645.833 1546.42 647.619L1550.91 657.818C1549.47 659.664 1547.94 661.229 1546.31 662.512 1544.69 663.795 1542.75 664.931 1540.51 665.92 1534.07 668.756 1528.27 668.846 1523.11 666.189 1519.24 664.196 1516.41 661.176 1514.63 657.129 1513.34 654.196 1512.8 651.076 1513.03 647.768 1513.29 643.837 1514.5 640.369 1516.66 637.364 1518.48 634.863 1521.05 632.881 1524.37 631.416Z" fill="#C00000" fill-rule="evenodd"/><text fill="#000000" fill-opacity="0" font-family="Arial,Arial_MSFontService,sans-serif" font-size="41.7557" x="1512.98" y="662.897">G</text><path d="M1557.74 632.657C1556.35 633.19 1555.32 634.206 1554.64 635.704 1553.96 637.203 1553.89 638.949 1554.45 640.941L1565.08 636.856C1564.43 635.418 1563.86 634.449 1563.36 633.95 1562.58 633.175 1561.68 632.679 1560.64 632.462 1559.61 632.245 1558.64 632.31 1557.74 632.657ZM1558.46 630.338C1561.03 629.349 1563.47 629.384 1565.78 630.445 1568.09 631.505 1569.78 633.456 1570.88 636.297L1555.01 642.395C1556.3 645.811 1558.16 648.167 1560.57 649.463 1562.99 650.759 1565.33 650.974 1567.58 650.107 1569.09 649.529 1570.23 648.613 1571.03 647.359 1571.82 646.104 1572.21 644.33 1572.19 642.035L1573.16 642.238C1573.69 644.663 1573.47 647.139 1572.51 649.668 1571.54 652.197 1569.79 653.949 1567.25 654.925 1564.49 655.985 1561.72 655.818 1558.93 654.426 1556.14 653.033 1554.05 650.523 1552.65 646.896 1551.14 642.969 1550.97 639.52 1552.14 636.548 1553.31 633.577 1555.42 631.506 1558.46 630.338Z" fill="#C00000" fill-rule="evenodd"/><text fill="#000000" fill-opacity="0" font-family="Arial,Arial_MSFontService,sans-serif" font-size="25.9905" x="1551.38" y="652.363">e</text><path d="M1576.14 623.815 1577.23 623.435 1578.94 628.353C1580.52 624.123 1582.54 621.578 1585.01 620.716 1586.28 620.273 1587.48 620.209 1588.61 620.524 1589.75 620.839 1590.84 621.629 1591.89 622.893 1592.61 623.777 1593.34 625.268 1594.07 627.363L1597.54 637.276C1598.05 638.747 1598.52 639.703 1598.94 640.144 1599.27 640.502 1599.69 640.726 1600.18 640.818 1600.68 640.91 1601.48 640.762 1602.6 640.372L1602.92 641.285 1591.43 645.297 1591.12 644.384 1591.6 644.216C1592.68 643.838 1593.38 643.409 1593.69 642.929 1594.01 642.448 1594.14 641.858 1594.08 641.156 1594.06 640.879 1593.82 640.073 1593.35 638.738L1590.03 629.23C1589.29 627.118 1588.48 625.68 1587.6 624.917 1586.72 624.154 1585.63 623.999 1584.32 624.454 1582.31 625.157 1580.69 626.955 1579.47 629.849L1583.74 642.094C1584.29 643.666 1584.73 644.606 1585.04 644.913 1585.45 645.32 1585.9 645.566 1586.39 645.649 1586.89 645.733 1587.77 645.553 1589.04 645.11L1589.36 646.023 1577.87 650.035 1577.55 649.122 1578.06 648.945C1579.24 648.532 1579.94 647.953 1580.14 647.208 1580.34 646.463 1580.15 645.246 1579.56 643.556L1576.55 634.936C1575.58 632.147 1574.92 630.47 1574.58 629.906 1574.24 629.342 1573.9 628.996 1573.56 628.868 1573.22 628.739 1572.83 628.752 1572.4 628.906 1571.92 629.071 1571.4 629.395 1570.83 629.879L1570.13 629.099Z" fill="#C00000" fill-rule="evenodd"/><text fill="#000000" fill-opacity="0" font-family="Arial,Arial_MSFontService,sans-serif" font-size="29.7075" x="1570.13" y="646.321">n</text><path d="M1606.5 615.554C1605.08 616.007 1603.99 616.963 1603.23 618.42 1602.46 619.878 1602.3 621.617 1602.74 623.638L1613.58 620.164C1613.02 618.691 1612.5 617.691 1612.03 617.165 1611.3 616.346 1610.42 615.8 1609.41 615.524 1608.39 615.249 1607.42 615.259 1606.5 615.554ZM1607.35 613.279C1609.97 612.438 1612.41 612.613 1614.65 613.803 1616.89 614.992 1618.48 617.037 1619.4 619.935L1603.22 625.121C1604.31 628.605 1606.03 631.062 1608.37 632.494 1610.71 633.926 1613.03 634.273 1615.33 633.536 1616.86 633.044 1618.06 632.195 1618.93 630.987 1619.79 629.78 1620.28 628.031 1620.39 625.739L1621.35 625.997C1621.74 628.447 1621.38 630.907 1620.27 633.377 1619.16 635.847 1617.31 637.497 1614.72 638.327 1611.91 639.228 1609.15 638.904 1606.44 637.355 1603.74 635.806 1601.79 633.181 1600.61 629.481 1599.32 625.475 1599.35 622.021 1600.69 619.121 1602.02 616.221 1604.24 614.273 1607.35 613.279Z" fill="#C00000" fill-rule="evenodd"/><text fill="#000000" fill-opacity="0" font-family="Arial,Arial_MSFontService,sans-serif" font-size="26.0673" x="1599.66" y="635.566">e</text><path d="M1625.36 607.727 1626.44 607.403 1628.02 612.703C1628.94 608.579 1630.43 606.206 1632.51 605.585 1633.45 605.302 1634.32 605.356 1635.11 605.746 1635.9 606.135 1636.41 606.707 1636.63 607.462 1636.83 608.131 1636.78 608.764 1636.47 609.36 1636.16 609.957 1635.7 610.348 1635.08 610.533 1634.48 610.712 1633.72 610.618 1632.8 610.25 1631.88 609.882 1631.23 609.751 1630.87 609.859 1630.56 609.952 1630.28 610.223 1630.02 610.674 1629.46 611.609 1629.01 613.005 1628.67 614.864L1632.05 626.158C1632.44 627.461 1632.9 628.399 1633.43 628.97 1633.79 629.366 1634.3 629.634 1634.96 629.773 1635.62 629.913 1636.48 629.823 1637.54 629.504L1637.82 630.431 1625.75 634.044 1625.48 633.118C1626.68 632.758 1627.51 632.303 1627.98 631.751 1628.33 631.348 1628.5 630.821 1628.49 630.169 1628.49 629.852 1628.28 629.007 1627.87 627.635L1625.14 618.502C1624.31 615.758 1623.77 614.141 1623.5 613.651 1623.23 613.162 1622.91 612.842 1622.54 612.691 1622.17 612.541 1621.76 612.533 1621.31 612.666 1620.78 612.826 1620.22 613.134 1619.63 613.592L1619.09 612.742Z" fill="#C00000" fill-rule="evenodd"/><text fill="#000000" fill-opacity="0" font-family="Arial,Arial_MSFontService,sans-serif" font-size="28.6373" x="1619.09" y="630.464">r</text><path d="M1653.17 610.778C1650.86 612.543 1649.39 613.747 1648.75 614.391 1647.6 615.532 1646.85 616.598 1646.5 617.59 1646.14 618.582 1646.1 619.569 1646.38 620.552 1646.73 621.793 1647.39 622.719 1648.36 623.329 1649.33 623.94 1650.3 624.11 1651.26 623.839 1652.57 623.471 1654.05 622.125 1655.71 619.801ZM1646.67 601.529C1648.78 600.939 1650.6 600.808 1652.14 601.138 1653.31 601.386 1654.29 602.012 1655.09 603.014 1655.61 603.668 1656.19 605.141 1656.84 607.434L1659.1 615.475C1659.73 617.733 1660.16 619.104 1660.39 619.589 1660.62 620.073 1660.86 620.373 1661.1 620.49 1661.35 620.607 1661.6 620.629 1661.86 620.556 1662.14 620.479 1662.36 620.351 1662.53 620.172 1662.83 619.846 1663.35 619.021 1664.1 617.697L1664.5 619.144C1663.3 622.272 1661.82 624.083 1660.06 624.576 1659.22 624.814 1658.46 624.709 1657.8 624.264 1657.13 623.818 1656.59 622.891 1656.18 621.482 1654.28 624.043 1653.06 625.558 1652.52 626.025 1651.71 626.717 1650.78 627.211 1649.73 627.506 1648.09 627.966 1646.58 627.784 1645.21 626.962 1643.83 626.139 1642.89 624.814 1642.38 622.987 1642.05 621.832 1642.03 620.759 1642.31 619.77 1642.69 618.399 1643.61 616.951 1645.06 615.426 1646.52 613.9 1649.08 611.825 1652.73 609.201L1652.47 608.27C1651.81 605.908 1650.98 604.393 1649.98 603.725 1648.98 603.056 1647.77 602.923 1646.34 603.324 1645.25 603.629 1644.47 604.164 1644 604.929 1643.51 605.699 1643.37 606.464 1643.58 607.222L1644.06 608.707C1644.28 609.5 1644.25 610.169 1643.96 610.714 1643.68 611.258 1643.21 611.622 1642.56 611.806 1641.92 611.985 1641.33 611.908 1640.8 611.573 1640.27 611.239 1639.9 610.684 1639.68 609.908 1639.26 608.426 1639.64 606.851 1640.81 605.184 1641.98 603.517 1643.93 602.299 1646.67 601.529Z" fill="#C00000" fill-rule="evenodd"/><text fill="#000000" fill-opacity="0" font-family="Arial,Arial_MSFontService,sans-serif" font-size="26.7924" x="1639.52" y="624.404">a</text><path d="M1664.07 583.457 1665.24 583.148 1673.59 614.691C1673.99 616.179 1674.36 617.137 1674.7 617.564 1675.05 617.992 1675.48 618.271 1675.99 618.403 1676.51 618.535 1677.38 618.438 1678.61 618.113L1678.86 619.047 1667.2 622.134 1666.96 621.199C1668.05 620.91 1668.76 620.601 1669.1 620.27 1669.44 619.94 1669.65 619.485 1669.74 618.907 1669.82 618.328 1669.67 617.303 1669.28 615.832L1663.57 594.232C1662.86 591.55 1662.36 589.917 1662.07 589.335 1661.79 588.752 1661.48 588.384 1661.16 588.23 1660.83 588.076 1660.46 588.054 1660.04 588.164 1659.59 588.284 1659.06 588.573 1658.44 589.033L1657.76 588.242Z" fill="#C00000" fill-rule="evenodd"/><text fill="#000000" fill-opacity="0" font-family="Arial,Arial_MSFontService,sans-serif" font-size="38.9854" x="1657.76" y="617.26">l</text><path d="M1682.23 592.059 1683.37 591.769 1688.22 610.93C1688.6 612.423 1688.96 613.389 1689.3 613.829 1689.65 614.268 1690.06 614.556 1690.55 614.691 1691.03 614.826 1691.84 614.751 1692.97 614.466L1693.21 615.403 1681.62 618.336 1681.38 617.399C1682.55 617.104 1683.3 616.794 1683.64 616.467 1683.98 616.141 1684.21 615.687 1684.31 615.107 1684.41 614.527 1684.28 613.5 1683.9 612.024L1681.57 602.834C1680.92 600.248 1680.42 598.593 1680.07 597.869 1679.81 597.344 1679.52 597.007 1679.2 596.856 1678.89 596.705 1678.5 596.686 1678.05 596.8 1677.57 596.923 1677.01 597.203 1676.38 597.639L1675.78 596.794ZM1678.05 579.846C1678.78 579.661 1679.47 579.76 1680.11 580.143 1680.75 580.525 1681.16 581.081 1681.35 581.81 1681.53 582.539 1681.44 583.228 1681.06 583.879 1680.68 584.529 1680.12 584.946 1679.39 585.131 1678.66 585.315 1677.97 585.213 1677.32 584.824 1676.67 584.436 1676.25 583.877 1676.06 583.148 1675.88 582.419 1675.98 581.733 1676.36 581.092 1676.74 580.45 1677.31 580.035 1678.05 579.846Z" fill="#C00000" fill-rule="evenodd"/><text fill="#000000" fill-opacity="0" font-family="Arial,Arial_MSFontService,sans-serif" font-size="38.5804" x="1675.78" y="613.514">i</text><path d="M1691.19 590.545 1711.25 585.75 1711.48 586.717 1700.51 611.759 1709.24 609.674C1711.06 609.237 1712.27 608.788 1712.85 608.327 1713.43 607.866 1713.83 607.205 1714.04 606.343 1714.19 605.719 1714.14 604.488 1713.91 602.648L1714.8 602.436 1716.26 609.844 1695.16 614.889 1694.93 613.949 1705.76 588.996 1697.92 590.869C1696.23 591.273 1695.15 591.646 1694.68 591.989 1694.21 592.331 1693.88 592.847 1693.7 593.535 1693.44 594.518 1693.42 595.662 1693.66 596.968L1692.62 597.217Z" fill="#C00000" fill-rule="evenodd"/><text fill="#000000" fill-opacity="0" font-family="Arial,Arial_MSFontService,sans-serif" font-size="29.139" x="1691.19" y="611.247">z</text><path d="M1729.43 591.868C1727.02 593.504 1725.49 594.626 1724.81 595.234 1723.61 596.311 1722.8 597.334 1722.39 598.306 1721.98 599.277 1721.89 600.26 1722.11 601.257 1722.39 602.515 1723 603.475 1723.94 604.138 1724.87 604.801 1725.83 605.023 1726.81 604.805 1728.14 604.509 1729.69 603.246 1731.47 601.016ZM1723.44 582.279C1725.57 581.804 1727.4 581.773 1728.92 582.186 1730.08 582.498 1731.03 583.176 1731.77 584.22 1732.25 584.902 1732.75 586.405 1733.27 588.729L1735.09 596.881C1735.6 599.17 1735.95 600.563 1736.15 601.059 1736.36 601.555 1736.58 601.868 1736.82 601.998 1737.06 602.128 1737.31 602.164 1737.57 602.106 1737.85 602.043 1738.08 601.928 1738.26 601.759 1738.58 601.45 1739.15 600.654 1739.96 599.372L1740.29 600.84C1738.91 603.898 1737.34 605.625 1735.55 606.022 1734.7 606.212 1733.95 606.067 1733.31 605.586 1732.67 605.104 1732.18 604.149 1731.85 602.72 1729.81 605.174 1728.51 606.619 1727.94 607.056 1727.1 607.703 1726.14 608.146 1725.07 608.383 1723.41 608.753 1721.92 608.489 1720.59 607.593 1719.26 606.696 1718.39 605.322 1717.98 603.469 1717.72 602.298 1717.76 601.227 1718.09 600.253 1718.54 598.906 1719.54 597.51 1721.08 596.066 1722.62 594.623 1725.28 592.69 1729.07 590.269L1728.86 589.325C1728.33 586.931 1727.58 585.373 1726.63 584.651 1725.67 583.929 1724.46 583.73 1723.01 584.053 1721.91 584.298 1721.1 584.789 1720.59 585.528 1720.06 586.27 1719.88 587.025 1720.05 587.794L1720.44 589.303C1720.62 590.107 1720.55 590.773 1720.24 591.301 1719.92 591.83 1719.44 592.168 1718.77 592.316 1718.13 592.46 1717.55 592.35 1717.03 591.987 1716.52 591.624 1716.18 591.05 1716 590.263 1715.67 588.76 1716.13 587.209 1717.39 585.608 1718.65 584.007 1720.66 582.897 1723.44 582.279Z" fill="#C00000" fill-rule="evenodd"/><text fill="#000000" fill-opacity="0" font-family="Arial,Arial_MSFontService,sans-serif" font-size="26.6474" x="1715.9" y="605.214">a</text><path d="M1741.58 570.822 1742.4 570.651 1744.06 578.561 1749.68 577.378 1750.07 579.218 1744.45 580.401 1747.73 596.011C1748.06 597.571 1748.5 598.575 1749.06 599.024 1749.63 599.473 1750.26 599.624 1750.96 599.477 1751.54 599.355 1752.06 599.057 1752.53 598.584 1752.99 598.111 1753.3 597.492 1753.45 596.729L1754.48 596.513C1754.23 598.359 1753.63 599.834 1752.69 600.937 1751.75 602.04 1750.69 602.717 1749.5 602.967 1748.69 603.137 1747.85 603.079 1746.99 602.795 1746.12 602.51 1745.42 601.99 1744.88 601.235 1744.33 600.481 1743.88 599.236 1743.52 597.501L1740.11 581.313 1736.3 582.114 1736.12 581.247C1737 580.659 1737.85 579.799 1738.66 578.667 1739.48 577.536 1740.15 576.256 1740.67 574.829 1740.93 574.078 1741.24 572.743 1741.58 570.822Z" fill="#C00000" fill-rule="evenodd"/><text fill="#000000" fill-opacity="0" font-family="Arial,Arial_MSFontService,sans-serif" font-size="32.4116" x="1736.12" y="599.011">t</text><path d="M1758.92 574.778 1760.08 574.545 1763.97 593.924C1764.27 595.433 1764.58 596.416 1764.9 596.872 1765.22 597.329 1765.62 597.636 1766.1 597.796 1766.58 597.955 1767.39 597.92 1768.53 597.691L1768.72 598.639 1757.01 600.992 1756.81 600.044C1757.99 599.808 1758.76 599.535 1759.12 599.226 1759.47 598.917 1759.72 598.475 1759.85 597.901 1759.98 597.327 1759.9 596.294 1759.6 594.802L1757.73 585.507C1757.2 582.892 1756.79 581.214 1756.47 580.473 1756.24 579.936 1755.97 579.584 1755.66 579.418 1755.35 579.251 1754.97 579.214 1754.51 579.306 1754.02 579.404 1753.45 579.656 1752.8 580.06L1752.24 579.186ZM1755.36 562.372C1756.09 562.224 1756.77 562.357 1757.4 562.771 1758.02 563.185 1758.4 563.76 1758.55 564.497 1758.7 565.235 1758.57 565.918 1758.15 566.549 1757.74 567.18 1757.17 567.569 1756.43 567.717 1755.69 567.865 1755.01 567.729 1754.38 567.308 1753.74 566.887 1753.35 566.308 1753.21 565.571 1753.06 564.834 1753.19 564.154 1753.6 563.532 1754.02 562.91 1754.6 562.524 1755.36 562.372Z" fill="#C00000" fill-rule="evenodd"/><text fill="#000000" fill-opacity="0" font-family="Arial,Arial_MSFontService,sans-serif" font-size="38.6786" x="1752.24" y="596.157">i</text><path d="M1778.01 572.85C1777.08 573.025 1776.19 573.478 1775.35 574.209 1774.52 574.94 1773.94 576.055 1773.62 577.554 1773.3 579.053 1773.34 580.894 1773.75 583.076 1774.41 586.595 1775.68 589.499 1777.56 591.788 1779.44 594.077 1781.52 595.006 1783.81 594.577 1785.52 594.256 1786.79 593.288 1787.64 591.672 1788.48 590.057 1788.58 587.533 1787.94 584.102 1787.13 579.808 1785.57 576.603 1783.26 574.487 1781.7 573.032 1779.94 572.486 1778.01 572.85ZM1778.51 570.981C1782.17 570.293 1785.36 571.132 1788.1 573.496 1790.43 575.518 1791.89 578.069 1792.46 581.148 1792.87 583.312 1792.76 585.6 1792.14 588.012 1791.52 590.424 1790.4 592.365 1788.79 593.833 1787.18 595.301 1785.26 596.244 1783.03 596.664 1779.38 597.348 1776.22 596.439 1773.53 593.939 1771.25 591.833 1769.83 589.259 1769.26 586.214 1768.84 583.997 1768.98 581.69 1769.67 579.293 1770.36 576.896 1771.5 575.005 1773.1 573.621 1774.7 572.237 1776.5 571.357 1778.51 570.981Z" fill="#C00000" fill-rule="evenodd"/><text fill="#000000" fill-opacity="0" font-family="Arial,Arial_MSFontService,sans-serif" font-size="26.1358" x="1769.03" y="593.617">o</text><path d="M1799.35 567.191 1800.49 566.996 1801.37 572.132C1803.62 568.222 1806.04 566.047 1808.62 565.606 1809.94 565.379 1811.13 565.515 1812.2 566.014 1813.27 566.513 1814.21 567.473 1815.04 568.894 1815.61 569.886 1816.08 571.476 1816.45 573.665L1818.22 584.015C1818.49 585.55 1818.79 586.57 1819.13 587.075 1819.4 587.483 1819.77 587.773 1820.24 587.946 1820.72 588.119 1821.54 588.106 1822.7 587.907L1822.87 588.86 1810.88 590.912 1810.71 589.959 1811.21 589.873C1812.34 589.68 1813.1 589.372 1813.5 588.951 1813.89 588.53 1814.11 587.969 1814.18 587.268 1814.2 586.992 1814.09 586.156 1813.86 584.762L1812.16 574.836C1811.78 572.63 1811.22 571.077 1810.47 570.178 1809.73 569.279 1808.68 568.946 1807.32 569.179 1805.22 569.538 1803.32 571.043 1801.63 573.694L1803.82 586.479C1804.1 588.12 1804.37 589.118 1804.63 589.473 1804.97 589.943 1805.37 590.26 1805.85 590.424 1806.32 590.588 1807.22 590.557 1808.54 590.33L1808.7 591.283 1796.71 593.335 1796.55 592.382 1797.08 592.292C1798.31 592.08 1799.1 591.625 1799.42 590.924 1799.75 590.224 1799.76 588.991 1799.46 587.226L1797.91 578.226C1797.42 575.314 1797.05 573.552 1796.81 572.94 1796.56 572.327 1796.29 571.929 1795.98 571.747 1795.66 571.564 1795.28 571.512 1794.82 571.591 1794.32 571.675 1793.76 571.909 1793.11 572.291L1792.55 571.406Z" fill="#C00000" fill-rule="evenodd"/><text fill="#000000" fill-opacity="0" font-family="Arial,Arial_MSFontService,sans-serif" font-size="27.8356" x="1792.55" y="589.856">n</text><path d="M1843.58 585.668C1842.88 586.693 1842.37 587.626 1842.06 588.468 1841.75 589.31 1841.64 590.058 1841.74 590.714 1841.86 591.564 1842.49 592.233 1843.61 592.721 1845.54 593.56 1848.18 593.735 1851.53 593.245 1854.72 592.779 1856.99 591.873 1858.34 590.526 1859.69 589.18 1860.27 587.869 1860.08 586.593 1859.95 585.672 1859.4 585.083 1858.44 584.825 1857.46 584.57 1855.6 584.607 1852.86 584.935 1848.86 585.411 1845.77 585.656 1843.58 585.668ZM1844.99 561.17C1843.68 561.362 1842.66 562.045 1841.93 563.22 1841.19 564.394 1840.98 566.062 1841.3 568.224 1841.71 571.023 1842.63 573.105 1844.06 574.47 1845.15 575.504 1846.41 575.918 1847.82 575.711 1849.17 575.514 1850.2 574.847 1850.92 573.711 1851.64 572.574 1851.85 570.925 1851.53 568.764 1851.12 565.947 1850.19 563.831 1848.73 562.415 1847.66 561.378 1846.41 560.963 1844.99 561.17ZM1845.26 559.829C1847.58 559.489 1849.67 559.762 1851.54 560.647L1856.69 559.894C1857.46 559.782 1857.9 559.74 1858.03 559.766 1858.16 559.792 1858.26 559.854 1858.33 559.953 1858.46 560.097 1858.55 560.372 1858.61 560.78 1858.68 561.24 1858.68 561.566 1858.62 561.756 1858.58 561.852 1858.5 561.937 1858.37 562.009 1858.25 562.082 1857.8 562.174 1857.04 562.285L1853.88 562.747C1855.06 563.878 1855.79 565.435 1856.08 567.419 1856.42 569.687 1855.83 571.754 1854.33 573.62 1852.83 575.485 1850.62 576.632 1847.7 577.06 1846.49 577.236 1845.23 577.239 1843.92 577.068 1843.24 577.855 1842.8 578.521 1842.6 579.066 1842.4 579.611 1842.33 580.061 1842.38 580.415 1842.42 580.717 1842.61 580.987 1842.94 581.228 1843.28 581.469 1843.88 581.589 1844.75 581.589 1845.25 581.587 1846.5 581.468 1848.5 581.231 1852.16 580.786 1854.54 580.564 1855.64 580.565 1857.33 580.555 1858.73 580.974 1859.86 581.822 1860.99 582.67 1861.66 583.821 1861.87 585.273 1862.16 587.275 1861.5 589.29 1859.88 591.319 1857.49 594.309 1854.08 596.13 1849.63 596.78 1846.21 597.28 1843.21 596.931 1840.63 595.735 1839.17 595.043 1838.37 594.219 1838.23 593.262 1838.17 592.837 1838.2 592.398 1838.34 591.944 1838.54 591.245 1839.03 590.242 1839.8 588.935 1839.9 588.758 1840.66 587.669 1842.09 585.669 1841.09 585.254 1840.36 584.858 1839.92 584.48 1839.47 584.101 1839.21 583.638 1839.13 583.088 1839.04 582.468 1839.19 581.705 1839.57 580.799 1839.95 579.892 1840.95 578.544 1842.55 576.754 1840.95 576.245 1839.66 575.398 1838.68 574.212 1837.69 573.027 1837.08 571.646 1836.85 570.069 1836.5 567.66 1837.1 565.454 1838.66 563.453 1840.22 561.451 1842.42 560.243 1845.26 559.829Z" fill="#C00000" fill-rule="evenodd"/><text fill="#000000" fill-opacity="0" font-family="Arial,Arial_MSFontService,sans-serif" font-size="37.3132" x="1836.75" y="592.337">g</text><path d="M1875.81 566.392C1873.27 567.806 1871.64 568.786 1870.91 569.331 1869.61 570.295 1868.71 571.243 1868.22 572.173 1867.73 573.104 1867.55 574.075 1867.68 575.087 1867.85 576.366 1868.37 577.377 1869.24 578.121 1870.11 578.865 1871.05 579.172 1872.04 579.042 1873.39 578.867 1875.05 577.748 1877.02 575.686ZM1870.71 556.305C1872.87 556.023 1874.69 556.156 1876.17 556.703 1877.29 557.117 1878.18 557.878 1878.83 558.985 1879.25 559.706 1879.61 561.248 1879.92 563.609L1880.99 571.891C1881.3 574.217 1881.53 575.636 1881.68 576.148 1881.84 576.66 1882.03 576.992 1882.26 577.143 1882.49 577.294 1882.73 577.352 1883 577.317 1883.29 577.28 1883.53 577.186 1883.72 577.034 1884.07 576.755 1884.7 576.013 1885.63 574.809L1885.82 576.3C1884.18 579.222 1882.45 580.801 1880.64 581.037 1879.77 581.15 1879.04 580.939 1878.45 580.402 1877.85 579.865 1877.45 578.87 1877.25 577.417 1874.99 579.678 1873.57 581.001 1872.97 581.386 1872.07 581.955 1871.08 582.31 1869.99 582.451 1868.31 582.67 1866.84 582.274 1865.6 581.262 1864.36 580.25 1863.61 578.803 1863.37 576.922 1863.21 575.732 1863.35 574.668 1863.77 573.728 1864.34 572.426 1865.45 571.125 1867.12 569.826 1868.78 568.526 1871.61 566.84 1875.6 564.767L1875.47 563.809C1875.16 561.376 1874.55 559.758 1873.66 558.953 1872.77 558.148 1871.59 557.841 1870.12 558.033 1869 558.179 1868.15 558.596 1867.57 559.285 1866.98 559.977 1866.73 560.713 1866.83 561.494L1867.09 563.032C1867.19 563.849 1867.07 564.506 1866.71 565.004 1866.35 565.503 1865.83 565.795 1865.15 565.883 1864.5 565.969 1863.93 565.808 1863.45 565.401 1862.98 564.993 1862.69 564.39 1862.58 563.591 1862.38 562.065 1862.98 560.56 1864.38 559.079 1865.77 557.597 1867.88 556.672 1870.71 556.305Z" fill="#C00000" fill-rule="evenodd"/><text fill="#000000" fill-opacity="0" font-family="Arial,Arial_MSFontService,sans-serif" font-size="26.3483" x="1862.54" y="579.216">a</text><path d="M1897.72 556.932C1896.87 557.029 1896.04 557.339 1895.26 557.861 1894.65 558.254 1893.7 559.335 1892.41 561.104L1893.45 570.23C1893.67 572.204 1893.9 573.494 1894.13 574.098 1894.5 575.102 1895.21 575.939 1896.27 576.612 1897.33 577.284 1898.59 577.537 1900.07 577.369 1901.85 577.166 1903.21 576.309 1904.16 574.796 1905.39 572.817 1905.82 570.183 1905.45 566.892 1905.02 563.156 1903.88 560.376 1902.01 558.552 1900.72 557.294 1899.28 556.754 1897.72 556.932ZM1899.39 552.823C1901.84 552.544 1904 553.272 1905.85 555.007 1908.13 557.127 1909.48 560.072 1909.91 563.843 1910.39 568.059 1909.58 571.683 1907.47 574.716 1905.74 577.202 1903.36 578.617 1900.33 578.961 1899.02 579.11 1897.86 579.053 1896.85 578.789 1896.11 578.603 1895.25 578.16 1894.27 577.461L1895.12 584.906C1895.31 586.578 1895.53 587.629 1895.79 588.059 1896.04 588.49 1896.44 588.809 1896.98 589.019 1897.51 589.228 1898.45 589.256 1899.78 589.105L1899.9 590.092 1887.09 591.549 1886.98 590.562 1887.64 590.486C1888.62 590.392 1889.44 590.11 1890.09 589.64 1890.4 589.406 1890.63 589.06 1890.77 588.603 1890.9 588.146 1890.87 587.028 1890.67 585.249L1888.04 562.141C1887.86 560.558 1887.68 559.561 1887.48 559.15 1887.29 558.74 1887.03 558.445 1886.7 558.267 1886.36 558.089 1885.92 558.031 1885.39 558.091 1884.96 558.14 1884.44 558.326 1883.81 558.65L1883.39 557.832 1890.57 553.935 1891.58 553.819 1892.23 559.53C1893.25 557.233 1894.34 555.582 1895.52 554.574 1896.69 553.567 1897.98 552.983 1899.39 552.823Z" fill="#C00000" fill-rule="evenodd"/><text fill="#000000" fill-opacity="0" font-family="Arial,Arial_MSFontService,sans-serif" font-size="38.7834" x="1883.39" y="586.701">p</text><path d="M1931.38 549.571 1932.53 549.472 1932.98 554.663C1935.55 550.955 1938.14 548.988 1940.74 548.764 1942.08 548.649 1943.26 548.884 1944.28 549.47 1945.3 550.056 1946.17 551.091 1946.87 552.576 1947.35 553.612 1947.69 555.236 1947.88 557.448L1948.78 567.91C1948.92 569.462 1949.13 570.503 1949.43 571.035 1949.66 571.464 1950.01 571.784 1950.47 571.996 1950.93 572.208 1951.75 572.264 1952.92 572.162L1953.01 573.125 1940.89 574.17 1940.8 573.207 1941.31 573.163C1942.45 573.065 1943.24 572.822 1943.66 572.435 1944.09 572.048 1944.36 571.508 1944.48 570.815 1944.53 570.541 1944.49 569.7 1944.37 568.29L1943.5 558.257C1943.31 556.027 1942.88 554.433 1942.22 553.476 1941.55 552.518 1940.53 552.098 1939.16 552.216 1937.03 552.399 1935.02 553.741 1933.11 556.241L1934.23 569.165C1934.37 570.823 1934.56 571.841 1934.79 572.216 1935.08 572.712 1935.46 573.061 1935.92 573.264 1936.37 573.468 1937.27 573.511 1938.61 573.396L1938.69 574.359 1926.57 575.404 1926.49 574.441 1927.02 574.395C1928.27 574.287 1929.09 573.898 1929.47 573.227 1929.85 572.556 1929.97 571.329 1929.81 569.545L1929.03 560.448C1928.78 557.505 1928.55 555.718 1928.36 555.087 1928.18 554.457 1927.93 554.037 1927.64 553.829 1927.34 553.621 1926.96 553.537 1926.5 553.577 1926 553.62 1925.41 553.805 1924.74 554.133L1924.25 553.204Z" fill="#C00000" fill-rule="evenodd"/><text fill="#000000" fill-opacity="0" font-family="Arial,Arial_MSFontService,sans-serif" font-size="26.6688" x="1924.25" y="572.071">n</text><path d="M1967.23 557.484C1964.6 558.737 1962.91 559.614 1962.16 560.113 1960.8 560.994 1959.85 561.884 1959.3 562.782 1958.75 563.68 1958.51 564.639 1958.57 565.657 1958.66 566.943 1959.12 567.984 1959.94 568.781 1960.77 569.578 1961.68 569.943 1962.68 569.876 1964.04 569.784 1965.76 568.771 1967.86 566.836ZM1962.76 547.099C1964.94 546.952 1966.75 547.198 1968.2 547.837 1969.29 548.32 1970.12 549.134 1970.7 550.279 1971.08 551.026 1971.34 552.587 1971.5 554.963L1972.06 563.296C1972.22 565.636 1972.36 567.066 1972.49 567.587 1972.61 568.108 1972.78 568.451 1973 568.616 1973.22 568.781 1973.46 568.854 1973.73 568.836 1974.01 568.817 1974.26 568.738 1974.46 568.598 1974.82 568.341 1975.5 567.64 1976.5 566.496L1976.6 567.997C1974.78 570.811 1972.96 572.279 1971.14 572.402 1970.27 572.461 1969.55 572.204 1968.99 571.631 1968.43 571.059 1968.09 570.041 1967.98 568.577 1965.59 570.694 1964.08 571.925 1963.46 572.272 1962.53 572.784 1961.51 573.076 1960.42 573.15 1958.73 573.264 1957.29 572.777 1956.11 571.69 1954.94 570.603 1954.29 569.113 1954.16 567.219 1954.08 566.022 1954.28 564.968 1954.75 564.057 1955.4 562.793 1956.6 561.564 1958.34 560.37 1960.08 559.176 1963.01 557.669 1967.12 555.85L1967.06 554.885C1966.89 552.438 1966.39 550.785 1965.55 549.926 1964.71 549.067 1963.55 548.688 1962.07 548.787 1960.94 548.863 1960.07 549.227 1959.45 549.879 1958.81 550.532 1958.52 551.251 1958.57 552.037L1958.73 553.588C1958.79 554.409 1958.62 555.058 1958.23 555.533 1957.84 556.007 1957.31 556.268 1956.63 556.313 1955.97 556.358 1955.41 556.162 1954.96 555.726 1954.51 555.29 1954.26 554.67 1954.2 553.866 1954.1 552.329 1954.79 550.865 1956.27 549.473 1957.76 548.082 1959.92 547.29 1962.76 547.099Z" fill="#C00000" fill-rule="evenodd"/><text fill="#000000" fill-opacity="0" font-family="Arial,Arial_MSFontService,sans-serif" font-size="26.1082" x="1954.14" y="569.902">a</text><path d="M1983.09 545.885 1984.22 545.828 1984.49 551.353C1986.36 547.566 1988.38 545.617 1990.55 545.508 1991.53 545.459 1992.36 545.717 1993.03 546.284 1993.71 546.85 1994.06 547.527 1994.1 548.314 1994.14 549.011 1993.93 549.613 1993.49 550.119 1993.05 550.625 1992.51 550.895 1991.87 550.927 1991.24 550.959 1990.52 550.686 1989.72 550.108 1988.91 549.53 1988.31 549.251 1987.94 549.27 1987.62 549.286 1987.28 549.483 1986.92 549.859 1986.15 550.633 1985.38 551.882 1984.61 553.606L1985.2 565.38C1985.27 566.739 1985.49 567.759 1985.87 568.439 1986.12 568.91 1986.56 569.292 1987.16 569.584 1987.77 569.876 1988.63 569.994 1989.73 569.938L1989.78 570.904 1977.2 571.539 1977.16 570.573C1978.41 570.51 1979.33 570.266 1979.92 569.842 1980.35 569.534 1980.64 569.062 1980.78 568.427 1980.86 568.118 1980.86 567.249 1980.79 565.818L1980.31 556.297C1980.16 553.436 1980.02 551.736 1979.87 551.196 1979.73 550.657 1979.5 550.27 1979.17 550.035 1978.85 549.801 1978.45 549.695 1977.99 549.719 1977.43 549.747 1976.81 549.912 1976.13 550.216L1975.81 549.264Z" fill="#C00000" fill-rule="evenodd"/><text fill="#000000" fill-opacity="0" font-family="Arial,Arial_MSFontService,sans-serif" font-size="26.0363" x="1975.81" y="568.284">r</text><path d="M2001.28 545.084 2002.41 545.045 2002.6 550.574C2004.53 546.816 2006.58 544.899 2008.74 544.823 2009.73 544.789 2010.55 545.06 2011.22 545.637 2011.88 546.214 2012.23 546.896 2012.26 547.683 2012.28 548.381 2012.07 548.98 2011.62 549.479 2011.17 549.978 2010.63 550.239 2009.98 550.262 2009.36 550.284 2008.64 550 2007.84 549.41 2007.04 548.82 2006.46 548.531 2006.08 548.544 2005.76 548.555 2005.41 548.747 2005.05 549.118 2004.27 549.879 2003.48 551.116 2002.68 552.828L2003.09 564.61C2003.14 565.97 2003.35 566.993 2003.71 567.679 2003.96 568.154 2004.39 568.542 2004.99 568.844 2005.59 569.145 2006.45 569.276 2007.56 569.238L2007.59 570.204 1995 570.644 1994.97 569.678C1996.22 569.634 1997.14 569.405 1997.74 568.99 1998.18 568.688 1998.47 568.22 1998.63 567.588 1998.71 567.281 1998.72 566.411 1998.67 564.98L1998.34 555.452C1998.24 552.589 1998.12 550.887 1997.99 550.345 1997.85 549.804 1997.62 549.413 1997.3 549.173 1996.98 548.934 1996.59 548.822 1996.12 548.839 1995.57 548.858 1994.94 549.014 1994.26 549.307L1993.95 548.35Z" fill="#C00000" fill-rule="evenodd"/><text fill="#000000" fill-opacity="0" font-family="Arial,Arial_MSFontService,sans-serif" font-size="25.8234" x="1993.95" y="567.416">r</text><path d="M2024.59 546.236C2023.64 546.249 2022.69 546.544 2021.74 547.121 2020.79 547.698 2020.03 548.697 2019.46 550.119 2018.88 551.542 2018.61 553.363 2018.64 555.583 2018.69 559.163 2019.45 562.241 2020.9 564.818 2022.36 567.394 2024.26 568.667 2026.58 568.635 2028.32 568.611 2029.74 567.876 2030.85 566.428 2031.96 564.981 2032.49 562.512 2032.44 559.021 2032.38 554.653 2031.4 551.228 2029.48 548.748 2028.19 547.046 2026.56 546.209 2024.59 546.236ZM2025.4 544.479C2029.12 544.428 2032.13 545.802 2034.42 548.6 2036.37 550.991 2037.37 553.752 2037.41 556.885 2037.44 559.087 2036.94 561.323 2035.91 563.593 2034.89 565.863 2033.46 567.584 2031.62 568.755 2029.78 569.926 2027.73 570.526 2025.45 570.557 2021.75 570.608 2018.78 569.171 2016.56 566.247 2014.68 563.783 2013.72 561.003 2013.68 557.906 2013.65 555.651 2014.18 553.401 2015.27 551.157 2016.36 548.913 2017.81 547.246 2019.62 546.156 2021.43 545.066 2023.35 544.507 2025.4 544.479Z" fill="#C00000" fill-rule="evenodd"/><text fill="#000000" fill-opacity="0" font-family="Arial,Arial_MSFontService,sans-serif" font-size="26.0809" x="2013.68" y="567.299">o</text><path d="M2039.4 544.89 2049.71 545.132 2049.69 546.126C2048.74 546.175 2048.11 546.33 2047.81 546.592 2047.51 546.854 2047.35 547.235 2047.34 547.736 2047.33 548.291 2047.46 548.966 2047.75 549.76L2052.68 564.033 2058.24 552.64 2056.93 548.982C2056.52 547.898 2055.98 547.142 2055.29 546.714 2054.9 546.454 2054.17 546.285 2053.1 546.206L2053.12 545.213 2064.83 545.488 2064.8 546.481C2063.51 546.505 2062.6 546.716 2062.05 547.115 2061.69 547.393 2061.5 547.845 2061.48 548.471 2061.47 548.829 2061.54 549.198 2061.67 549.577L2066.92 563.831 2072.42 550.34C2072.8 549.382 2073 548.617 2073.02 548.044 2073.02 547.704 2072.86 547.396 2072.51 547.119 2072.17 546.842 2071.49 546.674 2070.47 546.614L2070.49 545.621 2078.25 545.803 2078.23 546.797C2076.67 546.993 2075.5 548.022 2074.72 549.884L2066 570.874 2064.9 570.848 2059.12 554.997 2051.59 570.535 2050.59 570.512 2043.19 549.653C2042.7 548.334 2042.21 547.441 2041.72 546.973 2041.23 546.504 2040.45 546.141 2039.38 545.883Z" fill="#C00000" fill-rule="evenodd"/><text fill="#000000" fill-opacity="0" font-family="Arial,Arial_MSFontService,sans-serif" font-size="25.9839" x="2039.38" y="567.626">w</text><path d="M2088.8 545.933C2089.77 545.998 2090.92 546.281 2092.27 546.784 2093.17 547.112 2093.76 547.287 2094.07 547.307 2094.35 547.326 2094.58 547.279 2094.75 547.164 2094.92 547.05 2095.13 546.786 2095.37 546.371L2096.25 546.43 2095.7 554.79 2094.81 554.732C2094.31 552.06 2093.56 550.216 2092.56 549.198 2091.56 548.18 2090.23 547.617 2088.59 547.507 2087.34 547.424 2086.31 547.687 2085.5 548.297 2084.68 548.906 2084.25 549.613 2084.2 550.417 2084.13 551.417 2084.36 552.294 2084.88 553.047 2085.39 553.816 2086.46 554.668 2088.1 555.603L2091.89 557.767C2095.4 559.777 2097.06 562.229 2096.86 565.123 2096.71 567.356 2095.75 569.1 2093.97 570.354 2092.19 571.608 2090.26 572.165 2088.17 572.025 2086.67 571.925 2084.97 571.543 2083.08 570.878 2082.5 570.661 2082.02 570.539 2081.65 570.514 2081.24 570.487 2080.9 570.697 2080.64 571.146L2079.75 571.087 2080.34 562.325 2081.22 562.384C2081.55 564.918 2082.38 566.867 2083.71 568.229 2085.04 569.592 2086.58 570.331 2088.33 570.448 2089.56 570.53 2090.59 570.236 2091.41 569.564 2092.24 568.892 2092.69 568.047 2092.75 567.029 2092.84 565.796 2092.47 564.731 2091.66 563.834 2090.85 562.937 2089.19 561.758 2086.69 560.299 2084.18 558.841 2082.56 557.566 2081.83 556.477 2081.09 555.405 2080.78 554.092 2080.88 552.537 2081.02 550.519 2081.82 548.877 2083.3 547.612 2084.77 546.346 2086.61 545.787 2088.8 545.933Z" fill="#C00000" fill-rule="evenodd"/><text fill="#000000" fill-opacity="0" font-family="Arial,Arial_MSFontService,sans-serif" font-size="26.1359" x="2079.75" y="568.779">s</text><path d="M2140.12 914.306C2142.06 914.306 2143.47 914.812 2144.33 915.826 2145.2 916.839 2145.63 918.197 2145.63 919.899 2145.63 921.196 2145.4 922.682 2144.94 924.357 2144.48 926.032 2143.83 927.802 2143 929.666 2142.16 931.53 2141.16 933.442 2140 935.4 2138.84 937.359 2137.55 939.264 2136.15 941.115 2134.74 942.966 2133.24 944.708 2131.65 946.343 2130.06 947.977 2128.4 949.403 2126.68 950.618 2124.97 951.834 2123.23 952.8 2121.46 953.516 2119.69 954.232 2117.92 954.59 2116.17 954.59 2115.38 954.59 2114.73 954.394 2114.2 954.002 2113.68 953.611 2113.25 953.057 2112.93 952.341 2112.6 951.625 2112.37 950.781 2112.24 949.808 2112.1 948.835 2112.03 947.768 2112.03 946.606 2112.03 945.066 2112.13 943.418 2112.32 941.662 2112.51 939.906 2112.75 938.136 2113.05 936.353L2114.75 925.127C2114.86 924.478 2114.95 923.864 2115.01 923.283 2115.08 922.702 2115.11 922.276 2115.11 922.006 2115.11 921.169 2114.98 920.48 2114.71 919.939 2114.44 919.399 2113.98 919.129 2113.33 919.129 2112.82 919.129 2112.26 919.284 2111.67 919.595 2111.07 919.905 2110.47 920.304 2109.87 920.79 2109.26 921.277 2108.67 921.797 2108.1 922.351 2107.54 922.904 2107.01 923.425 2106.52 923.911L2104.58 921.641C2105.41 920.777 2106.31 919.919 2107.25 919.068 2108.2 918.217 2109.2 917.447 2110.25 916.758 2111.3 916.069 2112.41 915.515 2113.57 915.096 2114.74 914.677 2115.92 914.468 2117.14 914.468 2118.17 914.468 2119 914.637 2119.65 914.975 2120.3 915.312 2120.81 915.758 2121.17 916.312 2121.54 916.866 2121.79 917.474 2121.92 918.136 2122.06 918.798 2122.13 919.453 2122.13 920.101 2122.13 920.48 2122.11 920.844 2122.08 921.196 2122.06 921.547 2122.02 921.871 2121.96 922.168L2119.69 936.839C2119.45 938.379 2119.25 939.885 2119.09 941.358 2118.92 942.83 2118.84 944.134 2118.84 945.269 2118.84 946.404 2118.91 947.322 2119.05 948.025 2119.18 948.727 2119.44 949.078 2119.82 949.078 2120.71 949.078 2121.83 948.72 2123.18 948.004 2124.53 947.288 2125.95 946.302 2127.43 945.046 2128.92 943.79 2130.41 942.304 2131.89 940.588 2133.38 938.872 2134.72 937.015 2135.9 935.015 2137.09 933.016 2138.06 930.909 2138.8 928.693 2139.55 926.478 2139.92 924.249 2139.92 922.006 2139.92 921.033 2139.71 920.284 2139.29 919.757 2138.87 919.23 2138.21 918.967 2137.32 918.967 2136.19 918.967 2135.14 919.406 2134.18 920.284 2133.22 921.162 2132.23 922.317 2131.2 923.749L2128.89 921.682C2129.54 920.709 2130.3 919.777 2131.18 918.885 2132.06 917.994 2132.99 917.21 2133.98 916.535 2134.97 915.859 2135.99 915.319 2137.04 914.914 2138.09 914.509 2139.12 914.306 2140.12 914.306Z" fill-rule="evenodd"/><text fill="#000000" fill-opacity="0" font-family="Arial,Arial_MSFontService,sans-serif" font-size="40.2842" x="2104.58" y="949.555">ğ‘£</text><path d="M2180.65 895.339 2181.74 898.46C2175.42 900.54 2170.74 904.6 2167.7 910.638 2164.66 916.677 2163.14 924.262 2163.14 933.394 2163.14 942.851 2164.66 950.645 2167.7 956.779 2170.74 962.912 2175.38 967.018 2181.62 969.099L2180.65 972.219C2172.73 970.139 2166.67 965.661 2162.45 958.785 2158.24 951.909 2156.13 943.58 2156.13 933.8 2156.13 924.046 2158.24 915.718 2162.47 908.814 2166.7 901.911 2172.76 897.419 2180.65 895.339Z" fill-rule="evenodd"/><text fill="#000000" fill-opacity="0" font-family="Arial,Arial_MSFontService,sans-serif" font-size="76.8804" x="2156.13" y="962.609">(</text><path d="M2208.17 918.642C2203.99 920.426 2200.64 923.431 2198.14 927.66 2195.64 931.888 2194.39 936.636 2194.39 941.905 2194.39 948.2 2197.16 951.348 2202.7 951.348 2204.89 951.348 2206.85 950.618 2208.58 949.159 2210.31 947.7 2211.67 945.654 2212.65 943.02 2213.64 940.385 2214.13 937.596 2214.13 934.651 2214.13 931.462 2213.69 928.619 2212.79 926.12 2211.9 923.62 2210.36 921.128 2208.17 918.642ZM2212.35 895.704C2214.7 895.704 2217.04 896.116 2219.38 896.94 2221.72 897.764 2224.33 899.216 2227.22 901.297L2225.84 907.781 2222.11 907.781C2221.17 904.809 2219.84 902.587 2218.12 901.114 2216.41 899.642 2214.35 898.906 2211.94 898.906 2210.13 898.906 2208.69 899.372 2207.63 900.304 2206.56 901.236 2206.03 902.445 2206.03 903.931 2206.03 904.714 2206.2 905.498 2206.55 906.281 2206.9 907.065 2207.57 908.112 2208.54 909.422 2209.51 910.733 2211.01 912.577 2213.04 914.954 2215.5 917.899 2217.28 920.317 2218.39 922.209 2219.49 924.1 2220.3 926.012 2220.8 927.943 2221.3 929.875 2221.55 932.043 2221.55 934.448 2221.55 937.798 2220.76 941.067 2219.18 944.256 2217.6 947.444 2215.33 949.956 2212.39 951.794 2209.44 953.631 2206.04 954.55 2202.18 954.55 2198.74 954.55 2195.91 953.982 2193.66 952.847 2191.42 951.713 2189.79 950.173 2188.78 948.227 2187.77 946.282 2187.26 944.039 2187.26 941.5 2187.26 935.772 2188.86 930.753 2192.06 926.444 2195.27 922.134 2200 918.669 2206.27 916.049 2204.13 913.644 2202.57 911.564 2201.59 909.807 2200.6 908.051 2200.11 906.39 2200.11 904.823 2200.11 903.12 2200.58 901.58 2201.53 900.202 2202.47 898.824 2203.88 897.73 2205.74 896.92 2207.61 896.109 2209.81 895.704 2212.35 895.704Z" fill-rule="evenodd"/><text fill="#000000" fill-opacity="0" font-family="Arial,Arial_MSFontService,sans-serif" font-size="58.8457" x="2187.26" y="947.194">ğ›¿</text><path d="M2233.19 895.339C2241.08 897.419 2247.14 901.911 2251.37 908.814 2255.59 915.718 2257.71 924.046 2257.71 933.8 2257.71 943.58 2255.6 951.909 2251.39 958.785 2247.17 965.661 2241.11 970.139 2233.19 972.219L2232.22 969.099C2238.46 967.018 2243.1 962.912 2246.14 956.779 2249.18 950.645 2250.7 942.851 2250.7 933.394 2250.7 924.262 2249.18 916.677 2246.16 910.638 2243.13 904.6 2238.44 900.54 2232.09 898.46Z" fill-rule="evenodd"/><text fill="#000000" fill-opacity="0" font-family="Arial,Arial_MSFontService,sans-serif" font-size="76.8804" x="2232.09" y="962.609">)</text><text font-family="Times New Roman,Times New Roman_MSFontService,sans-serif" font-weight="400" font-size="83" transform="matrix(1 0 0 1 2264.93 954)">-</text><text font-family="Times New Roman,Times New Roman_MSFontService,sans-serif" font-weight="400" font-size="83" transform="matrix(1 0 0 1 2292.43 954)">diversity</text></g></svg>