<svg width="1521" height="780" xmlns="http://www.w3.org/2000/svg" xmlns:xlink="http://www.w3.org/1999/xlink" xml:space="preserve" overflow="hidden"><g transform="translate(-1103 -208)"><path d="M1236.5 828.063 2560.41 828.063 2560.41 834.938 1236.5 834.938ZM2555.82 817.75 2583.32 831.5 2555.82 845.25Z"/><path d="M3.4375-2.07544e-06 3.43785 574.819-3.43715 574.819-3.4375 2.07544e-06ZM13.7503 570.236 0.000360892 597.736-13.7497 570.236Z" transform="matrix(1 0 0 -1 1236.5 834.236)"/><text font-family="Times New Roman,Times New Roman_MSFontService,sans-serif" font-weight="400" font-size="83" transform="matrix(-1.83697e-16 -1 1 -1.83697e-16 1208.69 422)">error</text><path d="M1284.5 246.5C1384.94 329.833 1485.37 413.167 1693.87 464.5 1902.37 515.833 2398.62 538.833 2535.5 554.5" stroke="#172C51" stroke-width="4.58333" stroke-miterlimit="8" stroke-dasharray="18.3333 13.75" fill="none" fill-rule="evenodd"/><path d="M2018 264 2100 264" stroke="#172C51" stroke-width="10.3125" stroke-miterlimit="8" fill="none" fill-rule="evenodd"/><text font-family="Times New Roman,Times New Roman_MSFontService,sans-serif" font-weight="400" font-size="55" transform="matrix(1 0 0 1 2119.36 279)">training error</text><path d="M2018.5 322.5 2100.5 322.5" stroke="#172C51" stroke-width="4.58333" stroke-miterlimit="8" stroke-dasharray="18.3333 13.75" fill="none" fill-rule="evenodd"/><text font-family="Times New Roman,Times New Roman_MSFontService,sans-serif" font-weight="400" font-size="55" transform="matrix(1 0 0 1 2115.35 334)">generalization bound</text><path d="M1518.07 428.387 1521.35 693.637 1516.77 693.693 1513.49 428.444ZM1502.09 433.168 1515.5 405.5 1529.59 432.828ZM1532.75 688.912 1519.34 716.58 1505.25 689.252Z" fill="#C00000"/><path d="M2224.11 562.382 2224.89 617.931 2220.31 617.995 2219.53 562.446ZM2208.14 567.19 2221.5 539.5 2235.63 566.804ZM2236.29 613.188 2222.92 640.878 2208.79 613.573Z" fill="#C00000"/><path d="M1597.23 377.358C1598.49 377.76 1599.6 378.228 1600.57 378.761 1601.54 379.295 1602.86 380.213 1604.53 381.515 1605.37 382.178 1605.95 382.561 1606.28 382.664 1606.6 382.767 1606.92 382.706 1607.25 382.481 1607.58 382.256 1607.9 381.716 1608.23 380.863L1609.18 381.164 1606.58 392.401 1605.69 392.116C1605.65 389.099 1605.14 386.671 1604.15 384.833 1602.72 382.179 1600.38 380.336 1597.14 379.304 1592.72 377.896 1588.81 378.575 1585.39 381.338 1582.52 383.675 1580.44 386.882 1579.14 390.96 1578.09 394.269 1577.76 397.492 1578.17 400.629 1578.58 403.766 1579.62 406.3 1581.29 408.231 1582.96 410.163 1584.88 411.476 1587.07 412.171 1588.35 412.579 1589.64 412.811 1590.93 412.867 1592.23 412.923 1593.53 412.812 1594.84 412.534L1598.04 402.504C1598.59 400.764 1598.82 399.583 1598.73 398.961 1598.64 398.34 1598.36 397.8 1597.89 397.342 1597.43 396.884 1596.5 396.432 1595.1 395.986L1595.41 395.014 1608.84 399.293 1608.53 400.266 1607.89 400.062C1606.56 399.638 1605.51 399.791 1604.73 400.52 1604.19 401.043 1603.62 402.234 1603.03 404.093L1599.65 414.712C1597.35 415.145 1595.16 415.305 1593.1 415.191 1591.03 415.077 1588.83 414.648 1586.49 413.903 1579.78 411.768 1575.38 407.996 1573.27 402.589 1571.68 398.533 1571.56 394.399 1572.9 390.185 1573.88 387.132 1575.54 384.44 1577.9 382.109 1580.7 379.337 1583.9 377.539 1587.51 376.715 1590.53 376.04 1593.76 376.255 1597.23 377.358Z" fill="#C00000" fill-rule="evenodd"/><text fill="#000000" fill-opacity="0" font-family="Arial,Arial_MSFontService,sans-serif" font-size="38.8954" x="1571.98" y="410.364">G</text><path d="M1621.53 399.134C1620.1 398.721 1618.66 398.907 1617.22 399.691 1615.77 400.475 1614.67 401.829 1613.91 403.752L1624.85 406.912C1625.2 405.374 1625.32 404.255 1625.23 403.557 1625.08 402.469 1624.65 401.527 1623.96 400.731 1623.27 399.935 1622.46 399.402 1621.53 399.134ZM1623.5 397.719C1626.15 398.485 1628.08 399.986 1629.27 402.224 1630.47 404.462 1630.65 407.043 1629.81 409.967L1613.47 405.248C1612.44 408.752 1612.5 411.75 1613.64 414.242 1614.79 416.735 1616.52 418.316 1618.84 418.987 1620.39 419.434 1621.86 419.397 1623.25 418.876 1624.64 418.355 1626.02 417.175 1627.39 415.334L1628.04 416.081C1627 418.333 1625.33 420.176 1623.03 421.609 1620.73 423.042 1618.28 423.381 1615.67 422.626 1612.83 421.806 1610.72 419.999 1609.33 417.205 1607.95 414.411 1607.8 411.147 1608.88 407.415 1610.05 403.373 1611.99 400.52 1614.72 398.857 1617.45 397.194 1620.37 396.815 1623.5 397.719Z" fill="#C00000" fill-rule="evenodd"/><text fill="#000000" fill-opacity="0" font-family="Arial,Arial_MSFontService,sans-serif" font-size="25.7754" x="1608.17" y="419.795">e</text><path d="M1641.51 402.807 1642.62 403.107 1641.27 408.139C1644.96 405.531 1648.06 404.567 1650.58 405.244 1651.88 405.593 1652.91 406.216 1653.67 407.115 1654.43 408.014 1654.89 409.282 1655.04 410.917 1655.14 412.057 1654.91 413.699 1654.33 415.843L1651.61 425.984C1651.2 427.489 1651.05 428.541 1651.15 429.142 1651.22 429.626 1651.44 430.045 1651.8 430.401 1652.16 430.757 1652.91 431.088 1654.05 431.394L1653.8 432.328 1642.05 429.174 1642.3 428.24 1642.79 428.372C1643.9 428.67 1644.72 428.709 1645.25 428.49 1645.78 428.271 1646.22 427.856 1646.57 427.246 1646.71 427.005 1646.96 426.202 1647.33 424.835L1649.94 415.109C1650.52 412.948 1650.66 411.303 1650.36 410.175 1650.06 409.047 1649.24 408.305 1647.91 407.947 1645.85 407.395 1643.5 407.969 1640.86 409.669L1637.5 422.197C1637.07 423.805 1636.89 424.824 1636.98 425.256 1637.09 425.822 1637.32 426.279 1637.68 426.626 1638.05 426.973 1638.87 427.321 1640.17 427.669L1639.92 428.603 1628.17 425.449 1628.42 424.515 1628.94 424.654C1630.15 424.979 1631.05 424.892 1631.64 424.392 1632.23 423.891 1632.75 422.777 1633.22 421.048L1635.59 412.229C1636.35 409.376 1636.75 407.621 1636.79 406.964 1636.83 406.306 1636.74 405.829 1636.53 405.532 1636.33 405.236 1636 405.027 1635.55 404.906 1635.06 404.776 1634.45 404.75 1633.71 404.829L1633.57 403.791Z" fill="#C00000" fill-rule="evenodd"/><text fill="#000000" fill-opacity="0" font-family="Arial,Arial_MSFontService,sans-serif" font-size="29.5207" x="1628.17" y="428.638">n</text><path d="M1671.34 412.541C1669.9 412.18 1668.47 412.417 1667.05 413.253 1665.63 414.088 1664.58 415.48 1663.89 417.43L1674.93 420.196C1675.23 418.646 1675.32 417.523 1675.19 416.829 1675 415.747 1674.55 414.821 1673.83 414.05 1673.11 413.279 1672.28 412.776 1671.34 412.541ZM1673.26 411.057C1675.94 411.727 1677.91 413.158 1679.19 415.352 1680.47 417.545 1680.74 420.118 1680 423.07L1663.51 418.941C1662.6 422.479 1662.77 425.473 1664 427.923 1665.23 430.372 1667.02 431.891 1669.36 432.478 1670.93 432.869 1672.39 432.78 1673.76 432.209 1675.14 431.639 1676.47 430.41 1677.78 428.521L1678.45 429.244C1677.49 431.532 1675.89 433.434 1673.65 434.948 1671.4 436.463 1668.96 436.89 1666.32 436.229 1663.46 435.511 1661.28 433.781 1659.8 431.038 1658.32 428.295 1658.05 425.039 1658.99 421.271 1660.02 417.189 1661.86 414.269 1664.52 412.509 1667.19 410.75 1670.1 410.265 1673.26 411.057Z" fill="#C00000" fill-rule="evenodd"/><text fill="#000000" fill-opacity="0" font-family="Arial,Arial_MSFontService,sans-serif" font-size="25.8412" x="1658.44" y="433.3">e</text><path d="M1691.51 415.531 1692.61 415.791 1691.33 421.174C1694.18 418.06 1696.67 416.752 1698.77 417.251 1699.73 417.478 1700.46 417.958 1700.94 418.69 1701.43 419.422 1701.59 420.172 1701.41 420.938 1701.24 421.618 1700.88 422.139 1700.32 422.502 1699.75 422.865 1699.16 422.972 1698.53 422.824 1697.92 422.679 1697.31 422.217 1696.69 421.436 1696.08 420.656 1695.59 420.222 1695.22 420.135 1694.91 420.061 1694.53 420.155 1694.08 420.417 1693.12 420.945 1692.04 421.929 1690.81 423.369L1688.09 434.841C1687.78 436.165 1687.71 437.206 1687.88 437.964 1687.99 438.488 1688.3 438.975 1688.8 439.425 1689.3 439.874 1690.09 440.227 1691.17 440.483L1690.95 441.424 1678.69 438.521 1678.92 437.58C1680.14 437.869 1681.09 437.892 1681.77 437.649 1682.27 437.473 1682.68 437.101 1683 436.533 1683.16 436.257 1683.4 435.422 1683.73 434.029L1685.93 424.752C1686.59 421.964 1686.93 420.291 1686.94 419.733 1686.95 419.175 1686.83 418.738 1686.59 418.422 1686.34 418.106 1685.99 417.894 1685.54 417.787 1685 417.659 1684.36 417.645 1683.62 417.745L1683.58 416.743Z" fill="#C00000" fill-rule="evenodd"/><text fill="#000000" fill-opacity="0" font-family="Arial,Arial_MSFontService,sans-serif" font-size="25.8932" x="1678.69" y="438.187">r</text><path d="M1714.5 431.758C1711.62 432.215 1709.75 432.575 1708.89 432.84 1707.33 433.299 1706.17 433.881 1705.38 434.586 1704.6 435.292 1704.1 436.142 1703.88 437.138 1703.59 438.396 1703.74 439.524 1704.3 440.522 1704.87 441.521 1705.64 442.129 1706.62 442.349 1707.94 442.647 1709.89 442.165 1712.44 440.904ZM1713.16 420.532C1715.29 421.01 1716.96 421.76 1718.16 422.782 1719.07 423.555 1719.64 424.572 1719.87 425.835 1720.02 426.657 1719.83 428.229 1719.31 430.553L1717.48 438.703C1716.97 440.991 1716.7 442.403 1716.67 442.938 1716.64 443.473 1716.71 443.85 1716.87 444.07 1717.03 444.29 1717.24 444.429 1717.5 444.488 1717.78 444.55 1718.04 444.544 1718.28 444.469 1718.7 444.324 1719.55 443.845 1720.83 443.032L1720.5 444.499C1717.96 446.681 1715.79 447.572 1714.01 447.172 1713.16 446.98 1712.54 446.531 1712.17 445.823 1711.79 445.115 1711.76 444.043 1712.06 442.607 1709.17 443.959 1707.38 444.713 1706.68 444.869 1705.64 445.094 1704.59 445.087 1703.52 444.848 1701.86 444.476 1700.62 443.601 1699.8 442.225 1698.98 440.848 1698.78 439.234 1699.2 437.382 1699.46 436.212 1699.95 435.257 1700.67 434.519 1701.65 433.492 1703.14 432.653 1705.15 432.002 1707.16 431.352 1710.39 430.738 1714.85 430.16L1715.07 429.216C1715.6 426.823 1715.59 425.096 1715.03 424.034 1714.47 422.973 1713.47 422.28 1712.02 421.954 1710.91 421.708 1709.97 421.809 1709.2 422.258 1708.4 422.703 1707.91 423.31 1707.74 424.078L1707.45 425.61C1707.27 426.414 1706.93 426.988 1706.42 427.332 1705.91 427.677 1705.32 427.775 1704.66 427.626 1704.01 427.481 1703.54 427.136 1703.23 426.589 1702.92 426.043 1702.85 425.377 1703.03 424.591 1703.37 423.088 1704.44 421.88 1706.26 420.967 1708.08 420.054 1710.38 419.909 1713.16 420.532Z" fill="#C00000" fill-rule="evenodd"/><text fill="#000000" fill-opacity="0" font-family="Arial,Arial_MSFontService,sans-serif" font-size="27.1118" x="1698.99" y="443.876">a</text><path d="M1736.86 412.544 1738.04 412.796 1731.24 444.708C1730.92 446.214 1730.82 447.235 1730.93 447.772 1731.05 448.309 1731.3 448.753 1731.7 449.104 1732.11 449.455 1732.93 449.763 1734.17 450.028L1733.97 450.974 1722.18 448.459 1722.38 447.514C1723.48 447.749 1724.26 447.796 1724.71 447.654 1725.16 447.512 1725.56 447.203 1725.9 446.726 1726.24 446.249 1726.56 445.267 1726.88 443.778L1731.54 421.926C1732.12 419.212 1732.41 417.531 1732.42 416.883 1732.43 416.235 1732.33 415.769 1732.1 415.483 1731.88 415.198 1731.56 415.01 1731.14 414.921 1730.68 414.824 1730.08 414.84 1729.32 414.971L1729.07 413.957Z" fill="#C00000" fill-rule="evenodd"/><text fill="#000000" fill-opacity="0" font-family="Arial,Arial_MSFontService,sans-serif" font-size="38.4299" x="1722.18" y="446.17">l</text><path d="M1749.26 428.267 1750.42 428.505 1746.45 447.868C1746.14 449.376 1746.04 450.403 1746.16 450.947 1746.28 451.492 1746.52 451.931 1746.9 452.265 1747.28 452.599 1748.04 452.882 1749.18 453.116L1748.99 454.063 1737.28 451.663 1737.48 450.716C1738.65 450.957 1739.46 451.005 1739.91 450.859 1740.36 450.714 1740.76 450.403 1741.11 449.925 1741.45 449.447 1741.78 448.463 1742.08 446.972L1743.99 437.686C1744.52 435.072 1744.79 433.364 1744.79 432.56 1744.78 431.973 1744.67 431.543 1744.45 431.27 1744.23 430.997 1743.9 430.814 1743.44 430.72 1742.95 430.619 1742.32 430.629 1741.57 430.748L1741.4 429.725ZM1750.82 415.455C1751.55 415.606 1752.13 415.994 1752.54 416.617 1752.95 417.241 1753.08 417.921 1752.93 418.657 1752.78 419.394 1752.39 419.972 1751.77 420.392 1751.14 420.812 1750.46 420.947 1749.72 420.796 1748.99 420.645 1748.41 420.252 1747.99 419.618 1747.57 418.984 1747.44 418.299 1747.59 417.562 1747.74 416.826 1748.13 416.252 1748.75 415.841 1749.37 415.429 1750.06 415.301 1750.82 415.455Z" fill="#C00000" fill-rule="evenodd"/><text fill="#000000" fill-opacity="0" font-family="Arial,Arial_MSFontService,sans-serif" font-size="38.6711" x="1737.28" y="449.229">i</text><path d="M1758.1 430.815 1778.35 434.759 1778.16 435.735 1757.8 453.985 1766.61 455.701C1768.45 456.06 1769.73 456.15 1770.45 455.971 1771.17 455.792 1771.81 455.355 1772.36 454.661 1772.75 454.153 1773.22 453.013 1773.77 451.241L1774.66 451.416 1772.93 458.766 1751.63 454.616 1751.82 453.667 1772 435.439 1764.1 433.898C1762.39 433.566 1761.25 433.458 1760.68 433.575 1760.11 433.692 1759.6 434.025 1759.15 434.575 1758.5 435.362 1758.02 436.398 1757.69 437.685L1756.64 437.479Z" fill="#C00000" fill-rule="evenodd"/><text fill="#000000" fill-opacity="0" font-family="Arial,Arial_MSFontService,sans-serif" font-size="27.9514" x="1751.63" y="455.272">z</text><path d="M1792.83 447.521C1789.98 448.091 1788.12 448.525 1787.27 448.824 1785.74 449.344 1784.59 449.972 1783.84 450.708 1783.09 451.444 1782.62 452.314 1782.43 453.318 1782.2 454.586 1782.39 455.707 1782.99 456.682 1783.6 457.658 1784.39 458.235 1785.38 458.416 1786.72 458.66 1788.64 458.102 1791.14 456.74ZM1791.05 436.357C1793.2 436.75 1794.89 437.433 1796.14 438.406 1797.08 439.142 1797.69 440.136 1797.97 441.389 1798.14 442.204 1798.02 443.783 1797.59 446.125L1796.09 454.341C1795.67 456.648 1795.45 458.07 1795.44 458.605 1795.44 459.141 1795.52 459.515 1795.69 459.728 1795.86 459.942 1796.08 460.072 1796.34 460.121 1796.62 460.172 1796.88 460.156 1797.11 460.071 1797.53 459.91 1798.36 459.397 1799.61 458.534L1799.34 460.013C1796.88 462.294 1794.76 463.27 1792.96 462.942 1792.1 462.784 1791.46 462.359 1791.06 461.667 1790.66 460.975 1790.58 459.905 1790.83 458.457 1788 459.923 1786.23 460.747 1785.55 460.931 1784.51 461.197 1783.46 461.232 1782.39 461.036 1780.71 460.729 1779.44 459.905 1778.57 458.562 1777.69 457.219 1777.43 455.615 1777.77 453.748 1777.98 452.568 1778.44 451.595 1779.12 450.828 1780.06 449.763 1781.52 448.865 1783.5 448.135 1785.49 447.406 1788.69 446.664 1793.13 445.909L1793.3 444.958C1793.74 442.545 1793.66 440.82 1793.06 439.782 1792.46 438.743 1791.43 438.09 1789.96 437.823 1788.85 437.62 1787.92 437.758 1787.16 438.238 1786.38 438.714 1785.92 439.34 1785.78 440.115L1785.55 441.657C1785.4 442.467 1785.08 443.054 1784.59 443.419 1784.09 443.784 1783.51 443.905 1782.84 443.782 1782.19 443.663 1781.7 443.337 1781.37 442.803 1781.04 442.269 1780.94 441.606 1781.09 440.814 1781.37 439.299 1782.4 438.05 1784.18 437.065 1785.96 436.081 1788.25 435.844 1791.05 436.357Z" fill="#C00000" fill-rule="evenodd"/><text fill="#000000" fill-opacity="0" font-family="Arial,Arial_MSFontService,sans-serif" font-size="26.9102" x="1777.62" y="459.64">a</text><path d="M1812.59 432.722 1813.41 432.864 1812.03 440.828 1817.69 441.811 1817.37 443.663 1811.71 442.681 1808.98 458.398C1808.71 459.968 1808.75 461.065 1809.11 461.69 1809.46 462.315 1809.99 462.689 1810.7 462.811 1811.28 462.912 1811.87 462.829 1812.48 462.563 1813.09 462.296 1813.61 461.836 1814.03 461.182L1815.06 461.361C1814.15 462.983 1813.05 464.132 1811.77 464.81 1810.49 465.487 1809.25 465.721 1808.05 465.513 1807.24 465.372 1806.48 465.01 1805.78 464.425 1805.08 463.841 1804.62 463.097 1804.4 462.195 1804.17 461.293 1804.21 459.969 1804.51 458.222L1807.34 441.923 1803.51 441.257 1803.66 440.384C1804.7 440.164 1805.8 439.679 1806.98 438.929 1808.15 438.179 1809.25 437.238 1810.26 436.106 1810.78 435.506 1811.56 434.378 1812.59 432.722Z" fill="#C00000" fill-rule="evenodd"/><text fill="#000000" fill-opacity="0" font-family="Arial,Arial_MSFontService,sans-serif" font-size="32.865" x="1803.51" y="461.479">t</text><path d="M1827.46 442.708 1828.63 442.902 1825.38 462.399C1825.13 463.918 1825.07 464.947 1825.21 465.488 1825.34 466.028 1825.61 466.457 1826 466.777 1826.39 467.096 1827.16 467.351 1828.31 467.542L1828.15 468.496 1816.36 466.533 1816.52 465.58C1817.7 465.777 1818.52 465.794 1818.96 465.632 1819.41 465.47 1819.79 465.144 1820.12 464.654 1820.45 464.164 1820.73 463.168 1820.98 461.667L1822.54 452.316C1822.98 449.684 1823.18 447.967 1823.15 447.163 1823.12 446.578 1823 446.152 1822.77 445.888 1822.54 445.623 1822.2 445.452 1821.74 445.376 1821.24 445.293 1820.62 445.326 1819.87 445.473L1819.66 444.458ZM1828.54 429.847C1829.28 429.97 1829.87 430.336 1830.31 430.944 1830.74 431.551 1830.89 432.226 1830.77 432.968 1830.65 433.709 1830.28 434.302 1829.67 434.745 1829.06 435.188 1828.39 435.348 1827.65 435.224 1826.9 435.101 1826.31 434.73 1825.87 434.112 1825.43 433.494 1825.27 432.814 1825.39 432.073 1825.52 431.331 1825.88 430.743 1826.49 430.308 1827.1 429.874 1827.78 429.72 1828.54 429.847Z" fill="#C00000" fill-rule="evenodd"/><text fill="#000000" fill-opacity="0" font-family="Arial,Arial_MSFontService,sans-serif" font-size="38.6918" x="1816.36" y="463.659">i</text><path d="M1846.13 447.492C1845.2 447.345 1844.21 447.476 1843.18 447.885 1842.14 448.294 1841.22 449.151 1840.42 450.456 1839.62 451.762 1839.04 453.512 1838.7 455.705 1838.15 459.242 1838.37 462.404 1839.37 465.189 1840.38 467.974 1842.03 469.547 1844.33 469.908 1846.04 470.177 1847.57 469.692 1848.91 468.452 1850.24 467.211 1851.18 464.867 1851.72 461.418 1852.4 457.102 1852 453.561 1850.53 450.793 1849.55 448.898 1848.08 447.798 1846.13 447.492ZM1847.23 445.897C1850.9 446.474 1853.64 448.335 1855.43 451.479 1856.95 454.164 1857.46 457.054 1856.98 460.149 1856.64 462.325 1855.77 464.445 1854.38 466.51 1852.98 468.575 1851.28 470.03 1849.27 470.874 1847.27 471.719 1845.14 471.965 1842.89 471.613 1839.23 471.038 1836.55 469.123 1834.85 465.866 1833.41 463.121 1832.94 460.219 1833.42 457.159 1833.77 454.931 1834.67 452.802 1836.12 450.773 1837.57 448.745 1839.28 447.346 1841.25 446.576 1843.22 445.807 1845.21 445.581 1847.23 445.897Z" fill="#C00000" fill-rule="evenodd"/><text fill="#000000" fill-opacity="0" font-family="Arial,Arial_MSFontService,sans-serif" font-size="26.0096" x="1833.24" y="468.517">o</text><path d="M1868.24 449.104 1869.38 449.269 1868.64 454.425C1871.99 451.401 1874.96 450.077 1877.54 450.452 1878.87 450.645 1879.97 451.143 1880.83 451.946 1881.69 452.749 1882.29 453.953 1882.64 455.559 1882.87 456.679 1882.83 458.337 1882.51 460.534L1881.01 470.926C1880.78 472.468 1880.75 473.531 1880.92 474.116 1881.05 474.588 1881.32 474.979 1881.72 475.29 1882.11 475.601 1882.9 475.841 1884.07 476.01L1883.93 476.967 1871.89 475.222 1872.03 474.265 1872.53 474.338C1873.67 474.503 1874.48 474.445 1874.99 474.165 1875.49 473.885 1875.88 473.421 1876.15 472.773 1876.26 472.518 1876.42 471.69 1876.62 470.291L1878.06 460.324C1878.39 458.109 1878.33 456.459 1877.9 455.375 1877.47 454.29 1876.57 453.649 1875.21 453.451 1873.1 453.146 1870.83 453.993 1868.41 455.993L1866.55 468.831C1866.31 470.478 1866.26 471.511 1866.4 471.929 1866.57 472.479 1866.86 472.905 1867.26 473.207 1867.66 473.509 1868.52 473.757 1869.85 473.949L1869.71 474.906 1857.67 473.161 1857.81 472.204 1858.34 472.281C1859.58 472.461 1860.46 472.268 1860.99 471.702 1861.51 471.136 1861.91 469.967 1862.16 468.195L1863.47 459.158C1863.9 456.235 1864.09 454.445 1864.05 453.787 1864.01 453.13 1863.87 452.667 1863.62 452.397 1863.38 452.126 1863.03 451.958 1862.57 451.891 1862.08 451.819 1861.46 451.866 1860.73 452.032L1860.47 451.017Z" fill="#C00000" fill-rule="evenodd"/><text fill="#000000" fill-opacity="0" font-family="Arial,Arial_MSFontService,sans-serif" font-size="27.8635" x="1857.67" y="473.484">n</text><path d="M1912.62 459.061C1911.68 458.94 1910.71 459.059 1909.71 459.418 1908.95 459.682 1907.95 460.276 1906.72 461.201L1904.84 475.798C1905.64 476.802 1906.49 477.593 1907.4 478.169 1908.31 478.746 1909.27 479.1 1910.28 479.229 1911.9 479.437 1913.51 478.742 1915.14 477.144 1916.76 475.547 1917.79 473.053 1918.22 469.661 1918.62 466.535 1918.23 464.044 1917.05 462.187 1915.87 460.331 1914.4 459.288 1912.62 459.061ZM1908 441.655 1909.2 441.809 1906.93 459.496C1909.72 456.513 1912.48 455.197 1915.21 455.548 1917.71 455.869 1919.76 457.219 1921.35 459.598 1922.94 461.977 1923.5 465.022 1923.02 468.733 1922.47 473.066 1920.58 476.371 1917.37 478.649 1914.61 480.605 1911.71 481.389 1908.67 481 1907.25 480.818 1905.84 480.375 1904.44 479.673 1903.04 478.97 1901.65 478.006 1900.25 476.78L1903.49 451.501C1903.85 448.73 1904 447.017 1903.95 446.361 1903.9 445.704 1903.74 445.243 1903.49 444.975 1903.23 444.708 1902.89 444.547 1902.47 444.492 1901.97 444.429 1901.33 444.491 1900.55 444.68L1900.29 443.7Z" fill="#C00000" fill-rule="evenodd"/><text fill="#000000" fill-opacity="0" font-family="Arial,Arial_MSFontService,sans-serif" font-size="39.4417" x="1900.25" y="476.167">b</text><path d="M1938.92 460.196C1937.98 460.086 1937 460.256 1935.99 460.706 1934.97 461.156 1934.09 462.049 1933.34 463.385 1932.59 464.722 1932.08 466.493 1931.83 468.698 1931.41 472.255 1931.76 475.405 1932.88 478.148 1933.99 480.891 1935.7 482.397 1938.02 482.666 1939.74 482.866 1941.25 482.32 1942.53 481.028 1943.82 479.735 1944.66 477.355 1945.07 473.887 1945.57 469.548 1945.03 466.025 1943.46 463.318 1942.39 461.464 1940.88 460.423 1938.92 460.196ZM1939.95 458.558C1943.65 458.988 1946.46 460.738 1948.37 463.809 1950 466.431 1950.63 469.298 1950.27 472.41 1950.01 474.598 1949.23 476.751 1947.92 478.869 1946.61 480.988 1944.97 482.51 1943 483.434 1941.02 484.358 1938.91 484.689 1936.65 484.426 1932.97 483.998 1930.21 482.191 1928.38 479.005 1926.84 476.32 1926.25 473.439 1926.6 470.362 1926.86 468.121 1927.68 465.959 1929.05 463.874 1930.42 461.789 1932.07 460.323 1934.01 459.476 1935.94 458.628 1937.93 458.323 1939.95 458.558Z" fill="#C00000" fill-rule="evenodd"/><text fill="#000000" fill-opacity="0" font-family="Arial,Arial_MSFontService,sans-serif" font-size="26.0322" x="1926.5" y="481.259">o</text><path d="M1953.45 460.859 1962.03 461.751 1960.32 478.125C1960.08 480.404 1960.33 481.941 1961.04 482.736 1961.76 483.531 1962.68 483.987 1963.8 484.103 1964.57 484.183 1965.46 484.033 1966.48 483.653 1967.5 483.273 1968.75 482.476 1970.23 481.262L1971.67 467.399C1971.82 466.01 1971.66 465.044 1971.2 464.501 1970.75 463.959 1969.72 463.586 1968.12 463.384L1968.22 462.396 1976.56 463.263 1975.01 478.088C1974.72 480.919 1974.61 482.658 1974.67 483.304 1974.74 483.95 1974.91 484.413 1975.18 484.693 1975.44 484.973 1975.77 485.133 1976.17 485.174 1976.72 485.231 1977.36 485.145 1978.08 484.914L1978.36 485.888 1970.73 488.145 1969.53 488.02 1970.06 482.838C1967.73 484.898 1965.97 486.165 1964.81 486.638 1963.64 487.111 1962.45 487.283 1961.22 487.155 1959.85 487.013 1958.7 486.493 1957.78 485.596 1956.85 484.698 1956.26 483.606 1956 482.319 1955.74 481.032 1955.72 479.248 1955.96 476.969L1957.1 466.044C1957.22 464.887 1957.18 464.072 1956.97 463.601 1956.77 463.13 1956.44 462.749 1955.97 462.457 1955.51 462.166 1954.63 461.962 1953.35 461.847Z" fill="#C00000" fill-rule="evenodd"/><text fill="#000000" fill-opacity="0" font-family="Arial,Arial_MSFontService,sans-serif" font-size="27.2863" x="1953.35" y="484.734">u</text><path d="M1988.39 463.671 1989.54 463.776 1989.07 468.965C1992.26 465.769 1995.15 464.29 1997.75 464.528 1999.09 464.65 2000.21 465.09 2001.11 465.846 2002.01 466.603 2002.68 467.774 2003.11 469.36 2003.4 470.465 2003.45 472.124 2003.25 474.334L2002.29 484.791C2002.15 486.342 2002.18 487.406 2002.38 487.981 2002.53 488.445 2002.82 488.821 2003.23 489.111 2003.65 489.401 2004.44 489.599 2005.62 489.707L2005.53 490.67 1993.41 489.561 1993.5 488.598 1994.01 488.645C1995.15 488.749 1995.97 488.648 1996.45 488.342 1996.94 488.036 1997.3 487.553 1997.54 486.891 1997.64 486.631 1997.75 485.796 1997.88 484.387L1998.8 474.358C1999 472.13 1998.86 470.485 1998.37 469.425 1997.88 468.365 1996.95 467.772 1995.58 467.646 1993.46 467.452 1991.24 468.417 1988.93 470.543L1987.74 483.46C1987.59 485.118 1987.6 486.152 1987.76 486.562 1987.96 487.102 1988.27 487.512 1988.68 487.793 1989.1 488.074 1989.97 488.275 1991.31 488.398L1991.22 489.36 1979.11 488.252 1979.19 487.289 1979.73 487.338C1980.98 487.452 1981.85 487.213 1982.34 486.62 1982.84 486.027 1983.17 484.839 1983.33 483.056L1984.16 473.963C1984.43 471.021 1984.53 469.223 1984.45 468.569 1984.38 467.915 1984.21 467.46 1983.96 467.203 1983.7 466.946 1983.34 466.796 1982.88 466.753 1982.38 466.708 1981.77 466.787 1981.05 466.991L1980.74 465.991Z" fill="#C00000" fill-rule="evenodd"/><text fill="#000000" fill-opacity="0" font-family="Arial,Arial_MSFontService,sans-serif" font-size="26.9985" x="1979.11" y="487.295">n</text><path d="M2021.13 468.14C2019.56 468.017 2018.1 468.612 2016.76 469.926 2014.99 471.654 2013.97 474.304 2013.69 477.873 2013.4 481.479 2013.97 484.303 2015.39 486.345 2016.81 488.387 2018.49 489.483 2020.41 489.634 2022.04 489.762 2023.67 489.073 2025.32 487.568L2026.31 474.931C2026.3 473.709 2026.06 472.577 2025.61 471.535 2025.15 470.494 2024.5 469.684 2023.65 469.106 2022.81 468.528 2021.97 468.206 2021.13 468.14ZM2031.15 454.38 2032.36 454.475 2030.13 482.828C2029.91 485.701 2029.84 487.46 2029.92 488.104 2030.01 488.748 2030.19 489.207 2030.46 489.48 2030.74 489.753 2031.07 489.905 2031.46 489.936 2031.94 489.974 2032.6 489.872 2033.43 489.632L2033.65 490.592 2026.13 493.046 2024.9 492.949 2025.17 489.442C2023.88 490.598 2022.64 491.403 2021.45 491.857 2020.27 492.312 2019.01 492.488 2017.69 492.384 2015.02 492.174 2012.77 490.871 2010.94 488.474 2009.12 486.077 2008.35 483.12 2008.62 479.604 2008.9 476.088 2010.26 472.957 2012.7 470.213 2015.14 467.468 2018.1 466.232 2021.58 466.506 2023.74 466.675 2025.47 467.502 2026.78 468.987L2027.13 464.463C2027.35 461.66 2027.42 459.933 2027.34 459.28 2027.25 458.627 2027.08 458.173 2026.81 457.918 2026.54 457.664 2026.19 457.52 2025.77 457.486 2025.3 457.45 2024.67 457.544 2023.88 457.77L2023.61 456.805Z" fill="#C00000" fill-rule="evenodd"/><text fill="#000000" fill-opacity="0" font-family="Arial,Arial_MSFontService,sans-serif" font-size="38.6656" x="2008.57" y="488.213">d</text><path d="M2057.32 461.646 2058.15 461.697 2057.66 469.765 2063.4 470.114 2063.28 471.99 2057.55 471.642 2056.58 487.564C2056.48 489.155 2056.65 490.241 2057.07 490.823 2057.49 491.404 2058.06 491.717 2058.77 491.76 2059.36 491.796 2059.95 491.648 2060.52 491.315 2061.1 490.982 2061.56 490.468 2061.91 489.772L2062.95 489.835C2062.22 491.548 2061.26 492.813 2060.06 493.628 2058.86 494.443 2057.65 494.813 2056.44 494.74 2055.62 494.69 2054.83 494.413 2054.07 493.909 2053.31 493.406 2052.77 492.718 2052.45 491.847 2052.12 490.975 2052.01 489.655 2052.12 487.885L2053.12 471.373 2049.24 471.137 2049.29 470.252C2050.3 469.919 2051.34 469.314 2052.43 468.438 2053.51 467.563 2054.5 466.506 2055.38 465.268 2055.83 464.614 2056.48 463.407 2057.32 461.646Z" fill="#C00000" fill-rule="evenodd"/><text fill="#000000" fill-opacity="0" font-family="Arial,Arial_MSFontService,sans-serif" font-size="33.1026" x="2049.24" y="490.611">t</text><path d="M2073.22 469.911 2074.4 469.973 2073.36 489.711C2073.28 491.249 2073.34 492.279 2073.54 492.8 2073.73 493.321 2074.04 493.718 2074.47 493.992 2074.89 494.265 2075.69 494.432 2076.85 494.493L2076.8 495.459 2064.86 494.832 2064.91 493.866C2066.11 493.929 2066.92 493.855 2067.35 493.644 2067.77 493.434 2068.12 493.066 2068.39 492.543 2068.66 492.019 2068.83 490.997 2068.91 489.477L2069.41 480.011C2069.55 477.347 2069.56 475.617 2069.44 474.822 2069.34 474.243 2069.17 473.835 2068.91 473.598 2068.65 473.36 2068.29 473.229 2067.83 473.205 2067.33 473.178 2066.71 473.28 2065.98 473.511L2065.66 472.526ZM2072.85 457.01C2073.6 457.049 2074.22 457.347 2074.72 457.902 2075.22 458.457 2075.45 459.11 2075.41 459.861 2075.37 460.612 2075.08 461.242 2074.52 461.75 2073.97 462.259 2073.31 462.494 2072.56 462.454 2071.81 462.415 2071.18 462.113 2070.67 461.548 2070.17 460.984 2069.93 460.326 2069.97 459.575 2070.01 458.824 2070.31 458.199 2070.86 457.699 2071.42 457.199 2072.08 456.97 2072.85 457.01Z" fill="#C00000" fill-rule="evenodd"/><text fill="#000000" fill-opacity="0" font-family="Arial,Arial_MSFontService,sans-serif" font-size="38.4533" x="2064.86" y="490.652">i</text><path d="M2086.51 495.91C2085.64 496.788 2084.97 497.612 2084.51 498.382 2084.04 499.151 2083.8 499.867 2083.77 500.529 2083.74 501.388 2084.23 502.16 2085.24 502.846 2086.98 504.028 2089.54 504.687 2092.93 504.824 2096.15 504.955 2098.54 504.483 2100.12 503.41 2101.69 502.336 2102.51 501.155 2102.56 499.867 2102.6 498.937 2102.17 498.256 2101.27 497.826 2100.36 497.394 2098.53 497.087 2095.77 496.904 2091.75 496.633 2088.67 496.302 2086.51 495.91ZM2092.43 472.094C2091.1 472.04 2089.97 472.523 2089.03 473.542 2088.1 474.562 2087.58 476.162 2087.5 478.345 2087.38 481.171 2087.9 483.387 2089.05 484.993 2089.94 486.211 2091.09 486.85 2092.52 486.908 2093.88 486.963 2095.02 486.498 2095.94 485.514 2096.86 484.53 2097.36 482.947 2097.45 480.764 2097.56 477.92 2097.04 475.668 2095.87 474.008 2095 472.79 2093.86 472.152 2092.43 472.094ZM2092.93 470.825C2095.28 470.92 2097.28 471.575 2098.96 472.789L2104.16 473C2104.93 473.032 2105.38 473.072 2105.5 473.122 2105.62 473.172 2105.71 473.251 2105.76 473.361 2105.86 473.526 2105.9 473.815 2105.89 474.226 2105.87 474.691 2105.81 475.011 2105.71 475.187 2105.65 475.274 2105.56 475.342 2105.42 475.39 2105.29 475.438 2104.83 475.447 2104.06 475.415L2100.87 475.286C2101.82 476.615 2102.25 478.281 2102.17 480.284 2102.08 482.574 2101.12 484.497 2099.3 486.054 2097.49 487.611 2095.1 488.329 2092.15 488.209 2090.93 488.16 2089.7 487.931 2088.44 487.521 2087.63 488.169 2087.07 488.743 2086.77 489.241 2086.47 489.74 2086.32 490.168 2086.3 490.526 2086.29 490.83 2086.43 491.131 2086.71 491.429 2086.99 491.727 2087.56 491.956 2088.41 492.117 2088.91 492.208 2090.16 492.322 2092.16 492.457 2095.85 492.696 2098.23 492.918 2099.31 493.123 2100.97 493.423 2102.27 494.094 2103.22 495.136 2104.17 496.178 2104.62 497.433 2104.56 498.9 2104.48 500.921 2103.45 502.779 2101.49 504.473 2098.59 506.972 2094.9 508.13 2090.41 507.948 2086.95 507.807 2084.07 506.911 2081.75 505.258 2080.45 504.309 2079.81 503.352 2079.85 502.386 2079.87 501.956 2079.99 501.531 2080.2 501.11 2080.53 500.46 2081.2 499.564 2082.19 498.422 2082.32 498.266 2083.28 497.337 2085.05 495.635 2084.14 495.043 2083.5 494.52 2083.13 494.066 2082.77 493.612 2082.6 493.108 2082.62 492.553 2082.64 491.927 2082.93 491.204 2083.47 490.384 2084.02 489.564 2085.24 488.422 2087.15 486.958 2085.67 486.164 2084.56 485.093 2083.81 483.745 2083.06 482.398 2082.71 480.928 2082.78 479.336 2082.88 476.903 2083.88 474.847 2085.78 473.169 2087.69 471.49 2090.07 470.709 2092.93 470.825Z" fill="#C00000" fill-rule="evenodd"/><text fill="#000000" fill-opacity="0" font-family="Arial,Arial_MSFontService,sans-serif" font-size="37.1527" x="2079.85" y="503.322">g</text><path d="M2114.79 458.717 2116.02 458.747 2115.59 476.735C2117.63 474.599 2119.24 473.236 2120.42 472.647 2121.6 472.057 2122.77 471.777 2123.93 471.805 2125.33 471.838 2126.52 472.252 2127.5 473.046 2128.48 473.839 2129.2 475.065 2129.64 476.724 2129.95 477.877 2130.07 479.976 2130 483.018L2129.79 491.717C2129.75 493.274 2129.85 494.342 2130.09 494.921 2130.26 495.355 2130.55 495.702 2130.98 495.963 2131.4 496.224 2132.19 496.368 2133.33 496.396L2133.31 497.362 2121.23 497.072 2121.25 496.105 2121.81 496.119C2122.96 496.146 2123.76 495.991 2124.22 495.653 2124.67 495.314 2125 494.807 2125.19 494.131 2125.25 493.846 2125.3 493.006 2125.33 491.61L2125.54 482.911C2125.61 480.226 2125.51 478.46 2125.25 477.612 2125 476.764 2124.57 476.122 2123.97 475.687 2123.37 475.252 2122.64 475.024 2121.79 475.003 2120.91 474.982 2119.99 475.193 2119.03 475.636 2118.07 476.078 2116.91 476.99 2115.55 478.372L2115.24 491.367C2115.2 493.049 2115.27 494.099 2115.45 494.515 2115.62 494.931 2115.96 495.284 2116.47 495.574 2116.97 495.863 2117.85 496.023 2119.1 496.053L2119.08 497.02 2106.89 496.727 2106.91 495.76C2108.01 495.786 2108.87 495.637 2109.5 495.312 2109.87 495.142 2110.16 494.808 2110.39 494.312 2110.61 493.816 2110.75 492.799 2110.78 491.26L2111.32 469.003C2111.39 466.193 2111.36 464.464 2111.24 463.816 2111.12 463.169 2110.93 462.725 2110.66 462.486 2110.38 462.247 2110.02 462.121 2109.55 462.11 2109.17 462.101 2108.56 462.23 2107.71 462.496L2107.36 461.547Z" fill="#C00000" fill-rule="evenodd"/><text fill="#000000" fill-opacity="0" font-family="Arial,Arial_MSFontService,sans-serif" font-size="38.6451" x="2106.89" y="492.532">h</text><path d="M2142.19 464.732 2143.02 464.74 2142.94 472.823 2148.69 472.881 2148.67 474.76 2142.92 474.703 2142.76 490.655C2142.75 492.248 2142.96 493.324 2143.41 493.884 2143.87 494.443 2144.45 494.727 2145.17 494.734 2145.76 494.74 2146.33 494.562 2146.89 494.2 2147.45 493.839 2147.88 493.302 2148.19 492.589L2149.24 492.599C2148.6 494.347 2147.7 495.659 2146.54 496.534 2145.39 497.408 2144.2 497.84 2142.99 497.828 2142.16 497.819 2141.36 497.583 2140.58 497.119 2139.79 496.654 2139.22 495.995 2138.85 495.141 2138.48 494.287 2138.31 492.974 2138.32 491.201L2138.49 474.659 2134.6 474.62 2134.6 473.734C2135.59 473.35 2136.61 472.693 2137.65 471.764 2138.68 470.834 2139.61 469.729 2140.43 468.448 2140.85 467.771 2141.44 466.533 2142.19 464.732Z" fill="#C00000" fill-rule="evenodd"/><text fill="#000000" fill-opacity="0" font-family="Arial,Arial_MSFontService,sans-serif" font-size="33.0958" x="2134.6" y="493.691">t</text><path d="M2161.28 474.026C2159.79 474.033 2158.47 474.616 2157.3 475.776 2156.13 476.936 2155.46 478.546 2155.27 480.606L2166.65 480.555C2166.56 478.98 2166.36 477.871 2166.08 477.228 2165.62 476.227 2164.95 475.442 2164.06 474.873 2163.18 474.304 2162.25 474.022 2161.28 474.026ZM2162.78 472.113C2165.53 472.101 2167.8 472.999 2169.58 474.808 2171.36 476.618 2172.26 479.044 2172.27 482.088L2155.27 482.163C2155.27 485.816 2156.17 488.676 2157.97 490.745 2159.77 492.814 2161.88 493.843 2164.3 493.832 2165.91 493.825 2167.31 493.376 2168.49 492.484 2169.68 491.593 2170.67 490.071 2171.47 487.919L2172.3 488.453C2171.94 490.907 2170.85 493.145 2169.06 495.167 2167.26 497.19 2165 498.207 2162.27 498.219 2159.32 498.232 2156.79 497.093 2154.67 494.802 2152.56 492.51 2151.49 489.422 2151.48 485.537 2151.46 481.33 2152.52 478.044 2154.67 475.68 2156.82 473.316 2159.52 472.127 2162.78 472.113Z" fill="#C00000" fill-rule="evenodd"/><text fill="#000000" fill-opacity="0" font-family="Arial,Arial_MSFontService,sans-serif" font-size="26.1062" x="2151.48" y="494.956">e</text><path d="M2181.47 471.919 2182.62 471.89 2182.75 477.098C2185.55 473.553 2188.25 471.747 2190.86 471.68 2192.21 471.646 2193.37 471.952 2194.35 472.599 2195.34 473.245 2196.13 474.331 2196.75 475.856 2197.17 476.92 2197.41 478.561 2197.46 480.781L2197.73 491.278C2197.77 492.835 2197.92 493.888 2198.18 494.436 2198.39 494.878 2198.72 495.219 2199.16 495.459 2199.61 495.698 2200.42 495.803 2201.6 495.773L2201.63 496.739 2189.47 497.049 2189.44 496.082 2189.95 496.069C2191.1 496.04 2191.89 495.845 2192.34 495.484 2192.79 495.124 2193.09 494.601 2193.26 493.917 2193.32 493.646 2193.33 492.804 2193.3 491.39L2193.04 481.323C2192.99 479.085 2192.65 477.469 2192.05 476.472 2191.44 475.476 2190.45 474.995 2189.07 475.03 2186.94 475.084 2184.85 476.302 2182.79 478.682L2183.12 491.649C2183.17 493.313 2183.29 494.34 2183.5 494.729 2183.76 495.242 2184.12 495.613 2184.56 495.844 2185 496.074 2185.9 496.172 2187.24 496.138L2187.27 497.105 2175.1 497.414 2175.08 496.447 2175.62 496.434C2176.87 496.402 2177.71 496.063 2178.13 495.416 2178.55 494.77 2178.74 493.551 2178.69 491.762L2178.46 482.634C2178.39 479.681 2178.27 477.884 2178.12 477.243 2177.97 476.602 2177.76 476.168 2177.47 475.943 2177.19 475.717 2176.81 475.61 2176.35 475.622 2175.85 475.635 2175.25 475.784 2174.56 476.071L2174.13 475.114Z" fill="#C00000" fill-rule="evenodd"/><text fill="#000000" fill-opacity="0" font-family="Arial,Arial_MSFontService,sans-serif" font-size="25.7362" x="2174.13" y="494.197">n</text><path d="M2211.11 470.908C2212.08 470.861 2213.26 471.01 2214.65 471.355 2215.58 471.579 2216.19 471.684 2216.5 471.669 2216.78 471.656 2217 471.582 2217.16 471.449 2217.31 471.316 2217.49 471.03 2217.68 470.591L2218.57 470.548 2218.97 478.917 2218.09 478.96C2217.28 476.364 2216.32 474.618 2215.21 473.721 2214.1 472.825 2212.72 472.416 2211.08 472.496 2209.83 472.556 2208.83 472.936 2208.1 473.635 2207.36 474.333 2207.01 475.085 2207.05 475.89 2207.1 476.891 2207.42 477.736 2208.03 478.424 2208.62 479.13 2209.79 479.854 2211.52 480.594L2215.53 482.309C2219.25 483.905 2221.18 486.151 2221.32 489.048 2221.42 491.283 2220.67 493.125 2219.04 494.575 2217.42 496.025 2215.56 496.8 2213.47 496.901 2211.97 496.974 2210.24 496.788 2208.28 496.345 2207.68 496.195 2207.19 496.129 2206.82 496.147 2206.41 496.167 2206.1 496.415 2205.89 496.891L2205 496.934 2204.58 488.162 2205.46 488.119C2206.08 490.599 2207.13 492.439 2208.61 493.641 2210.08 494.842 2211.69 495.401 2213.45 495.316 2214.68 495.256 2215.67 494.846 2216.41 494.084 2217.15 493.322 2217.5 492.431 2217.45 491.412 2217.39 490.178 2216.91 489.162 2216 488.363 2215.09 487.565 2213.31 486.584 2210.66 485.422 2208 484.26 2206.24 483.179 2205.39 482.181 2204.54 481.201 2204.07 479.932 2204 478.377 2203.9 476.356 2204.51 474.632 2205.83 473.206 2207.15 471.78 2208.91 471.014 2211.11 470.908Z" fill="#C00000" fill-rule="evenodd"/><text fill="#000000" fill-opacity="0" font-family="Arial,Arial_MSFontService,sans-serif" font-size="26.3859" x="2203.99" y="493.635">s</text><path d="M2133.15 879.638C2135.09 879.638 2136.5 880.145 2137.36 881.158 2138.22 882.171 2138.66 883.529 2138.66 885.231 2138.66 886.528 2138.43 888.014 2137.97 889.689 2137.51 891.364 2136.86 893.134 2136.02 894.998 2135.19 896.862 2134.19 898.774 2133.02 900.733 2131.86 902.692 2130.58 904.596 2129.17 906.447 2127.77 908.298 2126.27 910.041 2124.68 911.675 2123.08 913.31 2121.43 914.735 2119.71 915.951 2118 917.167 2116.25 918.132 2114.48 918.848 2112.71 919.564 2110.95 919.922 2109.19 919.922 2108.41 919.922 2107.76 919.727 2107.23 919.335 2106.7 918.943 2106.28 918.389 2105.95 917.673 2105.63 916.957 2105.4 916.113 2105.26 915.14 2105.13 914.168 2105.06 913.1 2105.06 911.939 2105.06 910.398 2105.15 908.75 2105.34 906.994 2105.53 905.238 2105.78 903.468 2106.07 901.685L2107.78 890.459C2107.88 889.811 2107.97 889.196 2108.04 888.615 2108.11 888.034 2108.14 887.609 2108.14 887.338 2108.14 886.501 2108.01 885.812 2107.73 885.272 2107.46 884.731 2107.01 884.461 2106.36 884.461 2105.84 884.461 2105.29 884.616 2104.7 884.927 2104.1 885.238 2103.5 885.636 2102.89 886.123 2102.28 886.609 2101.7 887.129 2101.13 887.683 2100.56 888.237 2100.03 888.757 2099.55 889.243L2097.6 886.974C2098.44 886.109 2099.33 885.251 2100.28 884.4 2101.22 883.549 2102.22 882.779 2103.28 882.09 2104.33 881.401 2105.44 880.847 2106.6 880.429 2107.76 880.01 2108.95 879.8 2110.17 879.8 2111.19 879.8 2112.03 879.969 2112.68 880.307 2113.33 880.645 2113.83 881.09 2114.2 881.644 2114.56 882.198 2114.81 882.806 2114.95 883.468 2115.08 884.13 2115.15 884.785 2115.15 885.434 2115.15 885.812 2115.14 886.177 2115.11 886.528 2115.08 886.879 2115.04 887.203 2114.99 887.501L2112.72 902.171C2112.48 903.711 2112.27 905.218 2112.11 906.69 2111.95 908.163 2111.87 909.466 2111.87 910.601 2111.87 911.736 2111.94 912.655 2112.07 913.357 2112.21 914.059 2112.46 914.411 2112.84 914.411 2113.73 914.411 2114.85 914.053 2116.21 913.337 2117.56 912.621 2118.97 911.635 2120.46 910.378 2121.95 909.122 2123.43 907.636 2124.92 905.92 2126.4 904.205 2127.74 902.347 2128.93 900.348 2130.12 898.348 2131.09 896.241 2131.83 894.025 2132.57 891.81 2132.94 889.581 2132.94 887.338 2132.94 886.366 2132.73 885.616 2132.31 885.089 2131.9 884.562 2131.24 884.299 2130.35 884.299 2129.21 884.299 2128.17 884.738 2127.21 885.616 2126.25 886.494 2125.26 887.649 2124.23 889.081L2121.92 887.014C2122.57 886.042 2123.33 885.109 2124.21 884.218 2125.09 883.326 2126.02 882.543 2127.01 881.867 2127.99 881.192 2129.01 880.651 2130.07 880.246 2131.12 879.841 2132.15 879.638 2133.15 879.638Z" fill-rule="evenodd"/><text fill="#000000" fill-opacity="0" font-family="Arial,Arial_MSFontService,sans-serif" font-size="40.2842" x="2097.6" y="914.887">ğ‘£</text><path d="M2173.67 860.671 2174.77 863.792C2168.45 865.872 2163.76 869.932 2160.73 875.971 2157.69 882.009 2156.17 889.594 2156.17 898.727 2156.17 908.183 2157.69 915.978 2160.73 922.111 2163.76 928.244 2168.41 932.351 2174.65 934.431L2173.67 937.552C2165.76 935.471 2159.69 930.993 2155.48 924.117 2151.26 917.241 2149.15 908.912 2149.15 899.132 2149.15 889.378 2151.27 881.05 2155.5 874.147 2159.73 867.244 2165.78 862.752 2173.67 860.671Z" fill-rule="evenodd"/><text fill="#000000" fill-opacity="0" font-family="Arial,Arial_MSFontService,sans-serif" font-size="76.8804" x="2149.15" y="927.942">(</text><path d="M2201.2 883.975C2197.01 885.758 2193.67 888.764 2191.17 892.992 2188.67 897.22 2187.42 901.969 2187.42 907.237 2187.42 913.533 2190.19 916.68 2195.73 916.68 2197.92 916.68 2199.88 915.951 2201.6 914.492 2203.33 913.033 2204.69 910.986 2205.68 908.352 2206.66 905.718 2207.16 902.928 2207.16 899.983 2207.16 896.795 2206.71 893.951 2205.82 891.452 2204.93 888.953 2203.39 886.46 2201.2 883.975ZM2205.37 861.036C2207.72 861.036 2210.07 861.448 2212.41 862.272 2214.74 863.096 2217.36 864.549 2220.25 866.629L2218.87 873.113 2215.14 873.113C2214.2 870.141 2212.86 867.919 2211.15 866.447 2209.43 864.974 2207.37 864.238 2204.97 864.238 2203.16 864.238 2201.72 864.704 2200.65 865.636 2199.59 866.568 2199.05 867.777 2199.05 869.263 2199.05 870.047 2199.23 870.83 2199.58 871.614 2199.93 872.397 2200.59 873.444 2201.56 874.755 2202.54 876.065 2204.04 877.909 2206.06 880.287 2208.52 883.232 2210.3 885.65 2211.41 887.541 2212.52 889.432 2213.32 891.344 2213.82 893.276 2214.32 895.208 2214.57 897.376 2214.57 899.78 2214.57 903.131 2213.78 906.4 2212.2 909.588 2210.62 912.776 2208.36 915.289 2205.41 917.126 2202.47 918.963 2199.07 919.882 2195.2 919.882 2191.77 919.882 2188.93 919.315 2186.69 918.18 2184.45 917.045 2182.82 915.505 2181.81 913.56 2180.79 911.614 2180.29 909.372 2180.29 906.832 2180.29 901.104 2181.89 896.086 2185.09 891.776 2188.29 887.467 2193.03 884.002 2199.29 881.381 2197.16 878.976 2195.6 876.896 2194.61 875.14 2193.63 873.384 2193.13 871.722 2193.13 870.155 2193.13 868.453 2193.61 866.913 2194.55 865.535 2195.5 864.157 2196.9 863.063 2198.77 862.252 2200.63 861.441 2202.83 861.036 2205.37 861.036Z" fill-rule="evenodd"/><text fill="#000000" fill-opacity="0" font-family="Arial,Arial_MSFontService,sans-serif" font-size="58.8457" x="2180.29" y="912.526">ğ›¿</text><path d="M2226.22 860.671C2234.1 862.752 2240.16 867.244 2244.39 874.147 2248.62 881.05 2250.73 889.378 2250.73 899.132 2250.73 908.912 2248.63 917.241 2244.41 924.117 2240.2 930.993 2234.13 935.471 2226.22 937.552L2225.24 934.431C2231.48 932.351 2236.12 928.244 2239.16 922.111 2242.2 915.978 2243.72 908.183 2243.72 898.727 2243.72 889.594 2242.21 882.009 2239.18 875.971 2236.16 869.932 2231.47 865.872 2225.12 863.792Z" fill-rule="evenodd"/><text fill="#000000" fill-opacity="0" font-family="Arial,Arial_MSFontService,sans-serif" font-size="76.8804" x="2225.12" y="927.942">)</text><text font-family="Times New Roman,Times New Roman_MSFontService,sans-serif" font-weight="400" font-size="83" transform="matrix(1 0 0 1 2257.96 919)">-</text><text font-family="Times New Roman,Times New Roman_MSFontService,sans-serif" font-weight="400" font-size="83" transform="matrix(1 0 0 1 2285.46 919)">diversity</text><path d="M1280 806C1321.99 779.742 1363.99 753.484 1474.35 728.939 1584.71 704.394 1769.88 672.713 1942.16 658.728 2114.43 644.743 2311.22 644.886 2508 645.028" stroke="#172C51" stroke-width="10.3125" stroke-miterlimit="8" fill="none" fill-rule="evenodd"/></g></svg>