<svg width="1532" height="856" xmlns="http://www.w3.org/2000/svg" xmlns:xlink="http://www.w3.org/1999/xlink" xml:space="preserve" overflow="hidden"><g transform="translate(-1100 -1068)"><path d="M1319.5 1561.5C1478.49 1563.18 1637.48 1564.87 1758.36 1571.61 1879.24 1578.35 1921.59 1580.45 2044.78 1601.94 2167.97 1623.42 2332.73 1661.96 2497.5 1700.5" stroke="#172C51" stroke-width="4.58333" stroke-miterlimit="8" stroke-dasharray="18.3333 13.75" fill="none" fill-rule="evenodd"/><path d="M1314.5 1088.5C1402.33 1188.02 1490.16 1287.54 1589.82 1350.38 1689.47 1413.21 1757.32 1465.29 1912.43 1465.5 2067.55 1465.71 2294.02 1408.68 2520.5 1351.64" stroke="#172C51" stroke-width="4.58333" stroke-miterlimit="8" stroke-dasharray="18.3333 13.75" fill="none" fill-rule="evenodd"/><path d="M3.4375-2.07544e-06 3.43785 574.819-3.43715 574.819-3.4375 2.07544e-06ZM13.7503 570.236 0.000360892 597.736-13.7497 570.236Z" transform="matrix(1 0 0 -1 1234.5 1724.24)"/><text font-family="Times New Roman,Times New Roman_MSFontService,sans-serif" font-weight="400" font-size="83" transform="matrix(-1.83697e-16 -1 1 -1.83697e-16 1204.97 1321)">error</text><path d="M2031 1123 2113 1123" stroke="#172C51" stroke-width="10.3125" stroke-miterlimit="8" fill="none" fill-rule="evenodd"/><text font-family="Times New Roman,Times New Roman_MSFontService,sans-serif" font-weight="400" font-size="55" transform="matrix(1 0 0 1 2132.96 1138)">training error</text><path d="M2031.5 1181.5 2113.5 1181.5" stroke="#172C51" stroke-width="4.58333" stroke-miterlimit="8" stroke-dasharray="18.3333 13.75" fill="none" fill-rule="evenodd"/><text font-family="Times New Roman,Times New Roman_MSFontService,sans-serif" font-weight="400" font-size="55" transform="matrix(1 0 0 1 2128.95 1192)">generalization bound</text><path d="M1319 1265C1396.33 1343.91 1473.66 1422.82 1576.41 1468.55 1679.16 1514.27 1777.41 1524.11 1935.51 1539.35 2093.6 1554.59 2309.3 1557.3 2525 1560" stroke="#172C51" stroke-width="10.3125" stroke-miterlimit="8" fill="none" fill-rule="evenodd"/><path d="M0.00284199-3.4375 1331.59-2.3366 1331.59 4.5384-0.00284199 3.4375ZM1327.02-12.6529 1354.5 1.11985 1326.99 14.8471Z" transform="matrix(1 0 0 -1 1234.5 1721.62)"/><path d="M2055.16 1799.65 2101.28 1799.65 2101.28 1801.64C2099.28 1802.13 2098 1802.78 2097.43 1803.61 2096.86 1804.43 2096.58 1806.49 2096.58 1809.79L2096.58 1844.84C2096.58 1848.06 2096.86 1850.1 2097.43 1850.96 2098 1851.83 2099.28 1852.5 2101.28 1852.99L2101.28 1854.97 2084.26 1854.97 2084.26 1852.99C2086.18 1852.53 2087.44 1851.9 2088.05 1851.1 2088.66 1850.31 2088.96 1848.22 2088.96 1844.84L2088.96 1803.38 2067.48 1803.38 2067.48 1844.84C2067.48 1848.22 2067.8 1850.31 2068.43 1851.1 2069.07 1851.9 2070.33 1852.53 2072.22 1852.99L2072.22 1854.97 2055.16 1854.97 2055.16 1852.99C2057.13 1852.5 2058.42 1851.85 2059.01 1851.04 2059.6 1850.23 2059.9 1848.17 2059.9 1844.84L2059.9 1809.79C2059.9 1806.41 2059.58 1804.32 2058.95 1803.52 2058.31 1802.73 2057.05 1802.1 2055.16 1801.64Z" fill-rule="evenodd"/><text fill="#000000" fill-opacity="0" font-family="Arial,Arial_MSFontService,sans-serif" font-size="55.3198" x="2055.16" y="1848.06">Π</text><path d="M2155.36 1830.68C2156.91 1830.68 2158.29 1831.1 2159.5 1831.94 2160.71 1832.77 2161.8 1834.06 2162.75 1835.81L2158.31 1837.71C2157.5 1836.07 2156.76 1834.92 2156.09 1834.27 2155.43 1833.63 2154.62 1833.31 2153.66 1833.31 2153.19 1833.31 2152.74 1833.38 2152.32 1833.51 2151.91 1833.65 2151.55 1833.88 2151.25 1834.2 2150.95 1834.52 2150.69 1834.92 2150.45 1835.41 2150.21 1835.89 2149.97 1836.58 2149.73 1837.46 2149.49 1838.34 2149.15 1839.85 2148.69 1841.97L2144.82 1859.84C2144.56 1861.06 2144.36 1862.19 2144.21 1863.24 2144.06 1864.29 2143.98 1865.14 2143.98 1865.77 2143.98 1866.72 2144.19 1867.45 2144.61 1867.96 2145.03 1868.47 2145.67 1868.72 2146.55 1868.72 2147.22 1868.72 2147.85 1868.54 2148.44 1868.17 2149.02 1867.8 2150.07 1866.82 2151.58 1865.24L2153.34 1866.87C2151.87 1868.52 2150.68 1869.68 2149.76 1870.34 2148.85 1871.01 2147.92 1871.5 2146.96 1871.82 2146.01 1872.14 2144.95 1872.29 2143.78 1872.29 2142.29 1872.29 2141.05 1871.74 2140.05 1870.64 2139.06 1869.54 2138.56 1868.09 2138.56 1866.31 2138.56 1865.65 2138.64 1864.76 2138.79 1863.63 2138.94 1862.5 2139.12 1861.46 2139.34 1860.53L2141.12 1852.25 2126.83 1852.25 2124.86 1861.39C2124.56 1862.78 2124.19 1864.04 2123.73 1865.16 2123.27 1866.28 2122.7 1867.29 2122 1868.17 2121.31 1869.05 2120.39 1869.84 2119.25 1870.54 2118.11 1871.23 2117.06 1871.7 2116.1 1871.94 2115.15 1872.18 2114.14 1872.29 2113.07 1872.29 2111.56 1872.29 2110.21 1871.87 2109.02 1871.03 2107.82 1870.18 2106.76 1868.9 2105.83 1867.17L2109.88 1864.85C2110.71 1866.5 2111.52 1867.71 2112.29 1868.5 2113.07 1869.28 2113.92 1869.67 2114.85 1869.67 2115.33 1869.67 2115.81 1869.58 2116.28 1869.39 2116.76 1869.2 2117.19 1868.83 2117.58 1868.27 2117.97 1867.72 2118.3 1866.93 2118.59 1865.92 2118.88 1864.91 2119.26 1863.27 2119.74 1861.01L2123.67 1842.03C2123.97 1840.58 2124.4 1839.19 2124.95 1837.86 2125.51 1836.53 2126.04 1835.57 2126.56 1834.97L2126.5 1834.68C2123.2 1834.68 2120.71 1834.82 2119.01 1835.12 2117.31 1835.42 2116.09 1835.93 2115.35 1836.64 2114.6 1837.36 2114.23 1838.39 2114.23 1839.74 2114.23 1840.75 2114.58 1841.98 2115.27 1843.43L2110.68 1845.22C2110.25 1844.51 2109.93 1843.83 2109.75 1843.21 2109.56 1842.58 2109.46 1841.89 2109.46 1841.14 2109.46 1840.44 2109.65 1839.71 2110.01 1838.95 2110.38 1838.19 2111.01 1837.37 2111.91 1836.49 2112.94 1835.48 2114.23 1834.51 2115.78 1833.57 2117.03 1832.82 2118.22 1832.28 2119.35 1831.95 2120.48 1831.62 2121.73 1831.4 2123.1 1831.28 2124.02 1831.2 2125.41 1831.16 2127.27 1831.16L2130.67 1831.16 2131.47 1832.92C2131.12 1833.69 2130.81 1834.56 2130.55 1835.52 2130.29 1836.49 2130.03 1837.55 2129.78 1838.7L2127.63 1848.76 2141.9 1848.76 2143.45 1841.71C2143.79 1840.2 2144.19 1838.89 2144.67 1837.77 2145.15 1836.66 2145.73 1835.67 2146.41 1834.81 2147.1 1833.95 2148.01 1833.16 2149.15 1832.46 2150.29 1831.75 2151.35 1831.28 2152.31 1831.04 2153.27 1830.8 2154.29 1830.68 2155.36 1830.68Z" fill-rule="evenodd"/><text fill="#000000" fill-opacity="0" font-family="Arial,Arial_MSFontService,sans-serif" font-size="41.6099" x="2105.83" y="1867.09">ℋ</text><text font-family="Times New Roman,Times New Roman_MSFontService,sans-serif" font-weight="400" font-size="83" transform="matrix(1 0 0 1 2167.73 1855)">-</text><text font-family="Times New Roman,Times New Roman_MSFontService,sans-serif" font-weight="400" font-size="83" transform="matrix(1 0 0 1 2195.23 1855)">complexity</text><path d="M2031.5 1480.5 2031.5 1720.66" stroke="#C00000" stroke-width="4.58333" stroke-miterlimit="8" fill="none" fill-rule="evenodd"/><path d="M2015 1462.5C2015 1452.84 2022.39 1445 2031.5 1445 2040.61 1445 2048 1452.84 2048 1462.5 2048 1472.16 2040.61 1480 2031.5 1480 2022.39 1480 2015 1472.16 2015 1462.5Z" fill="#C00000" fill-rule="evenodd"/><path d="M2061.45 1443.57 2063.06 1443.57 2063.06 1460.54 2063.17 1460.57C2064.56 1459.16 2065.67 1458.17 2066.48 1457.6 2067.3 1457.04 2068.1 1456.61 2068.9 1456.33 2069.7 1456.04 2070.55 1455.9 2071.46 1455.9 2072.45 1455.9 2073.33 1456.01 2074.1 1456.25 2074.87 1456.48 2075.54 1456.83 2076.12 1457.31 2076.71 1457.78 2077.18 1458.36 2077.55 1459.05 2077.91 1459.74 2078.19 1460.57 2078.37 1461.52 2078.54 1462.48 2078.63 1463.7 2078.63 1465.16L2078.63 1475.29C2078.63 1476.85 2078.7 1477.91 2078.84 1478.47 2078.97 1479.03 2079.21 1479.47 2079.56 1479.79 2079.91 1480.1 2080.61 1480.4 2081.67 1480.69L2081.67 1482 2071.09 1482 2071.09 1480.69C2071.79 1480.47 2072.29 1480.28 2072.59 1480.12 2072.9 1479.96 2073.15 1479.74 2073.36 1479.45 2073.56 1479.16 2073.72 1478.72 2073.84 1478.12 2073.96 1477.52 2074.02 1476.61 2074.02 1475.4L2074.02 1468.36C2074.02 1465.98 2073.89 1464.16 2073.65 1462.89 2073.41 1461.63 2072.94 1460.69 2072.23 1460.06 2071.52 1459.43 2070.53 1459.12 2069.26 1459.12 2068.55 1459.12 2067.9 1459.25 2067.33 1459.5 2066.76 1459.75 2066.09 1460.2 2065.34 1460.84 2064.59 1461.48 2064.02 1462.15 2063.64 1462.83 2063.25 1463.51 2063.06 1464.23 2063.06 1465L2063.06 1475.29C2063.06 1476.51 2063.09 1477.37 2063.15 1477.89 2063.22 1478.41 2063.34 1478.85 2063.51 1479.2 2063.69 1479.54 2063.97 1479.83 2064.33 1480.05 2064.7 1480.28 2065.27 1480.49 2066.04 1480.69L2066.04 1482 2055.4 1482 2055.4 1480.69C2056.19 1480.47 2056.76 1480.27 2057.1 1480.07 2057.44 1479.87 2057.7 1479.62 2057.89 1479.32 2058.08 1479.01 2058.22 1478.57 2058.3 1478 2058.39 1477.43 2058.44 1476.52 2058.44 1475.29L2058.44 1452.81C2058.44 1451.09 2058.43 1449.89 2058.4 1449.21 2058.37 1448.53 2058.3 1447.95 2058.18 1447.48 2058.07 1447 2057.91 1446.63 2057.7 1446.36 2057.49 1446.1 2057.22 1445.88 2056.87 1445.72 2056.52 1445.56 2055.89 1445.4 2054.97 1445.24L2054.97 1443.84Z" fill="#C00000" fill-rule="evenodd"/><text fill="#000000" fill-opacity="0" font-family="Arial,Arial_MSFontService,sans-serif" font-size="38.4302" x="2054.97" y="1477.2">h</text><path d="M2095.52 1468.07 2096.71 1468.07C2096.69 1468.79 2096.67 1469.43 2096.65 1470 2096.64 1470.56 2096.63 1471.12 2096.62 1471.65 2096.62 1472.18 2096.61 1472.71 2096.61 1473.23L2096.61 1488.07C2096.61 1488.48 2096.63 1488.83 2096.65 1489.12 2096.68 1489.41 2096.72 1489.66 2096.78 1489.86 2096.84 1490.06 2096.92 1490.24 2097.02 1490.38 2097.11 1490.52 2097.23 1490.65 2097.36 1490.75 2097.51 1490.91 2097.72 1491.03 2097.98 1491.11 2098.24 1491.2 2098.57 1491.27 2098.98 1491.33 2099.38 1491.39 2099.87 1491.43 2100.43 1491.46 2101 1491.5 2101.68 1491.52 2102.47 1491.53L2102.47 1493.23 2086.99 1493.23 2086.99 1491.53C2087.75 1491.51 2088.41 1491.48 2088.94 1491.44 2089.47 1491.41 2089.93 1491.37 2090.31 1491.31 2090.68 1491.25 2090.99 1491.18 2091.21 1491.11 2091.44 1491.04 2091.64 1490.95 2091.81 1490.85 2091.99 1490.73 2092.15 1490.6 2092.28 1490.47 2092.41 1490.33 2092.51 1490.16 2092.59 1489.95 2092.67 1489.74 2092.73 1489.49 2092.78 1489.19 2092.82 1488.89 2092.85 1488.52 2092.85 1488.07L2092.85 1474.07C2092.85 1473.56 2092.75 1473.2 2092.55 1473 2092.36 1472.79 2092.08 1472.68 2091.71 1472.68 2091.31 1472.68 2090.71 1472.89 2089.92 1473.31 2089.12 1473.73 2088.09 1474.34 2086.83 1475.16 2086.66 1474.87 2086.5 1474.57 2086.36 1474.27 2086.22 1473.97 2086.07 1473.66 2085.91 1473.35 2087.53 1472.46 2089.12 1471.58 2090.71 1470.7 2092.29 1469.82 2093.89 1468.95 2095.52 1468.07Z" fill="#C00000" fill-rule="evenodd"/><text fill="#000000" fill-opacity="0" font-family="Arial,Arial_MSFontService,sans-serif" font-size="25.1562" x="2085.91" y="1490.09">1</text><path d="M2142.71 1450.37 2153.72 1450.37 2153.72 1454.1 2142.69 1454.1C2140.91 1454.1 2139.48 1454.2 2138.38 1454.39 2137.27 1454.59 2136.36 1454.91 2135.62 1455.35 2134.89 1455.79 2134.22 1456.41 2133.62 1457.21 2133.02 1458.02 2132.55 1459.01 2132.21 1460.18 2131.87 1461.35 2131.66 1462.68 2131.57 1464.17L2153.72 1464.17 2153.72 1467.9 2131.54 1467.9C2131.63 1469.57 2131.87 1471.04 2132.27 1472.33 2132.66 1473.62 2133.26 1474.72 2134.05 1475.62 2134.85 1476.53 2135.88 1477.19 2137.14 1477.62 2138.4 1478.05 2140.14 1478.27 2142.36 1478.27L2153.72 1478.27 2153.72 1482 2142.26 1482C2140.5 1482 2138.98 1481.89 2137.69 1481.68 2136.4 1481.46 2135.24 1481.12 2134.2 1480.63 2133.16 1480.15 2132.18 1479.42 2131.26 1478.44 2130.34 1477.47 2129.59 1476.39 2129.02 1475.21 2128.44 1474.03 2128.01 1472.69 2127.73 1471.21 2127.44 1469.72 2127.3 1468.11 2127.3 1466.37 2127.3 1463.54 2127.58 1461.2 2128.13 1459.35 2128.69 1457.5 2129.62 1455.85 2130.92 1454.41 2132.23 1452.97 2133.8 1451.93 2135.62 1451.31 2137.45 1450.68 2139.81 1450.37 2142.71 1450.37Z" fill="#C00000" fill-rule="evenodd"/><text fill="#000000" fill-opacity="0" font-family="Arial,Arial_MSFontService,sans-serif" font-size="31.6357" x="2127.3" y="1478.05">∈</text><path d="M2217.73 1444.91C2219.12 1444.91 2220.37 1445.29 2221.46 1446.04 2222.55 1446.79 2223.53 1447.96 2224.39 1449.53L2220.38 1451.25C2219.65 1449.77 2218.98 1448.73 2218.38 1448.15 2217.78 1447.57 2217.05 1447.28 2216.19 1447.28 2215.76 1447.28 2215.36 1447.34 2214.99 1447.47 2214.61 1447.59 2214.29 1447.8 2214.02 1448.08 2213.75 1448.37 2213.51 1448.73 2213.29 1449.17 2213.08 1449.61 2212.86 1450.23 2212.65 1451.02 2212.43 1451.82 2212.12 1453.18 2211.71 1455.09L2208.22 1471.21C2207.99 1472.3 2207.8 1473.32 2207.67 1474.27 2207.53 1475.22 2207.47 1475.98 2207.47 1476.55 2207.47 1477.41 2207.65 1478.07 2208.03 1478.52 2208.41 1478.98 2208.99 1479.21 2209.78 1479.21 2210.38 1479.21 2210.95 1479.04 2211.48 1478.71 2212.01 1478.38 2212.95 1477.5 2214.31 1476.07L2215.9 1477.54C2214.57 1479.03 2213.5 1480.07 2212.68 1480.67 2211.85 1481.27 2211.01 1481.72 2210.15 1482 2209.29 1482.29 2208.33 1482.43 2207.28 1482.43 2205.94 1482.43 2204.82 1481.93 2203.92 1480.94 2203.03 1479.95 2202.58 1478.64 2202.58 1477.03 2202.58 1476.44 2202.65 1475.64 2202.78 1474.62 2202.91 1473.6 2203.08 1472.67 2203.28 1471.82L2204.89 1464.36 2192 1464.36 2190.23 1472.6C2189.96 1473.86 2189.62 1474.99 2189.2 1476 2188.79 1477.01 2188.27 1477.92 2187.65 1478.71 2187.02 1479.51 2186.19 1480.22 2185.16 1480.85 2184.13 1481.47 2183.19 1481.89 2182.33 1482.11 2181.47 1482.32 2180.56 1482.43 2179.59 1482.43 2178.23 1482.43 2177.01 1482.05 2175.94 1481.29 2174.86 1480.53 2173.91 1479.37 2173.06 1477.81L2176.72 1475.72C2177.47 1477.2 2178.19 1478.3 2178.89 1479.01 2179.59 1479.71 2180.36 1480.07 2181.2 1480.07 2181.63 1480.07 2182.06 1479.98 2182.49 1479.81 2182.92 1479.64 2183.31 1479.31 2183.66 1478.81 2184.01 1478.3 2184.31 1477.6 2184.57 1476.68 2184.83 1475.77 2185.18 1474.29 2185.61 1472.25L2189.15 1455.15C2189.42 1453.84 2189.8 1452.59 2190.31 1451.39 2190.81 1450.19 2191.29 1449.32 2191.76 1448.78L2191.7 1448.51C2188.73 1448.51 2186.48 1448.65 2184.95 1448.92 2183.42 1449.18 2182.32 1449.64 2181.64 1450.29 2180.97 1450.93 2180.64 1451.86 2180.64 1453.08 2180.64 1453.99 2180.95 1455.1 2181.58 1456.41L2177.44 1458.02C2177.05 1457.38 2176.77 1456.77 2176.6 1456.21 2176.43 1455.64 2176.34 1455.02 2176.34 1454.34 2176.34 1453.71 2176.51 1453.06 2176.84 1452.37 2177.17 1451.68 2177.74 1450.94 2178.54 1450.15 2179.47 1449.24 2180.64 1448.36 2182.03 1447.52 2183.16 1446.84 2184.24 1446.35 2185.26 1446.06 2186.28 1445.76 2187.41 1445.56 2188.64 1445.45 2189.46 1445.38 2190.72 1445.34 2192.4 1445.34L2195.46 1445.34 2196.19 1446.93C2195.86 1447.63 2195.59 1448.41 2195.35 1449.28 2195.12 1450.15 2194.89 1451.1 2194.66 1452.14L2192.72 1461.22 2205.59 1461.22 2206.98 1454.85C2207.29 1453.49 2207.65 1452.31 2208.08 1451.31 2208.51 1450.3 2209.04 1449.41 2209.66 1448.63 2210.27 1447.86 2211.1 1447.15 2212.13 1446.51 2213.16 1445.88 2214.1 1445.45 2214.97 1445.24 2215.84 1445.02 2216.76 1444.91 2217.73 1444.91Z" fill="#C00000" fill-rule="evenodd"/><text fill="#000000" fill-opacity="0" font-family="Arial,Arial_MSFontService,sans-serif" font-size="37.5171" x="2173.06" y="1477.74">ℋ</text><path d="M2232.24 1468.07 2233.43 1468.07C2233.41 1468.79 2233.39 1469.43 2233.37 1470 2233.36 1470.56 2233.35 1471.12 2233.35 1471.65 2233.34 1472.18 2233.34 1472.71 2233.34 1473.23L2233.34 1488.07C2233.34 1488.48 2233.35 1488.83 2233.37 1489.12 2233.4 1489.41 2233.44 1489.66 2233.5 1489.86 2233.56 1490.06 2233.64 1490.24 2233.74 1490.38 2233.83 1490.52 2233.95 1490.65 2234.08 1490.75 2234.23 1490.91 2234.44 1491.03 2234.7 1491.11 2234.96 1491.2 2235.3 1491.27 2235.7 1491.33 2236.1 1491.39 2236.59 1491.43 2237.15 1491.46 2237.72 1491.5 2238.4 1491.52 2239.2 1491.53L2239.2 1493.23 2223.71 1493.23 2223.71 1491.53C2224.48 1491.51 2225.13 1491.48 2225.66 1491.44 2226.19 1491.41 2226.65 1491.37 2227.03 1491.31 2227.4 1491.25 2227.71 1491.18 2227.94 1491.11 2228.16 1491.04 2228.36 1490.95 2228.53 1490.85 2228.71 1490.73 2228.87 1490.6 2229 1490.47 2229.13 1490.33 2229.23 1490.16 2229.31 1489.95 2229.39 1489.74 2229.45 1489.49 2229.5 1489.19 2229.54 1488.89 2229.57 1488.52 2229.57 1488.07L2229.57 1474.07C2229.57 1473.56 2229.47 1473.2 2229.27 1473 2229.08 1472.79 2228.8 1472.68 2228.43 1472.68 2228.03 1472.68 2227.43 1472.89 2226.64 1473.31 2225.84 1473.73 2224.81 1474.34 2223.55 1475.16 2223.38 1474.87 2223.23 1474.57 2223.08 1474.27 2222.94 1473.97 2222.79 1473.66 2222.63 1473.35 2224.25 1472.46 2225.85 1471.58 2227.43 1470.7 2229.01 1469.82 2230.61 1468.95 2232.24 1468.07Z" fill="#C00000" fill-rule="evenodd"/><text fill="#000000" fill-opacity="0" font-family="Arial,Arial_MSFontService,sans-serif" font-size="25.1562" x="2222.63" y="1490.09">1</text><path d="M2003.58 1731.71 2034.15 1731.71 2034.15 1733.03C2032.82 1733.35 2031.97 1733.78 2031.59 1734.33 2031.22 1734.88 2031.03 1736.24 2031.03 1738.43L2031.03 1761.66C2031.03 1763.79 2031.22 1765.14 2031.59 1765.71 2031.97 1766.28 2032.82 1766.73 2034.15 1767.05L2034.15 1768.37 2022.87 1768.37 2022.87 1767.05C2024.14 1766.75 2024.97 1766.33 2025.38 1765.8 2025.78 1765.28 2025.98 1763.89 2025.98 1761.66L2025.98 1734.18 2011.75 1734.18 2011.75 1761.66C2011.75 1763.89 2011.96 1765.28 2012.38 1765.8 2012.8 1766.33 2013.64 1766.75 2014.89 1767.05L2014.89 1768.37 2003.58 1768.37 2003.58 1767.05C2004.89 1766.73 2005.74 1766.3 2006.14 1765.76 2006.53 1765.23 2006.73 1763.86 2006.73 1761.66L2006.73 1738.43C2006.73 1736.19 2006.52 1734.8 2006.09 1734.28 2005.67 1733.75 2004.84 1733.33 2003.58 1733.03Z" fill="#C00000" fill-rule="evenodd"/><text fill="#000000" fill-opacity="0" font-family="Arial,Arial_MSFontService,sans-serif" font-size="36.6577" x="2003.58" y="1763.79">Π</text><path d="M2070.05 1752.63C2071.07 1752.63 2071.98 1752.9 2072.77 1753.45 2073.56 1753.99 2074.27 1754.84 2074.9 1755.99L2071.99 1757.24C2071.45 1756.15 2070.97 1755.4 2070.53 1754.98 2070.1 1754.56 2069.57 1754.34 2068.94 1754.34 2068.63 1754.34 2068.34 1754.39 2068.06 1754.48 2067.79 1754.57 2067.55 1754.72 2067.36 1754.93 2067.16 1755.14 2066.99 1755.4 2066.83 1755.72 2066.68 1756.04 2066.52 1756.49 2066.36 1757.07 2066.21 1757.65 2065.98 1758.64 2065.68 1760.03L2063.14 1771.75C2062.97 1772.54 2062.84 1773.28 2062.74 1773.97 2062.64 1774.66 2062.59 1775.22 2062.59 1775.63 2062.59 1776.26 2062.73 1776.74 2063 1777.07 2063.28 1777.4 2063.7 1777.57 2064.27 1777.57 2064.72 1777.57 2065.13 1777.45 2065.51 1777.21 2065.9 1776.97 2066.58 1776.32 2067.57 1775.28L2068.73 1776.36C2067.76 1777.44 2066.98 1778.2 2066.38 1778.63 2065.78 1779.07 2065.17 1779.39 2064.55 1779.6 2063.92 1779.81 2063.23 1779.91 2062.46 1779.91 2061.48 1779.91 2060.67 1779.55 2060.02 1778.83 2059.36 1778.1 2059.04 1777.16 2059.04 1775.99 2059.04 1775.56 2059.09 1774.97 2059.19 1774.23 2059.28 1773.49 2059.4 1772.81 2059.55 1772.2L2060.72 1766.77 2051.34 1766.77 2050.05 1772.76C2049.86 1773.67 2049.61 1774.5 2049.31 1775.23 2049.01 1775.97 2048.64 1776.63 2048.18 1777.21 2047.72 1777.79 2047.12 1778.3 2046.37 1778.76 2045.62 1779.21 2044.94 1779.52 2044.31 1779.68 2043.69 1779.83 2043.02 1779.91 2042.32 1779.91 2041.33 1779.91 2040.45 1779.63 2039.66 1779.08 2038.88 1778.53 2038.19 1777.68 2037.57 1776.55L2040.23 1775.03C2040.78 1776.11 2041.3 1776.91 2041.81 1777.42 2042.32 1777.94 2042.88 1778.19 2043.49 1778.19 2043.8 1778.19 2044.12 1778.13 2044.43 1778.01 2044.74 1777.88 2045.03 1777.64 2045.28 1777.27 2045.53 1776.91 2045.75 1776.4 2045.94 1775.73 2046.13 1775.07 2046.38 1773.99 2046.7 1772.51L2049.27 1760.07C2049.47 1759.12 2049.75 1758.21 2050.11 1757.33 2050.48 1756.46 2050.83 1755.83 2051.17 1755.44L2051.13 1755.24C2048.97 1755.24 2047.33 1755.34 2046.22 1755.54 2045.1 1755.73 2044.3 1756.06 2043.81 1756.53 2043.33 1757 2043.08 1757.68 2043.08 1758.56 2043.08 1759.23 2043.31 1760.03 2043.77 1760.99L2040.76 1762.16C2040.47 1761.69 2040.27 1761.25 2040.14 1760.84 2040.02 1760.43 2039.96 1759.98 2039.96 1759.48 2039.96 1759.03 2040.08 1758.55 2040.32 1758.05 2040.56 1757.54 2040.97 1757.01 2041.56 1756.43 2042.24 1755.77 2043.08 1755.13 2044.1 1754.52 2044.92 1754.03 2045.7 1753.67 2046.44 1753.46 2047.18 1753.24 2048 1753.09 2048.9 1753.02 2049.5 1752.96 2050.41 1752.94 2051.64 1752.94L2053.86 1752.94 2054.39 1754.09C2054.16 1754.6 2053.95 1755.17 2053.78 1755.8 2053.62 1756.43 2053.45 1757.12 2053.28 1757.88L2051.87 1764.48 2061.23 1764.48 2062.24 1759.85C2062.46 1758.86 2062.73 1758 2063.04 1757.27 2063.36 1756.55 2063.74 1755.9 2064.19 1755.33 2064.63 1754.76 2065.23 1754.25 2065.98 1753.79 2066.73 1753.33 2067.42 1753.02 2068.05 1752.86 2068.68 1752.7 2069.35 1752.63 2070.05 1752.63Z" fill="#C00000" fill-rule="evenodd"/><text fill="#000000" fill-opacity="0" font-family="Arial,Arial_MSFontService,sans-serif" font-size="27.2852" x="2037.57" y="1776.5">ℋ</text><path d="M2082.87 1767.98 2083.94 1767.98C2083.91 1768.2 2083.89 1768.75 2083.87 1769.62 2083.85 1770.49 2083.84 1771.37 2083.84 1772.25L2083.84 1783.59C2083.84 1784.27 2083.9 1784.75 2084.02 1785.04 2084.14 1785.33 2084.32 1785.56 2084.58 1785.73 2084.84 1785.89 2085.28 1786.02 2085.9 1786.11 2086.53 1786.2 2087.51 1786.26 2088.87 1786.28L2088.87 1787.78 2075.51 1787.78 2075.51 1786.28C2076.82 1786.25 2077.78 1786.19 2078.39 1786.1 2078.99 1786.02 2079.44 1785.89 2079.72 1785.73 2080.01 1785.56 2080.22 1785.33 2080.35 1785.04 2080.49 1784.75 2080.55 1784.27 2080.55 1783.59L2080.55 1772.91C2080.55 1772.52 2080.47 1772.24 2080.32 1772.07 2080.16 1771.9 2079.94 1771.81 2079.65 1771.81 2079.33 1771.81 2078.82 1771.99 2078.14 1772.34 2077.45 1772.68 2076.57 1773.2 2075.49 1773.87L2074.64 1772.25Z" fill="#C00000" fill-rule="evenodd"/><text fill="#000000" fill-opacity="0" font-family="Arial,Arial_MSFontService,sans-serif" font-size="19.8032" x="2074.64" y="1785.3">1</text><path d="M2318.5 1419.5 2318.5 1720.65" stroke="#C00000" stroke-width="4.58333" stroke-miterlimit="8" fill="none" fill-rule="evenodd"/><path d="M2301 1402C2301 1392.61 2308.39 1385 2317.5 1385 2326.61 1385 2334 1392.61 2334 1402 2334 1411.39 2326.61 1419 2317.5 1419 2308.39 1419 2301 1411.39 2301 1402Z" fill="#C00000" fill-rule="evenodd"/><path d="M2297.12 1735.02 2327.68 1735.02 2327.68 1736.34C2326.35 1736.66 2325.5 1737.1 2325.13 1737.64 2324.75 1738.19 2324.56 1739.55 2324.56 1741.74L2324.56 1764.97C2324.56 1767.1 2324.75 1768.45 2325.13 1769.02 2325.5 1769.6 2326.35 1770.04 2327.68 1770.37L2327.68 1771.68 2316.4 1771.68 2316.4 1770.37C2317.67 1770.06 2318.51 1769.65 2318.91 1769.12 2319.31 1768.59 2319.51 1767.21 2319.51 1764.97L2319.51 1737.49 2305.28 1737.49 2305.28 1764.97C2305.28 1767.21 2305.49 1768.59 2305.91 1769.12 2306.33 1769.65 2307.17 1770.06 2308.42 1770.37L2308.42 1771.68 2297.12 1771.68 2297.12 1770.37C2298.42 1770.04 2299.27 1769.61 2299.67 1769.08 2300.06 1768.54 2300.26 1767.17 2300.26 1764.97L2300.26 1741.74C2300.26 1739.5 2300.05 1738.12 2299.63 1737.59 2299.21 1737.06 2298.37 1736.64 2297.12 1736.34Z" fill="#C00000" fill-rule="evenodd"/><text fill="#000000" fill-opacity="0" font-family="Arial,Arial_MSFontService,sans-serif" font-size="36.6577" x="2297.12" y="1767.1">Π</text><path d="M2363.59 1755.94C2364.6 1755.94 2365.51 1756.21 2366.3 1756.76 2367.1 1757.31 2367.81 1758.15 2368.43 1759.3L2365.52 1760.55C2364.99 1759.47 2364.5 1758.72 2364.07 1758.29 2363.63 1757.87 2363.1 1757.66 2362.47 1757.66 2362.16 1757.66 2361.87 1757.7 2361.59 1757.79 2361.32 1757.89 2361.09 1758.03 2360.89 1758.24 2360.7 1758.45 2360.52 1758.72 2360.36 1759.03 2360.21 1759.35 2360.05 1759.8 2359.9 1760.38 2359.74 1760.96 2359.51 1761.95 2359.21 1763.34L2356.67 1775.06C2356.5 1775.85 2356.37 1776.6 2356.27 1777.29 2356.17 1777.98 2356.13 1778.53 2356.13 1778.95 2356.13 1779.57 2356.26 1780.05 2356.54 1780.38 2356.81 1780.71 2357.23 1780.88 2357.81 1780.88 2358.25 1780.88 2358.66 1780.76 2359.05 1780.52 2359.43 1780.28 2360.12 1779.64 2361.11 1778.59L2362.26 1779.67C2361.3 1780.75 2360.51 1781.51 2359.92 1781.94 2359.32 1782.38 2358.7 1782.7 2358.08 1782.91 2357.45 1783.12 2356.76 1783.22 2355.99 1783.22 2355.01 1783.22 2354.2 1782.86 2353.55 1782.14 2352.9 1781.42 2352.57 1780.47 2352.57 1779.3 2352.57 1778.87 2352.62 1778.28 2352.72 1777.54 2352.82 1776.8 2352.94 1776.12 2353.08 1775.51L2354.25 1770.08 2344.88 1770.08 2343.59 1776.08C2343.39 1776.99 2343.14 1777.81 2342.84 1778.55 2342.55 1779.28 2342.17 1779.94 2341.71 1780.52 2341.26 1781.1 2340.65 1781.62 2339.91 1782.07 2339.16 1782.53 2338.47 1782.83 2337.84 1782.99 2337.22 1783.15 2336.56 1783.22 2335.85 1783.22 2334.86 1783.22 2333.98 1782.95 2333.2 1782.39 2332.42 1781.84 2331.72 1781 2331.11 1779.86L2333.76 1778.34C2334.31 1779.42 2334.84 1780.22 2335.34 1780.73 2335.85 1781.25 2336.41 1781.5 2337.02 1781.5 2337.34 1781.5 2337.65 1781.44 2337.96 1781.32 2338.27 1781.2 2338.56 1780.95 2338.81 1780.59 2339.07 1780.22 2339.29 1779.71 2339.48 1779.04 2339.66 1778.38 2339.92 1777.31 2340.23 1775.82L2342.81 1763.38C2343 1762.43 2343.28 1761.52 2343.65 1760.65 2344.01 1759.77 2344.36 1759.14 2344.7 1758.75L2344.66 1758.56C2342.5 1758.56 2340.86 1758.65 2339.75 1758.85 2338.64 1759.04 2337.83 1759.38 2337.35 1759.84 2336.86 1760.31 2336.61 1760.99 2336.61 1761.88 2336.61 1762.54 2336.84 1763.35 2337.3 1764.3L2334.29 1765.47C2334 1765 2333.8 1764.56 2333.67 1764.15 2333.55 1763.74 2333.49 1763.29 2333.49 1762.79 2333.49 1762.34 2333.61 1761.86 2333.85 1761.36 2334.09 1760.86 2334.5 1760.32 2335.09 1759.75 2335.77 1759.08 2336.61 1758.44 2337.63 1757.83 2338.45 1757.34 2339.23 1756.98 2339.97 1756.77 2340.72 1756.55 2341.54 1756.41 2342.43 1756.33 2343.03 1756.28 2343.95 1756.25 2345.17 1756.25L2347.4 1756.25 2347.92 1757.4C2347.69 1757.91 2347.49 1758.48 2347.32 1759.11 2347.15 1759.74 2346.98 1760.44 2346.81 1761.19L2345.4 1767.79 2354.76 1767.79 2355.77 1763.16C2356 1762.18 2356.26 1761.32 2356.58 1760.59 2356.89 1759.86 2357.27 1759.21 2357.72 1758.64 2358.17 1758.08 2358.77 1757.56 2359.51 1757.1 2360.26 1756.64 2360.95 1756.33 2361.58 1756.17 2362.22 1756.02 2362.88 1755.94 2363.59 1755.94Z" fill="#C00000" fill-rule="evenodd"/><text fill="#000000" fill-opacity="0" font-family="Arial,Arial_MSFontService,sans-serif" font-size="27.2852" x="2331.11" y="1779.81">ℋ</text><path d="M2375.02 1771.14C2376.25 1771.14 2377.28 1771.28 2378.09 1771.55 2378.9 1771.82 2379.55 1772.16 2380.03 1772.59 2380.51 1773.02 2380.85 1773.53 2381.05 1774.11 2381.24 1774.69 2381.34 1775.29 2381.34 1775.9 2381.34 1776.67 2381.18 1777.39 2380.87 1778.05 2380.56 1778.71 2380.05 1779.43 2379.34 1780.21 2378.63 1780.99 2377.36 1782.2 2375.54 1783.86 2373.59 1785.62 2372.18 1787.14 2371.3 1788.43L2377.11 1788.43C2377.66 1788.43 2378.08 1788.41 2378.37 1788.35 2378.66 1788.3 2378.89 1788.22 2379.06 1788.1 2379.24 1787.99 2379.38 1787.85 2379.5 1787.68 2379.62 1787.5 2379.79 1787.13 2380.03 1786.55L2381.66 1786.55 2381.32 1791.09 2367.53 1791.09 2367.53 1790.21C2368.06 1789.06 2368.79 1787.93 2369.7 1786.81 2370.62 1785.7 2371.68 1784.56 2372.89 1783.37 2374.35 1781.98 2375.39 1780.92 2376 1780.22 2376.61 1779.51 2377.07 1778.83 2377.36 1778.19 2377.66 1777.55 2377.81 1776.91 2377.81 1776.27 2377.81 1775.2 2377.51 1774.37 2376.9 1773.75 2376.3 1773.14 2375.44 1772.84 2374.31 1772.84 2373.33 1772.84 2372.5 1773.09 2371.82 1773.61 2371.14 1774.12 2370.62 1774.89 2370.27 1775.9L2368.03 1775.9 2368.03 1772.72C2369.42 1772.15 2370.71 1771.75 2371.89 1771.51 2373.06 1771.26 2374.11 1771.14 2375.02 1771.14Z" fill="#C00000" fill-rule="evenodd"/><text fill="#000000" fill-opacity="0" font-family="Arial,Arial_MSFontService,sans-serif" font-size="19.9482" x="2367.53" y="1788.6">2</text><path d="M2359.6 1385.16 2361.21 1385.16 2361.21 1402.13 2361.32 1402.16C2362.71 1400.75 2363.82 1399.76 2364.63 1399.19 2365.45 1398.63 2366.25 1398.2 2367.05 1397.92 2367.85 1397.63 2368.7 1397.49 2369.61 1397.49 2370.6 1397.49 2371.48 1397.6 2372.25 1397.84 2373.02 1398.07 2373.69 1398.42 2374.27 1398.9 2374.85 1399.37 2375.33 1399.95 2375.7 1400.64 2376.06 1401.33 2376.34 1402.16 2376.52 1403.11 2376.69 1404.07 2376.78 1405.28 2376.78 1406.75L2376.78 1416.88C2376.78 1418.43 2376.85 1419.49 2376.99 1420.06 2377.12 1420.62 2377.36 1421.06 2377.71 1421.37 2378.06 1421.69 2378.76 1421.99 2379.82 1422.27L2379.82 1423.59 2369.24 1423.59 2369.24 1422.27C2369.94 1422.06 2370.44 1421.87 2370.74 1421.71 2371.05 1421.55 2371.3 1421.33 2371.51 1421.04 2371.71 1420.75 2371.87 1420.31 2371.99 1419.71 2372.11 1419.11 2372.16 1418.2 2372.16 1416.98L2372.16 1409.95C2372.16 1407.57 2372.04 1405.74 2371.8 1404.48 2371.56 1403.22 2371.09 1402.28 2370.38 1401.65 2369.67 1401.02 2368.68 1400.71 2367.41 1400.71 2366.7 1400.71 2366.05 1400.83 2365.48 1401.09 2364.9 1401.34 2364.24 1401.78 2363.49 1402.43 2362.74 1403.07 2362.17 1403.74 2361.79 1404.42 2361.4 1405.1 2361.21 1405.82 2361.21 1406.59L2361.21 1416.88C2361.21 1418.09 2361.24 1418.96 2361.3 1419.48 2361.36 1420 2361.49 1420.43 2361.66 1420.78 2361.84 1421.13 2362.12 1421.42 2362.48 1421.64 2362.85 1421.87 2363.42 1422.08 2364.19 1422.27L2364.19 1423.59 2353.55 1423.59 2353.55 1422.27C2354.34 1422.06 2354.91 1421.85 2355.25 1421.66 2355.59 1421.46 2355.85 1421.21 2356.04 1420.9 2356.23 1420.6 2356.36 1420.16 2356.45 1419.59 2356.54 1419.02 2356.59 1418.11 2356.59 1416.88L2356.59 1394.4C2356.59 1392.68 2356.58 1391.48 2356.55 1390.8 2356.52 1390.12 2356.45 1389.54 2356.33 1389.07 2356.22 1388.59 2356.06 1388.22 2355.85 1387.95 2355.64 1387.68 2355.37 1387.47 2355.02 1387.31 2354.67 1387.15 2354.04 1386.99 2353.12 1386.83L2353.12 1385.43Z" fill="#C00000" fill-rule="evenodd"/><text fill="#000000" fill-opacity="0" font-family="Arial,Arial_MSFontService,sans-serif" font-size="38.4302" x="2353.12" y="1418.79">h</text><path d="M2393.43 1409.53C2394.78 1409.53 2395.94 1409.68 2396.9 1409.99 2397.85 1410.29 2398.63 1410.7 2399.23 1411.23 2399.83 1411.75 2400.26 1412.37 2400.53 1413.1 2400.8 1413.83 2400.93 1414.62 2400.93 1415.46 2400.93 1415.97 2400.89 1416.44 2400.82 1416.88 2400.75 1417.32 2400.63 1417.75 2400.45 1418.17 2400.28 1418.59 2400.04 1419.02 2399.76 1419.45 2399.47 1419.88 2399.11 1420.33 2398.68 1420.82 2398.36 1421.23 2397.94 1421.71 2397.41 1422.26 2396.89 1422.81 2396.32 1423.39 2395.71 1424.02 2395.09 1424.64 2394.44 1425.29 2393.76 1425.97 2393.09 1426.65 2392.43 1427.32 2391.79 1427.98 2391.15 1428.65 2390.57 1429.29 2390.03 1429.92 2389.5 1430.54 2389.06 1431.11 2388.72 1431.64L2395.95 1431.64C2396.56 1431.64 2397.05 1431.61 2397.41 1431.57 2397.78 1431.52 2398.08 1431.42 2398.32 1431.26 2398.56 1431.11 2398.77 1430.87 2398.94 1430.55 2399.11 1430.23 2399.3 1429.79 2399.52 1429.23L2401.34 1429.23C2401.28 1430.16 2401.21 1431.09 2401.15 1432.03 2401.1 1432.96 2401.03 1433.9 2400.97 1434.82L2384.43 1434.82 2384.43 1433.8C2384.74 1433.1 2385.1 1432.41 2385.52 1431.72 2385.94 1431.04 2386.41 1430.35 2386.93 1429.64 2387.45 1428.94 2388.04 1428.21 2388.7 1427.47 2389.37 1426.72 2390.1 1425.94 2390.91 1425.13 2392.13 1423.91 2393.13 1422.86 2393.9 1422 2394.67 1421.13 2395.27 1420.36 2395.72 1419.68 2396.16 1419.01 2396.46 1418.38 2396.62 1417.81 2396.79 1417.23 2396.87 1416.62 2396.87 1415.97 2396.87 1415.31 2396.77 1414.7 2396.58 1414.14 2396.4 1413.58 2396.13 1413.1 2395.77 1412.71 2395.42 1412.32 2394.98 1412.01 2394.44 1411.79 2393.9 1411.57 2393.27 1411.46 2392.57 1411.46 2391.36 1411.46 2390.34 1411.79 2389.52 1412.45 2388.7 1413.1 2388.07 1414.06 2387.61 1415.31L2385.05 1415.31 2385.05 1411.5C2386.72 1410.81 2388.25 1410.31 2389.65 1410 2391.05 1409.68 2392.31 1409.53 2393.43 1409.53Z" fill="#C00000" fill-rule="evenodd"/><text fill="#000000" fill-opacity="0" font-family="Arial,Arial_MSFontService,sans-serif" font-size="25.293" x="2384.43" y="1431.66">2</text><path d="M2442.15 1391.95 2453.16 1391.95 2453.16 1395.69 2442.12 1395.69C2440.35 1395.69 2438.91 1395.79 2437.81 1395.98 2436.71 1396.18 2435.79 1396.5 2435.06 1396.94 2434.32 1397.37 2433.66 1398 2433.06 1398.8 2432.46 1399.61 2431.99 1400.6 2431.65 1401.77 2431.31 1402.94 2431.09 1404.27 2431 1405.76L2453.16 1405.76 2453.16 1409.49 2430.97 1409.49C2431.06 1411.16 2431.31 1412.63 2431.7 1413.92 2432.09 1415.21 2432.69 1416.31 2433.48 1417.21 2434.28 1418.12 2435.31 1418.78 2436.57 1419.21 2437.84 1419.64 2439.58 1419.86 2441.8 1419.86L2453.16 1419.86 2453.16 1423.59 2441.69 1423.59C2439.93 1423.59 2438.41 1423.48 2437.12 1423.27 2435.83 1423.05 2434.67 1422.7 2433.63 1422.22 2432.59 1421.74 2431.61 1421.01 2430.69 1420.03 2429.77 1419.06 2429.02 1417.98 2428.45 1416.8 2427.88 1415.61 2427.45 1414.28 2427.16 1412.79 2426.87 1411.31 2426.73 1409.7 2426.73 1407.96 2426.73 1405.13 2427.01 1402.79 2427.56 1400.94 2428.12 1399.08 2429.05 1397.44 2430.36 1396 2431.66 1394.56 2433.23 1393.52 2435.06 1392.89 2436.88 1392.27 2439.25 1391.95 2442.15 1391.95Z" fill="#C00000" fill-rule="evenodd"/><text fill="#000000" fill-opacity="0" font-family="Arial,Arial_MSFontService,sans-serif" font-size="31.6357" x="2426.73" y="1419.64">∈</text><path d="M2517.16 1386.5C2518.55 1386.5 2519.8 1386.88 2520.89 1387.63 2521.98 1388.38 2522.96 1389.55 2523.82 1391.12L2519.82 1392.84C2519.08 1391.35 2518.42 1390.32 2517.82 1389.74 2517.22 1389.16 2516.49 1388.87 2515.63 1388.87 2515.2 1388.87 2514.79 1388.93 2514.42 1389.05 2514.04 1389.18 2513.72 1389.39 2513.45 1389.67 2513.18 1389.96 2512.94 1390.32 2512.73 1390.76 2512.51 1391.2 2512.3 1391.82 2512.08 1392.61 2511.87 1393.41 2511.55 1394.77 2511.14 1396.68L2507.65 1412.79C2507.42 1413.89 2507.23 1414.91 2507.1 1415.86 2506.97 1416.8 2506.9 1417.57 2506.9 1418.14 2506.9 1419 2507.09 1419.66 2507.46 1420.11 2507.84 1420.57 2508.42 1420.8 2509.21 1420.8 2509.82 1420.8 2510.39 1420.63 2510.91 1420.3 2511.44 1419.97 2512.39 1419.09 2513.75 1417.66L2515.33 1419.13C2514.01 1420.62 2512.93 1421.66 2512.11 1422.26 2511.29 1422.86 2510.44 1423.3 2509.58 1423.59 2508.73 1423.88 2507.77 1424.02 2506.71 1424.02 2505.37 1424.02 2504.25 1423.52 2503.35 1422.53 2502.46 1421.54 2502.01 1420.23 2502.01 1418.62 2502.01 1418.03 2502.08 1417.23 2502.21 1416.21 2502.35 1415.18 2502.51 1414.25 2502.71 1413.41L2504.32 1405.95 2491.43 1405.95 2489.66 1414.19C2489.39 1415.44 2489.05 1416.58 2488.64 1417.59 2488.23 1418.6 2487.71 1419.5 2487.08 1420.3 2486.45 1421.1 2485.62 1421.81 2484.6 1422.44 2483.57 1423.06 2482.62 1423.48 2481.76 1423.7 2480.9 1423.91 2479.99 1424.02 2479.02 1424.02 2477.66 1424.02 2476.44 1423.64 2475.37 1422.88 2474.3 1422.12 2473.34 1420.96 2472.5 1419.4L2476.15 1417.31C2476.9 1418.79 2477.63 1419.89 2478.32 1420.6 2479.02 1421.3 2479.79 1421.66 2480.63 1421.66 2481.06 1421.66 2481.49 1421.57 2481.92 1421.4 2482.35 1421.23 2482.74 1420.9 2483.09 1420.39 2483.44 1419.89 2483.75 1419.19 2484 1418.27 2484.26 1417.36 2484.61 1415.88 2485.04 1413.84L2488.58 1396.73C2488.85 1395.43 2489.24 1394.17 2489.74 1392.98 2490.24 1391.78 2490.72 1390.91 2491.19 1390.37L2491.13 1390.1C2488.16 1390.1 2485.91 1390.24 2484.38 1390.5 2482.85 1390.77 2481.75 1391.23 2481.08 1391.87 2480.41 1392.52 2480.07 1393.45 2480.07 1394.67 2480.07 1395.58 2480.38 1396.69 2481.01 1398L2476.87 1399.61C2476.48 1398.96 2476.2 1398.36 2476.03 1397.8 2475.86 1397.23 2475.77 1396.61 2475.77 1395.93 2475.77 1395.3 2475.94 1394.64 2476.27 1393.96 2476.6 1393.27 2477.17 1392.53 2477.98 1391.74 2478.91 1390.83 2480.07 1389.95 2481.47 1389.11 2482.59 1388.43 2483.67 1387.94 2484.69 1387.64 2485.71 1387.35 2486.84 1387.15 2488.07 1387.04 2488.9 1386.97 2490.15 1386.93 2491.83 1386.93L2494.89 1386.93 2495.62 1388.52C2495.3 1389.22 2495.02 1390 2494.79 1390.87 2494.55 1391.74 2494.32 1392.69 2494.09 1393.73L2492.16 1402.8 2505.02 1402.8 2506.42 1396.44C2506.72 1395.08 2507.09 1393.9 2507.52 1392.89 2507.95 1391.89 2508.47 1391 2509.09 1390.22 2509.71 1389.44 2510.53 1388.74 2511.56 1388.1 2512.59 1387.47 2513.54 1387.04 2514.41 1386.83 2515.27 1386.61 2516.19 1386.5 2517.16 1386.5Z" fill="#C00000" fill-rule="evenodd"/><text fill="#000000" fill-opacity="0" font-family="Arial,Arial_MSFontService,sans-serif" font-size="37.5171" x="2472.5" y="1419.33">ℋ</text><path d="M2531.43 1409.53C2532.79 1409.53 2533.94 1409.68 2534.9 1409.99 2535.86 1410.29 2536.64 1410.7 2537.24 1411.23 2537.83 1411.75 2538.27 1412.37 2538.53 1413.1 2538.8 1413.83 2538.93 1414.62 2538.93 1415.46 2538.93 1415.97 2538.9 1416.44 2538.83 1416.88 2538.76 1417.32 2538.63 1417.75 2538.46 1418.17 2538.28 1418.59 2538.05 1419.02 2537.76 1419.45 2537.48 1419.88 2537.12 1420.33 2536.69 1420.82 2536.36 1421.23 2535.94 1421.71 2535.42 1422.26 2534.9 1422.81 2534.33 1423.39 2533.71 1424.02 2533.09 1424.64 2532.44 1425.29 2531.77 1425.97 2531.09 1426.65 2530.43 1427.32 2529.79 1427.98 2529.16 1428.65 2528.57 1429.29 2528.04 1429.92 2527.5 1430.54 2527.07 1431.11 2526.73 1431.64L2533.95 1431.64C2534.57 1431.64 2535.05 1431.61 2535.42 1431.57 2535.78 1431.52 2536.09 1431.42 2536.33 1431.26 2536.57 1431.11 2536.77 1430.87 2536.94 1430.55 2537.11 1430.23 2537.31 1429.79 2537.53 1429.23L2539.34 1429.23C2539.28 1430.16 2539.22 1431.09 2539.16 1432.03 2539.1 1432.96 2539.04 1433.9 2538.97 1434.82L2522.43 1434.82 2522.43 1433.8C2522.74 1433.1 2523.11 1432.41 2523.52 1431.72 2523.94 1431.04 2524.41 1430.35 2524.93 1429.64 2525.45 1428.94 2526.04 1428.21 2526.71 1427.47 2527.37 1426.72 2528.11 1425.94 2528.91 1425.13 2530.14 1423.91 2531.13 1422.86 2531.9 1422 2532.67 1421.13 2533.28 1420.36 2533.72 1419.68 2534.16 1419.01 2534.46 1418.38 2534.63 1417.81 2534.79 1417.23 2534.87 1416.62 2534.87 1415.97 2534.87 1415.31 2534.78 1414.7 2534.59 1414.14 2534.4 1413.58 2534.13 1413.1 2533.78 1412.71 2533.43 1412.32 2532.98 1412.01 2532.44 1411.79 2531.9 1411.57 2531.28 1411.46 2530.57 1411.46 2529.36 1411.46 2528.35 1411.79 2527.53 1412.45 2526.71 1413.1 2526.07 1414.06 2525.61 1415.31L2523.06 1415.31 2523.06 1411.5C2524.72 1410.81 2526.26 1410.31 2527.66 1410 2529.05 1409.68 2530.31 1409.53 2531.43 1409.53Z" fill="#C00000" fill-rule="evenodd"/><text fill="#000000" fill-opacity="0" font-family="Arial,Arial_MSFontService,sans-serif" font-size="25.293" x="2522.43" y="1431.66">2</text><path d="M0 0 1.19564 451.539" stroke="#C00000" stroke-width="4.58333" stroke-miterlimit="8" fill="none" fill-rule="evenodd" transform="matrix(-1 0 0 1 1473.7 1270.5)"/><path d="M1456 1252.5C1456 1242.84 1463.39 1235 1472.5 1235 1481.61 1235 1489 1242.84 1489 1252.5 1489 1262.17 1481.61 1270 1472.5 1270 1463.39 1270 1456 1262.17 1456 1252.5Z" fill="#C00000" fill-rule="evenodd"/><path d="M1446.77 1731.71 1477.33 1731.71 1477.33 1733.03C1476.01 1733.35 1475.16 1733.78 1474.78 1734.33 1474.41 1734.88 1474.22 1736.24 1474.22 1738.43L1474.22 1761.66C1474.22 1763.79 1474.41 1765.14 1474.78 1765.71 1475.16 1766.28 1476.01 1766.73 1477.33 1767.05L1477.33 1768.37 1466.06 1768.37 1466.06 1767.05C1467.33 1766.75 1468.16 1766.33 1468.57 1765.8 1468.97 1765.28 1469.17 1763.89 1469.17 1761.66L1469.17 1734.18 1454.94 1734.18 1454.94 1761.66C1454.94 1763.89 1455.15 1765.28 1455.57 1765.8 1455.99 1766.33 1456.83 1766.75 1458.08 1767.05L1458.08 1768.37 1446.77 1768.37 1446.77 1767.05C1448.08 1766.73 1448.93 1766.3 1449.32 1765.76 1449.72 1765.23 1449.92 1763.86 1449.92 1761.66L1449.92 1738.43C1449.92 1736.19 1449.7 1734.8 1449.28 1734.28 1448.86 1733.75 1448.03 1733.33 1446.77 1733.03Z" fill="#C00000" fill-rule="evenodd"/><text fill="#000000" fill-opacity="0" font-family="Arial,Arial_MSFontService,sans-serif" font-size="36.6577" x="1446.77" y="1763.79">Π</text><path d="M1513.24 1752.63C1514.26 1752.63 1515.16 1752.9 1515.96 1753.45 1516.75 1753.99 1517.46 1754.84 1518.09 1755.99L1515.18 1757.24C1514.64 1756.15 1514.16 1755.4 1513.72 1754.98 1513.29 1754.56 1512.76 1754.34 1512.13 1754.34 1511.82 1754.34 1511.52 1754.39 1511.25 1754.48 1510.98 1754.57 1510.74 1754.72 1510.55 1754.93 1510.35 1755.14 1510.18 1755.4 1510.02 1755.72 1509.86 1756.04 1509.71 1756.49 1509.55 1757.07 1509.4 1757.65 1509.17 1758.64 1508.87 1760.03L1506.33 1771.75C1506.16 1772.54 1506.03 1773.28 1505.93 1773.97 1505.83 1774.66 1505.78 1775.22 1505.78 1775.63 1505.78 1776.26 1505.92 1776.74 1506.19 1777.07 1506.47 1777.4 1506.89 1777.57 1507.46 1777.57 1507.91 1777.57 1508.32 1777.45 1508.7 1777.21 1509.09 1776.97 1509.77 1776.32 1510.76 1775.28L1511.92 1776.36C1510.95 1777.44 1510.17 1778.2 1509.57 1778.63 1508.97 1779.07 1508.36 1779.39 1507.74 1779.6 1507.11 1779.81 1506.41 1779.91 1505.65 1779.91 1504.67 1779.91 1503.86 1779.55 1503.2 1778.83 1502.55 1778.1 1502.23 1777.16 1502.23 1775.99 1502.23 1775.56 1502.28 1774.97 1502.37 1774.23 1502.47 1773.49 1502.59 1772.81 1502.74 1772.2L1503.91 1766.77 1494.53 1766.77 1493.24 1772.76C1493.05 1773.67 1492.8 1774.5 1492.5 1775.23 1492.2 1775.97 1491.82 1776.63 1491.37 1777.21 1490.91 1777.79 1490.31 1778.3 1489.56 1778.76 1488.81 1779.21 1488.13 1779.52 1487.5 1779.68 1486.88 1779.83 1486.21 1779.91 1485.51 1779.91 1484.52 1779.91 1483.63 1779.63 1482.85 1779.08 1482.07 1778.53 1481.38 1777.68 1480.76 1776.55L1483.42 1775.03C1483.97 1776.11 1484.49 1776.91 1485 1777.42 1485.51 1777.94 1486.07 1778.19 1486.68 1778.19 1486.99 1778.19 1487.31 1778.13 1487.62 1778.01 1487.93 1777.88 1488.21 1777.64 1488.47 1777.27 1488.72 1776.91 1488.94 1776.4 1489.13 1775.73 1489.32 1775.07 1489.57 1773.99 1489.88 1772.51L1492.46 1760.07C1492.66 1759.12 1492.94 1758.21 1493.3 1757.33 1493.67 1756.46 1494.02 1755.83 1494.36 1755.44L1494.32 1755.24C1492.16 1755.24 1490.52 1755.34 1489.41 1755.54 1488.29 1755.73 1487.49 1756.06 1487 1756.53 1486.52 1757 1486.27 1757.68 1486.27 1758.56 1486.27 1759.23 1486.5 1760.03 1486.95 1760.99L1483.95 1762.16C1483.66 1761.69 1483.46 1761.25 1483.33 1760.84 1483.21 1760.43 1483.15 1759.98 1483.15 1759.48 1483.15 1759.03 1483.27 1758.55 1483.51 1758.05 1483.75 1757.54 1484.16 1757.01 1484.75 1756.43 1485.42 1755.77 1486.27 1755.13 1487.29 1754.52 1488.11 1754.03 1488.89 1753.67 1489.63 1753.46 1490.37 1753.24 1491.19 1753.09 1492.09 1753.02 1492.69 1752.96 1493.6 1752.94 1494.83 1752.94L1497.05 1752.94 1497.58 1754.09C1497.35 1754.6 1497.14 1755.17 1496.97 1755.8 1496.8 1756.43 1496.64 1757.12 1496.47 1757.88L1495.06 1764.48 1504.42 1764.48 1505.43 1759.85C1505.65 1758.86 1505.92 1758 1506.23 1757.27 1506.54 1756.55 1506.93 1755.9 1507.37 1755.33 1507.82 1754.76 1508.42 1754.25 1509.17 1753.79 1509.92 1753.33 1510.61 1753.02 1511.24 1752.86 1511.87 1752.7 1512.54 1752.63 1513.24 1752.63Z" fill="#C00000" fill-rule="evenodd"/><text fill="#000000" fill-opacity="0" font-family="Arial,Arial_MSFontService,sans-serif" font-size="27.2852" x="1480.76" y="1776.5">ℋ</text><path d="M1524.71 1769.52C1523.73 1769.52 1522.95 1769.85 1522.38 1770.51 1521.81 1771.18 1521.4 1772.1 1521.16 1773.3 1520.93 1774.5 1520.81 1775.98 1520.81 1777.76 1520.81 1780.8 1521.12 1783.01 1521.75 1784.39 1522.38 1785.77 1523.38 1786.46 1524.74 1786.46 1526.03 1786.46 1526.98 1785.82 1527.6 1784.53 1528.22 1783.25 1528.53 1781.19 1528.53 1778.37 1528.53 1775.36 1528.22 1773.14 1527.6 1771.69 1526.98 1770.25 1526.02 1769.52 1524.71 1769.52ZM1524.74 1767.83C1526.1 1767.83 1527.25 1768.07 1528.17 1768.56 1529.1 1769.04 1529.85 1769.72 1530.42 1770.6 1531 1771.47 1531.4 1772.52 1531.65 1773.73 1531.89 1774.94 1532.01 1776.28 1532.01 1777.73 1532.01 1781.17 1531.36 1783.77 1530.07 1785.52 1528.77 1787.28 1526.91 1788.15 1524.48 1788.15 1522.09 1788.15 1520.3 1787.32 1519.11 1785.65 1517.92 1783.99 1517.33 1781.49 1517.33 1778.16 1517.33 1775.84 1517.65 1773.91 1518.28 1772.36 1518.91 1770.81 1519.78 1769.67 1520.89 1768.94 1522 1768.2 1523.28 1767.83 1524.74 1767.83Z" fill="#C00000" fill-rule="evenodd"/><text fill="#000000" fill-opacity="0" font-family="Arial,Arial_MSFontService,sans-serif" font-size="20.3188" x="1517.33" y="1785.61">0</text><path d="M1499.89 1228.95 1501.5 1228.95 1501.5 1245.93 1501.61 1245.95C1503 1244.54 1504.11 1243.55 1504.92 1242.98 1505.74 1242.42 1506.54 1242 1507.34 1241.71 1508.14 1241.42 1508.99 1241.28 1509.91 1241.28 1510.89 1241.28 1511.77 1241.4 1512.54 1241.63 1513.31 1241.86 1513.98 1242.21 1514.56 1242.69 1515.15 1243.16 1515.62 1243.75 1515.99 1244.43 1516.35 1245.12 1516.63 1245.95 1516.81 1246.91 1516.99 1247.86 1517.08 1249.08 1517.08 1250.54L1517.08 1260.67C1517.08 1262.23 1517.14 1263.29 1517.28 1263.85 1517.41 1264.42 1517.65 1264.85 1518 1265.17 1518.35 1265.48 1519.05 1265.78 1520.11 1266.07L1520.11 1267.38 1509.53 1267.38 1509.53 1266.07C1510.23 1265.85 1510.73 1265.66 1511.03 1265.5 1511.34 1265.34 1511.59 1265.12 1511.8 1264.83 1512 1264.54 1512.17 1264.1 1512.28 1263.5 1512.4 1262.9 1512.46 1261.99 1512.46 1260.78L1512.46 1253.74C1512.46 1251.36 1512.34 1249.54 1512.09 1248.28 1511.85 1247.01 1511.38 1246.07 1510.67 1245.44 1509.96 1244.82 1508.97 1244.5 1507.7 1244.5 1506.99 1244.5 1506.34 1244.63 1505.77 1244.88 1505.2 1245.13 1504.53 1245.58 1503.78 1246.22 1503.03 1246.87 1502.46 1247.53 1502.08 1248.21 1501.69 1248.89 1501.5 1249.61 1501.5 1250.38L1501.5 1260.67C1501.5 1261.89 1501.53 1262.75 1501.59 1263.27 1501.66 1263.79 1501.78 1264.23 1501.96 1264.58 1502.13 1264.93 1502.41 1265.21 1502.77 1265.44 1503.14 1265.66 1503.71 1265.87 1504.48 1266.07L1504.48 1267.38 1493.85 1267.38 1493.85 1266.07C1494.63 1265.85 1495.2 1265.65 1495.54 1265.45 1495.88 1265.25 1496.14 1265 1496.33 1264.7 1496.52 1264.39 1496.66 1263.95 1496.75 1263.38 1496.84 1262.81 1496.88 1261.9 1496.88 1260.67L1496.88 1238.19C1496.88 1236.47 1496.87 1235.27 1496.84 1234.59 1496.81 1233.91 1496.74 1233.33 1496.62 1232.86 1496.51 1232.39 1496.35 1232.01 1496.14 1231.75 1495.94 1231.48 1495.66 1231.26 1495.31 1231.1 1494.96 1230.94 1494.33 1230.78 1493.42 1230.62L1493.42 1229.22Z" fill="#C00000" fill-rule="evenodd"/><text fill="#000000" fill-opacity="0" font-family="Arial,Arial_MSFontService,sans-serif" font-size="38.4302" x="1493.42" y="1262.58">h</text><path d="M1533.64 1255.21C1532.73 1255.21 1531.97 1255.45 1531.36 1255.93 1530.75 1256.4 1530.26 1257.1 1529.9 1258.02 1529.55 1258.93 1529.29 1260.05 1529.14 1261.38 1528.99 1262.7 1528.92 1264.2 1528.92 1265.88 1528.92 1267.82 1529.01 1269.49 1529.2 1270.91 1529.39 1272.32 1529.68 1273.48 1530.08 1274.39 1530.48 1275.3 1530.97 1275.98 1531.57 1276.4 1532.17 1276.83 1532.89 1277.05 1533.72 1277.05 1534.5 1277.05 1535.19 1276.85 1535.77 1276.44 1536.36 1276.04 1536.84 1275.41 1537.23 1274.56 1537.61 1273.71 1537.9 1272.63 1538.1 1271.32 1538.29 1270.01 1538.39 1268.46 1538.39 1266.68 1538.39 1264.67 1538.28 1262.95 1538.07 1261.5 1537.85 1260.06 1537.55 1258.87 1537.16 1257.94 1536.77 1257.01 1536.28 1256.32 1535.68 1255.88 1535.09 1255.43 1534.41 1255.21 1533.64 1255.21ZM1533.72 1253.32C1535.27 1253.32 1536.6 1253.61 1537.7 1254.19 1538.8 1254.77 1539.69 1255.59 1540.39 1256.67 1541.09 1257.74 1541.6 1259.05 1541.92 1260.6 1542.25 1262.15 1542.41 1263.9 1542.41 1265.86 1542.41 1270.19 1541.64 1273.47 1540.11 1275.69 1538.57 1277.91 1536.35 1279.02 1533.43 1279.02 1530.54 1279.02 1528.39 1277.97 1526.98 1275.88 1525.58 1273.78 1524.87 1270.6 1524.87 1266.35 1524.87 1264.12 1525.09 1262.19 1525.53 1260.57 1525.96 1258.94 1526.58 1257.59 1527.36 1256.51 1528.15 1255.44 1529.09 1254.64 1530.17 1254.11 1531.25 1253.58 1532.43 1253.32 1533.72 1253.32Z" fill="#C00000" fill-rule="evenodd"/><text fill="#000000" fill-opacity="0" font-family="Arial,Arial_MSFontService,sans-serif" font-size="25.7031" x="1524.87" y="1275.81">0</text><path d="M1582.44 1235.75 1593.45 1235.75 1593.45 1239.48 1582.41 1239.48C1580.64 1239.48 1579.2 1239.58 1578.1 1239.78 1577 1239.97 1576.08 1240.29 1575.35 1240.73 1574.61 1241.17 1573.95 1241.79 1573.35 1242.6 1572.75 1243.4 1572.28 1244.39 1571.94 1245.56 1571.6 1246.74 1571.38 1248.06 1571.29 1249.55L1593.45 1249.55 1593.45 1253.28 1571.27 1253.28C1571.35 1254.95 1571.6 1256.43 1571.99 1257.71 1572.38 1259 1572.98 1260.1 1573.78 1261 1574.57 1261.91 1575.6 1262.58 1576.86 1263.01 1578.13 1263.43 1579.87 1263.65 1582.09 1263.65L1593.45 1263.65 1593.45 1267.38 1581.98 1267.38C1580.23 1267.38 1578.7 1267.28 1577.42 1267.06 1576.13 1266.85 1574.96 1266.5 1573.92 1266.01 1572.89 1265.53 1571.91 1264.8 1570.98 1263.82 1570.06 1262.85 1569.31 1261.77 1568.74 1260.59 1568.17 1259.41 1567.74 1258.07 1567.45 1256.59 1567.17 1255.1 1567.02 1253.49 1567.02 1251.75 1567.02 1248.92 1567.3 1246.58 1567.85 1244.73 1568.41 1242.88 1569.34 1241.23 1570.65 1239.79 1571.95 1238.35 1573.52 1237.31 1575.35 1236.69 1577.17 1236.06 1579.54 1235.75 1582.44 1235.75Z" fill="#C00000" fill-rule="evenodd"/><text fill="#000000" fill-opacity="0" font-family="Arial,Arial_MSFontService,sans-serif" font-size="31.6357" x="1567.02" y="1263.43">∈</text><path d="M1657.45 1230.3C1658.85 1230.3 1660.09 1230.67 1661.18 1231.42 1662.27 1232.18 1663.25 1233.34 1664.11 1234.91L1660.11 1236.63C1659.37 1235.15 1658.71 1234.11 1658.11 1233.53 1657.51 1232.95 1656.78 1232.66 1655.92 1232.66 1655.49 1232.66 1655.09 1232.72 1654.71 1232.85 1654.33 1232.97 1654.01 1233.18 1653.74 1233.46 1653.47 1233.75 1653.23 1234.11 1653.02 1234.55 1652.8 1234.99 1652.59 1235.61 1652.37 1236.4 1652.16 1237.2 1651.85 1238.56 1651.43 1240.47L1647.94 1256.59C1647.71 1257.68 1647.53 1258.7 1647.39 1259.65 1647.26 1260.6 1647.19 1261.36 1647.19 1261.93 1647.19 1262.79 1647.38 1263.45 1647.75 1263.9 1648.13 1264.36 1648.71 1264.59 1649.5 1264.59 1650.11 1264.59 1650.68 1264.42 1651.21 1264.09 1651.73 1263.76 1652.68 1262.88 1654.04 1261.45L1655.62 1262.92C1654.3 1264.41 1653.22 1265.45 1652.4 1266.05 1651.58 1266.65 1650.74 1267.1 1649.88 1267.38 1649.02 1267.67 1648.06 1267.81 1647 1267.81 1645.66 1267.81 1644.54 1267.32 1643.65 1266.32 1642.75 1265.33 1642.3 1264.03 1642.3 1262.41 1642.3 1261.82 1642.37 1261.02 1642.5 1260 1642.64 1258.98 1642.8 1258.05 1643 1257.2L1644.61 1249.74 1631.72 1249.74 1629.95 1257.98C1629.68 1259.24 1629.34 1260.37 1628.93 1261.38 1628.52 1262.39 1628 1263.3 1627.37 1264.09 1626.74 1264.89 1625.92 1265.6 1624.89 1266.23 1623.86 1266.85 1622.91 1267.28 1622.05 1267.49 1621.19 1267.7 1620.28 1267.81 1619.31 1267.81 1617.95 1267.81 1616.74 1267.43 1615.66 1266.67 1614.59 1265.91 1613.63 1264.75 1612.79 1263.19L1616.44 1261.1C1617.19 1262.58 1617.92 1263.68 1618.62 1264.39 1619.31 1265.1 1620.08 1265.45 1620.93 1265.45 1621.36 1265.45 1621.79 1265.36 1622.21 1265.19 1622.64 1265.02 1623.03 1264.69 1623.38 1264.19 1623.73 1263.69 1624.04 1262.98 1624.3 1262.07 1624.56 1261.15 1624.9 1259.68 1625.33 1257.63L1628.88 1240.53C1629.14 1239.22 1629.53 1237.97 1630.03 1236.77 1630.53 1235.57 1631.01 1234.7 1631.48 1234.16L1631.43 1233.89C1628.45 1233.89 1626.2 1234.03 1624.67 1234.3 1623.14 1234.57 1622.04 1235.02 1621.37 1235.67 1620.7 1236.31 1620.36 1237.24 1620.36 1238.46 1620.36 1239.37 1620.68 1240.48 1621.3 1241.79L1617.17 1243.4C1616.77 1242.76 1616.49 1242.15 1616.32 1241.59 1616.15 1241.02 1616.07 1240.4 1616.07 1239.72 1616.07 1239.09 1616.23 1238.44 1616.56 1237.75 1616.89 1237.06 1617.46 1236.32 1618.27 1235.53 1619.2 1234.62 1620.36 1233.74 1621.76 1232.9 1622.89 1232.22 1623.96 1231.73 1624.98 1231.44 1626 1231.14 1627.13 1230.94 1628.36 1230.83 1629.19 1230.76 1630.44 1230.72 1632.12 1230.72L1635.19 1230.72 1635.91 1232.31C1635.59 1233.01 1635.31 1233.79 1635.08 1234.66 1634.85 1235.53 1634.61 1236.48 1634.38 1237.52L1632.45 1246.6 1645.31 1246.6 1646.71 1240.23C1647.01 1238.87 1647.38 1237.69 1647.81 1236.69 1648.24 1235.68 1648.76 1234.79 1649.38 1234.01 1650 1233.24 1650.82 1232.53 1651.85 1231.89 1652.88 1231.26 1653.83 1230.83 1654.7 1230.62 1655.56 1230.4 1656.48 1230.3 1657.45 1230.3Z" fill="#C00000" fill-rule="evenodd"/><text fill="#000000" fill-opacity="0" font-family="Arial,Arial_MSFontService,sans-serif" font-size="37.5171" x="1612.79" y="1263.12">ℋ</text><path d="M1671.65 1255.21C1670.74 1255.21 1669.97 1255.45 1669.36 1255.93 1668.75 1256.4 1668.27 1257.1 1667.91 1258.02 1667.55 1258.93 1667.3 1260.05 1667.15 1261.38 1667 1262.7 1666.92 1264.2 1666.92 1265.88 1666.92 1267.82 1667.02 1269.49 1667.2 1270.91 1667.39 1272.32 1667.69 1273.48 1668.08 1274.39 1668.48 1275.3 1668.98 1275.98 1669.58 1276.4 1670.18 1276.83 1670.89 1277.05 1671.73 1277.05 1672.51 1277.05 1673.19 1276.85 1673.78 1276.44 1674.36 1276.04 1674.85 1275.41 1675.23 1274.56 1675.62 1273.71 1675.91 1272.63 1676.1 1271.32 1676.3 1270.01 1676.39 1268.46 1676.39 1266.68 1676.39 1264.67 1676.29 1262.95 1676.07 1261.5 1675.86 1260.06 1675.55 1258.87 1675.16 1257.94 1674.77 1257.01 1674.28 1256.32 1673.69 1255.88 1673.1 1255.43 1672.42 1255.21 1671.65 1255.21ZM1671.73 1253.32C1673.28 1253.32 1674.6 1253.61 1675.7 1254.19 1676.8 1254.77 1677.7 1255.59 1678.4 1256.67 1679.09 1257.74 1679.6 1259.05 1679.93 1260.6 1680.25 1262.15 1680.42 1263.9 1680.42 1265.86 1680.42 1270.19 1679.65 1273.47 1678.11 1275.69 1676.58 1277.91 1674.35 1279.02 1671.43 1279.02 1668.54 1279.02 1666.39 1277.97 1664.99 1275.88 1663.58 1273.78 1662.88 1270.6 1662.88 1266.35 1662.88 1264.12 1663.1 1262.19 1663.53 1260.57 1663.97 1258.94 1664.58 1257.59 1665.37 1256.51 1666.16 1255.44 1667.09 1254.64 1668.17 1254.11 1669.25 1253.58 1670.44 1253.32 1671.73 1253.32Z" fill="#C00000" fill-rule="evenodd"/><text fill="#000000" fill-opacity="0" font-family="Arial,Arial_MSFontService,sans-serif" font-size="25.7031" x="1662.88" y="1275.81">0</text></g></svg>